<?xml version="1.0" encoding="UTF-8" standalone="no"?>
<svg
   xmlns:dc="http://purl.org/dc/elements/1.1/"
   xmlns:cc="http://creativecommons.org/ns#"
   xmlns:rdf="http://www.w3.org/1999/02/22-rdf-syntax-ns#"
   xmlns:svg="http://www.w3.org/2000/svg"
   xmlns="http://www.w3.org/2000/svg"
   xmlns:sodipodi="http://sodipodi.sourceforge.net/DTD/sodipodi-0.dtd"
   xmlns:inkscape="http://www.inkscape.org/namespaces/inkscape"
   viewBox="0 0 480 160"
   version="1.1"
   id="svg1124"
   sodipodi:docname="logo-cfo-white.svg"
   inkscape:version="0.92.4 (5da689c313, 2019-01-14)">
  <metadata
     id="metadata1128">
    <rdf:RDF>
      <cc:Work
         rdf:about="">
        <dc:format>image/svg+xml</dc:format>
        <dc:type
           rdf:resource="http://purl.org/dc/dcmitype/StillImage" />
        <dc:title></dc:title>
      </cc:Work>
    </rdf:RDF>
  </metadata>
  <sodipodi:namedview
     pagecolor="#ffffff"
     bordercolor="#666666"
     borderopacity="1"
     objecttolerance="10"
     gridtolerance="10"
     guidetolerance="10"
     inkscape:pageopacity="0"
     inkscape:pageshadow="2"
     inkscape:window-width="2666"
     inkscape:window-height="1616"
     id="namedview1126"
     showgrid="false"
     inkscape:zoom="2.7333333"
     inkscape:cx="137.77823"
     inkscape:cy="78.682199"
     inkscape:window-x="0"
     inkscape:window-y="80"
     inkscape:window-maximized="1"
     inkscape:current-layer="logotype" />
  <defs
     id="defs1049">
    <style
       id="style1047">.cls-1{fill:#f2a640;}.cls-2{fill:#174f3a;}.cls-3{fill:#fff;}.cls-4{fill:#fdd37d;}</style>
  </defs>
  <g
     id="Layer_2"
     data-name="Layer 2">
    <g
       id="logo">
      <g
         id="logo-color-white">
        <g
           id="logotype">
          <path
             class="cls-1"
             d="M200.91,47.39c-9.68,0-16.91-7.16-16.91-16.67S191.23,14,200.91,14A15.8,15.8,0,0,1,217,27.55h-8.88a7.52,7.52,0,0,0-7.18-5.38c-4.51,0-7.81,3.62-7.81,8.55s3.3,8.47,7.81,8.47a7.31,7.31,0,0,0,7.19-5.83h9a15.87,15.87,0,0,1-16.17,14Z"
             id="path1051" />
          <path
             class="cls-1"
             d="M247,22V46.56h-6.53l-.72-1.73a11.62,11.62,0,0,1-7.41,2.56c-7.5,0-12.86-5.47-12.86-13.09s5.36-13,12.86-13a11.65,11.65,0,0,1,7.5,2.64l.87-1.9Zm-8,12.29a5.5,5.5,0,1,0-11,0,5.5,5.5,0,1,0,11,0Z"
             id="path1053" />
          <path
             class="cls-1"
             d="M252.3,13.2h8.45V46.59H252.3Z"
             id="path1055" />
          <path
             class="cls-1"
             d="M266.07,22.06h8.45V46.59h-8.45Zm.06-10.24h8.32V19h-8.32Z"
             id="path1057" />
          <path
             class="cls-1"
             d="M296.24,29.1h-5.5V46.59h-8.45V29.1h-4.06l0-6.64h4.18V20.11c0-4.92,2.7-7.79,7.9-7.79h5.9V18.8h-3.73a1.83,1.83,0,0,0-2,2v1.67h5.78Z"
             id="path1059" />
          <path
             class="cls-1"
             d="M297.58,34.32c0-7.6,5.75-13.07,13.75-13.07s13.76,5.47,13.76,13.07-5.79,13.07-13.76,13.07S297.58,41.9,297.58,34.32Zm13.75,5.48a5.16,5.16,0,0,0,5.29-5.48,5.29,5.29,0,1,0-10.58,0,5.16,5.16,0,0,0,5.29,5.48Z"
             id="path1061" />
          <path
             class="cls-1"
             d="M345,21.94v7.73h-3.28c-3,0-4.25,1.32-4.25,4.44V46.59H329V22.06h5.66L336,24.78a8.2,8.2,0,0,1,6.76-2.84Z"
             id="path1063" />
          <path
             class="cls-1"
             d="M372.42,31.63v15H364V32.8c0-2.86-1.08-4.27-3.2-4.27-2.64,0-4.15,1.84-4.15,5v13.1h-8.45V22.06h5.92l1.16,2.53A10.19,10.19,0,0,1,363,21.33C368.67,21.33,372.42,25.38,372.42,31.63Z"
             id="path1065" />
          <path
             class="cls-1"
             d="M377.47,22.06h8.45V46.59h-8.45Zm.06-10.24h8.32V19h-8.32Z"
             id="path1067" />
          <path
             class="cls-1"
             d="M417.35,22V46.56h-6.53l-.73-1.73a11.59,11.59,0,0,1-7.4,2.56c-7.5,0-12.86-5.47-12.86-13.09s5.36-13,12.86-13a11.67,11.67,0,0,1,7.5,2.64l.86-1.9Zm-8,12.29a5.49,5.49,0,1,0-11,0,5.49,5.49,0,1,0,11,0Z"
             id="path1069" />
          <path
             class="cls-2"
             d="M193.44,68.86v5.06h10.22v7.67H193.44V92.73H184.6V60.93h20.24v7.93Z"
             id="path1071"
             style="fill:#ffffff;fill-opacity:1" />
          <path
             class="cls-2"
             d="M207.11,80.46c0-7.6,5.76-13.07,13.76-13.07s13.75,5.47,13.75,13.07-5.78,13.07-13.75,13.07S207.11,88,207.11,80.46Zm13.76,5.48a5.48,5.48,0,1,0-5.3-5.48,5.16,5.16,0,0,0,5.3,5.48Z"
             id="path1073"
             style="fill:#ffffff;fill-opacity:1" />
          <path
             class="cls-2"
             d="M254.5,68.08v7.73h-3.28c-3,0-4.24,1.32-4.24,4.45V92.73h-8.45V68.2h5.66l1.31,2.72a8.21,8.21,0,0,1,6.76-2.84Z"
             id="path1075"
             style="fill:#ffffff;fill-opacity:1" />
          <path
             class="cls-2"
             d="M282.57,80.23a15.6,15.6,0,0,1-.18,2.24H264.18a4.77,4.77,0,0,0,5,4.27,4.93,4.93,0,0,0,4.43-2.3H282c-1.73,5.6-6.69,9.1-12.84,9.1-7.66,0-13.33-5.6-13.33-13.09s5.63-13.06,13.33-13.06c7.9,0,13.38,5.65,13.38,12.84Zm-18.24-2.44h9.91A4.92,4.92,0,0,0,269.19,74,4.74,4.74,0,0,0,264.33,77.79Z"
             id="path1077"
             style="fill:#ffffff;fill-opacity:1" />
          <path
             class="cls-2"
             d="M295.88,93.53c-6.69,0-10.75-3.53-10.83-8.84h8.13c0,1.79,1.25,2.62,2.86,2.62,1.23,0,2.4-.63,2.4-1.9s-1.85-1.82-4.21-2.21c-3.8-.62-8.85-1.76-8.85-7.71,0-4.92,4.19-8.1,10.48-8.1s10.29,3.33,10.39,8.3h-7.91c0-1.57-1.06-2.3-2.59-2.3-1.35,0-2.26.67-2.26,1.81,0,1.4,1.88,1.72,4.21,2.14,3.87.69,9,1.49,9,7.71,0,5.13-4.32,8.48-10.84,8.48Z"
             id="path1079"
             style="fill:#ffffff;fill-opacity:1" />
          <path
             class="cls-2"
             d="M327,85.33v7.4h-5.81c-5.43,0-8.72-3.32-8.72-8.77V74.71H308v-2L319,61h1.73V68.2h6.17v6.51h-5.95v7.8a2.6,2.6,0,0,0,2.84,2.82Z"
             id="path1081"
             style="fill:#ffffff;fill-opacity:1" />
          <path
             class="cls-2"
             d="M201.52,139.68c-10.22,0-17.52-7-17.52-16.71s7.3-16.7,17.52-16.7S219,113.23,219,123s-7.26,16.71-17.46,16.71Zm0-8.16a8.55,8.55,0,1,0-8.4-8.55,8.15,8.15,0,0,0,8.4,8.55Z"
             id="path1083"
             style="fill:#ffffff;fill-opacity:1" />
          <path
             class="cls-2"
             d="M237.36,113.57c7.56,0,12.89,5.43,12.89,13.05s-5.33,13.06-12.89,13.06a11.42,11.42,0,0,1-7.4-2.63l-.8,1.82h-6.25V105.48h8.36v9.78a11.5,11.5,0,0,1,6.09-1.69Zm4.36,13.05a5.49,5.49,0,1,0-5.49,5.57A5.39,5.39,0,0,0,241.72,126.62Z"
             id="path1085"
             style="fill:#ffffff;fill-opacity:1" />
          <path
             class="cls-2"
             d="M263.59,139.68c-6.69,0-10.75-3.54-10.83-8.85h8.14c0,1.79,1.24,2.62,2.85,2.62,1.23,0,2.4-.63,2.4-1.9,0-1.42-1.85-1.82-4.21-2.21-3.8-.62-8.85-1.76-8.85-7.71,0-4.92,4.19-8.1,10.48-8.1s10.3,3.33,10.39,8.3h-7.91c0-1.57-1.05-2.3-2.58-2.3-1.36,0-2.27.68-2.27,1.81,0,1.4,1.88,1.72,4.21,2.14,3.87.69,9,1.49,9,7.71,0,5.13-4.33,8.49-10.85,8.49Z"
             id="path1087"
             style="fill:#ffffff;fill-opacity:1" />
          <path
             class="cls-2"
             d="M303.67,126.37a15.6,15.6,0,0,1-.18,2.24H285.27c.56,2.81,2.34,4.27,5,4.27a4.92,4.92,0,0,0,4.44-2.3h8.41c-1.73,5.6-6.69,9.1-12.85,9.1-7.65,0-13.32-5.6-13.32-13.09s5.62-13,13.32-13c7.91,0,13.39,5.64,13.39,12.83Zm-18.25-2.44h9.92a4.93,4.93,0,0,0-5.06-3.77A4.75,4.75,0,0,0,285.42,123.93Z"
             id="path1089"
             style="fill:#ffffff;fill-opacity:1" />
          <path
             class="cls-2"
             d="M323.48,114.22V122H320.2c-3,0-4.24,1.32-4.24,4.45v12.47h-8.45V114.34h5.66l1.32,2.72a8.2,8.2,0,0,1,6.76-2.84Z"
             id="path1091"
             style="fill:#ffffff;fill-opacity:1" />
          <path
             class="cls-2"
             d="M353,114.34l-9.86,24.53h-7.66l-10-24.53h9.26l4.63,14.53L344,114.34Z"
             id="path1093"
             style="fill:#ffffff;fill-opacity:1" />
          <path
             class="cls-2"
             d="M379.47,114.31v24.54h-6.54l-.72-1.74a11.6,11.6,0,0,1-7.4,2.57c-7.5,0-12.87-5.48-12.87-13.1s5.37-13,12.87-13a11.62,11.62,0,0,1,7.49,2.64l.87-1.9Zm-8,12.29a5.49,5.49,0,1,0-5.49,5.59A5.39,5.39,0,0,0,371.43,126.6Z"
             id="path1095"
             style="fill:#ffffff;fill-opacity:1" />
          <path
             class="cls-2"
             d="M401.34,131.47v7.4h-5.82c-5.42,0-8.72-3.32-8.72-8.77v-9.25h-4.49v-2l11-11.7H395v7.17h6.16v6.51h-5.95v7.8a2.6,2.6,0,0,0,2.84,2.82Z"
             id="path1097"
             style="fill:#ffffff;fill-opacity:1" />
          <path
             class="cls-2"
             d="M403.63,126.6c0-7.6,5.75-13.06,13.75-13.06s13.76,5.46,13.76,13.06-5.79,13.08-13.76,13.08S403.63,134.18,403.63,126.6Zm13.75,5.48a5.48,5.48,0,1,0-5.29-5.47,5.16,5.16,0,0,0,5.29,5.47Z"
             id="path1099"
             style="fill:#ffffff;fill-opacity:1" />
          <path
             class="cls-2"
             d="M450,114.22V122h-3.28c-3,0-4.25,1.32-4.25,4.45v12.47H434V114.34h5.66l1.32,2.72a8.2,8.2,0,0,1,6.76-2.84Z"
             id="path1101"
             style="fill:#ffffff;fill-opacity:1" />
          <path
             class="cls-2"
             d="M480,114.34l-10.28,23.44C466.41,145.29,463.37,148,457,148h-2.9v-7.26h2.33c3.23,0,4.2-.84,5.35-3.9l-10.14-22.5h9.18l5.21,13.51,4.85-13.51Z"
             id="path1103"
             style="fill:#ffffff;fill-opacity:1" />
        </g>
        <g
           id="cfo-symbol-green-bg">
          <path
             class="cls-3"
             d="M135,50A25,25,0,0,1,116.12,8.62a80,80,0,1,0,35.26,35.26A24.9,24.9,0,0,1,135,50Z"
             id="path1106" />
          <g
             id="sunset">
            <path
               class="cls-4"
               d="M2.52,100v0h0Z"
               id="path1108" />
            <path
               class="cls-4"
               d="M157.48,100h0v0Z"
               id="path1110" />
            <path
               class="cls-4"
               d="M151.38,43.88A25,25,0,0,1,116.12,8.62,80,80,0,0,0,2.52,100a98,98,0,0,1,155,0,80.18,80.18,0,0,0-6.1-56.11Z"
               id="path1112" />
            <path
               class="cls-1"
               d="M80,62A97.82,97.82,0,0,0,2.52,100a80,80,0,0,0,27,42,98,98,0,0,1,101,0,80,80,0,0,0,27-42A97.82,97.82,0,0,0,80,62Z"
               id="path1114" />
          </g>
          <path
             class="cls-2"
             d="M74.17,159.77c1.93.13,3.87.23,5.83.23s4.14-.1,6.18-.26c-1.24-9.67-2-27.43-2-37.74v-1.89A82.26,82.26,0,0,1,98,122l-6-8a99.2,99.2,0,0,0,14,2,98.75,98.75,0,0,0,14,0,91,91,0,0,1-16-12q-2.13-2-4-4a71,71,0,0,0,14,2c2.11.09,4.11.08,6,0L98,80a34.54,34.54,0,0,0,14,4,31.38,31.38,0,0,0,4,0L96,64a31.4,31.4,0,0,0,14,4c.68,0,1.35,0,2,0q-9-10.3-18-22-3.09-4-6-8a13.23,13.23,0,0,0,8,4,12.13,12.13,0,0,0,2,0A128.79,128.79,0,0,1,85.83,26C83.6,22.55,81.67,19.19,80,16q-2.79,4.86-6.17,10A190.84,190.84,0,0,1,62,42a12.13,12.13,0,0,0,2,0,13.23,13.23,0,0,0,8-4q-2.91,4-6,8Q57,57.7,48,68c.65,0,1.32,0,2,0a31.4,31.4,0,0,0,14-4L44,84a31.38,31.38,0,0,0,4,0,34.54,34.54,0,0,0,14-4L38,102a76.14,76.14,0,0,0,8,0,78.14,78.14,0,0,0,14-2q-1.92,2-4,4a156.85,156.85,0,0,1-14,12,92.15,92.15,0,0,0,12,0,91.66,91.66,0,0,0,14-2l-6,8a82.31,82.31,0,0,1,14.17-1.9c0,.63,0,1.26,0,1.9C76.13,132.29,75.4,150.08,74.17,159.77ZM80,120h0Z"
             id="path1117" />
          <path
             id="satellite"
             class="cls-2"
             d="M152,24a16,16,0,0,0-27.86-10.71,80.91,80.91,0,0,1,9.17,7.09,4.56,4.56,0,0,0,6.31,6.31,80.91,80.91,0,0,1,7.09,9.17A16,16,0,0,0,152,24Z"
             style="fill:#ffffff;fill-opacity:1" />
        </g>
      </g>
    </g>
  </g>
</svg>
