<svg width="105" height="260" viewBox="0 0 105 260" fill="none" xmlns="http://www.w3.org/2000/svg">
<g clip-path="url(#clip0)">
<path d="M18.7831 15.9115H5.90576V165.044H18.7831" stroke="#F4A740" stroke-width="4.91627"/>
<g filter="url(#filter0_d)">
<path d="M23.5585 256.897C23.5242 256.795 23.0939 256.688 22.6024 256.658C22.1109 256.628 21.6581 256.523 21.5963 256.424C21.5344 256.326 21.2682 256.263 21.0047 256.285C20.3707 256.337 19.2801 256.112 19.2801 255.928C19.2801 255.732 18.5084 255.745 17.7449 255.954C17.019 256.154 15.2119 256.278 12.9286 256.285C11.7823 256.288 11.3096 256.348 11.3094 256.487C11.3092 256.704 10.0939 256.767 9.88473 256.561C9.68404 256.363 9.31703 256.419 9.31703 256.648C9.31703 256.901 6.77763 256.85 6.68788 256.595C6.60228 256.352 6.16745 256.409 5.87083 256.702C5.63622 256.934 5.58126 256.937 5.42368 256.724C5.32487 256.59 4.99393 256.427 4.68826 256.361C4.14528 256.243 4.13496 256.225 4.23964 255.578C4.29857 255.214 4.66182 254.444 5.04685 253.866C5.70627 252.876 5.77584 252.822 6.24507 252.926C6.51906 252.987 7.85763 253.082 9.21968 253.138L11.6961 253.24L11.8861 253.799C11.9961 254.122 12.2347 254.415 12.4526 254.495C12.841 254.637 14.2986 254.365 14.2986 254.151C14.2986 254.087 14.5133 254.066 14.7756 254.104C15.2504 254.173 15.253 254.168 15.3262 253.169C15.3953 252.226 15.4495 252.114 16.2119 251.35L17.0241 250.535L17.3489 251.396C17.652 252.198 18.4477 253.158 18.8104 253.158C18.8981 253.158 19.1206 253.078 19.3049 252.981C19.5638 252.844 19.7057 252.862 19.9297 253.063C20.0891 253.205 20.4599 253.322 20.7537 253.322C21.2713 253.322 21.2845 253.305 21.1818 252.764C21.1147 252.411 21.1673 252.004 21.325 251.657C21.462 251.355 21.6181 250.812 21.6718 250.452C21.917 248.804 22.0749 248.165 22.2509 248.107C22.3555 248.072 22.5464 247.94 22.6753 247.813C22.9761 247.516 23.0993 247.52 23.0993 247.827C23.0993 247.963 23.1653 248.073 23.246 248.073C23.6583 248.073 23.5579 249.384 23.0627 250.466C22.8264 250.982 22.9666 251.752 23.3085 251.816C23.5188 251.855 23.6283 251.734 23.6991 251.385C23.7998 250.887 24.3131 250.534 24.9337 250.534C25.112 250.534 25.258 250.462 25.258 250.375C25.258 250.287 25.3737 250.26 25.515 250.313C25.8274 250.432 26.2417 249.937 26.249 249.436C26.2521 249.239 26.329 249.031 26.4203 248.975C26.5117 248.92 26.5864 248.655 26.5864 248.387C26.5864 247.88 26.6483 247.834 27.5412 247.682C27.9937 247.604 28.0809 247.64 28.0809 247.902C28.0809 248.073 28.1784 248.311 28.2977 248.431C28.417 248.55 28.5641 248.777 28.6246 248.934C28.6851 249.092 28.844 249.221 28.9777 249.221C29.2365 249.221 29.3537 248.927 29.3858 248.196C29.3982 247.913 29.3205 247.745 29.1761 247.745C29.0499 247.745 28.9036 247.635 28.8511 247.499C28.7985 247.364 28.8331 247.253 28.9279 247.253C29.0227 247.253 29.0751 247.087 29.0443 246.884C28.9766 246.438 29.4734 245.948 30.0159 245.925C30.2302 245.916 30.6111 245.902 30.8622 245.894L31.3189 245.879L31.2598 247.14C31.2128 248.146 31.2484 248.401 31.436 248.401C31.5774 248.401 31.7522 248.091 31.8744 247.622C31.9861 247.194 32.2862 246.608 32.5412 246.32C32.9796 245.826 33.0407 245.807 33.6564 245.961C34.2737 246.117 34.3082 246.159 34.3159 246.771C34.3206 247.127 34.2732 247.417 34.2111 247.417C34.1209 247.417 33.7266 248.661 33.7266 248.945C33.7266 248.984 34.0366 249.064 34.4154 249.124C34.9927 249.215 35.1688 249.173 35.5039 248.862C35.8342 248.556 35.8835 248.543 35.7873 248.791C35.7154 248.976 35.7596 249.146 35.9026 249.235C36.2641 249.462 36.5182 249.412 36.6011 249.098C36.6734 248.825 36.6779 248.825 36.6963 249.098C36.7069 249.256 36.8276 249.385 36.9646 249.385C37.2654 249.385 37.2981 248.954 37.0061 248.838C36.892 248.792 37.04 248.749 37.3351 248.742C37.7635 248.732 37.8926 248.647 37.9757 248.32C38.0329 248.094 38.0391 247.805 37.9893 247.677C37.9396 247.549 38.0062 247.404 38.1375 247.354C38.4533 247.234 38.4449 246.761 38.127 246.761C37.8624 246.761 37.8193 246.611 37.9717 246.219C38.0275 246.075 38.1952 246.011 38.3868 246.06C38.6021 246.116 38.7082 246.06 38.7082 245.89C38.7082 245.751 38.5774 245.603 38.4176 245.562C38.1507 245.493 38.1517 245.486 38.4295 245.468C38.6388 245.455 38.7207 245.335 38.6954 245.08C38.6752 244.877 38.7012 244.6 38.7531 244.465C38.9507 243.949 39.0092 242.09 38.8378 241.774C38.7093 241.536 38.7127 241.429 38.8504 241.384C38.9548 241.35 39.0403 241.107 39.0403 240.844C39.0403 240.545 39.1639 240.291 39.3724 240.163C39.7188 239.949 39.8371 239.217 39.5252 239.217C39.4164 239.217 39.3849 239.039 39.445 238.766C39.658 237.795 39.6818 236.813 39.5086 236.133C39.3753 235.61 39.3772 235.374 39.516 235.237C39.767 234.989 39.7559 234.508 39.4969 234.405C39.3732 234.355 39.4071 234.317 39.5808 234.309C39.8412 234.297 39.8689 234.116 39.8407 232.606C39.8141 231.184 39.8646 230.801 40.1601 230.187C40.5198 229.439 40.8254 226.588 40.5458 226.588C40.4713 226.588 40.5426 226.311 40.7049 225.972C40.8669 225.634 41.0443 224.938 41.0992 224.426C41.1848 223.628 41.1576 223.485 40.9083 223.42C40.6896 223.364 40.7102 223.341 40.9914 223.326C41.3079 223.31 41.3658 223.213 41.3702 222.692C41.3733 222.354 41.4838 221.339 41.6161 220.437C41.7484 219.535 41.8581 218.395 41.8599 217.903C41.8615 217.412 41.9376 216.415 42.0286 215.689C42.1196 214.963 42.2707 213.077 42.3643 211.498C42.8785 202.832 42.8859 202.625 42.6858 202.386C42.5614 202.238 42.5275 201.896 42.5935 201.454C42.6509 201.07 42.7396 199.501 42.7908 197.967C42.9224 194.019 43.0257 192.371 43.2122 191.243C43.4925 189.546 43.5178 188.967 43.3773 187.46C43.2887 186.509 43.3009 185.879 43.4118 185.666C43.5087 185.48 43.6038 183.814 43.6309 181.828C43.7042 176.463 43.8789 174.932 44.469 174.481C44.6559 174.338 44.6959 174.136 44.6152 173.743C44.5541 173.445 44.4622 172.961 44.4109 172.668C44.3371 172.246 44.2371 172.135 43.9325 172.135C43.7207 172.135 43.4353 172.246 43.2983 172.381C43.1374 172.54 42.7265 172.627 42.1377 172.627C41.489 172.627 40.9803 172.749 40.3733 173.05C39.5867 173.44 39.4905 173.454 39.1345 173.223C38.7251 172.958 38.4524 171.971 38.7886 171.971C38.8926 171.971 39.1225 171.84 39.2995 171.681C39.4766 171.522 40.0556 171.199 40.5862 170.964C41.6557 170.49 42.6934 169.644 42.6934 169.246C42.6934 169.183 42.9932 168.747 43.3597 168.278C44.4048 166.94 44.587 166.212 44.4419 163.956C44.3745 162.907 44.33 161.623 44.3431 161.102C44.3604 160.413 44.3018 160.132 44.1274 160.066C43.8824 159.973 42.6271 160.526 42.4537 160.803C42.4008 160.888 42.1442 161.003 41.8837 161.06C41.6231 161.116 41.2652 161.288 41.0884 161.441C40.5918 161.872 40.074 162.13 39.7067 162.13C39.5228 162.13 39.3723 162.194 39.3723 162.271C39.3723 162.349 39.1982 162.38 38.9855 162.34C38.6972 162.285 38.5212 162.385 38.2951 162.731C38.1282 162.987 37.8913 163.255 37.7687 163.327C37.6461 163.4 37.5458 163.579 37.5458 163.726C37.5458 164.119 37.1682 165.082 37.0143 165.082C36.9413 165.082 36.8816 165.263 36.8816 165.483C36.8816 165.703 36.8126 165.925 36.7283 165.977C36.644 166.028 36.5229 166.305 36.4592 166.591C36.2741 167.423 35.6164 168.452 35.306 168.394C35.0134 168.34 34.0658 169.289 34.0613 169.64C34.0545 170.181 32.5526 171.807 32.0604 171.807C31.8808 171.807 31.6787 171.825 31.6111 171.848C31.3968 171.919 31.293 170.925 31.4613 170.413C31.5502 170.142 31.9468 169.544 32.3427 169.083C32.7385 168.622 33.0624 168.169 33.0624 168.075C33.0624 167.982 33.1745 167.863 33.3115 167.811C33.4571 167.756 33.5605 167.51 33.5605 167.22C33.5605 166.834 33.4869 166.723 33.2335 166.723C32.8013 166.723 31.562 167.367 31.4526 167.649C31.3406 167.937 29.9625 167.951 29.8655 167.666C29.613 166.922 30.4577 165.715 31.4019 165.47C31.6302 165.411 32.0063 165.232 32.2377 165.073C32.4691 164.913 32.9388 164.731 33.2815 164.667C34.3686 164.466 35.8853 162.724 35.8853 161.677C35.8853 161.18 35.9685 160.995 36.2589 160.846C36.956 160.488 38.6226 160.006 39.1754 160.002C39.4781 160 40.1341 159.813 40.6333 159.588C41.1325 159.362 41.6365 159.178 41.7533 159.178C41.8701 159.178 42.1107 159.07 42.288 158.937C42.4653 158.805 42.7354 158.694 42.8882 158.691C43.041 158.689 43.3881 158.501 43.6594 158.276C43.9307 158.05 44.2303 157.866 44.3252 157.866C44.6007 157.866 44.7327 157.217 44.5109 156.953C44.38 156.797 44.342 156.431 44.4037 155.917C44.4885 155.209 44.4578 155.1 44.1234 154.923C43.8098 154.758 43.6391 154.781 43.0887 155.064C42.2683 155.487 40.4787 155.7 40.133 155.417C39.9995 155.307 39.9348 155.094 39.9894 154.943C40.1159 154.591 41.3726 153.437 41.6286 153.437C42.0515 153.437 42.1535 153.01 42.0397 151.715C41.9762 150.994 41.9853 150.379 42.0598 150.348C42.3022 150.251 42.2086 149.501 41.9539 149.501C41.7002 149.501 41.087 150.593 41.2502 150.755C41.3023 150.806 41.2 151.002 41.0229 151.19C40.8457 151.377 40.7008 151.626 40.7008 151.742C40.7008 151.992 39.8572 152.453 39.4009 152.453C38.9019 152.453 38.6699 152.037 38.6466 151.101C38.6259 150.271 38.607 150.237 38.127 150.184C37.853 150.154 37.5038 150.019 37.3511 149.883C37.1984 149.748 36.779 149.598 36.4191 149.551C35.8053 149.469 35.7537 149.496 35.5847 149.974C35.3907 150.524 33.947 151.964 33.2439 152.309C32.8233 152.515 31.5686 153.745 31.5682 153.951C31.568 154.008 31.4185 154.094 31.2358 154.141C31.0532 154.188 30.9037 154.16 30.9037 154.078C30.9037 153.996 30.6235 153.928 30.281 153.927C29.5393 153.924 29.3269 153.807 29.1711 153.314C29.0899 153.057 29.1302 152.915 29.3032 152.849C29.5753 152.746 29.9074 151.951 29.9074 151.402C29.9074 151.212 30.0569 150.964 30.2395 150.851C30.4222 150.739 30.5716 150.499 30.5716 150.32C30.5716 150.14 30.6378 149.993 30.7187 149.993C30.9453 149.993 31.4019 148.934 31.4019 148.408C31.4019 148.079 31.2905 147.89 31.0283 147.777C30.7575 147.66 30.6408 147.452 30.6044 147.022C30.5624 146.525 30.6404 146.357 31.0842 145.988C31.3758 145.746 31.828 145.505 32.0893 145.454C32.3505 145.402 32.5642 145.258 32.5642 145.134C32.5642 144.916 32.7575 144.842 33.183 144.896C33.295 144.91 33.5566 144.815 33.7642 144.686C33.9718 144.557 34.3285 144.396 34.5569 144.33C34.9051 144.228 36.0997 143.424 36.3834 143.1C36.4291 143.048 36.7345 142.882 37.0621 142.732C37.3897 142.582 37.7997 142.272 37.9733 142.043C38.1468 141.815 38.3831 141.628 38.4985 141.628C38.6138 141.628 38.7081 141.56 38.7081 141.476C38.7081 141.186 39.2317 140.808 39.6333 140.808C39.9212 140.808 40.0365 140.718 40.0365 140.491C40.0365 140.12 39.4232 139.872 39.1564 140.136C39.056 140.235 38.7948 140.316 38.576 140.316C38.3572 140.316 37.9799 140.456 37.7375 140.626C37.0517 141.107 36.1066 141.448 35.7296 141.351C35.5412 141.302 35.3871 141.327 35.3871 141.406C35.3871 141.484 35.0491 141.522 34.6359 141.49C34.2227 141.457 33.7908 141.508 33.6761 141.602C33.1857 142.004 31.48 141.857 29.9411 141.28C29.7313 141.201 29.3491 141.136 29.0917 141.136C28.4741 141.136 27.7487 140.561 27.7487 140.07C27.7487 139.544 28.137 139.201 28.8749 139.077C30.4659 138.809 31.0907 138.454 31.5116 137.578C31.6547 137.28 31.8841 137.036 32.0213 137.036C32.1996 137.036 32.2418 136.931 32.169 136.667C32.113 136.464 32.0201 135.918 31.9627 135.454C31.8699 134.704 31.8977 134.589 32.2113 134.423C32.4054 134.32 32.5642 134.305 32.5642 134.388C32.5642 134.471 32.8257 134.588 33.1454 134.647C33.465 134.706 33.7266 134.817 33.7266 134.894C33.7266 135.197 34.5362 135.204 35.4982 134.908C36.0562 134.737 36.9693 134.545 37.5274 134.483C38.0855 134.421 38.5421 134.292 38.5421 134.196C38.5421 134.101 38.3817 133.854 38.1856 133.648L37.8291 133.273L38.2271 132.946C38.446 132.766 38.7071 132.616 38.8073 132.613C39.0591 132.606 39.7045 132.034 39.7045 131.819C39.7045 131.722 39.8352 131.545 39.9951 131.425C40.2994 131.198 40.6374 130.729 40.797 130.312C40.8487 130.176 40.9603 129.937 41.045 129.781C41.1297 129.624 41.1989 129.211 41.1989 128.863C41.1989 128.237 41.574 127.687 42.0008 127.687C42.1077 127.687 42.1952 127.584 42.1952 127.459C42.1952 127.333 42.3073 127.188 42.4443 127.136C42.5813 127.084 42.6934 126.929 42.6934 126.79C42.6934 126.652 42.7516 126.539 42.8228 126.539C43.0506 126.539 44.1879 125.362 44.1879 125.126C44.1879 125.001 44.0384 124.751 43.8558 124.571C43.4622 124.182 42.3613 124.109 42.3613 124.471C42.3613 124.597 42.2492 124.742 42.1122 124.794C41.9752 124.846 41.8631 125.002 41.8631 125.14C41.8631 125.278 41.8071 125.391 41.7386 125.392C41.6701 125.392 41.4646 125.613 41.282 125.883C41.0993 126.153 40.8565 126.374 40.7423 126.375C40.6281 126.375 40.5347 126.486 40.5347 126.621C40.5347 126.757 40.4787 126.869 40.4102 126.872C40.3417 126.874 39.7789 127.013 39.1596 127.181C38.3626 127.395 37.9138 127.622 37.6238 127.955C37.3985 128.214 37.214 128.333 37.2139 128.22C37.2138 128.108 37.1016 128.015 36.9646 128.015C36.8276 128.015 36.7155 127.905 36.7155 127.769C36.7155 127.283 36.0938 127.514 35.8093 128.106C35.6554 128.426 35.3666 128.753 35.1677 128.831C34.9687 128.909 34.5941 129.201 34.3352 129.479C34.0763 129.756 33.7299 129.983 33.5655 129.983C33.401 129.983 33.0524 130.094 32.7908 130.229C32.5292 130.363 32.1911 130.474 32.0393 130.475C31.8876 130.475 31.5689 130.715 31.3311 131.009C31.0933 131.302 30.8222 131.634 30.7286 131.747C30.5521 131.959 29.4665 132.026 29.0077 131.852C28.8541 131.794 28.7451 131.56 28.7451 131.29C28.7451 130.787 28.4358 130.393 27.9138 130.229C27.7317 130.172 27.5827 130.057 27.5827 129.973C27.5827 129.889 27.0783 129.828 26.4619 129.836C24.3907 129.865 23.7635 129.562 23.7635 128.531C23.7635 128.149 23.1617 127.522 22.8022 127.529C22.646 127.532 21.9988 127.6 21.364 127.681C19.8922 127.868 19.5581 127.726 19.8082 127.017C20.1207 126.131 20.635 125.779 21.8826 125.596C22.5082 125.505 23.3555 125.281 23.7654 125.1C24.1753 124.919 24.8677 124.679 25.304 124.566C25.7403 124.454 26.1513 124.271 26.2173 124.159C26.339 123.953 26.6478 123.889 28.9539 123.588L30.2422 123.421L30.6975 123.92C30.9916 124.242 31.3754 124.453 31.7815 124.517C32.4432 124.621 32.4763 124.602 33.5705 123.51C33.9506 123.13 34.2513 123.003 34.9304 122.935C35.6674 122.862 35.8102 122.794 35.8539 122.491C35.9028 122.152 35.858 122.137 35.0199 122.223C34.0754 122.319 34.1514 122.364 33.3403 121.23C33.1468 120.96 33.0279 120.943 32.3274 121.091C31.8909 121.183 31.3281 121.2 31.0767 121.129C30.8253 121.058 30.0003 121.061 29.2436 121.136C27.5933 121.301 27.06 121.215 26.577 120.707C25.8011 119.891 26.6259 119.551 29.7866 119.384C31.3924 119.299 31.9 119.22 31.9 119.052C31.9 118.93 32.0532 118.831 32.2404 118.831C32.7262 118.831 33.5606 118.371 33.5606 118.104C33.5606 117.953 33.6795 117.908 33.9144 117.969C34.1696 118.035 34.3893 117.924 34.7031 117.57C34.9423 117.301 35.3622 117.027 35.6362 116.961C36.107 116.847 37.8779 115.229 37.8779 114.913C37.8779 114.833 38.1247 114.652 38.4263 114.511C38.728 114.369 39.1132 114.102 39.2823 113.918C39.4515 113.733 39.6636 113.582 39.7536 113.582C39.8437 113.582 40.2512 113.243 40.6591 112.828C41.2043 112.274 41.4239 111.905 41.4878 111.434C41.5698 110.83 41.55 110.794 41.1378 110.794C40.8974 110.794 40.7008 110.868 40.7008 110.958C40.7008 111.048 40.6074 111.123 40.4932 111.124C40.3791 111.125 40.165 111.409 40.0175 111.756C39.823 112.214 39.6176 112.42 39.2703 112.505C39.0068 112.57 38.567 112.722 38.293 112.843C37.7098 113.1 36.7155 113.249 36.7155 113.08C36.7155 113.015 36.4478 112.913 36.1205 112.852C35.6912 112.773 35.5514 112.675 35.6186 112.502C35.6699 112.37 35.6659 111.932 35.61 111.528C35.5318 110.965 35.4378 110.794 35.2063 110.794C34.8612 110.794 34.0939 111.095 33.7266 111.375C33.4205 111.609 31.8651 112.107 31.4537 112.104C30.9393 112.099 29.8585 111.666 29.6459 111.379C29.4784 111.153 29.1707 111.11 27.8763 111.134C27.0146 111.15 26.1663 111.088 25.9913 110.997C25.8163 110.906 25.3369 110.781 24.9259 110.719C23.6681 110.529 23.6576 110.521 23.7323 109.89C23.7844 109.449 23.8926 109.292 24.197 109.217C24.4152 109.163 24.5938 109.052 24.5938 108.972C24.5938 108.892 24.8117 108.826 25.0781 108.826C25.3445 108.826 25.6001 108.734 25.6462 108.621C25.7132 108.457 25.7326 108.457 25.743 108.621C25.7652 108.967 26.2561 108.848 26.4152 108.457C26.4978 108.254 26.5701 108.18 26.5759 108.293C26.5895 108.558 26.8267 108.552 27.4746 108.271C29.0664 107.581 29.0548 107.582 29.5496 108.167L30.0033 108.704L31.3027 108.273C32.0173 108.036 32.8116 107.842 33.0677 107.842C34.2038 107.842 34.4402 107.288 33.376 107.12C33.0005 107.06 32.6082 107.074 32.5042 107.149C32.216 107.358 30.8761 107.242 30.7171 106.994C30.6399 106.874 30.5756 106.609 30.5742 106.407C30.5721 106.099 30.4813 106.038 30.032 106.041C29.7352 106.043 29.313 106.181 29.0938 106.347C28.6905 106.654 28.303 106.648 27.6242 106.324C27.322 106.18 27.2506 106.01 27.2506 105.436C27.2506 105.045 27.3253 104.725 27.4167 104.725C27.508 104.725 27.5827 104.615 27.5827 104.479C27.5827 104.221 27.1523 104.133 27.0569 104.372C27.0264 104.448 26.8055 104.558 26.566 104.616C26.2265 104.698 25.9632 104.595 25.3721 104.149C24.955 103.835 24.4655 103.577 24.2844 103.577C24.1033 103.577 23.7331 103.393 23.4617 103.167C23.1904 102.942 22.8957 102.757 22.8068 102.757C22.624 102.757 21.7709 101.543 21.7709 101.282C21.7709 101.189 21.8573 100.948 21.9628 100.746C22.0683 100.544 22.2066 100.268 22.2702 100.133C22.4125 99.83 23.4628 99.7222 23.9197 99.9638C24.1743 100.098 24.4684 100.074 25.1306 99.8628C25.6117 99.7096 26.0426 99.5358 26.0883 99.4767C26.1339 99.4176 26.4256 99.2459 26.7365 99.0951C27.3361 98.8041 29.5753 98.7011 29.5753 98.9644C29.5753 99.1782 30.5644 99.3332 30.8657 99.1667C31.0396 99.0706 31.3136 99.1257 31.6846 99.3316C32.3131 99.6802 33.2297 99.7382 33.5235 99.4479C33.631 99.3417 34.2019 99.2495 34.7921 99.2429L35.8652 99.2309L35.8156 98.3468C35.7794 97.7036 35.8388 97.3899 36.0332 97.196C36.1801 97.0493 36.4321 96.7287 36.5931 96.4836C36.7541 96.2384 37.0903 95.9936 37.3403 95.9395C37.5903 95.8854 38.1311 95.6706 38.5421 95.4621C38.9531 95.2536 39.5882 95.0342 39.9535 94.9745C40.5673 94.8742 40.6482 94.797 41.0185 93.9584C41.354 93.1987 41.381 93.0269 41.1845 92.9041C41.0555 92.8234 40.8938 92.7562 40.8253 92.7549C40.7568 92.7534 40.7008 92.6416 40.7008 92.5063C40.7008 92.147 39.9216 92.1968 39.4177 92.5883C38.812 93.0589 38.2743 93.0119 38.0103 92.4653C37.7503 91.927 36.9447 91.7431 36.7738 92.183C36.7155 92.333 36.4731 92.6603 36.235 92.9105C35.8843 93.2791 35.6088 93.3841 34.7814 93.4646C33.7973 93.5603 33.7567 93.5492 33.6573 93.1581C33.5593 92.7724 33.0624 92.5704 33.0624 92.9164C33.0624 93.0066 32.9594 93.0804 32.8336 93.0804C32.7077 93.0804 32.4924 93.2464 32.3552 93.4494C32.1103 93.8115 32.0991 93.8126 31.7597 93.5113C31.5695 93.3424 31.2883 92.8795 31.1348 92.4827C30.881 91.8262 30.8088 91.7643 30.3338 91.7959C29.6427 91.8419 29.4425 91.6977 29.3197 91.0655C29.2633 90.7755 28.9683 90.2474 28.6641 89.8921C28.1114 89.2463 28.1107 89.2461 27.3488 89.4183C26.689 89.5674 26.5829 89.555 26.5606 89.3263C26.5083 88.7918 26.5927 88.2199 26.858 87.3112C27.2472 85.9775 27.1614 85.8638 25.7669 85.8638C24.6581 85.8638 24.5779 85.8372 24.0181 85.2843C23.5385 84.8105 23.4314 84.5828 23.4314 84.0362V83.3677L24.0541 83.4798C25.7534 83.7859 26.8934 83.7618 27.9313 83.3978C28.775 83.1019 29.3538 83.0337 31.1746 83.0156C33.5354 82.9921 33.5606 83.0007 33.5606 83.827C33.5606 84.3063 33.948 84.3532 34.261 83.9119C34.3826 83.7404 34.6594 83.5743 34.8761 83.5428C35.0929 83.5113 35.3525 83.342 35.4532 83.1665C35.5539 82.991 35.767 82.7003 35.9268 82.5205C36.0866 82.3407 36.2174 82.0963 36.2174 81.9774C36.2174 81.5795 37.2343 80.8658 38.8742 80.1129C39.1025 80.0081 39.4877 79.8199 39.7301 79.6948C39.9725 79.5696 40.3671 79.4672 40.6071 79.4672C40.847 79.4672 41.0863 79.3565 41.1389 79.2212C41.1915 79.0859 41.3306 78.9752 41.448 78.9752C41.5655 78.9752 41.7046 78.8645 41.7571 78.7292C41.8097 78.5939 42.0365 78.4832 42.2612 78.4832C42.4859 78.4832 42.7718 78.3823 42.8966 78.259C43.0214 78.1357 43.3817 77.9934 43.6972 77.9428C44.9755 77.7378 45.7257 77.5256 45.9236 77.3132C46.5632 76.6263 46.9506 74.3828 46.4296 74.3828C46.2926 74.3828 46.1805 74.4886 46.1805 74.6178C46.1805 74.747 46.0124 74.9034 45.8069 74.9652C45.6014 75.0271 45.3212 75.1734 45.1842 75.2904C45.0472 75.4074 44.6362 75.557 44.2709 75.6227C43.9056 75.6885 43.5553 75.8208 43.4925 75.9168C43.4296 76.0128 43.1214 76.0743 42.8075 76.0534C42.4937 76.0326 42.0242 76.0953 41.7643 76.1929C41.3948 76.3317 41.2546 76.3209 41.1208 76.1434C40.9459 75.9112 39.9995 75.5309 39.5967 75.5309C39.46 75.5309 39.3724 75.7162 39.3724 76.005C39.3724 76.4218 39.3043 76.4869 38.8093 76.544C38.0187 76.6352 37.8779 76.5544 37.8779 76.0093C37.8779 75.5731 37.8273 75.5309 37.3045 75.5309C36.9892 75.5309 36.5402 75.6168 36.3068 75.7219C35.9936 75.8629 35.785 75.8653 35.5103 75.7313C35.3055 75.6315 34.412 75.5238 33.5245 75.492C32.1366 75.4422 31.8565 75.3836 31.5212 75.0725C31.3068 74.8736 30.977 74.7108 30.7882 74.7108C30.1348 74.7108 29.245 73.1277 29.7315 72.8307C29.8174 72.7783 30.3591 72.7327 30.9354 72.7294C31.5116 72.7265 32.3567 72.625 32.8133 72.5047C33.27 72.3844 34.0824 72.2394 34.6188 72.1825C35.4282 72.0966 35.6294 72.1269 35.8025 72.3607C35.9908 72.615 36.0818 72.6205 36.7369 72.4167C37.1362 72.2925 37.5296 72.2079 37.6112 72.2286C37.9607 72.3174 38.7855 72.0223 39.1071 71.6933C39.6951 71.0919 41.2538 70.6989 42.9049 70.7358C44.4065 70.7693 46.0135 70.4706 46.4039 70.0854C46.5227 69.9683 46.8947 69.6562 47.2305 69.3919C48.0197 68.7707 48.0051 68.3718 47.168 67.6852C46.5802 67.203 46.4444 67.1576 46.0241 67.3023C45.4812 67.4892 44.4229 67.3087 44.095 66.9732C43.8199 66.6917 43.7707 66.2476 43.9302 65.485C44.024 65.0362 44.1436 64.87 44.3724 64.87C44.5449 64.87 44.686 64.7593 44.686 64.624C44.686 64.4887 44.6113 64.3779 44.52 64.3779C44.4286 64.3779 44.3539 64.2672 44.3539 64.1319C44.3539 63.9966 44.2739 63.8859 44.176 63.8859C43.9811 63.8859 43.5237 64.2901 43.5237 64.4624C43.5237 64.6659 42.4543 65.6901 42.2417 65.6901C42.1248 65.6901 42.0292 65.7553 42.0292 65.835C42.0292 65.9148 41.5471 66.2168 40.9579 66.5062C40.3687 66.7956 39.6775 67.21 39.4219 67.4271C39.1663 67.6442 38.9199 67.8266 38.8742 67.8325C38.8285 67.8383 38.567 67.8681 38.293 67.8987C38.019 67.9292 37.496 68.0846 37.1307 68.2439C36.4713 68.5316 35.6226 68.5658 35.3041 68.3176C35.2128 68.2464 34.8765 68.134 34.5569 68.0679C34.2372 68.0018 33.901 67.901 33.8096 67.8439C33.7183 67.7869 33.3447 67.7295 32.9794 67.7164C31.3506 67.6578 30.1645 67.478 29.9107 67.2511C29.7028 67.0653 29.6587 66.835 29.73 66.3081C29.823 65.6211 29.8362 65.6089 30.6404 65.4639C31.2032 65.3624 31.5502 65.3746 31.759 65.5034C32.3592 65.8736 33.2109 65.7289 33.7976 65.157C34.8303 64.1505 35.2521 63.9977 36.1759 64.2957C36.4596 64.3872 36.5495 64.3524 36.5495 64.1511C36.5495 64.0052 36.6634 63.8859 36.8027 63.8859C36.9419 63.8859 37.1261 63.7035 37.2119 63.4805C37.3692 63.0719 38.0413 62.7795 38.3666 62.9781C38.4631 63.037 38.5421 63.3392 38.5421 63.6496C38.5421 64.2968 38.8505 64.3856 39.6495 63.9686C39.9081 63.8336 40.399 63.6163 40.7404 63.4857C41.2927 63.2744 41.4393 63.0833 42.0688 61.7543L42.7764 60.2604L43.4406 60.3587C43.8059 60.4128 44.1297 60.5274 44.1602 60.6133C44.2557 60.8831 44.826 60.7834 44.9079 60.4826C44.9508 60.3248 44.9929 59.8778 45.0012 59.4893C45.0096 59.1008 45.0916 58.6444 45.1833 58.475C45.2751 58.3056 45.3502 57.9407 45.3502 57.6642C45.3502 57.3876 45.425 57.1614 45.5163 57.1614C45.6076 57.1614 45.6823 57.0194 45.6823 56.8459C45.6823 56.5698 45.5668 56.5332 44.7548 56.5519C43.9572 56.5704 43.7726 56.6376 43.4371 57.0314C43.1945 57.3162 42.8839 57.4894 42.6158 57.4894C41.9454 57.4894 41.1707 57.8849 40.5347 58.5518C40.2151 58.887 39.8041 59.2289 39.6214 59.3115C39.4388 59.394 39.0652 59.593 38.7912 59.7536C38.4679 59.9431 37.9885 60.0392 37.4253 60.0273C36.3543 60.0046 35.8853 59.575 35.8853 58.6166C35.8853 58.0995 35.9652 57.9485 36.3419 57.7535C36.5931 57.6236 36.9743 57.3534 37.1891 57.1533C37.549 56.818 37.5707 56.7059 37.4649 55.7302C37.4017 55.1476 37.2531 54.4379 37.1347 54.153C36.8887 53.5615 37.0056 53.1291 37.5398 52.6544C37.8814 52.3509 37.9156 52.3482 38.0658 52.6134C38.2569 52.9507 38.7082 52.9922 38.7082 52.6724C38.7082 52.5414 38.9588 52.4077 39.3099 52.3514C40.1265 52.2205 40.5347 51.8199 40.5347 51.1494C40.5347 50.6478 40.4916 50.6008 40.0307 50.6008C39.7535 50.6008 39.3427 50.4817 39.1178 50.3361C38.8881 50.1875 38.5017 50.1014 38.2364 50.1399C37.8439 50.1968 37.7282 50.1283 37.5517 49.7345C37.3906 49.3751 37.3843 49.1632 37.5256 48.8569C37.628 48.6349 37.7119 48.1522 37.7119 47.7843C37.7119 47.0681 37.7525 47.0849 36.6221 47.3344C36.3132 47.4025 35.055 47.1112 35.055 46.9715C35.055 46.8929 34.7748 46.8281 34.4323 46.8276C33.6189 46.8266 32.6408 46.5526 32.3208 46.2365C31.9885 45.9083 31.9955 45.2347 32.3347 44.8996C32.5574 44.6796 33.0605 44.6298 35.2821 44.6078C36.7913 44.5928 38.1238 44.6536 38.3339 44.7468C38.6172 44.8726 38.7769 44.8504 38.9981 44.6545C39.452 44.2526 40.6824 44.2252 40.9677 44.6106C41.0957 44.7836 41.1606 45.0494 41.1118 45.2013C41.0603 45.3615 41.1297 45.518 41.277 45.5738C41.4167 45.6268 41.531 45.6039 41.531 45.523C41.531 45.2588 42.0452 44.8603 42.3859 44.8603C42.5691 44.8603 42.9431 44.6389 43.2171 44.3683C43.5753 44.0145 43.8739 43.8763 44.2798 43.8763C44.6988 43.8763 44.9146 43.7705 45.1164 43.4662C45.266 43.2407 45.4919 43.0562 45.6184 43.0562C45.9267 43.0562 45.9081 42.8067 45.5607 42.2829C45.4025 42.0444 45.2955 41.6595 45.323 41.4276C45.3883 40.8779 45.7259 40.1039 45.9005 40.1039C46.1955 40.1039 45.9166 39.3665 45.5993 39.3076C45.4167 39.2736 45.2187 39.1699 45.1594 39.077C45.0999 38.9837 44.9139 38.9621 44.7443 39.0287C44.5753 39.0951 44.052 39.1779 43.5814 39.2127C42.4713 39.295 42.3994 39.0971 43.0632 37.785C43.7388 36.4497 44.6959 35.3575 46.8425 33.4724C47.5009 32.8942 47.5885 32.7313 47.6878 31.8997C47.7968 30.9859 47.9474 30.7138 48.8837 29.7386C49.1375 29.4742 49.3308 29.1704 49.3133 29.0635C49.2497 28.6756 49.5623 27.8799 49.8605 27.6706C50.0284 27.5527 50.1657 27.3959 50.1657 27.3222C50.1657 27.2484 50.4273 26.906 50.7469 26.5613C51.0666 26.2167 51.3281 25.8445 51.3281 25.7343C51.3281 25.6242 51.4156 25.5052 51.5225 25.47C51.6677 25.4222 51.672 25.2313 51.5395 24.7158C51.387 24.1225 51.4024 23.9972 51.649 23.8231C51.8067 23.7117 52.0791 23.4027 52.2542 23.1364C52.4293 22.8701 52.7409 22.486 52.9466 22.2828C53.1524 22.0796 53.3335 21.7439 53.3491 21.5368C53.3648 21.3297 53.3942 21.0496 53.4145 20.9143C53.4348 20.779 53.4594 20.542 53.4691 20.3877C53.4788 20.2333 53.6522 19.9548 53.8543 19.7688C54.1558 19.4914 54.2285 19.2274 54.2587 18.2997C54.279 17.6778 54.3723 16.8861 54.4661 16.5404C54.5599 16.1947 54.6808 15.565 54.7348 15.1411C54.844 14.2845 55.0475 14.1452 56.1679 14.1605C57.0101 14.1719 57.0657 14.2171 57.5804 15.3063C57.823 15.8198 58.1594 16.4358 58.3279 16.6753C58.4965 16.9147 58.6344 17.3133 58.6344 17.561C58.6344 17.8087 58.8151 18.3878 59.036 18.8478C59.2602 19.3146 59.4851 20.164 59.5451 20.7699C59.6386 21.7158 59.7055 21.8794 60.0645 22.041C60.2911 22.143 60.5837 22.2264 60.7147 22.2264C60.9741 22.2264 61.1892 22.8426 61.0963 23.3193C61.0606 23.5026 60.8465 23.6508 60.5419 23.7029C60.2691 23.7496 60.0645 23.8424 60.0873 23.9092C60.1101 23.9759 60.1288 24.8424 60.1288 25.8347V27.6389L60.5855 27.6414C61.2171 27.6449 61.3947 27.793 61.5843 28.4744C61.7684 29.1361 62.2528 29.7711 62.5735 29.7711C62.6902 29.7711 62.7857 29.8415 62.7857 29.9277C62.7857 30.0138 63.0472 30.1327 63.3668 30.1919C63.6865 30.2512 63.948 30.3536 63.948 30.4196C63.948 30.4855 64.2046 30.676 64.5182 30.8428C65.3995 31.3116 65.5126 32.1361 64.8613 33.3446C64.633 33.7682 64.4457 34.263 64.4452 34.4442C64.4447 34.6306 64.7863 35.0758 65.2328 35.4705C65.7581 35.9349 65.9265 36.1676 65.737 36.1676C65.5806 36.1676 65.1813 36.3181 64.8497 36.5021C64.4689 36.7133 64.1765 36.782 64.0559 36.6885C63.9509 36.6071 63.1364 36.4954 62.246 36.4404C60.9075 36.3577 60.627 36.3809 60.627 36.5743C60.627 36.9812 61.0035 37.6437 61.2348 37.6437C61.3572 37.6437 61.4573 37.7175 61.4573 37.8077C61.4573 37.898 61.5693 37.9718 61.7063 37.9718C61.8433 37.9718 61.9554 38.0456 61.9554 38.1358C61.9554 38.226 62.0381 38.2998 62.1391 38.2998C62.2401 38.2998 62.4697 38.4843 62.6493 38.7098C62.8289 38.9353 63.0771 39.1199 63.201 39.1199C63.3248 39.1199 63.5249 39.2162 63.6456 39.334C63.7663 39.4519 63.9958 39.5972 64.1556 39.6569C64.3154 39.7167 64.4462 39.9095 64.4462 40.0854C64.4462 40.6459 64.6371 40.924 65.0221 40.924C65.3314 40.924 65.3827 40.9949 65.3175 41.332C65.264 41.6081 65.3252 41.7728 65.5066 41.8416C65.654 41.8975 65.7746 42.1169 65.7746 42.3293C65.7746 42.7478 66.2546 43.2738 66.9785 43.6484C67.2296 43.7783 67.4351 43.9935 67.4351 44.1265C67.4351 44.2595 67.5534 44.3683 67.698 44.3683C67.8426 44.3683 68.2149 44.6266 68.5254 44.9423C68.8358 45.2581 69.1658 45.5164 69.2587 45.5164C69.3517 45.5164 69.4289 45.6825 69.4304 45.8854C69.4342 46.3653 70.1946 47.1961 70.884 47.473C71.1827 47.593 71.5537 47.9029 71.7085 48.1619C71.8634 48.4208 72.0773 48.6327 72.1839 48.6327C72.2906 48.6327 72.5733 49.0406 72.8123 49.5392C73.287 50.5293 73.3961 51.9518 73.0334 52.4221C72.6725 52.8902 72.1371 52.9489 71.7466 52.5632C71.3595 52.1808 70.5901 52.2266 70.5901 52.632C70.5901 52.9904 69.9268 53.7171 69.5997 53.7171C69.1688 53.7171 69.05 54.3894 69.3541 55.1081C69.5612 55.5977 69.5736 55.8226 69.4191 56.2851C69.3141 56.5995 69.2614 57.1282 69.3022 57.4601C69.3742 58.0468 69.1687 58.7784 68.8737 58.986C68.7026 59.1064 68.8875 59.7856 69.0913 59.7856C69.1679 59.7856 69.1915 59.9332 69.1437 60.1136C69.0688 60.3968 69.1385 60.4416 69.6543 60.4416C70.1703 60.4416 70.2657 60.3802 70.3545 59.9906C70.7577 58.2225 70.8344 58.0807 71.4203 58.0216C72.6831 57.8943 72.8957 57.9604 73.6482 58.7143C74.2007 59.2679 74.5171 59.4576 74.888 59.4576C75.1619 59.4576 75.4322 59.3838 75.4886 59.2935C75.6021 59.1122 76.3929 59.0735 76.8034 59.2291C76.9479 59.2838 77.0661 59.4315 77.0661 59.5571C77.0661 59.6828 77.1444 59.7856 77.2401 59.7856C77.3358 59.7856 77.5973 59.9809 77.8213 60.2196C78.2769 60.7052 78.3714 61.4257 77.9794 61.4257C77.8424 61.4257 77.7303 61.5303 77.7303 61.6581C77.7303 61.7859 77.6369 61.9222 77.5227 61.961C77.1837 62.0763 76.4019 61.741 76.4019 61.4803C76.4019 61.146 75.6731 61.2657 75.6066 61.6108C75.5782 61.7578 75.6709 61.9923 75.8124 62.1322C75.954 62.272 76.0698 62.4655 76.0698 62.5621C76.0698 62.6588 76.2308 62.7378 76.4276 62.7378C76.7749 62.7378 76.7766 62.7475 76.4849 63.0659C76.1706 63.4089 75.3332 63.5123 75.1565 63.2299C75.1001 63.1397 74.8012 63.0659 74.4923 63.0659C74.1834 63.0659 73.8784 62.9822 73.8144 62.88C73.6652 62.6415 71.0395 62.8002 70.9543 63.0529C70.8822 63.2662 70.4741 63.2889 70.3964 63.0838C70.3659 63.0035 69.8179 62.9112 69.1786 62.8788L68.0163 62.8198L67.9627 63.4694C67.9013 64.2128 68.2052 64.542 68.9531 64.542C69.2051 64.542 69.471 64.636 69.544 64.7509C69.8139 65.1757 70.5555 65.5013 71.1883 65.473C71.7405 65.4483 71.8431 65.4973 71.8877 65.8069C71.9237 66.0567 72.1823 66.2799 72.718 66.5235C73.1459 66.7181 73.6257 66.9423 73.7843 67.0217C73.9429 67.1012 74.1807 67.1662 74.3128 67.1662C74.4449 67.1662 74.5969 67.2954 74.6506 67.4532C74.7044 67.6111 75.0062 67.9248 75.3215 68.1503C75.6367 68.3758 75.8967 68.6832 75.8992 68.8333C75.9057 69.2187 74.8142 70.2825 74.4122 70.2825C74.2279 70.2825 74.0772 70.3563 74.0772 70.4465C74.0772 70.5367 73.9564 70.6105 73.8087 70.6105C73.6114 70.6105 73.5668 70.7082 73.6404 70.9795C73.6955 71.1825 73.7416 71.4039 73.7428 71.4716C73.7442 71.5392 73.8945 71.5946 74.0772 71.5946C74.2598 71.5946 74.4093 71.6789 74.4093 71.782C74.4093 71.968 75.6168 71.9101 76.8391 71.6654C77.3034 71.5724 77.3762 71.6114 77.5168 72.0281C77.6165 72.3235 77.6159 72.7224 77.5154 73.1145C77.3746 73.6625 77.3999 73.7715 77.7348 74.0584C77.9431 74.2368 78.2862 74.3828 78.4973 74.3828C78.7113 74.3828 78.9599 74.528 79.059 74.7108C79.1638 74.9044 79.4066 75.0389 79.6512 75.0389C79.8792 75.0389 80.1087 75.1496 80.1613 75.2849C80.2138 75.4202 80.3616 75.5309 80.4897 75.5309C80.8373 75.5309 81.6767 76.3863 81.7982 76.8643C81.9535 77.4753 81.2614 77.8948 80.3277 77.7557C78.9553 77.5513 77.9748 77.5103 77.7522 77.648C77.5646 77.7641 77.5594 77.9569 77.7225 78.751C78.128 80.7243 78.1237 80.8143 77.5942 81.4342C77.1215 81.9875 77.0854 82.0001 76.5341 81.8032C76.2203 81.6911 75.5044 81.5994 74.9433 81.5994C74.1046 81.5994 73.8925 81.6559 73.7512 81.9167C73.4969 82.3859 73.5385 82.5486 73.9452 82.6761C74.5576 82.8681 75.0522 83.5676 74.5756 83.5676C74.2042 83.5676 74.4201 84.22 74.8247 84.3203C75.053 84.3769 75.2398 84.4896 75.2398 84.5707C75.2398 84.6518 75.6219 84.6964 76.0888 84.6698C76.7344 84.633 76.9592 84.6819 77.0269 84.8736C77.0758 85.0122 77.2672 85.2918 77.4522 85.4947C77.7385 85.809 77.9568 85.8638 78.9219 85.8638C80.1541 85.8638 80.3466 86.0446 79.7153 86.6089C79.139 87.124 79.3452 87.6859 80.2214 87.9879C81.2064 88.3273 81.3837 88.4509 81.3837 88.798C81.3837 89.5517 79.6088 89.6609 78.4391 88.9792C78.1303 88.7992 77.786 88.652 77.6739 88.652C77.5618 88.652 77.3377 88.4306 77.1758 88.16C76.9039 87.7052 76.7555 87.6377 75.9455 87.5996C75.7857 87.592 75.6168 87.5364 75.5703 87.4759C75.5237 87.4154 75.2815 87.3153 75.0321 87.2535C74.432 87.1047 74.2658 87.5128 74.679 88.1202C75.2346 88.937 75.3299 89.22 75.2429 89.7958C75.1224 90.5927 74.6188 90.8197 73.2472 90.6952C72.2314 90.603 72.1581 90.6196 72.0018 90.9777C71.8882 91.238 71.6726 91.3739 71.3195 91.4079C70.6861 91.4688 70.357 91.9984 70.4522 92.8036C70.5167 93.3492 70.4917 93.3814 69.9325 93.4728C69.0667 93.6143 69.0618 93.613 68.4317 93.0804C68.112 92.8102 67.7011 92.5913 67.5184 92.5939C67.1366 92.5995 66.6051 92.9544 66.6051 93.2039C66.6051 93.2971 66.4843 93.4191 66.3365 93.4751C66.1114 93.5604 66.1383 93.6315 66.5026 93.9146C66.7416 94.1003 66.9372 94.3893 66.9372 94.5568C66.9372 94.784 67.1647 94.9266 67.8346 95.1189C68.3281 95.2606 68.9493 95.3766 69.2149 95.3766C69.5393 95.3766 69.8582 95.5434 70.1857 95.8844C70.4539 96.1637 71.1965 96.6449 71.8358 96.9537C72.4751 97.2626 73.3284 97.8147 73.7322 98.1806C74.1359 98.5466 74.7409 98.9636 75.0767 99.1073C75.7533 99.3968 76.4022 100.205 76.4022 100.758C76.4022 101.099 76.3316 101.117 75.0015 101.117C74.2312 101.117 73.3935 101.039 73.1399 100.944C72.3425 100.644 71.9646 100.855 71.8757 101.649C71.7825 102.481 72.1917 104.895 72.4699 105.154C72.6797 105.348 74.2416 105.873 74.6114 105.873C74.7338 105.873 74.9619 106.021 75.1183 106.201C75.2797 106.388 75.6367 106.542 75.9439 106.558C76.2416 106.574 76.8215 106.601 77.2324 106.618C78.2343 106.66 80.7015 106.991 80.896 107.11C81.1037 107.237 81.0956 107.678 80.8856 107.678C80.7942 107.678 80.7195 107.788 80.7195 107.924C80.7195 108.079 80.5609 108.17 80.288 108.17C80.0506 108.17 79.598 108.291 79.2822 108.439C78.789 108.67 78.6166 108.678 78.0618 108.497C77.5825 108.341 77.1983 108.329 76.5725 108.451C76.107 108.542 75.6895 108.553 75.6407 108.475C75.5199 108.282 74.9507 108.296 74.8261 108.495C74.5296 108.969 75.5553 110.63 76.1444 110.63C76.4606 110.63 76.6903 111.408 76.6081 112.201L76.5387 112.871L78.4836 112.822C79.5733 112.794 80.5656 112.845 80.7401 112.937C81.0666 113.109 81.181 113.976 80.9 114.147C80.8166 114.198 80.6997 114.525 80.6401 114.873C80.5669 115.301 80.4058 115.573 80.1433 115.712C79.7257 115.932 79.3911 115.829 79.3911 115.478C79.3911 115.278 78.2544 114.894 77.6628 114.894C77.5238 114.894 77.1547 115.116 76.8427 115.386C76.5306 115.657 76.2192 115.878 76.1507 115.878C75.9967 115.878 75.4059 116.538 75.4059 116.71C75.4059 116.905 73.7722 117.203 73.3197 117.091C73.0732 117.03 72.9151 117.062 72.9151 117.173C72.9151 117.481 72.5568 117.373 72.4681 117.038C72.3842 116.721 71.747 116.617 71.047 116.806C70.7312 116.891 70.6389 117.518 70.9421 117.518C71.1833 117.518 72.0787 118.521 72.0822 118.795C72.0836 118.911 72.193 119.17 72.3253 119.369C72.5364 119.688 72.5331 119.833 72.2989 120.553C72.1521 121.004 72.0138 121.396 71.9916 121.425C71.9386 121.494 71.2474 121.102 70.9585 120.84C70.8343 120.727 70.6633 120.635 70.5785 120.635C70.4937 120.635 70.2667 120.479 70.074 120.289C69.8813 120.098 69.4329 119.904 69.0777 119.857C68.7224 119.81 68.4317 119.707 68.4317 119.629C68.4317 119.551 68.3196 119.487 68.1826 119.487C67.8241 119.487 67.8761 119.809 68.2921 120.165C68.7292 120.54 69.0121 121.947 68.6503 121.947C68.4235 121.947 68.0996 122.58 68.0996 123.024C68.0996 123.153 68.2117 123.259 68.3487 123.259C68.4857 123.259 68.5977 123.325 68.5977 123.405C68.5977 123.486 68.7846 123.598 69.0129 123.654C69.3197 123.73 69.428 123.866 69.428 124.175C69.428 124.803 69.7243 125.227 70.1633 125.227C70.3787 125.227 70.5958 125.333 70.646 125.462C70.6975 125.594 71.0838 125.745 71.5355 125.81C72.5943 125.96 73.5793 126.92 73.5793 127.801C73.5793 128.346 73.5542 128.373 73.1325 128.268C72.8868 128.207 72.5562 128.01 72.398 127.83C72.1976 127.601 71.817 127.473 71.1428 127.406C70.6106 127.353 70.1268 127.237 70.0676 127.147C69.9265 126.933 68.8624 126.575 67.9751 126.443C67.4401 126.363 67.2668 126.392 67.2588 126.562C67.253 126.685 67.1815 126.621 67.0999 126.421C67.0184 126.221 66.7616 126.01 66.5293 125.952C66.297 125.895 66.107 125.786 66.107 125.712C66.107 125.637 65.8268 125.313 65.4843 124.993C64.7704 124.325 63.9483 124.181 63.9483 124.724C63.9483 124.898 64.0977 125.088 64.2804 125.145C64.4631 125.202 64.6125 125.338 64.6125 125.446C64.6125 125.554 64.9488 125.964 65.3597 126.357C65.7707 126.751 66.107 127.143 66.107 127.228C66.107 127.314 66.3125 127.371 66.5636 127.354C67.3794 127.301 67.6101 127.355 67.7138 127.622C67.9084 128.123 68.5741 128.63 69.184 128.743C69.5213 128.806 69.9791 129.037 70.2013 129.256C70.4236 129.476 70.6996 129.655 70.8147 129.655C70.9298 129.655 71.2814 129.843 71.5959 130.073C71.9189 130.309 72.3021 130.457 72.4763 130.412C72.6459 130.369 72.9821 130.407 73.2235 130.498C73.4649 130.589 74.2601 130.696 74.9907 130.737C76.3468 130.812 78.0594 131.306 78.41 131.724C78.5153 131.849 78.671 131.952 78.756 131.952C78.841 131.952 79.3256 132.394 79.8329 132.936C80.3402 133.477 80.8698 133.92 81.0097 133.92C81.348 133.92 81.704 134.403 81.7105 134.871C81.7139 135.078 81.5246 135.423 81.2909 135.637C80.8789 136.014 80.8436 136.018 80.1286 135.777C79.723 135.641 79.3911 135.462 79.3911 135.381C79.3911 135.299 79.279 135.232 79.142 135.232C79.005 135.232 78.893 135.158 78.893 135.068C78.893 134.978 78.6314 134.904 78.3118 134.904C77.9921 134.904 77.73 134.849 77.7293 134.781C77.7288 134.713 77.5605 134.575 77.3557 134.473C77.1509 134.371 76.6604 134.127 76.2657 133.93C75.8518 133.724 75.3247 133.594 75.0203 133.623C74.5669 133.667 74.4856 133.744 74.4429 134.175C74.3683 134.929 75.2625 136.45 76.4289 137.553C76.9865 138.081 77.5021 138.512 77.5746 138.512C77.6471 138.512 77.8534 138.697 78.033 138.922C78.2126 139.148 78.4256 139.332 78.5062 139.332C78.6612 139.332 79.3849 139.932 80.4465 140.939C81.0861 141.546 81.5598 142.36 81.4628 142.686C81.4346 142.781 81.367 143.059 81.3126 143.305C81.225 143.7 81.1566 143.74 80.7175 143.654C80.4086 143.593 80.2214 143.623 80.2214 143.735C80.2214 143.983 79.728 143.776 79.2263 143.318C78.6613 142.802 77.7354 142.503 77.5616 142.781C77.3948 143.048 76.9003 142.864 76.9003 142.536C76.9003 142.394 76.7558 142.285 76.5682 142.285C76.3856 142.285 76.2361 142.346 76.2361 142.421C76.2361 142.496 76.068 142.644 75.8625 142.749C75.5707 142.899 75.2956 142.89 74.6063 142.707C74.1209 142.578 73.4668 142.514 73.1527 142.564C72.5982 142.653 72.5707 142.631 72.2087 141.818C71.9668 141.275 71.7336 140.979 71.5452 140.976C71.3853 140.974 71.2546 141.046 71.2546 141.136C71.2546 141.227 71.1425 141.3 71.0055 141.3C70.8685 141.3 70.7564 141.411 70.7564 141.546C70.7564 141.682 70.691 141.792 70.6111 141.792C70.5312 141.792 70.4187 142.025 70.3611 142.31C70.2058 143.076 69.9662 143.269 69.1651 143.269C68.293 143.269 67.7675 142.807 67.7675 142.04C67.7675 141.423 67.5092 141.136 66.9534 141.136C66.711 141.136 66.3098 140.918 65.9903 140.612L65.4426 140.088V140.694C65.4426 141.028 65.5174 141.3 65.6087 141.3C65.7 141.3 65.7747 141.394 65.7747 141.508C65.7747 141.621 65.9424 141.787 66.1474 141.877C66.6848 142.11 66.7089 142.59 66.2062 143.051C65.9004 143.331 65.7747 143.613 65.7747 144.019C65.7747 144.462 65.6907 144.622 65.4011 144.729C65.0958 144.841 64.9668 144.781 64.6954 144.398C64.5127 144.141 64.2455 143.929 64.1014 143.927C63.9574 143.926 63.4574 143.516 62.9903 143.017C62.2552 142.231 62.082 142.124 61.7027 142.218C61.4617 142.278 61.22 142.446 61.1655 142.593C61.111 142.739 61.0237 142.895 60.9714 142.941C60.919 142.986 60.7641 143.355 60.6271 143.761C60.4382 144.321 60.2839 144.512 59.988 144.553C59.3081 144.648 59.0397 144.153 59.0896 142.895C59.1242 142.024 59.0791 141.762 58.882 141.687C58.4678 141.53 58.1085 141.95 58.2217 142.459C58.2804 142.723 58.1747 143.387 57.9654 144.068C57.5655 145.368 57.6723 146.109 58.3238 146.554C58.5171 146.687 58.7788 146.893 58.9054 147.013C59.032 147.133 59.2277 147.201 59.3402 147.164C59.4528 147.127 59.6442 147.195 59.7657 147.315C59.8872 147.435 60.3225 147.533 60.7329 147.533C61.1434 147.533 61.617 147.606 61.7854 147.695C62.0846 147.853 62.3926 148.939 62.3081 149.538C62.2725 149.79 62.3641 150.201 62.9618 152.472C63.0477 152.799 63.1179 153.182 63.1179 153.325C63.1179 153.468 63.2993 153.778 63.5209 154.014C63.8837 154.401 63.983 154.427 64.5172 154.282C64.8435 154.193 65.1105 154.183 65.1105 154.261C65.1105 154.338 65.4655 154.454 65.8993 154.517C66.7236 154.639 67.2692 155.064 67.2692 155.585C67.2692 155.746 67.3451 155.925 67.438 155.981C67.5308 156.038 67.5609 156.157 67.505 156.247C67.3574 156.483 68.1605 158.47 68.5017 158.713C68.6633 158.828 68.6815 160.462 68.5229 160.618C68.472 160.669 68.2998 160.588 68.1403 160.438C67.9809 160.289 67.6188 159.962 67.3358 159.713C67.0527 159.464 66.7748 159.131 66.7183 158.973C66.644 158.766 66.4345 158.686 65.964 158.686C65.4199 158.686 65.2966 158.749 65.2153 159.069C65.1618 159.279 65.178 159.667 65.2514 159.93C65.4002 160.463 65.3147 160.883 64.946 161.433C64.4271 162.207 63.4168 161.65 63.4168 160.591C63.4168 159.959 64.245 157.324 64.471 157.237C64.5487 157.207 64.6123 157.084 64.6123 156.964C64.6123 156.843 64.7057 156.711 64.8199 156.67C65.188 156.538 64.7048 155.983 64.1805 155.936C63.1032 155.839 62.6197 155.708 62.6197 155.512C62.6197 155.399 62.4106 154.978 62.155 154.577C61.7441 153.932 60.9509 151.45 60.957 150.827C60.9579 150.7 60.8327 150.312 60.6782 149.966C60.4273 149.405 60.3338 149.338 59.8064 149.342C58.7392 149.352 58.6672 149.507 58.5479 152.054C58.489 153.311 58.4525 155.151 58.4668 156.144C58.481 157.136 58.4091 158.458 58.307 159.082C58.167 159.936 58.1688 160.244 58.314 160.333C58.4521 160.417 58.4728 160.875 58.3869 161.947C58.272 163.381 58.2809 163.442 58.6056 163.442C58.8129 163.442 58.9875 163.585 59.0559 163.811C59.1808 164.224 60.7691 165.902 61.0365 165.903C61.2629 165.905 61.7894 166.828 61.7894 167.224C61.7894 167.655 61.0925 168.074 60.5845 167.948C60.2255 167.859 60.1418 167.928 59.9087 168.503C59.7624 168.864 59.5181 169.229 59.3657 169.313C59.147 169.434 59.071 169.8 59.0047 171.053C58.9298 172.466 58.9543 172.664 59.229 172.862C59.4913 173.052 59.5438 173.351 59.581 174.865C59.605 175.844 59.6448 177.331 59.6693 178.168C59.7025 179.307 59.6573 179.726 59.4896 179.828C59.326 179.928 59.2484 180.536 59.2022 182.078C59.1674 183.239 59.0883 184.596 59.0264 185.092C58.9645 185.588 58.907 186.67 58.8987 187.497C58.8903 188.324 58.8275 189.056 58.759 189.124C58.5707 189.31 58.6098 189.978 58.8164 190.104C58.9319 190.175 58.9585 190.478 58.8893 190.933C58.8294 191.328 58.8272 191.727 58.8845 191.818C58.9775 191.967 59.0322 192.993 59.1949 197.639C59.2201 198.361 59.315 199.099 59.4057 199.279C59.4964 199.46 59.5461 200.252 59.5162 201.039C59.4862 201.827 59.5223 202.75 59.5964 203.09C59.6704 203.429 59.6796 204.003 59.6168 204.364C59.5539 204.724 59.5646 205.463 59.6404 206.004C59.7162 206.545 59.7927 208.169 59.8102 209.612C59.8278 211.055 59.9116 212.521 59.9965 212.868C60.2541 213.922 60.2557 214.897 60.0046 217.895C59.8661 219.548 59.8107 221.321 59.8738 222.077C60.0721 224.45 60.1556 225.679 60.1494 226.131C60.1455 226.376 60.2047 226.614 60.2799 226.66C60.4458 226.762 60.3134 227.541 60.1091 227.666C59.7103 227.909 60.0675 230.156 60.5867 230.671C60.7555 230.838 60.7662 230.931 60.6266 231.016C60.4856 231.102 60.4808 231.375 60.6081 232.055C60.7251 232.68 60.7282 233.569 60.618 234.81C60.479 236.374 60.4921 236.682 60.7072 236.917C60.8458 237.068 60.9592 237.28 60.9592 237.388C60.9592 237.495 61.146 237.668 61.3744 237.77C61.6056 237.874 61.7895 238.095 61.7895 238.269C61.7895 238.576 62.2787 239.885 62.6954 240.693C62.8117 240.918 62.9524 241.503 63.008 241.992C63.0636 242.481 63.1858 242.958 63.2795 243.05C63.3733 243.143 63.45 243.422 63.45 243.67C63.45 244.204 63.7333 244.91 64.1311 245.367C64.2881 245.547 64.4968 245.99 64.5948 246.351C64.7857 247.054 65.4317 247.909 65.7719 247.909C65.8961 247.909 65.9454 247.781 65.8948 247.589C65.8482 247.413 65.8785 247.246 65.9623 247.219C66.0461 247.191 66.1622 246.874 66.2203 246.514C66.3172 245.913 66.723 245.139 66.9473 245.126C66.9986 245.124 67.1925 245.261 67.3783 245.432C67.697 245.725 67.7051 245.815 67.5232 247.031C67.3179 248.403 67.3169 249.685 67.5198 250.821C67.6253 251.41 67.7055 251.518 68.0379 251.518C68.3205 251.518 68.4312 251.425 68.4312 251.19C68.4312 251.009 68.5059 250.862 68.5972 250.862C68.6885 250.862 68.7629 250.732 68.7625 250.575C68.762 250.417 68.8893 249.936 69.0453 249.506C69.2917 248.827 69.4105 248.702 69.9494 248.559C70.5481 248.4 70.8243 248.042 70.7201 247.561C70.6927 247.435 70.8475 247.321 71.088 247.291C71.3894 247.253 71.4401 247.281 71.2728 247.393C71.1317 247.487 71.0748 247.713 71.126 247.978C71.1719 248.215 71.1388 248.452 71.0523 248.505C70.9658 248.558 70.9399 248.778 70.9947 248.993C71.0559 249.234 71.0217 249.385 70.9057 249.385C70.7989 249.385 70.7548 249.528 70.804 249.713C70.8518 249.894 70.8231 250.041 70.7403 250.041C70.6576 250.041 70.5898 250.263 70.5898 250.534C70.5898 250.862 70.6729 251.026 70.8389 251.026C70.9759 251.026 71.088 250.959 71.088 250.877C71.088 250.795 71.2302 250.765 71.4041 250.81C71.6232 250.866 71.7545 250.785 71.8321 250.543C71.9778 250.09 72.6325 249.398 73.1819 249.116C73.7438 248.828 73.7931 248.833 74.0286 249.206C74.1885 249.459 74.1724 249.581 73.944 249.848C73.7888 250.029 73.531 250.333 73.3712 250.522C73.2114 250.711 73.0806 250.98 73.0806 251.121C73.0806 251.262 72.9685 251.488 72.8315 251.623C72.41 252.039 72.5172 252.5 73.0391 252.515C73.2902 252.522 73.4023 252.565 73.2882 252.61C72.8829 252.772 73.0693 253.158 73.5525 253.158C73.9602 253.158 74.0518 253.067 74.226 252.493C74.3369 252.127 74.554 251.78 74.7085 251.722C74.8629 251.663 75.161 251.446 75.3709 251.238C75.5808 251.031 75.8906 250.862 76.0593 250.862C76.2281 250.862 76.4091 250.751 76.4617 250.616C76.6006 250.258 76.8998 250.314 76.8998 250.698C76.8998 250.982 77.0105 251.026 77.7301 251.026C78.1867 251.026 78.5603 250.964 78.5603 250.889C78.5603 250.814 78.9713 250.777 79.4736 250.807C80.2941 250.855 80.3869 250.827 80.3869 250.533C80.3869 250.353 80.4602 250.206 80.5498 250.206C80.6394 250.206 80.7595 250.021 80.8168 249.795C80.8742 249.57 80.9795 249.385 81.0509 249.385C81.2154 249.385 81.4016 248.4 81.4381 247.335C81.4632 246.602 81.6359 246.204 82.3183 245.306C82.3438 245.273 82.5861 245.464 82.8568 245.731C83.3231 246.192 83.3442 246.271 83.2563 247.227C83.1905 247.945 83.2202 248.237 83.3593 248.237C83.573 248.237 84.8703 246.991 84.8703 246.785C84.8703 246.715 85.1318 246.557 85.4515 246.433C85.7711 246.309 86.0374 246.093 86.0432 245.952C86.0498 245.791 86.11 245.834 86.2039 246.064C86.3664 246.464 86.7837 246.559 86.919 246.228C86.965 246.115 87.0086 246.197 87.0158 246.41C87.027 246.739 87.0912 246.781 87.4441 246.694C87.6835 246.635 87.8592 246.662 87.8592 246.758C87.8592 246.85 87.9393 246.925 88.0371 246.925C88.3017 246.925 88.6895 247.357 88.6895 247.652C88.6895 247.85 88.8733 247.909 89.4942 247.909C89.9368 247.909 90.5533 248.036 90.8641 248.191C91.2105 248.364 91.8657 248.483 92.5564 248.498C93.1762 248.512 93.7304 248.569 93.7879 248.626C93.8454 248.683 93.8052 248.729 93.6987 248.729C93.5921 248.729 93.505 248.914 93.505 249.139C93.505 249.432 93.5947 249.549 93.8193 249.549C93.9922 249.549 94.1766 249.439 94.2292 249.303C94.2818 249.168 94.5095 249.057 94.7353 249.057C94.9611 249.057 95.1952 248.979 95.2555 248.882C95.3157 248.786 95.6004 248.72 95.888 248.735C97.006 248.794 97.1517 248.743 97.3722 248.209L97.5873 247.688L98.1674 248.261C98.6381 248.726 98.8478 249.172 99.2798 250.627C100.219 253.79 100.537 255.189 100.334 255.256C100.097 255.334 100.088 255.782 100.323 255.782C100.42 255.782 100.457 255.849 100.406 255.931C100.27 256.148 99.6488 255.946 99.6488 255.684C99.6488 255.361 98.8198 255.188 98.6372 255.473C98.5323 255.636 98.4908 255.643 98.489 255.495C98.4876 255.382 98.2997 255.29 98.0713 255.29C97.843 255.29 97.6562 255.364 97.6562 255.454C97.6562 255.544 97.4981 255.618 97.3047 255.618C97.0194 255.618 96.9682 255.695 97.0327 256.028C97.1093 256.424 97.0818 256.438 96.2217 256.438C95.5411 256.438 95.3315 256.38 95.3315 256.192C95.3315 256.057 95.2194 255.946 95.0824 255.946C94.9454 255.946 94.8333 256.005 94.8333 256.077C94.8333 256.149 94.5581 256.208 94.2217 256.208C93.8853 256.208 93.5802 256.297 93.5437 256.405C93.403 256.822 93.1885 256.571 93.0811 255.864C92.9659 255.105 92.555 254.833 92.4017 255.413C92.34 255.646 92.1772 255.69 91.5301 255.645C91.0079 255.609 90.6539 255.668 90.5006 255.818C90.3721 255.944 90.1362 256.095 89.9763 256.155C89.8165 256.215 89.6857 256.34 89.6857 256.433C89.6857 256.692 86.8669 256.657 86.8476 256.397C86.8392 256.284 86.8205 255.971 86.8061 255.7C86.7817 255.243 86.7386 255.211 86.2051 255.254C85.889 255.28 85.582 255.378 85.5228 255.472C85.4637 255.567 85.3692 255.417 85.313 255.139C85.2523 254.84 85.1074 254.634 84.9574 254.634C84.8181 254.634 84.7042 254.56 84.7042 254.47C84.7042 254.164 83.9163 254.292 83.8317 254.612C83.751 254.917 82.7959 255.222 82.1719 255.142C82.0121 255.122 81.8813 255.177 81.8813 255.264C81.8813 255.352 81.7319 255.385 81.5492 255.337C81.3182 255.278 81.2171 255.332 81.2171 255.517C81.2171 255.714 81.0581 255.781 80.5944 255.78C79.5438 255.776 79.2653 255.645 79.3523 255.195C79.4204 254.843 79.3699 254.798 78.9117 254.798C78.5709 254.798 78.3942 254.879 78.3942 255.035C78.3942 255.223 78.1668 255.262 77.2979 255.223C76.695 255.195 76.1523 255.094 76.092 254.998C76.0317 254.901 75.5723 254.824 75.0712 254.825C74.57 254.826 73.7095 254.784 73.1591 254.731C72.6087 254.679 71.9229 254.702 71.6351 254.784C71.2345 254.897 71.0909 254.878 71.0221 254.701C70.9218 254.443 70.0916 254.379 70.0916 254.63C70.0916 254.732 69.9439 254.734 69.6814 254.636C69.1292 254.428 64.7995 254.598 64.2942 254.846C63.9783 255.002 63.8786 255 63.8237 254.839C63.7448 254.607 63.1175 254.555 63.1175 254.781C63.1175 254.861 62.8186 254.956 62.4533 254.99C62.088 255.024 61.7891 254.99 61.7891 254.912C61.7891 254.835 61.5519 254.823 61.262 254.886C60.9721 254.949 60.1324 255.001 59.396 255.001C58.2571 255.001 58.0134 255.051 57.7644 255.335C57.5176 255.616 57.4717 255.626 57.4717 255.397C57.4717 255.248 57.4157 255.114 57.3472 255.1C56.8595 255 56.0402 254.931 54.8979 254.896C54.1673 254.873 53.4384 254.797 53.2781 254.727C53.1178 254.656 52.7069 254.644 52.3648 254.7C52.0228 254.756 51.5188 254.789 51.2448 254.774C50.6977 254.744 50.3481 254.754 49.0446 254.84C48.5651 254.872 48.1728 254.837 48.1728 254.763C48.1728 254.688 47.4799 254.675 46.6331 254.734C45.7209 254.797 44.7541 254.769 44.2611 254.665C43.735 254.553 43.1882 254.542 42.7746 254.634C42.3076 254.738 42.0849 254.724 41.9967 254.584C41.9013 254.433 41.8004 254.432 41.5563 254.582C41.3821 254.689 40.952 254.829 40.6006 254.894C40.0112 255.003 39.5381 255.287 39.5381 255.532C39.5381 255.588 39.3513 255.818 39.123 256.043C38.8947 256.269 38.7079 256.563 38.7079 256.698C38.7079 257.029 38.1216 256.731 37.5134 256.09C37.0831 255.636 36.7153 255.478 36.7153 255.746C36.7153 255.894 36.0904 255.876 35.7126 255.717C35.572 255.658 34.9862 255.758 34.4107 255.94C33.3244 256.282 32.8726 256.221 32.6718 255.705C32.5428 255.373 31.7515 255.382 31.6213 255.717C31.5652 255.861 31.6234 256.044 31.7511 256.124C31.9366 256.24 31.9248 256.27 31.6922 256.272C31.5324 256.273 31.4016 256.382 31.4016 256.514C31.4016 256.816 30.8901 257.094 30.3332 257.094C29.9596 257.094 29.9072 257.026 29.9072 256.538C29.9072 256.092 29.8304 255.963 29.5195 255.885C29.3063 255.833 28.8953 255.856 28.6062 255.938C28.2673 256.034 28.0806 256.029 28.0806 255.924C28.0806 255.759 26.3399 255.747 25.2833 255.905C24.9543 255.955 24.5019 256.212 24.1742 256.535C23.8698 256.836 23.5926 256.999 23.5583 256.897L23.5585 256.897Z" fill="#222222"/>
<path d="M94.2389 255.846C94.856 255.613 94.3406 255.135 93.4637 255.128C93.1295 255.126 93.0802 255.461 93.3724 255.749C93.5936 255.968 93.8447 255.996 94.2389 255.846Z" fill="#222222"/>
<path d="M70.9223 251.928C70.9223 251.792 71.0344 251.682 71.1714 251.682C71.3084 251.682 71.4205 251.571 71.4205 251.436C71.4205 251.188 70.5925 251.066 70.588 251.313C70.5865 251.38 70.5406 251.602 70.4856 251.805C70.4119 252.076 70.4565 252.174 70.6539 252.174C70.8015 252.174 70.9223 252.063 70.9223 251.928Z" fill="#222222"/>
<path d="M29.2433 249.632C29.2433 249.495 29.0957 249.385 28.9112 249.385C28.7267 249.385 28.5791 249.495 28.5791 249.632C28.5791 249.768 28.7267 249.878 28.9112 249.878C29.0957 249.878 29.2433 249.768 29.2433 249.632Z" fill="#222222"/>
<path d="M16.7893 238.643C16.7893 238.507 16.899 238.397 17.0332 238.397C17.1817 238.397 17.2397 238.493 17.1815 238.643C17.1289 238.778 17.0191 238.889 16.9376 238.889C16.856 238.889 16.7893 238.778 16.7893 238.643Z" fill="#222222"/>
</g>
</g>
<defs>
<filter id="filter0_d" x="-4" y="0" width="113" height="268" filterUnits="userSpaceOnUse" color-interpolation-filters="sRGB">
<feFlood flood-opacity="0" result="BackgroundImageFix"/>
<feColorMatrix in="SourceAlpha" type="matrix" values="0 0 0 0 0 0 0 0 0 0 0 0 0 0 0 0 0 0 127 0" result="hardAlpha"/>
<feOffset dy="4"/>
<feGaussianBlur stdDeviation="2"/>
<feComposite in2="hardAlpha" operator="out"/>
<feColorMatrix type="matrix" values="0 0 0 0 0 0 0 0 0 0 0 0 0 0 0 0 0 0 0.25 0"/>
<feBlend mode="normal" in2="BackgroundImageFix" result="effect1_dropShadow"/>
<feBlend mode="normal" in="SourceGraphic" in2="effect1_dropShadow" result="shape"/>
</filter>
<clipPath id="clip0">
<rect width="105" height="260" fill="white"/>
</clipPath>
</defs>
</svg>
