<svg width="110" height="258" viewBox="0 0 110 258" fill="none" xmlns="http://www.w3.org/2000/svg">
<g clip-path="url(#clip0)" filter="url(#filter0_d)">
<g filter="url(#filter1_d)">
<path d="M4.83195 256.351C5.19871 255.558 5.34135 254.982 5.38713 254.113C5.44574 253 5.47469 252.926 5.98376 252.589C6.36742 252.334 6.59973 252.279 6.8049 252.393C7.35374 252.696 8.09036 252.592 8.50021 252.152C8.82199 251.807 8.90886 251.779 8.98546 251.993C9.03677 252.136 9.18889 252.254 9.32351 252.254C9.47802 252.254 9.56825 252.412 9.56825 252.682C9.56825 252.918 9.64531 253.111 9.73949 253.111C9.94057 253.111 10.3668 252.684 10.3686 252.48C10.3701 252.32 11.1302 251.911 11.4273 251.911C11.5357 251.911 11.6749 252.084 11.7366 252.296C11.876 252.776 12.0909 252.933 12.6093 252.937C13.1905 252.941 13.5957 252.356 13.5394 251.595C13.4953 250.999 13.5162 250.969 13.9546 251.004C14.4804 251.045 14.6787 251.289 14.5648 251.756C14.4946 252.045 14.5705 252.073 15.2891 252.026C15.9791 251.981 16.1644 252.041 16.6076 252.456C17.2139 253.024 17.7144 253.082 17.8327 252.597C17.8924 252.351 18.0507 252.254 18.3876 252.254C18.9042 252.254 19.4148 252.016 19.8172 251.587C19.9603 251.435 20.2659 251.165 20.4965 250.986C20.7344 250.802 20.9156 250.496 20.9156 250.278C20.9156 250.023 21.1563 249.699 21.6299 249.316C22.2791 248.791 22.5919 248.138 22.1942 248.138C21.9557 248.138 22.0008 247.215 22.2978 246.02C22.5595 244.966 22.5019 243.337 22.203 243.337C22.1307 243.337 22.0921 243.125 22.1173 242.866C22.1991 242.023 22.3909 241.28 22.5266 241.28C22.7675 241.28 22.8583 240.171 22.7128 239.006C22.6258 238.309 22.6275 237.838 22.7168 237.806C22.8055 237.774 22.7999 237.482 22.7027 237.073C22.5108 236.265 22.6875 232.786 22.9463 232.278C23.0998 231.976 23.242 228.131 23.1755 226.08C23.1595 225.59 23.2266 225.34 23.3924 225.271C23.5661 225.2 23.6324 224.909 23.6324 224.219C23.6324 223.515 23.6974 223.238 23.8804 223.163C24.0678 223.086 24.1008 222.93 24.0155 222.525C23.9534 222.231 23.9174 221.654 23.9355 221.244C23.9555 220.79 23.8664 220.332 23.7075 220.071C23.5121 219.751 23.4727 219.44 23.5508 218.831C23.6334 218.186 23.5853 217.874 23.3196 217.327C23.0535 216.779 23.0172 216.543 23.1444 216.184C23.2326 215.935 23.2613 215.498 23.208 215.212C23.1392 214.843 23.1944 214.594 23.3989 214.352C23.6764 214.023 23.6746 213.985 23.3481 213.284C22.984 212.502 22.9712 211.3 23.3176 210.403C23.4475 210.067 23.4498 209.755 23.3259 209.277C23.2318 208.913 23.1543 208.293 23.1539 207.9C23.1534 207.507 23.1093 207.064 23.056 206.914C22.935 206.576 22.5334 206.56 22.4159 206.889C22.3677 207.023 22.1229 207.211 21.8719 207.304C21.5046 207.442 21.4182 207.573 21.4289 207.978C21.4457 208.609 21.2972 208.872 20.9235 208.872C20.7082 208.872 20.6136 208.714 20.5658 208.275C20.53 207.946 20.5761 207.644 20.6682 207.603C21.0614 207.427 20.1713 207.519 19.6957 207.704C18.9074 208.009 17.2618 209.739 17.1407 210.389C17.0671 210.784 17.0992 210.933 17.2595 210.942C17.3804 210.949 17.1979 211.065 16.854 211.2C16.51 211.335 16.2154 211.426 16.1993 211.402C15.9242 210.993 15.7104 210.231 15.8191 210.047C16.2195 209.369 15.4545 209.099 14.9221 209.73C14.7598 209.922 14.4299 210.073 14.1702 210.073C13.5424 210.073 12.7645 209.617 12.7645 209.249C12.7645 208.945 12.2443 208.358 11.9744 208.358C11.8934 208.358 11.7822 208.206 11.7273 208.02C11.6334 207.703 10.809 207.332 10.1922 207.33C9.84294 207.329 9.40827 207.878 9.40827 208.321C9.40827 208.603 9.27951 208.711 8.83992 208.8C8.02183 208.964 6.77589 208.8 6.29812 208.464C5.95728 208.224 5.9156 208.117 6.05493 207.838C6.14741 207.652 6.29007 207.501 6.37195 207.501C6.45383 207.501 6.75696 207.25 7.04557 206.943C7.36884 206.6 7.69781 206.406 7.90237 206.437C8.16439 206.477 8.27279 206.351 8.41635 205.837C8.52322 205.454 8.74461 205.115 8.95298 205.014C9.14807 204.92 9.37753 204.611 9.4629 204.328C9.54828 204.046 9.75263 203.688 9.91702 203.533C10.2506 203.219 11.4197 202.973 12.3084 203.029C12.6546 203.051 12.979 202.964 13.1075 202.815C13.275 202.62 13.5858 202.585 14.4826 202.656C15.555 202.742 15.6413 202.724 15.6413 202.414C15.6413 201.869 15.254 201.433 14.8661 201.542C14.6772 201.595 14.5226 201.577 14.5226 201.503C14.5226 201.428 14.3248 201.324 14.0831 201.272C13.0639 201.052 12.6734 200.929 12.4848 200.769C12.2461 200.567 12.2193 199.848 12.4449 199.699C12.5328 199.641 12.6058 199.308 12.6072 198.96C12.6107 198.063 12.7615 197.902 13.654 197.841C14.0878 197.811 14.6495 197.695 14.9022 197.582C15.155 197.469 15.6944 197.381 16.1009 197.388C17.8753 197.416 19.9117 197.265 20.3265 197.075C20.574 196.962 20.8311 196.87 20.898 196.87C21.1222 196.87 21.6899 196.102 21.7861 195.669C21.9184 195.074 21.3573 194.124 20.8778 194.132C20.6788 194.134 20.3763 194.25 20.2057 194.389C20.035 194.527 19.7602 194.641 19.5949 194.641C19.2683 194.641 18.8378 194.259 18.8378 193.97C18.8378 193.62 18.0305 193.564 17.3983 193.869C16.8053 194.156 16.7651 194.156 16.4917 193.863C16.3344 193.694 16.2276 193.376 16.2546 193.155C16.2964 192.813 16.2339 192.755 15.8259 192.755C15.5632 192.755 15.312 192.851 15.2677 192.969C15.2032 193.14 15.1846 193.14 15.1745 192.969C15.1666 192.836 14.9226 192.755 14.532 192.755C14.1856 192.755 13.8586 192.679 13.8054 192.587C13.6404 192.3 14.0453 191.707 14.5298 191.526C14.9458 191.37 15.961 189.943 15.961 189.513C15.961 189.291 12.114 189.429 11.626 189.669C10.997 189.978 10.4564 189.629 10.6038 189.01C10.6635 188.759 10.7673 188.206 10.8345 187.782C11.0691 186.3 11.2007 186.118 11.9654 186.215C13.5229 186.414 14.3352 186.395 14.5205 186.156C14.6311 186.013 14.9645 185.896 15.2613 185.896C15.6346 185.896 15.8012 185.816 15.8012 185.639C15.8012 185.265 15.2156 184.695 14.8308 184.695C14.5365 184.695 14.5264 184.667 14.7395 184.438C15.0144 184.143 15.4167 184.101 15.5614 184.353C16.1234 184.813 16.1376 183.921 15.7434 183.709C15.3999 183.541 15.3732 183.444 15.4459 182.632L15.5258 181.74L14.9043 181.832C14.5625 181.883 14.0847 181.978 13.8424 182.044C12.8844 182.305 12.618 181.311 13.4038 180.409C13.6675 180.106 13.8833 179.789 13.8833 179.705C13.8833 179.62 13.9582 179.551 14.0499 179.551C14.1415 179.551 14.3033 179.475 14.4095 179.383C14.5156 179.29 14.8362 179.013 15.1219 178.767C15.4741 178.464 15.6413 178.173 15.6413 177.863C15.6413 177.129 15.9216 176.285 16.2739 175.957C16.659 175.599 16.7199 174.75 16.3605 174.75C16.2287 174.75 16.1208 174.635 16.1208 174.493C16.1208 174.352 16.2287 174.236 16.3605 174.236C16.4945 174.236 16.6003 174.083 16.6003 173.89C16.6003 173.609 16.6736 173.563 16.9867 173.648C17.2692 173.724 17.4173 173.663 17.5375 173.422C17.6606 173.175 17.8248 173.112 18.19 173.169C18.562 173.228 18.6779 173.18 18.6779 172.969C18.6779 172.817 18.5789 172.693 18.4579 172.693C18.2931 172.693 18.2572 172.508 18.315 171.957C18.3854 171.287 18.3535 171.202 17.9601 171.01C17.641 170.854 17.5576 170.721 17.6416 170.503C17.7041 170.34 17.7915 170.071 17.8357 169.906C17.8799 169.741 17.9797 169.606 18.0573 169.606C18.135 169.606 18.1985 169.491 18.1985 169.349C18.1985 169.208 18.1299 169.092 18.0462 169.092C17.7691 169.092 17.002 169.51 16.872 169.731C16.7104 170.007 16.0855 170.014 15.8331 169.743C15.5334 169.422 15.6057 169.016 16.0409 168.577C16.6976 167.916 16.5315 167.379 15.5957 167.139C15.3199 167.068 15.0906 166.856 14.993 166.58C14.8127 166.071 14.9876 165.743 15.5359 165.561C15.7257 165.498 16.2781 165.012 16.7634 164.481C17.3021 163.892 17.7534 163.538 17.9221 163.573C18.0741 163.604 18.1985 163.547 18.1985 163.446C18.1985 163.345 18.2702 163.262 18.3578 163.262C18.6044 163.262 20.0004 161.64 20.3413 160.957C20.509 160.622 20.7119 160.347 20.7922 160.347C20.9817 160.347 21.2226 160.068 21.7148 159.277C21.9344 158.924 22.1576 158.634 22.2106 158.634C22.2637 158.634 22.4881 158.459 22.7091 158.247C22.9302 158.034 23.3363 157.729 23.6115 157.569C24.764 156.896 23.8914 156.481 22.4376 157.011C21.9859 157.175 21.5002 157.233 21.1535 157.163C20.8468 157.102 20.5956 157.118 20.5954 157.199C20.595 157.442 19.5884 157.405 19.353 157.152C19.0227 156.797 15.9612 156.818 15.9612 157.175C15.9612 157.316 15.8533 157.432 15.7214 157.432C15.5416 157.432 15.4824 157.229 15.4845 156.618C15.4865 155.975 15.5711 155.718 15.884 155.399C16.1578 155.121 16.2808 154.811 16.2808 154.401C16.2808 153.89 16.2306 153.811 15.9212 153.838C15.7234 153.855 15.4717 153.861 15.3618 153.85C15.0841 153.824 15.1005 152.803 15.3787 152.803C15.4978 152.803 15.6602 152.56 15.7395 152.263C15.8894 151.702 16.055 151.547 16.8127 151.258C17.2002 151.111 17.2511 151.019 17.1688 150.615C17.0958 150.258 17.1503 150.093 17.396 149.929C17.6594 149.753 17.7192 149.756 17.7192 149.942C17.7192 150.319 18.4293 150.916 18.8774 150.916C19.3131 150.916 19.4193 150.719 19.4546 149.845C19.4699 149.465 19.4037 149.373 19.1159 149.371C18.5177 149.366 18.3025 149.121 18.4274 148.588C18.5773 147.947 19.1237 147.144 19.4098 147.144C19.5365 147.144 19.7631 146.99 19.9133 146.802C20.0635 146.614 20.4224 146.412 20.7108 146.354C21.0766 146.281 21.2353 146.154 21.2353 145.935C21.2353 145.762 21.3072 145.574 21.3951 145.515C21.6451 145.349 21.5823 144.744 21.3152 144.744C21.1833 144.744 21.0755 144.821 21.0755 144.915C21.0755 145.009 20.8638 145.087 20.6051 145.087C20.3022 145.087 20.0473 145.22 19.8895 145.462C19.5851 145.928 19.5143 145.858 19.449 145.022C19.409 144.512 19.4679 144.317 19.7085 144.167C20.8036 143.481 21.0737 142.65 20.235 142.546C19.994 142.516 19.7969 142.574 19.7969 142.675C19.7969 142.775 19.6627 142.857 19.4988 142.857C19.3348 142.857 19.005 143.023 18.7659 143.224C18.4353 143.503 18.0876 143.597 17.3154 143.616C16.4201 143.637 16.2893 143.599 16.2105 143.292C16.1136 142.914 16.7484 142.172 17.1687 142.172C17.2957 142.172 17.3996 142.056 17.3996 141.914C17.3996 141.773 17.5392 141.657 17.7098 141.657C17.8804 141.657 18.0644 141.58 18.1188 141.486C18.1731 141.391 18.3433 141.314 18.4969 141.314C18.8701 141.314 19.7989 140.473 19.9752 139.976C20.0625 139.73 20.0471 139.284 19.9347 138.805C19.7923 138.199 19.7995 137.878 19.9682 137.315C20.0864 136.921 20.2515 136.548 20.3352 136.486C20.4189 136.424 20.5201 135.95 20.5601 135.432C20.6253 134.589 20.5976 134.479 20.2948 134.376C20.1089 134.313 19.9567 134.2 19.9567 134.127C19.9567 133.655 20.3835 132.925 20.9175 132.484C21.2599 132.201 21.5435 131.906 21.5476 131.828C21.5581 131.628 21.9065 131.284 22.2342 131.151C22.5772 131.011 22.5962 130.627 22.2742 130.34C21.7876 129.907 22.0775 128.588 22.8172 127.87C23.002 127.69 23.1532 127.406 23.1532 127.237C23.1532 127.068 23.2908 126.827 23.4591 126.7C23.7942 126.449 24.0824 125.225 23.848 125.049C23.5195 124.803 22.9934 123.929 22.9934 123.63C22.9934 123.454 23.1012 123.31 23.2331 123.31C23.4004 123.31 23.4728 123.129 23.4728 122.711C23.4728 122.298 23.572 122.046 23.7925 121.899C23.9683 121.781 24.1121 121.558 24.1121 121.404C24.1121 121.249 24.211 121.035 24.332 120.927C24.6256 120.666 24.7585 118.04 24.5428 116.759C24.3879 115.84 24.3999 115.762 24.743 115.464C25.0526 115.195 25.2569 115.167 26.0884 115.277C26.6276 115.348 27.1889 115.368 27.3356 115.322C27.5022 115.269 27.6382 115.358 27.6978 115.559C27.8133 115.95 27.3845 117.117 27.0795 117.242C26.6878 117.404 26.6178 118.463 26.9584 119.074C27.3559 119.787 27.1733 120.627 26.545 120.976C25.7492 121.417 25.4997 121.851 25.6261 122.574C25.7503 123.284 25.9264 123.475 26.462 123.479C27.1858 123.484 27.6086 123.129 27.6598 122.472C27.7187 121.717 28.1609 121.604 28.2381 122.324C28.266 122.584 28.3807 122.796 28.4931 122.796C28.6054 122.796 28.8276 122.95 28.9867 123.139C29.1507 123.333 29.196 123.482 29.0914 123.482C28.9898 123.482 28.9068 123.63 28.9068 123.812C28.9068 123.994 28.6459 124.373 28.3271 124.655C27.7776 125.141 27.7568 125.197 27.9276 125.722C28.0266 126.027 28.1088 126.438 28.1102 126.636C28.1117 126.835 28.3274 127.258 28.5897 127.577C28.852 127.896 29.0666 128.257 29.0666 128.377C29.0666 128.498 29.1317 128.623 29.2113 128.654C29.2909 128.686 29.3808 128.943 29.4111 129.226C29.4543 129.629 29.3871 129.777 29.1001 129.912C28.6642 130.116 28.6683 130.823 29.1066 131.052C29.2604 131.132 29.5121 131.263 29.6659 131.343C29.8741 131.451 29.9826 131.824 30.0902 132.801C30.214 133.925 30.1969 134.158 29.9703 134.426C29.6016 134.863 29.624 135.484 30.0084 135.484C30.1748 135.484 30.3546 135.606 30.408 135.756C30.5425 136.132 30.5252 137.417 30.3826 137.64C30.2133 137.906 29.6812 138.113 29.2777 138.071C28.9167 138.034 28.0551 138.437 27.616 138.848C27.2073 139.231 25.9688 139.415 25.6232 139.144C25.4617 139.017 25.1995 138.914 25.0405 138.914C24.8815 138.914 24.7514 138.837 24.7514 138.742C24.7514 138.648 24.6435 138.571 24.5116 138.571C24.374 138.571 24.2719 138.416 24.2719 138.208C24.2719 137.929 24.1976 137.866 23.9523 137.935C23.7501 137.991 23.6326 137.94 23.6326 137.795C23.6326 137.462 22.9846 137.281 22.816 137.566C22.7404 137.694 22.6775 138.059 22.6761 138.376C22.6741 138.87 22.7201 138.941 22.9932 138.864C23.4734 138.729 24.1101 139.115 24.2063 139.6C24.2531 139.835 24.3949 140.282 24.5214 140.591C24.6479 140.901 24.7514 141.431 24.7514 141.77C24.7514 142.373 24.762 142.384 25.2708 142.275C25.5565 142.214 25.8142 142.088 25.8435 141.996C25.8728 141.904 26.1065 141.829 26.3629 141.829C26.6193 141.829 26.8291 141.751 26.8291 141.657C26.8291 141.563 26.9369 141.486 27.0688 141.486C27.2006 141.486 27.3085 141.411 27.3085 141.319C27.3085 141.227 27.701 141.03 28.1806 140.88C28.8903 140.659 29.121 140.648 29.4192 140.821C29.6208 140.937 30.2287 141.033 30.77 141.034L31.7542 141.036L31.8583 141.93C31.944 142.666 32.0759 142.948 32.6033 143.525C33.2529 144.236 33.3111 144.615 32.8632 145.215C32.6754 145.467 31.6237 145.507 31.6237 145.262C31.6237 145.17 31.3609 144.95 31.0397 144.773C30.699 144.586 30.3493 144.211 30.2006 143.874C28.8796 143.301 28.1521 143.988 28.4668 145.854C28.388 145.474 28.3528 145.069 28.3887 144.954C28.4808 144.657 28.7469 144.692 28.7469 145.001C28.7469 145.142 28.8188 145.258 28.9067 145.258C28.9946 145.258 29.0666 145.405 29.0666 145.583C29.0666 145.921 29.8312 146.973 30.0764 146.973C30.1531 146.973 30.4248 147.132 30.6801 147.327C31.0409 147.603 31.1442 147.816 31.1442 148.281C31.1442 148.854 31.1678 148.878 31.6592 148.827C32.1117 148.78 32.2133 148.851 32.4982 149.419C32.9045 150.228 34.3016 151.04 35.5602 151.199C36.3517 151.298 36.9021 151.594 36.8954 151.915C36.8869 152.317 36.1165 152.803 35.487 152.803C34.7417 152.803 33.5233 152.337 33.2751 151.956C33.148 151.762 32.9078 151.602 32.7413 151.602C32.5749 151.602 32.3812 151.506 32.3109 151.388C32.2406 151.27 32.0005 151.073 31.7774 150.95C31.2938 150.683 30.505 150.926 30.505 151.341C30.505 151.525 30.3403 151.602 29.9456 151.602C29.4555 151.602 29.3862 151.656 29.3862 152.031C29.3862 152.328 29.4738 152.46 29.6703 152.46C29.8266 152.46 30.0733 152.595 30.2185 152.76C30.7347 153.347 31.6757 154.003 32.0005 154.003C32.1261 154.003 32.2665 153.897 32.3127 153.768C32.4175 153.475 33.1939 153.301 33.3313 153.54C33.3873 153.637 33.4166 154.205 33.3964 154.803C33.3763 155.4 33.4186 155.889 33.4906 155.889C33.7059 155.889 34.4345 156.637 34.553 156.979C34.6339 157.212 34.764 157.27 35.0409 157.196C35.4608 157.082 36.3484 157.634 36.6431 158.192C36.7393 158.374 36.9977 158.695 37.2175 158.906C37.4372 159.117 37.557 159.354 37.4837 159.432C37.4103 159.511 36.6012 159.558 35.6857 159.537C34.0341 159.498 34.021 159.501 34.021 159.901C34.021 160.209 34.1307 160.328 34.4862 160.404C34.927 160.499 34.9468 160.54 34.8647 161.197C34.7794 161.879 34.786 161.89 35.2786 161.89C35.5539 161.89 35.7791 161.949 35.7791 162.02C35.7791 162.28 37.4577 162.847 38.6222 162.981C39.5508 163.088 39.8052 163.342 39.6833 164.039C39.5911 164.566 39.6197 164.609 40.1996 164.811C40.8145 165.025 41.6925 165.886 41.6925 166.274C41.6925 166.388 41.4408 166.609 41.1331 166.766C40.8255 166.922 40.5737 167.124 40.5737 167.214C40.5737 167.304 40.3234 167.377 40.0174 167.377C39.5404 167.377 39.4473 167.445 39.3648 167.849C39.3118 168.108 39.1519 168.568 39.0095 168.87C38.762 169.396 38.7656 169.434 39.0914 169.737C39.5441 170.158 39.3581 170.396 38.576 170.395C37.4387 170.395 37.0577 170.58 37.0577 171.132C37.0577 172.148 36.5481 172.189 34.7771 171.313C34.5057 171.179 34.2658 171.201 33.8233 171.399C33.4982 171.545 33.017 171.664 32.754 171.664C32.3388 171.664 32.2759 171.726 32.2763 172.136C32.2766 172.395 32.2376 172.877 32.1899 173.207C32.109 173.767 32.1565 173.851 32.892 174.444C33.3259 174.795 33.8561 175.129 34.0702 175.186C34.569 175.321 34.8287 175.85 34.8924 176.863C34.9517 177.807 35.1889 178.18 35.7302 178.18C36.1306 178.18 36.5782 178.531 36.5782 178.845C36.5782 179.174 38.0223 180.105 38.4093 180.025C38.708 179.964 38.8228 180.065 39.021 180.565C39.5461 181.89 39.5521 181.873 38.5729 181.808C37.9337 181.765 37.6363 181.66 37.4818 181.423C37.1882 180.974 35.3591 180.998 35.1313 181.455C34.8897 181.939 35.1244 182.783 35.5176 182.843C35.8143 182.888 35.8653 183.024 35.9069 183.881C35.9505 184.778 35.9251 184.867 35.6272 184.867C35.447 184.867 35.2996 184.79 35.2996 184.696C35.2996 184.594 34.7146 184.524 33.8643 184.524C32.4813 184.524 32.4254 184.539 32.3324 184.937C32.2793 185.164 32.3178 185.514 32.4181 185.715C32.5183 185.916 32.5589 186.22 32.5083 186.391C32.3991 186.761 33.271 187.848 33.8213 188.03C34.019 188.095 34.1809 188.22 34.1809 188.308C34.1809 188.396 34.2579 188.468 34.3521 188.468C34.5749 188.468 34.8446 188.781 35.1268 189.368C35.2516 189.628 35.4148 189.84 35.4896 189.84C35.5644 189.84 35.9055 190.029 36.2475 190.261C36.6678 190.546 36.904 190.851 36.9762 191.204C37.035 191.491 37.1357 191.726 37.2 191.726C37.5528 191.726 37.9815 192.461 38.0765 193.229C38.1902 194.149 38.4832 194.546 39.1852 194.734C39.4323 194.801 39.7874 195.077 39.9744 195.348C40.2035 195.68 40.4555 195.841 40.748 195.841C41.0924 195.841 41.2185 195.954 41.3602 196.39C41.5212 196.886 41.4995 196.975 41.1361 197.31C40.9147 197.514 40.7336 197.802 40.7336 197.95C40.7336 198.098 40.5717 198.278 40.374 198.352C39.8507 198.546 38.4971 198.528 38.4954 198.327C38.4929 198.054 37.5556 197.556 37.0447 197.556C36.6557 197.556 36.5782 197.626 36.5782 197.977C36.5782 198.44 35.8552 199.27 35.4531 199.27C35.3159 199.27 35.1331 199.195 35.0467 199.102C34.9604 199.009 34.6044 198.902 34.2556 198.865C33.285 198.759 33.0952 198.616 32.9837 197.908C32.9145 197.469 32.7583 197.188 32.5005 197.04C31.9266 196.711 31.9416 196.182 32.5425 195.564C32.9152 195.18 33.0621 194.875 33.0621 194.484C33.0621 193.818 33.6766 193.098 34.2441 193.098C34.736 193.098 34.8688 193.315 34.9758 194.298C35.0475 194.956 35.1342 195.107 35.5658 195.327C35.8894 195.491 36.1217 195.769 36.2102 196.098C36.3163 196.492 36.4555 196.626 36.8057 196.669C37.064 196.701 37.3213 196.627 37.3975 196.498C37.6029 196.15 37.5627 195.498 37.3358 195.498C37.2251 195.498 37.0447 195.344 36.9349 195.155C36.8251 194.967 36.6405 194.812 36.5246 194.812C36.3814 194.812 36.3364 194.647 36.3843 194.298C36.4265 193.989 36.3833 193.783 36.2767 193.783C36.1788 193.783 36.0987 193.528 36.0987 193.216C36.0987 192.875 35.9717 192.515 35.7811 192.315C35.6063 192.133 35.3187 191.835 35.1418 191.653C34.9649 191.471 34.8202 191.199 34.8202 191.048C34.8202 190.897 34.7082 190.602 34.5714 190.392C34.3713 190.086 34.1677 190.011 33.5325 190.011C32.9518 190.011 32.7425 189.946 32.7425 189.764C32.7425 189.6 32.4909 189.482 31.9833 189.411C30.6432 189.221 30.3451 189.131 30.3451 188.915C30.3451 188.689 29.5028 187.954 29.2443 187.954C29.066 187.954 28.4273 189.692 28.4273 190.178C28.4273 190.357 28.3438 190.72 28.2417 190.986C28.0288 191.54 27.9615 193.955 28.159 193.955C28.3759 193.955 28.6674 193.56 28.8986 192.954C29.301 191.899 29.4883 191.822 30.2313 192.408C30.5923 192.693 30.9736 192.926 31.0787 192.926C31.1839 192.926 31.2985 193.023 31.3336 193.14C31.5345 193.817 31.1441 196.921 30.8117 197.29C30.486 197.651 30.844 198.413 31.3392 198.413C31.7383 198.413 32.7425 199.758 32.7425 200.293C32.7425 200.566 32.8503 200.905 32.9822 201.046C33.114 201.188 33.2219 201.551 33.2219 201.853C33.2219 202.414 33.7679 203.557 34.036 203.557C34.1178 203.557 34.5614 203.946 35.0218 204.421C35.4823 204.897 36.0568 205.415 36.2985 205.573C36.5402 205.731 36.738 205.928 36.738 206.011C36.738 206.421 37.4268 207.158 37.8094 207.158C38.2025 207.158 38.9755 207.846 38.9755 208.196C38.9755 208.285 39.0834 208.358 39.2153 208.358C39.3471 208.358 39.455 208.427 39.455 208.51C39.455 208.594 39.7067 208.79 40.0144 208.947C40.322 209.103 40.5742 209.324 40.5747 209.438C40.5752 209.551 40.6704 209.839 40.786 210.077C40.9017 210.314 41.0968 210.874 41.2196 211.32C41.4613 212.198 41.5545 212.259 42.6814 212.269C43.9148 212.28 44.9019 213.338 44.3214 214.026C44.1917 214.18 43.691 214.407 43.2087 214.532C42.7264 214.656 42.3318 214.831 42.3318 214.92C42.3318 215.01 42.2059 214.929 42.0521 214.74C41.6809 214.283 40.3892 214.137 39.5349 214.455C39.0524 214.634 38.7453 214.649 38.2827 214.515C37.6711 214.339 36.0048 214.458 35.6992 214.7C35.6113 214.769 35.2573 214.873 34.9125 214.93C34.1333 215.059 33.3838 214.705 32.8523 213.958C32.6403 213.66 32.2411 213.158 31.9653 212.841C31.6895 212.525 31.4639 212.197 31.4639 212.112C31.4639 212.028 31.356 211.959 31.2242 211.959C31.0923 211.959 30.9844 211.882 30.9844 211.788C30.9844 211.693 30.8825 211.616 30.7579 211.616C30.3737 211.616 30.1428 213.25 30.1041 216.243C30.0772 218.324 30.1222 219.161 30.2748 219.415C30.3888 219.605 30.5655 220.571 30.6674 221.561C30.7693 222.551 30.9178 223.516 30.9974 223.705C31.1311 224.021 31.1084 226.388 30.9243 231.334C30.884 232.419 30.9086 233.383 30.9791 233.478C31.0497 233.572 31.1562 233.895 31.216 234.195C31.2757 234.495 31.4175 234.823 31.531 234.924C31.6907 235.066 31.7006 235.307 31.5749 235.99C31.4315 236.767 31.4469 236.899 31.7047 237.101C31.9572 237.299 31.9703 237.394 31.8007 237.793C31.6629 238.117 31.6373 238.709 31.715 239.775C31.808 241.05 31.7791 241.406 31.5351 241.986C31.2833 242.586 31.2702 242.782 31.4371 243.451C31.5527 243.915 31.5901 244.647 31.5304 245.281C31.4609 246.021 31.512 246.671 31.7005 247.447C31.8487 248.057 31.97 248.896 31.97 249.313C31.97 250.102 32.3485 250.764 32.7647 250.702C33.5401 250.587 34.1434 250.756 34.642 251.228C34.9396 251.509 35.3113 251.739 35.468 251.739C36.1085 251.739 36.2585 251.929 36.261 252.744C36.264 253.726 36.3612 253.894 37.0177 254.046C37.5143 254.162 37.5371 254.144 37.5371 253.647C37.5371 253.058 37.2392 252.254 37.0206 252.254C36.9405 252.254 36.9852 252.136 37.12 251.991C37.3233 251.773 37.4202 251.765 37.6907 251.947C37.9445 252.117 38.0166 252.345 38.0166 252.981C38.0166 253.852 38.0556 253.883 38.9301 253.695C39.3834 253.598 39.4104 253.541 39.5494 252.384L39.6947 251.174L40.4938 250.957C41.1668 250.775 41.3131 250.779 41.4207 250.983C41.6182 251.357 42.7905 251.283 43.6441 250.842C44.4916 250.405 44.5972 250.053 44.0202 249.588C43.7152 249.342 43.6418 249.146 43.6806 248.681C43.7273 248.123 43.7663 248.086 44.3495 248.055C45.1087 248.015 45.8427 248.305 45.8628 248.652C45.9545 250.241 45.999 250.416 46.4327 250.89C46.8885 251.389 47.2863 251.545 47.2863 251.225C47.2863 250.974 47.5478 251.016 47.8228 251.311C47.9547 251.452 48.173 251.568 48.3081 251.568C48.4431 251.568 48.6276 251.716 48.718 251.898C48.8084 252.079 48.9959 252.349 49.1346 252.498C49.2733 252.647 49.3097 252.768 49.2155 252.768C48.9616 252.768 49.0079 253.278 49.2717 253.387C49.3967 253.439 49.6591 253.309 49.8547 253.099C50.1455 252.787 50.1769 252.66 50.0269 252.402C49.7349 251.901 49.8086 251.668 50.3397 251.416L50.836 251.18L50.715 249.874C50.5702 248.309 50.5801 247.945 50.7711 247.811C50.8506 247.756 50.9215 247.453 50.9286 247.14C50.9365 246.79 51.0691 246.45 51.2715 246.262C51.453 246.093 51.6014 245.874 51.6014 245.774C51.6014 245.664 51.7887 245.693 52.0809 245.85C52.3446 245.991 52.5604 246.178 52.5604 246.265C52.5604 246.352 52.6683 246.424 52.8001 246.424C53.2366 246.424 53.177 247.703 52.716 248.229C52.2738 248.734 52.2673 250.025 52.7072 250.025C53.1835 250.025 53.5193 250.21 53.5193 250.472C53.5193 250.603 53.6572 250.711 53.8257 250.711C53.9941 250.711 54.156 250.778 54.1853 250.861C54.2146 250.944 54.4723 251.066 54.7579 251.132C55.2052 251.236 55.2774 251.206 55.2774 250.917C55.2774 250.732 55.3853 250.485 55.5171 250.368C55.649 250.25 55.7568 249.969 55.7568 249.742C55.7568 249.334 56.0186 249.147 56.9406 248.899C57.2712 248.81 57.331 248.884 57.4952 249.583C57.6365 250.185 57.7532 250.368 57.9967 250.368C58.1712 250.368 58.314 250.304 58.314 250.226C58.314 250.148 58.5298 250.118 58.7935 250.16C59.1836 250.221 59.2729 250.174 59.2729 249.907C59.2729 249.369 60.249 249.585 60.6393 250.211C60.8108 250.485 60.9965 250.71 61.0521 250.71C61.1077 250.71 61.4382 251.017 61.7866 251.39C62.2421 251.879 62.6066 252.102 63.084 252.184C63.6463 252.28 63.7479 252.36 63.7479 252.704C63.7479 253.208 64.25 253.258 64.6791 252.798C64.8397 252.626 65.0914 252.435 65.2385 252.375C65.6232 252.216 65.5678 251.791 65.1216 251.477C64.422 250.985 64.4253 249.875 65.1275 249.531C65.8148 249.195 66.3928 249.29 66.5977 249.772C66.6989 250.011 66.8884 250.25 67.0188 250.303C67.2926 250.416 67.7435 249.995 67.7435 249.627C67.7435 249.489 67.932 249.325 68.1623 249.263C68.975 249.044 69.3652 248.17 69.0335 247.311C68.932 247.048 68.8236 246.259 68.7925 245.557C68.7615 244.855 68.6924 244.011 68.6391 243.681C68.4711 242.642 68.4466 241.966 68.5768 241.966C68.6459 241.966 68.7024 241.85 68.7024 241.709C68.7024 241.567 68.592 241.451 68.4571 241.451C68.2581 241.451 68.2453 241.384 68.3895 241.095C68.4872 240.899 68.5178 240.61 68.4575 240.452C68.3972 240.294 68.3311 239.92 68.3107 239.621C68.2832 239.216 68.3489 239.056 68.5679 238.994C68.899 238.901 68.967 238.209 68.698 237.67C68.4703 237.214 68.2367 235.793 68.3894 235.793C68.4582 235.793 68.559 235.465 68.6133 235.064C68.6677 234.663 68.8349 233.924 68.985 233.42C69.2336 232.586 69.2353 232.487 69.0041 232.305C68.7382 232.097 68.782 231.988 69.3817 231.374C69.7955 230.95 69.724 230.707 69.1419 230.562C68.8063 230.479 68.7177 230.407 68.8916 230.359C69.1515 230.288 69.2114 230.107 69.4339 228.72C69.4951 228.339 69.6274 228.077 69.759 228.077C69.8811 228.077 69.981 227.927 69.981 227.744C69.981 227.561 70.0481 227.367 70.1301 227.312C70.324 227.184 70.1741 223.209 69.9725 223.133C69.8893 223.101 69.8212 222.915 69.8212 222.718C69.8212 222.521 69.7199 222.238 69.5962 222.089C69.2934 221.725 69.1983 219.638 69.4685 219.289C69.7437 218.933 69.544 217.663 69.1455 217.235C68.8959 216.968 68.8593 216.772 68.9503 216.194C69.012 215.802 69.1672 215.31 69.2952 215.1C69.4248 214.888 69.483 214.567 69.4264 214.376C69.3703 214.186 69.4283 213.856 69.5563 213.639C70.0263 212.84 70.035 212.481 69.595 212.043C69.1265 211.577 69.05 210.84 69.4165 210.32C69.567 210.106 69.653 209.576 69.6562 208.839C69.6612 207.758 69.6871 207.678 70.1008 207.463C70.5919 207.209 70.6198 206.905 70.3502 204.742C70.2411 203.867 70.2575 203.564 70.4229 203.398C70.5705 203.25 70.6265 202.787 70.6045 201.896C70.5811 200.949 70.6318 200.569 70.7963 200.46C70.9553 200.355 71.0283 199.89 71.0494 198.85C71.0657 198.045 71.1193 197.317 71.1685 197.232C71.3562 196.906 71.0525 195.482 70.7462 195.252C70.4856 195.056 70.4359 194.798 70.4247 193.587C70.4174 192.799 70.4674 191.711 70.5356 191.169C70.6427 190.318 70.6241 190.183 70.4003 190.183C70.1007 190.183 70.0798 189.98 70.2963 189.17C70.4976 188.417 70.0663 186.41 69.7032 186.41C69.5345 186.41 69.4867 186.536 69.5406 186.839C69.5826 187.075 69.5599 187.268 69.4901 187.268C69.4203 187.268 69.314 187.434 69.2538 187.637C69.1937 187.841 68.9837 188.169 68.7872 188.366C68.3969 188.758 67.9832 189.905 68.1362 190.171C68.1889 190.262 68.0861 190.629 67.9078 190.986C67.7121 191.378 67.5836 191.959 67.5836 192.452C67.5836 192.908 67.5095 193.269 67.4159 193.269C67.3166 193.269 67.2629 193.614 67.2842 194.115C67.3052 194.608 67.2343 195.073 67.1144 195.228C67.0012 195.374 66.9483 195.605 66.9969 195.741C67.0454 195.876 66.9785 196.082 66.8481 196.199C66.6814 196.347 66.6166 196.72 66.6302 197.454C66.6407 198.029 66.6009 198.779 66.5418 199.122C66.4141 199.862 66.6664 200.471 67.1003 200.471C67.4858 200.471 67.5923 200.655 67.4778 201.125C67.4084 201.41 67.3033 201.473 67.0271 201.399C66.4729 201.25 65.9854 202.023 65.9854 203.051C65.9854 203.502 65.9088 203.899 65.8153 203.932C65.7217 203.966 65.6055 204.31 65.5571 204.697C65.4841 205.281 65.4179 205.386 65.1679 205.316C64.9058 205.243 64.8666 205.332 64.8666 206.002C64.8666 206.759 64.855 206.776 64.2229 206.949C63.5148 207.141 63.1086 206.908 63.1086 206.31C63.1086 206.14 63.0647 205.765 63.0112 205.478C62.9222 205.001 62.9536 204.95 63.3708 204.899C63.753 204.852 63.8528 204.735 63.9803 204.18C64.107 203.63 64.0867 203.482 63.8604 203.304C63.5064 203.027 63.5161 202.797 63.8941 202.506C64.3003 202.194 64.5123 201.156 64.1699 201.156C63.9536 201.156 63.9541 201.072 64.1752 200.376C64.3116 199.946 64.3853 199.554 64.3389 199.504C64.2926 199.455 64.3564 199.153 64.4808 198.833C64.6051 198.514 64.7069 197.862 64.7069 197.384C64.7069 196.88 64.8132 196.341 64.9599 196.101C65.099 195.873 65.17 195.541 65.1176 195.364C65.0566 195.158 65.1667 194.862 65.4238 194.541C65.8666 193.989 65.9527 193.44 65.5967 193.44C65.4708 193.44 65.3221 193.286 65.2663 193.098C65.1635 192.75 64.7069 192.61 64.7069 192.926C64.7069 193.02 64.563 193.098 64.3872 193.098C64.2114 193.098 64.0676 193.157 64.0676 193.23C64.0676 193.303 63.7979 193.514 63.4683 193.699C62.7812 194.085 61.6703 195.258 61.6703 195.598C61.6703 195.724 61.3747 196.151 61.0135 196.546C60.4918 197.117 60.3522 197.4 60.3343 197.924C60.3115 198.59 60.2774 198.619 59.5127 198.619C58.7779 198.619 58.6683 198.586 58.5798 198.338C58.437 197.939 58.9545 196.265 59.3693 195.785C59.58 195.541 59.7524 195.261 59.7524 195.163C59.7524 195.064 59.8243 194.984 59.9122 194.984C60.0001 194.984 60.072 194.796 60.072 194.566C60.072 193.914 60.3082 193.408 60.9335 192.72C61.2508 192.371 61.5104 191.966 61.5104 191.82C61.5104 191.674 61.5824 191.554 61.6703 191.554C61.7582 191.554 61.8301 191.4 61.8301 191.211C61.8301 191.023 61.8972 190.868 61.9791 190.868C62.0611 190.868 62.1699 190.727 62.2209 190.555C62.2719 190.383 62.4386 190.242 62.5913 190.243C64.3849 190.25 64.6363 190.187 65.2355 189.58C65.7353 189.074 65.8571 188.807 65.9959 187.908C66.0868 187.32 66.2015 186.588 66.2506 186.282C66.2998 185.975 66.4057 185.724 66.4858 185.724C66.566 185.724 66.7172 185.512 66.8218 185.253C67.1672 184.397 67.9873 183.667 68.6042 183.667C69.4627 183.667 69.907 183.409 70.2037 182.738C70.3532 182.4 70.544 182.124 70.6278 182.124C70.7116 182.124 70.7801 182.013 70.7801 181.879C70.7801 181.744 70.8948 181.511 71.035 181.36C71.2183 181.164 71.2744 180.847 71.2348 180.233C71.2045 179.764 71.2339 179.38 71.2996 179.38C71.3655 179.38 71.4194 179.264 71.4194 179.123C71.4194 178.981 71.3619 178.866 71.2917 178.866C70.95 178.866 70.6186 176.848 70.86 176.237C71.0132 175.849 71.0135 173.178 70.8603 172.319C70.7941 171.948 70.8272 171.43 70.9407 171.061C71.0918 170.57 71.0912 170.272 70.9383 169.685C70.7696 169.039 70.7782 168.898 71.0013 168.659C71.193 168.453 71.2597 168.053 71.2597 167.108C71.2597 166.373 71.1921 165.834 71.0999 165.834C71.012 165.834 70.9401 165.577 70.9401 165.263C70.9401 164.948 70.8961 164.644 70.8424 164.586C70.6795 164.411 70.6712 162.206 70.8298 161.262C70.962 160.476 70.9416 160.335 70.6464 159.995C70.3185 159.617 70.3695 159.162 70.7693 158.897C70.9621 158.769 70.7823 156.867 70.5631 156.714C70.4701 156.649 70.4112 156.321 70.4323 155.985C70.4607 155.533 70.407 155.375 70.2259 155.375C70.0913 155.375 69.9811 155.49 69.9811 155.632C69.9811 155.773 69.9092 155.889 69.8213 155.889C69.7334 155.889 69.6615 155.997 69.6615 156.128C69.6615 156.259 69.5536 156.411 69.4218 156.465C69.168 156.57 69.0815 157.432 69.3248 157.432C69.6396 157.432 69.6703 158.024 69.3689 158.283C68.9559 158.637 68.9161 160.118 69.3165 160.232C69.522 160.29 69.5277 160.312 69.3419 160.328C69.21 160.339 68.9824 160.676 68.836 161.077C68.5068 161.977 68.2888 164.291 68.5331 164.291C68.6263 164.291 68.7026 164.478 68.7026 164.707C68.7026 164.959 68.8128 165.154 68.9823 165.202C69.2145 165.267 69.2182 165.283 69.0041 165.3C68.7927 165.316 68.7228 165.652 68.6163 167.163C68.5448 168.177 68.4811 169.534 68.4746 170.18C68.4637 171.265 68.4276 171.384 67.9946 171.754C67.5289 172.153 67.5242 172.153 67.134 171.824C66.6027 171.375 66.3599 171.407 66.2348 171.942C66.0771 172.616 65.7146 172.95 65.4226 172.69C65.2937 172.575 65.0437 172.521 64.867 172.571C64.4403 172.691 64.2817 172.033 64.5262 171.157C64.6257 170.801 64.707 169.81 64.707 168.954C64.707 167.465 64.7276 167.374 65.1865 166.835C65.5439 166.416 65.666 166.105 65.666 165.617C65.666 165.2 65.7817 164.829 65.9856 164.594C66.1614 164.392 66.3053 164.125 66.3053 164.001C66.3053 163.878 66.3808 163.777 66.4732 163.777C66.5656 163.777 66.7529 163.487 66.8893 163.134C67.0258 162.78 67.2789 162.155 67.4517 161.745C67.6245 161.335 67.729 160.896 67.6838 160.77C67.6387 160.644 67.6877 160.507 67.7926 160.466C67.9375 160.41 67.9393 160.312 67.8003 160.058C67.6 159.692 67.6915 158.804 67.9295 158.804C68.0112 158.804 68.0613 158.456 68.0407 158.03C68.0202 157.605 68.0888 157.165 68.1932 157.053C68.2976 156.941 68.383 156.645 68.383 156.395C68.383 155.813 68.6904 154.86 68.8781 154.86C68.9574 154.86 69.0223 154.59 69.0223 154.26C69.0223 153.841 68.95 153.66 68.7825 153.66C68.3579 153.66 68.5277 153.342 68.9823 153.286C69.4218 153.231 69.4218 153.231 69.4412 151.765C69.4546 150.754 69.5451 150.124 69.7325 149.735C69.882 149.425 69.9654 149.062 69.9179 148.929C69.8703 148.796 69.9101 148.687 70.0062 148.687C70.1168 148.687 70.1442 148.49 70.0807 148.15C70.0256 147.854 70.0581 147.303 70.153 146.925C70.2889 146.384 70.2804 146.207 70.1134 146.093C69.9538 145.985 69.9507 145.949 70.1011 145.947C70.3261 145.944 70.3759 145.328 70.1624 145.187C70.0863 145.136 70.0588 144.9 70.1012 144.662C70.1598 144.333 70.1114 144.229 69.8988 144.229C69.4943 144.229 68.5428 144.901 68.5428 145.186C68.5428 145.356 68.3489 145.43 67.9035 145.43C67.4222 145.43 67.2642 145.498 67.2642 145.706C67.2642 145.925 67.1562 145.96 66.7383 145.876C66.0656 145.741 64.9815 146.453 64.6215 147.267C64.4845 147.577 64.3039 147.83 64.2201 147.83C64.1363 147.83 64.0678 148.006 64.0678 148.221C64.0678 148.435 63.9278 148.74 63.7567 148.897C62.9135 149.672 63.0764 151.718 64.0017 151.975C64.4557 152.101 64.4685 152.135 64.5136 153.339C64.5416 154.084 64.662 154.759 64.8173 155.041C64.9799 155.336 65.0283 155.625 64.9488 155.827C64.7561 156.316 64.7266 158.348 64.9086 158.592C65.023 158.746 64.9817 158.896 64.7664 159.107C64.5995 159.27 64.258 159.744 64.0076 160.158C63.621 160.799 63.5636 161.04 63.6278 161.756C63.6818 162.36 63.6359 162.672 63.4661 162.854C63.3033 163.029 63.2549 163.317 63.3116 163.771C63.3815 164.33 63.3273 164.502 62.9632 164.877C62.2841 165.575 61.8991 165.463 61.9817 164.591C61.9974 164.426 61.939 164.291 61.852 164.291C61.5363 164.291 61.5899 163.677 61.9567 163.092C62.1777 162.739 62.3035 162.332 62.2625 162.102C62.2242 161.887 62.2551 161.669 62.3312 161.619C62.4073 161.569 62.4696 161.24 62.4696 160.89C62.4696 160.298 62.7195 159.73 63.2222 159.178C63.3356 159.053 63.4285 158.696 63.4285 158.385C63.4285 158.073 63.5303 157.509 63.6547 157.13C63.8065 156.669 63.851 156.083 63.79 155.351C63.7155 154.459 63.6236 154.19 63.2841 153.875C63.0558 153.662 62.7433 153.489 62.5894 153.489C62.4356 153.489 62.3097 153.373 62.3097 153.231C62.3097 152.88 62.0451 152.909 61.5069 153.32C60.9889 153.716 60.581 154.789 60.8421 155.069C60.9556 155.191 60.8936 155.377 60.6434 155.667C60.3417 156.016 60.2762 156.295 60.2588 157.305C60.2473 157.975 60.1691 158.568 60.0851 158.624C59.8684 158.768 59.5928 159.605 59.5928 160.119C59.5928 160.38 59.7534 160.691 59.9923 160.892C60.2797 161.135 60.3919 161.394 60.3919 161.817C60.3919 162.14 60.4562 162.405 60.5349 162.405C60.7151 162.405 60.8464 163.773 60.6769 163.885C60.608 163.931 60.5517 164.383 60.5517 164.89C60.5517 165.644 60.6067 165.83 60.8549 165.914C61.0614 165.985 61.132 166.125 61.076 166.355C61.0308 166.54 60.9303 166.692 60.8527 166.692C60.7751 166.692 60.7115 166.806 60.7115 166.947C60.7115 167.111 60.487 167.24 60.0783 167.311C59.6991 167.376 59.1959 167.648 58.8242 167.989C58.2112 168.552 57.5403 168.645 57.4974 168.172C57.4339 167.471 57.5071 166.535 57.6575 166.124C57.7545 165.859 57.8357 165.281 57.8378 164.838C57.8397 164.396 57.8421 163.802 57.8428 163.519C57.8433 163.236 57.8202 162.426 57.7911 161.719C57.7611 160.99 57.8343 160.025 57.9601 159.49C58.0822 158.971 58.246 158.277 58.3242 157.947C58.4024 157.617 58.468 157.072 58.4701 156.736C58.4721 156.401 58.5796 155.976 58.7086 155.793C58.8377 155.61 58.9455 155.098 58.9483 154.656C58.9512 154.214 59.0253 153.804 59.1132 153.746C59.2011 153.687 59.2731 153.505 59.2731 153.339C59.2731 153.174 59.3989 152.889 59.5528 152.706C59.7066 152.524 60.0122 152.085 60.232 151.732C60.4518 151.379 60.6855 151.09 60.7514 151.089C60.8173 151.089 60.8713 150.911 60.8713 150.696C60.8713 150.48 61.0151 150 61.1909 149.631C61.3667 149.261 61.5106 148.677 61.5106 148.333C61.5106 147.905 61.636 147.564 61.9101 147.246C62.1299 146.992 62.3097 146.672 62.3097 146.535C62.3097 146.399 62.3732 146.287 62.4509 146.287C62.5285 146.287 62.6297 146.133 62.6756 145.944C62.7217 145.755 62.8738 145.601 63.0139 145.601C63.154 145.601 63.2686 145.529 63.2686 145.441C63.2686 145.353 63.4285 145.227 63.624 145.16C64.0791 145.005 65.3463 143.613 65.3463 143.267C65.3463 142.908 65.7398 142.515 66.0995 142.515C66.2639 142.515 66.5312 142.269 66.6991 141.964C66.8658 141.662 67.0311 141.507 67.0666 141.621C67.1521 141.897 67.3605 141.883 68.1778 141.548C68.5543 141.394 68.8624 141.162 68.8624 141.034C68.8624 140.878 69.0633 140.799 69.4617 140.797C69.7914 140.796 70.1392 140.738 70.2347 140.669C70.5798 140.418 70.789 139.361 70.6863 138.386C70.6273 137.827 70.6537 137.281 70.749 137.09C70.8489 136.89 70.8686 136.352 70.7991 135.719C70.7362 135.146 70.7498 134.468 70.8295 134.211C70.9481 133.83 70.9069 133.668 70.6018 133.32C70.3371 133.018 70.2843 132.858 70.4193 132.768C70.6212 132.634 70.6841 130.377 70.5148 129.345C70.4399 128.889 70.3556 128.789 70.0816 128.831C69.799 128.874 69.7217 129.043 69.6249 129.826C69.5574 130.372 69.5804 131.11 69.6794 131.577C69.8224 132.253 69.8056 132.478 69.5768 132.949C69.2279 133.667 69.0607 136.064 69.3348 136.418C69.4889 136.618 69.471 136.773 69.2476 137.179C68.5964 138.362 68.0633 137.83 68.0633 135.998C68.0633 135.444 67.9913 134.943 67.9035 134.884C67.6257 134.7 67.7269 133.589 68.0633 133.131C68.4779 132.565 68.4813 132.055 68.0705 132.055C67.7026 132.055 67.478 131.137 67.6608 130.381C67.9272 129.279 67.9339 128.34 67.6775 128.065C67.5381 127.915 67.424 127.71 67.424 127.609C67.424 127.508 67.3341 127.424 67.2242 127.423C67.1143 127.422 66.8626 127.374 66.6648 127.317C66.4005 127.241 66.3052 127.287 66.3052 127.491C66.3052 127.644 66.2333 127.768 66.1454 127.768C65.9091 127.768 65.9514 128.099 66.2253 128.393C66.5979 128.793 66.5116 129.253 65.9456 129.887C65.0469 130.892 64.707 131.364 64.707 131.607C64.707 131.736 64.5952 131.941 64.4586 132.063C64.2516 132.247 64.1577 132.228 63.8962 131.947C63.6217 131.653 63.6057 131.538 63.7689 131.036C63.9149 130.587 63.9112 130.385 63.7519 130.112C63.5251 129.722 63.5109 127.758 63.7315 127.291C64.0559 126.605 64.2084 126.095 64.2995 125.394C64.3527 124.984 64.5021 124.534 64.6316 124.396C64.761 124.257 64.8669 123.992 64.8669 123.807C64.8669 123.622 64.9714 123.428 65.0992 123.375C65.3753 123.262 65.9683 122.26 66.2477 121.436C66.3574 121.113 66.559 120.781 66.6958 120.699C66.8326 120.617 66.9446 120.444 66.9446 120.315C66.9446 120.186 66.9985 120.055 67.0644 120.024C67.3331 119.896 67.7437 118.846 67.7437 118.288C67.7437 117.617 68.0374 116.916 68.5423 116.382C69.1341 115.755 70.141 114.198 70.141 113.91C70.141 113.439 70.5271 111.822 70.6395 111.822C70.8496 111.822 70.9441 110.95 70.7714 110.604C70.6447 110.349 70.6428 110.025 70.7647 109.45C70.8612 108.995 70.8805 108.391 70.8094 108.049C70.7265 107.651 70.754 107.305 70.8913 107.021C71.1352 106.515 71.1628 105.882 70.9472 105.739C70.8631 105.683 70.8376 105.517 70.8905 105.369C70.9435 105.221 70.9224 105.05 70.8436 104.988C70.5867 104.789 70.3088 104.131 70.4574 104.075C70.6639 103.996 70.3816 100.962 70.1603 100.883C70.0618 100.848 69.9812 100.678 69.9812 100.505C69.9812 100.332 69.9082 100.164 69.8189 100.132C69.7154 100.095 69.7387 99.826 69.8832 99.3893C70.0079 99.0126 70.203 98.3571 70.3169 97.9327C70.5577 97.0354 70.8638 96.4546 71.3744 95.9262C71.5751 95.7185 71.7393 95.4291 71.7393 95.2832C71.7393 94.7853 71.0072 95.0102 70.186 95.7604C69.4817 96.4038 69.3419 96.579 69.3419 96.8182C69.3419 97.1592 68.8872 97.5898 68.5271 97.5898C68.1033 97.5898 67.2136 98.4883 66.405 99.7328C65.8516 100.585 65.7304 100.917 65.7012 101.662C65.6818 102.157 65.7265 102.562 65.8005 102.562C66.0456 102.562 65.7321 104.031 65.3168 104.828C65.0921 105.26 64.8572 105.978 64.7948 106.425C64.7323 106.871 64.6013 107.425 64.5035 107.655C64.3691 107.972 64.3732 108.105 64.5201 108.203C64.6706 108.303 64.6626 108.465 64.4846 108.922C64.2423 109.544 64.3771 111.022 64.7085 111.377C64.7956 111.471 64.8669 111.725 64.8669 111.942C64.8669 112.19 64.9623 112.336 65.1238 112.336C65.2923 112.336 65.3472 112.429 65.2836 112.607C65.2302 112.756 65.1855 113.046 65.1841 113.25C65.1827 113.455 65.1231 113.721 65.0515 113.842C64.9122 114.078 64.3875 113.95 64.3875 113.681C64.3875 113.592 64.2436 113.2 64.0678 112.81C63.892 112.42 63.7482 111.814 63.7482 111.465C63.7482 111.039 63.6634 110.795 63.4906 110.723C63.3085 110.648 63.2535 110.467 63.3031 110.105C63.3416 109.823 63.3206 109.593 63.2562 109.593C63.0536 109.593 63.2561 108.184 63.4875 107.983C63.6593 107.835 63.6862 107.468 63.6084 106.334C63.543 105.38 63.5744 104.668 63.6992 104.276C63.8041 103.947 63.8941 103.55 63.899 103.395C63.9115 103.006 63.2231 102.855 62.4996 103.087C61.63 103.367 61.1646 104.208 61.1401 105.544C61.1202 106.629 60.8163 107.308 60.5544 106.854C60.4768 106.719 60.2771 106.671 60.0482 106.733C59.3793 106.913 59.2328 106.661 59.3558 105.543C59.4169 104.988 59.5652 104.366 59.6854 104.161C59.9873 103.647 61.2491 102.166 62.3498 101.036C62.8552 100.517 63.2687 100.002 63.2687 99.8926C63.2687 99.6385 64.2861 98.9129 65.0661 98.6107C65.3954 98.4831 65.7054 98.2414 65.7551 98.0735C65.8047 97.9057 66.0597 97.6325 66.3217 97.4665C66.8325 97.1427 67.0266 96.6406 66.905 95.9577C66.8421 95.6049 66.8916 95.5322 67.1951 95.5322C67.3964 95.5322 67.669 95.4165 67.8008 95.275C67.9327 95.1335 68.1051 95.0178 68.1839 95.0178C68.2628 95.0178 68.4962 94.8249 68.7027 94.5891C68.9091 94.3533 69.2053 94.1605 69.3608 94.1605C69.5163 94.1605 69.7407 94.0116 69.8595 93.8296C69.9783 93.6477 70.2647 93.4478 70.4961 93.3855C71.0479 93.2369 71.3176 92.8716 71.5698 91.9314C71.6837 91.507 71.8762 90.8181 71.9978 90.4005C72.2535 89.5218 72.2892 88.3851 72.0637 88.302C71.9783 88.2705 71.871 87.7176 71.8251 87.0731C71.7792 86.4287 71.701 85.8307 71.6512 85.7443C71.6014 85.6578 71.2772 85.5871 70.9308 85.5871C70.4774 85.5871 70.3009 85.6592 70.3009 85.8443C70.3009 85.9857 70.2329 86.1015 70.1498 86.1015C70.0668 86.1015 69.9769 86.4673 69.9501 86.9144C69.8928 87.8708 69.5818 88.0434 68.921 87.4858C68.3593 87.0117 68.0634 87.0341 68.0634 87.5507C68.0634 87.8533 67.873 88.11 67.3842 88.4666C66.6898 88.9731 65.6725 89.4234 65.541 89.2824C65.3485 89.0758 65.7452 88.2221 66.299 87.6512C66.9679 86.9617 67.5839 85.8651 67.5839 85.3638C67.5839 84.9398 68.2046 84.0902 69.7939 82.3386C71.1634 80.8292 71.6241 80.02 71.8119 78.7942C71.906 78.18 71.8785 78.0767 71.6007 77.9988C71.3168 77.9191 71.2835 77.7737 71.3003 76.6898C71.3108 76.0192 71.3743 75.4705 71.4415 75.4705C71.5087 75.4705 71.5493 74.674 71.5316 73.7006C71.5058 72.2748 71.4452 71.8724 71.2199 71.6307C71.0661 71.4658 70.9402 71.182 70.9402 71.0001C70.9402 70.7617 70.8287 70.6694 70.5406 70.6694C70.3209 70.6694 70.1411 70.7466 70.1411 70.8409C70.1411 70.9352 69.9972 71.0123 69.8214 71.0123C69.6456 71.0123 69.5018 71.0895 69.5018 71.1838C69.5018 71.2781 69.4269 71.3553 69.3353 71.3553C69.2437 71.3553 69.0154 71.5086 68.8278 71.6961C68.6403 71.8835 68.2519 72.0842 67.9647 72.142C67.5604 72.2234 67.4206 72.3538 67.3457 72.7196C67.2925 72.9795 67.2667 73.2611 67.2883 73.3454C67.3611 73.6293 67.0846 74.2702 66.8893 74.2702C66.7827 74.2702 66.4282 74.5489 66.1013 74.8895C65.576 75.4369 65.442 75.4957 64.9473 75.3961C64.5975 75.3257 64.3875 75.3507 64.3875 75.4627C64.3875 75.5613 64.3156 75.642 64.2277 75.642C64.1398 75.642 64.0679 75.3682 64.0679 75.0336C64.0679 74.5961 64.1866 74.3073 64.4907 74.0048C64.7233 73.7736 64.9606 73.5844 65.018 73.5844C65.0754 73.5844 65.2072 73.3336 65.3109 73.0271C65.4146 72.7206 65.7706 72.1046 66.1022 71.6583C66.4337 71.2119 66.9157 70.556 67.1733 70.2008C67.6289 69.5723 67.67 69.5547 68.6916 69.5475C69.3844 69.5426 69.9318 69.434 70.3009 69.228C70.9218 68.8814 71.5795 68.1612 71.5795 67.8278C71.5795 67.7089 71.656 67.5842 71.7496 67.5507C72.073 67.4351 72.1205 66.0707 71.8256 65.3691C71.5852 64.797 71.5737 64.5807 71.7388 63.7277C71.8648 63.0765 71.8753 62.6877 71.77 62.5747C71.6696 62.467 71.6641 62.206 71.7551 61.8655C71.8344 61.5691 71.8992 61.0878 71.8992 60.7959C71.8992 60.3474 71.8013 60.2143 71.2681 59.9374C70.5067 59.5421 70.2664 59.0448 70.4008 58.143C70.5241 57.3154 70.3409 57.2806 68.9925 57.8756C67.9576 58.3323 67.7438 58.2403 67.7438 57.3386C67.7438 56.9553 67.8764 56.6227 68.1434 56.3363C68.3631 56.1005 68.5429 55.8039 68.5429 55.6771C68.5429 55.5503 68.8665 55.2833 69.2621 55.0839C69.6577 54.8844 69.9813 54.6444 69.9813 54.5506C69.9813 54.4567 70.1644 54.38 70.3881 54.38C70.7888 54.38 71.5795 53.705 71.5795 53.3629C71.5795 53.2665 71.3997 53.0612 71.18 52.9067C70.7659 52.6157 70.6516 52.0148 70.9494 51.6952C71.0424 51.5955 71.1603 51.0791 71.2114 50.5476C71.2625 50.0161 71.4022 49.4941 71.5219 49.3876C71.7854 49.153 71.8042 48.6883 71.5608 48.4272C71.4294 48.2862 71.4716 48.133 71.7207 47.8462C71.9967 47.5283 72.0605 47.2338 72.0676 46.2458C72.0725 45.5799 72.1471 44.4177 72.2338 43.6633C72.3205 42.9088 72.4334 41.8864 72.4847 41.3913C72.536 40.8962 72.641 40.4911 72.718 40.4911C72.926 40.4911 72.874 39.2814 72.6407 38.6946C72.5 38.3406 72.4778 37.9201 72.5683 37.3229C72.64 36.8492 72.6551 36.2403 72.6017 35.9698C72.5484 35.6992 72.5772 35.3134 72.6658 35.1124C73.2197 33.8563 73.6727 32.4387 73.635 32.0794C73.6109 31.849 73.6494 31.2993 73.7206 30.8577C73.8378 30.1308 73.8107 30.0094 73.434 29.5735C73.1277 29.2191 73.0179 28.9082 73.0179 28.3958C73.0179 28.0129 72.9364 27.6122 72.8368 27.5053C72.6813 27.3386 72.6402 26.7143 72.6876 25.2428C72.6934 25.0609 72.7951 24.8082 72.9134 24.6812C73.0318 24.5542 73.1781 24.1672 73.2386 23.8213C73.3102 23.4121 73.4584 23.1548 73.6627 23.0853C74.0517 22.9528 74.0752 22.3313 73.7193 21.5928C73.5311 21.2024 73.4914 20.8468 73.572 20.2724C73.7311 19.1388 73.7205 18.9313 73.4351 17.6003C73.1138 16.1019 73.1147 15.9529 73.448 15.5121C73.6739 15.2134 73.792 15.1822 74.1672 15.3225C74.666 15.5091 74.721 15.8161 74.446 16.8787C74.2943 17.4647 74.3137 17.5602 74.6421 17.8456C74.9863 18.1446 75.0091 18.2985 75.053 20.6247C75.1368 25.0569 75.1385 25.0271 74.7733 25.5774C74.3297 26.2456 74.1943 27.1538 74.4905 27.4726C74.8818 27.8936 75.0457 28.7033 74.9867 29.9245C74.9555 30.5729 74.9994 31.1933 75.0843 31.3032C75.1707 31.4148 75.2337 32.71 75.2272 34.2394C75.2208 35.7446 75.2697 37.4107 75.3358 37.9419C75.4122 38.5559 75.3851 39.225 75.2613 39.7785C75.109 40.4598 75.1086 40.7857 75.2594 41.2764C75.4154 41.7837 75.4118 41.9305 75.2403 42.0442C75.0651 42.1604 75.0641 42.3432 75.2345 43.0955C75.348 43.5964 75.4788 44.3866 75.5252 44.8516C75.6074 45.6747 75.8552 46.1495 76.2027 46.1495C76.2969 46.1495 76.374 46.2589 76.374 46.3925C76.374 46.5261 76.4546 46.6642 76.5531 46.6994C76.6516 46.7347 76.7278 47.1059 76.7224 47.5244C76.717 47.9429 76.7895 48.3362 76.8834 48.3985C77.0717 48.5233 76.9227 48.893 76.6842 48.893C76.6015 48.893 76.5338 48.7944 76.5338 48.6739C76.5338 48.4194 76.1537 48.0522 75.5327 47.7067C75.2922 47.5728 75.0954 47.3606 75.0954 47.2351C75.0954 47.1096 75.0235 47.0069 74.9356 47.0069C74.8454 47.0069 74.7757 47.4927 74.7757 48.1214C74.7757 48.9978 74.827 49.236 75.0155 49.236C75.206 49.236 75.2552 49.4852 75.2552 50.4505C75.2552 51.593 75.2861 51.698 75.7746 52.2186C76.3752 52.8586 77.0133 53.7807 77.0133 54.0087C77.0133 54.095 77.2193 54.2099 77.4711 54.2639C77.9128 54.3587 77.9274 54.394 77.8869 55.2713C77.8314 56.4719 77.5844 57.1235 77.185 57.1235C77.0114 57.1235 76.7981 56.9884 76.7111 56.8234C76.5622 56.5409 76.5267 56.5402 76.1039 56.8116C75.708 57.0658 75.649 57.2155 75.6063 58.0741C75.5727 58.7482 75.6299 59.1346 75.7919 59.3289C76.1115 59.7124 76.2888 61.1116 76.0727 61.5448C75.9383 61.8142 75.9525 61.9117 76.1372 61.9878C76.4235 62.1056 76.4456 62.9927 76.2039 64.664C76.0425 65.7801 76.0527 65.8641 76.4036 66.3058C77.0514 67.121 77.1895 67.24 77.487 67.24C77.8942 67.24 78.0246 67.7288 77.7413 68.1927C77.4722 68.6333 77.0549 68.5982 76.3559 68.0763L75.9382 67.7645L75.9128 69.3455C75.8989 70.2151 75.871 71.1938 75.851 71.5205C75.8191 72.0416 75.8734 72.1361 76.2941 72.2911C76.5578 72.3883 76.8686 72.5647 76.9847 72.6831C77.1009 72.8016 77.3886 72.8989 77.624 72.8994C78.5012 72.9013 79.2436 73.2368 79.3468 73.6777C79.401 73.9093 79.5066 74.0987 79.5816 74.0987C79.6566 74.0987 79.7943 74.4267 79.8876 74.8275C79.9809 75.2283 80.1275 75.6902 80.2134 75.8539C80.5666 76.5273 80.3085 77.4647 79.5495 78.2655C79.2572 78.574 79.091 78.4828 79.091 78.0139C79.091 77.841 79.0191 77.6996 78.9312 77.6996C78.8433 77.6996 78.7713 77.5838 78.7713 77.4424C78.7713 77.0901 77.9907 77.1055 77.8638 77.4603C77.7888 77.6701 77.6287 77.7121 77.1896 77.6372C76.4279 77.5073 76.2977 77.6248 76.0522 78.6635C75.8133 79.674 75.9073 80.1001 76.369 80.1001C76.5476 80.1001 76.6936 80.1655 76.6936 80.2453C76.6936 80.3251 76.9444 80.6675 77.2509 81.0061C77.6633 81.4617 77.9943 81.6516 78.5242 81.7369C79.0083 81.8147 79.2696 81.9511 79.3307 82.1578C79.3906 82.3603 79.6486 82.5003 80.0951 82.5726C80.8265 82.6911 81.2149 83.217 81.0551 83.8725C80.997 84.1109 81.0501 84.2154 81.2299 84.2154C81.6089 84.2154 81.5452 84.4789 81.0888 84.7997C80.869 84.9542 80.6892 85.2295 80.6892 85.4115C80.6892 85.5935 80.6113 85.926 80.516 86.1503C80.384 86.461 80.3995 86.7037 80.5807 87.1691C80.8695 87.9106 80.7056 88.1591 79.9275 88.1591C79.6317 88.1591 79.2523 88.238 79.0844 88.3344C78.8299 88.4805 78.7633 88.4416 78.6835 88.1004C78.6081 87.7781 78.3858 87.6257 77.6356 87.382C76.9494 87.1591 76.6348 87.1248 76.5095 87.2593C76.2716 87.5145 76.1387 90.0452 76.3633 90.0452C76.4571 90.0452 76.666 90.1803 76.8275 90.3453C76.9891 90.5104 77.2588 90.7318 77.4269 90.8374C77.6666 90.988 77.7232 91.1913 77.6895 91.7805C77.5815 93.6707 77.5837 93.686 78.0341 94.1016C78.3166 94.3623 78.6768 94.5054 79.0599 94.5091C79.6454 94.5148 80.3696 94.9772 80.3696 95.3454C80.3696 95.4594 80.7431 95.5322 81.3285 95.5322C82.0743 95.5322 82.2874 95.5894 82.2874 95.7894C82.2874 95.9309 82.3584 96.0466 82.4452 96.0466C82.532 96.0466 82.7952 96.3745 83.03 96.7754C83.4035 97.4128 83.6422 97.6764 84.2511 98.1242C84.3302 98.1824 84.4522 98.6839 84.5221 99.2388C84.5921 99.7936 84.7219 100.49 84.8105 100.786C85.0806 101.687 84.5101 102.505 84.1254 101.768C83.8352 101.213 83.5908 101.016 83.0558 100.907C82.3434 100.762 82.1617 100.581 81.9432 99.7986C81.8097 99.3204 81.6694 99.133 81.4449 99.133C81.1651 99.133 81.1437 99.0523 81.2402 98.3614C81.3011 97.9259 81.2845 97.5898 81.2021 97.5898C81.1219 97.5898 80.8305 97.3583 80.5545 97.0754C79.945 96.4505 79.7855 96.4445 79.1709 97.0235C78.7015 97.4658 78.6906 97.5127 78.6554 99.2561C78.6356 100.235 78.5441 101.337 78.4521 101.703C78.3601 102.07 78.331 102.679 78.3873 103.057C78.4693 103.607 78.613 103.832 79.1066 104.182C79.4458 104.423 79.8 104.62 79.8936 104.62C80.1991 104.62 80.8224 105.381 80.8763 105.82C80.9122 106.112 81.0435 106.266 81.2885 106.304C81.4863 106.334 81.6481 106.439 81.6481 106.537C81.6481 106.641 81.8135 106.67 82.0477 106.607C82.2674 106.548 82.4472 106.568 82.4472 106.652C82.4472 106.736 82.7255 106.853 83.0657 106.911L83.6842 107.017L83.7973 108.09C83.8724 108.802 84.0119 109.265 84.2117 109.464C84.3774 109.63 84.5911 110.093 84.6866 110.493C84.7822 110.894 84.8905 111.318 84.9273 111.436C84.9642 111.554 85.2412 111.65 85.5429 111.65H86.0914L86.0242 112.422C85.9767 112.967 86.0165 113.195 86.1599 113.199C86.2857 113.202 86.2635 113.266 86.1015 113.368C85.6916 113.624 83.7134 113.621 83.5648 113.363C83.4953 113.242 83.2907 113.186 83.1084 113.237C82.9156 113.291 82.6438 113.205 82.4559 113.03C82.1205 112.718 82.115 112.539 82.3808 110.575C82.47 109.916 82.4358 109.692 82.2048 109.418C82.0472 109.231 81.7855 109.078 81.6233 109.078C81.4612 109.078 81.3285 108.962 81.3285 108.821C81.3285 108.679 81.2565 108.564 81.1686 108.564C81.0807 108.564 81.0088 108.409 81.0088 108.221C81.0088 107.945 80.9023 107.878 80.469 107.878C80.1721 107.878 79.8397 107.762 79.7302 107.621C79.4891 107.309 78.5534 107.28 78.3295 107.578C78.2349 107.703 78.1231 109.906 78.0592 112.906C77.9514 117.959 77.954 118.023 78.2858 118.332C78.5048 118.535 78.6814 119.008 78.7936 119.692C78.9395 120.58 79.0241 120.756 79.3476 120.843C79.5577 120.9 79.831 120.904 79.9551 120.853C80.1134 120.788 80.2439 120.99 80.3926 121.531C80.5317 122.036 80.8392 122.537 81.2862 122.986C81.661 123.363 81.9678 123.753 81.9678 123.852C81.9678 123.951 82.1408 124.178 82.3523 124.357C82.6294 124.59 82.7684 124.928 82.8501 125.565C82.9124 126.051 83.0542 126.688 83.1651 126.98C83.276 127.272 83.4177 127.889 83.4799 128.352C83.5937 129.198 83.7152 129.408 84.2919 129.758C84.464 129.863 84.6256 130.094 84.651 130.273C84.7763 131.153 84.8817 131.394 85.2086 131.546C86.2275 132.019 86.4371 132.285 86.4403 133.105C86.4418 133.447 86.5417 133.815 86.6626 133.923C86.7834 134.031 86.928 134.425 86.9837 134.799C87.0395 135.173 87.205 135.749 87.3514 136.078C87.6082 136.656 87.6057 136.689 87.2811 136.991C87.009 137.244 86.9608 137.435 87.0298 137.987C87.0925 138.489 87.047 138.731 86.8589 138.899C86.5741 139.152 86.5275 139.642 86.7462 140.082C86.8252 140.241 86.9397 141.309 87.0007 142.457C87.1065 144.447 87.0966 144.551 86.7841 144.731C86.6021 144.835 86.413 145.168 86.3586 145.479C86.2792 145.933 86.1538 146.074 85.6943 146.229C85.2033 146.394 85.0866 146.375 84.8182 146.087C84.5031 145.749 84.5162 145.413 84.875 144.628C85.088 144.162 84.917 143.372 84.6031 143.372C84.4737 143.372 84.278 143.526 84.1682 143.714C84.0584 143.903 83.884 144.057 83.7806 144.057C83.6772 144.057 83.5686 144.127 83.5393 144.213C83.3744 144.693 81.845 144.361 81.7178 143.817C81.5792 143.225 82.1324 142 82.5384 142C82.8391 142 83.5422 140.936 83.7923 140.102C83.946 139.59 84.146 138.939 84.2367 138.656C84.3274 138.373 84.4376 137.91 84.4815 137.627C84.5255 137.344 84.778 136.868 85.0426 136.568C85.4602 136.096 85.5094 135.941 85.4151 135.402C85.3553 135.06 85.2025 134.737 85.0755 134.685C84.9485 134.633 84.8446 134.49 84.8446 134.368C84.8446 134.246 84.6288 134.065 84.3651 133.966C83.8657 133.78 83.7089 133.426 84.1254 133.426C84.2572 133.426 84.3651 133.305 84.3651 133.156C84.3651 132.549 82.5364 133.365 82.3779 134.042C82.2217 134.71 81.5991 135.651 81.3118 135.653C80.9778 135.656 80.1163 134.799 80.3064 134.653C80.6526 134.387 81.0513 133.284 80.9688 132.821C80.9067 132.473 81.0355 132.025 81.425 131.238C82.0569 129.96 82.0561 129.971 81.6634 128.255C81.2252 126.341 81.0219 125.752 80.7614 125.645C80.63 125.591 80.5294 125.327 80.5294 125.036C80.5294 124.706 80.3521 124.305 80.0333 123.916C78.9706 122.617 78.5515 123.302 78.3047 126.739C78.2065 128.107 78.0827 129.481 78.0295 129.793C77.9486 130.269 77.9863 130.376 78.2612 130.453C78.7155 130.581 78.7876 130.887 78.6056 131.916C78.4297 132.912 78.519 133.426 78.8675 133.426C79.0537 133.426 79.0844 133.603 79.0166 134.284C78.9695 134.755 78.8934 135.521 78.8473 135.986C78.8012 136.45 78.8251 136.871 78.9006 136.921C78.976 136.971 79.005 137.251 78.9651 137.543C78.9141 137.915 78.9755 138.139 79.171 138.292C79.4032 138.474 79.4515 138.806 79.4618 140.287C79.4703 141.524 79.4159 142.084 79.2825 142.131C79.1665 142.173 79.091 142.55 79.091 143.088C79.091 143.844 79.1445 144.002 79.4506 144.147C79.6831 144.258 79.7927 144.439 79.7607 144.659C79.5924 145.819 79.7261 147.015 80.0686 147.415C80.3694 147.766 80.3694 147.777 80.069 148.149C79.5937 148.737 79.2071 150.165 79.4121 150.576C79.5054 150.763 79.638 150.916 79.7068 150.916C79.8671 150.916 79.7812 152.143 79.6118 152.275C79.4515 152.399 79.4516 154.961 79.612 155.133C79.677 155.203 79.7303 155.401 79.7303 155.574C79.7303 155.747 79.8382 155.889 79.97 155.889C80.126 155.889 80.2097 156.056 80.2097 156.369C80.2097 156.758 80.3114 156.888 80.7515 157.059C81.0504 157.175 81.3303 157.421 81.3758 157.608C81.4591 157.949 81.9678 158.093 81.9678 157.775C81.9678 157.68 82.0397 157.603 82.1276 157.603C82.2155 157.603 82.2874 157.788 82.2874 158.015C82.2874 158.377 82.3599 158.426 82.8868 158.423C84.1177 158.417 84.9613 158.654 85.1656 159.064C85.2728 159.279 85.5681 159.499 85.8218 159.553C86.0916 159.611 86.283 159.762 86.283 159.917C86.283 160.063 86.4808 160.276 86.7225 160.391C86.9642 160.505 87.256 160.735 87.3708 160.901C87.4857 161.068 87.6731 161.204 87.7872 161.204C88.0904 161.204 88.8317 162.228 88.7315 162.509C88.5502 163.015 88.8258 163.559 89.3175 163.664C89.7553 163.758 89.7991 163.829 89.7991 164.444C89.7991 165.291 89.9281 165.662 90.223 165.662C90.6169 165.662 91.2256 166.446 91.1315 166.832C91.0606 167.122 91.1317 167.191 91.5529 167.236C91.9208 167.276 92.1329 167.432 92.3277 167.806C92.4752 168.089 92.6499 168.346 92.7158 168.377C92.7817 168.409 92.8357 168.582 92.8357 168.763C92.8357 168.984 92.9539 169.098 93.1953 169.112C93.4659 169.126 93.4857 169.151 93.2752 169.21C92.9102 169.312 92.9224 169.506 93.3446 170.311C93.5598 170.722 93.8107 170.978 93.9988 170.978C94.1696 170.978 94.3408 171.129 94.3876 171.321C94.4336 171.509 94.5263 171.664 94.5937 171.664C94.834 171.664 94.8794 172.608 94.661 173.062C94.5387 173.315 94.2216 173.689 93.9562 173.891C93.5534 174.199 93.4586 174.218 93.3828 174.006C93.3329 173.866 93.1174 173.705 92.904 173.648C92.6906 173.59 92.516 173.43 92.516 173.293C92.516 173.155 92.3364 172.994 92.1169 172.934C91.5411 172.779 90.9258 173.446 90.9155 174.236C90.9112 174.566 90.802 174.986 90.673 175.169C90.3602 175.612 90.3742 176.122 90.6992 176.122C91.1082 176.122 91.5232 176.749 91.4365 177.235C91.3779 177.564 91.4269 177.665 91.6459 177.665C91.8031 177.665 92.2053 177.8 92.5395 177.965C93.0228 178.204 93.1694 178.387 93.2557 178.861C93.3153 179.189 93.4634 179.563 93.5848 179.694C93.7061 179.824 93.7708 180.057 93.7286 180.212C93.5124 181.006 93.4552 181.806 93.601 181.996C93.8567 182.331 93.8682 182.835 93.6379 183.622C93.4864 184.14 93.4718 184.461 93.5872 184.737C93.7123 185.036 93.6724 185.3 93.4123 185.895C92.9892 186.864 92.8768 186.954 92.2363 186.834C91.8353 186.759 91.7169 186.798 91.7169 187.002C91.7169 187.148 91.609 187.267 91.4772 187.267C91.3453 187.267 91.2374 187.378 91.2374 187.514C91.2374 187.726 91.1371 187.724 90.5182 187.498C90.1227 187.353 89.7929 187.146 89.7854 187.037C89.7779 186.928 89.783 186.438 89.7965 185.949C89.8101 185.46 89.7483 184.914 89.6592 184.735C89.5424 184.501 89.5616 184.277 89.728 183.933C89.9991 183.372 90.0274 182.862 89.7919 182.778C89.7001 182.745 89.6293 182.565 89.6345 182.378C89.6867 180.516 89.6181 178.943 89.4827 178.895C89.393 178.863 89.3195 178.434 89.3195 177.942C89.3195 177.45 89.2406 176.963 89.1442 176.86C89.0478 176.756 88.9435 176.066 88.9125 175.325C88.8664 174.225 88.913 173.875 89.1677 173.411C89.5415 172.731 89.5614 172.42 89.2396 172.287C88.9163 172.154 88.8992 170.081 89.2192 169.796C89.4822 169.561 89.6397 168.277 89.4971 167.529C89.4173 167.111 89.2735 166.949 88.8481 166.798C88.2501 166.587 88.0269 166.086 88.0229 164.946C88.02 164.108 87.4121 163.433 86.6607 163.433C86.3651 163.433 86.1231 163.362 86.1231 163.275C86.1231 163.189 85.8972 163.064 85.621 162.999C85.3448 162.934 84.9271 162.67 84.6928 162.413C84.2094 161.883 82.952 161.588 82.6325 161.931C82.492 162.082 82.4472 162.06 82.4472 161.839C82.4472 161.616 82.3064 161.548 81.8479 161.55C81.0565 161.553 80.9044 161.678 80.6117 162.568C80.3795 163.275 80.417 164.462 80.6714 164.462C80.73 164.462 80.7834 165.627 80.79 167.051C80.7968 168.517 80.8692 169.689 80.957 169.752C81.0423 169.813 81.155 169.988 81.2075 170.142C81.2611 170.298 81.5714 170.471 81.915 170.537C82.8874 170.722 83.0865 170.813 83.0865 171.075C83.0865 171.21 83.1584 171.321 83.2463 171.321C83.3342 171.321 83.4062 171.403 83.4062 171.504C83.4062 171.74 83.8122 172.178 84.031 172.178C84.2494 172.178 84.329 172.63 84.4225 174.399C84.4834 175.551 84.5594 175.893 84.7917 176.065C85.4773 176.572 85.5116 176.654 85.4015 177.513C85.3375 178.012 85.3559 178.351 85.4468 178.351C85.6525 178.351 85.8612 180.607 85.6674 180.737C85.4927 180.854 85.428 181.599 85.4606 183.121C85.482 184.121 85.5083 184.195 85.8035 184.095C86.0778 184.002 86.1231 184.064 86.1231 184.536C86.1231 184.917 86.2627 185.23 86.5762 185.551C86.8793 185.862 87.1736 186.502 87.4652 187.485C87.705 188.292 88.0045 188.996 88.1309 189.048C88.2572 189.1 88.3606 189.261 88.3606 189.405C88.3606 189.55 88.4172 189.668 88.4863 189.668C88.5554 189.668 88.5978 189.957 88.5806 190.311C88.54 191.145 88.6498 191.554 88.914 191.554C89.0448 191.554 89.1495 191.817 89.1871 192.24C89.2207 192.617 89.1843 192.926 89.1065 192.926C89.0286 192.926 88.9943 193.196 89.0302 193.526C89.0662 193.856 89.0336 194.126 88.9578 194.126C88.882 194.126 88.8425 194.299 88.87 194.512C88.9055 194.786 88.8505 194.878 88.6803 194.829C88.5484 194.791 88.2428 194.725 88.001 194.681C87.7593 194.637 87.5615 194.533 87.5615 194.449C87.5615 194.366 87.4795 194.297 87.3793 194.297C87.2792 194.297 87.1062 194.164 86.995 194.001C86.8035 193.72 86.7609 193.72 86.1934 194.011C85.5418 194.344 85.3314 194.224 85.3265 193.517C85.325 193.324 85.2393 193.075 85.1358 192.964C85.0306 192.851 84.9579 192.347 84.9707 191.822C84.9834 191.304 84.9382 190.844 84.8702 190.799C84.7078 190.692 84.8398 189.496 85.0141 189.496C85.2483 189.496 84.9913 186.517 84.7384 186.299C84.5885 186.171 84.546 185.951 84.6144 185.658C84.6863 185.351 84.648 185.184 84.4909 185.119C84.3122 185.045 84.276 184.721 84.3231 183.617C84.3561 182.843 84.451 182.136 84.534 182.046C84.7332 181.831 84.7272 181.143 84.5249 181.009C84.437 180.95 84.3651 180.676 84.3651 180.398C84.3651 180.121 84.437 179.894 84.5249 179.894C84.8106 179.894 84.6934 179.406 84.3823 179.3C84.0349 179.182 83.8909 178.729 83.8878 177.746C83.8864 177.366 83.7858 176.903 83.6639 176.716C83.5419 176.529 83.3484 176.03 83.2338 175.606C82.9927 174.715 82.5881 174.222 81.8265 173.894C81.3381 173.683 81.2647 173.691 81.0698 173.977C80.8222 174.341 80.9169 175.403 81.267 176.191C81.3887 176.465 81.4883 177.024 81.4883 177.434C81.4883 178.065 81.5373 178.179 81.8079 178.179C82.0732 178.179 82.1276 178.294 82.1276 178.851C82.1276 179.228 82.2153 179.561 82.3274 179.609C82.4467 179.661 82.4145 179.701 82.2474 179.709C82.084 179.717 81.9678 179.858 81.9678 180.047C81.9678 180.226 81.8599 180.416 81.728 180.471C81.3931 180.608 81.4293 181.314 81.8084 182.038C82.1261 182.645 82.2351 184.053 82.1003 185.81C82.0494 186.473 82.0657 186.499 82.607 186.602C83.1125 186.697 83.1229 186.71 82.7147 186.73C82.3082 186.751 82.2664 186.809 82.2973 187.31C82.3162 187.617 82.2762 188.008 82.2084 188.179C82.1364 188.361 82.1726 188.666 82.2953 188.912C82.468 189.258 82.4688 189.488 82.2996 190.195C82.1727 190.727 82.1369 191.366 82.2062 191.862C82.4111 193.327 82.4667 193.864 82.4567 194.28C82.4513 194.506 82.5277 194.795 82.6264 194.923C82.7638 195.1 82.7499 195.155 82.5674 195.155C82.1266 195.155 81.9415 196.452 82.0416 198.842C82.093 200.068 82.1344 201.147 82.1336 201.242C82.1293 201.776 81.6225 204.155 81.4715 204.35C81.3731 204.477 81.3311 204.688 81.378 204.82C81.4249 204.951 81.3885 205.138 81.2972 205.236C81.1824 205.359 81.1843 205.749 81.3034 206.5C81.4153 207.206 81.4305 208.367 81.3467 209.815C81.2172 212.056 81.2421 212.473 81.5053 212.473C81.5838 212.473 81.6491 212.685 81.6502 212.944C81.6558 214.142 81.9824 214.481 82.5029 213.829C82.7713 213.492 82.8023 213.488 82.9916 213.766C83.3013 214.22 83.1216 214.873 82.6869 214.873C82.0946 214.873 81.9022 216.231 82.4236 216.732C82.91 217.2 83.1244 218.317 82.9002 219.216C82.7476 219.828 82.7518 220.179 82.9208 220.934C83.077 221.633 83.0882 222.011 82.9633 222.365C82.7158 223.067 82.7937 224.623 83.0865 224.825C83.2494 224.937 83.2706 225.031 83.1528 225.119C82.8379 225.352 82.7905 229.595 83.1004 229.8C83.3507 229.966 83.4526 232.825 83.2529 234.078C82.7569 237.19 82.765 237.037 83.0816 237.331C83.2738 237.51 83.3315 237.693 83.2468 237.857C83.1753 237.994 83.0676 238.462 83.0074 238.895C82.9016 239.656 82.9142 239.689 83.3918 239.901C83.8636 240.111 84.0631 240.422 83.7258 240.422C83.3314 240.422 83.7184 242.554 84.1927 242.994C84.2435 243.041 84.2965 243.581 84.3103 244.194C84.3409 245.547 84.4942 246.382 84.8056 246.894C84.9528 247.136 85 247.448 84.9328 247.735C84.8633 248.032 84.8989 248.241 85.035 248.334C85.1947 248.442 85.1969 248.476 85.0443 248.478C84.9344 248.48 84.8445 248.635 84.8445 248.824C84.8445 249.08 84.9565 249.171 85.284 249.185C86.5175 249.234 87.4607 249.36 87.7251 249.512C87.8873 249.605 88.1885 249.681 88.3945 249.681C88.6005 249.681 88.8829 249.824 89.022 249.998C89.1611 250.173 89.6086 250.421 90.0164 250.55C90.4243 250.679 90.7579 250.845 90.7579 250.919C90.7579 250.993 90.8658 251.053 90.9977 251.053C91.1295 251.053 91.2374 251.13 91.2374 251.225C91.2374 251.319 91.3453 251.396 91.4771 251.396C91.609 251.396 91.7169 251.28 91.7169 251.139C91.7169 250.967 91.8767 250.882 92.1963 250.882C92.5337 250.882 92.6758 250.799 92.6758 250.601C92.6758 250.37 92.7948 250.338 93.3556 250.421C93.8613 250.495 94.2711 250.418 94.9551 250.12C95.4609 249.899 95.9144 249.787 95.9629 249.871C96.1047 250.118 96.6269 250.048 96.9094 249.744C97.1214 249.517 97.245 249.501 97.5677 249.659C98.1364 249.937 98.2313 249.908 98.4978 249.381C98.6289 249.122 98.7391 249.006 98.7426 249.124C98.7518 249.432 99.1763 249.389 99.2909 249.068C99.3787 248.823 99.4101 248.823 99.639 249.068C99.7774 249.217 99.9934 249.338 100.119 249.338C100.245 249.338 100.347 249.465 100.347 249.62C100.347 250.154 101.056 251.421 101.726 252.084C102.096 252.449 102.32 252.777 102.224 252.811C101.839 252.949 102.298 253.266 102.744 253.171C103.249 253.062 103.704 253.394 103.704 253.87C103.704 254.018 103.803 254.14 103.924 254.14C104.045 254.14 104.234 254.372 104.344 254.657C104.454 254.942 104.826 255.607 105.171 256.134C105.515 256.662 105.752 257.143 105.696 257.203C105.64 257.263 82.8121 257.336 54.9666 257.366L4.33838 257.42L4.83194 256.351L4.83195 256.351Z" fill="#222222"/>
</g>
</g>
<defs>
<filter id="filter0_d" x="-2" y="0" width="113" height="268" filterUnits="userSpaceOnUse" color-interpolation-filters="sRGB">
<feFlood flood-opacity="0" result="BackgroundImageFix"/>
<feColorMatrix in="SourceAlpha" type="matrix" values="0 0 0 0 0 0 0 0 0 0 0 0 0 0 0 0 0 0 127 0" result="hardAlpha"/>
<feOffset dy="4"/>
<feGaussianBlur stdDeviation="2"/>
<feComposite in2="hardAlpha" operator="out"/>
<feColorMatrix type="matrix" values="0 0 0 0 0 0 0 0 0 0 0 0 0 0 0 0 0 0 0.25 0"/>
<feBlend mode="normal" in2="BackgroundImageFix" result="effect1_dropShadow"/>
<feBlend mode="normal" in="SourceGraphic" in2="effect1_dropShadow" result="shape"/>
</filter>
<filter id="filter1_d" x="0.338379" y="15.2421" width="109.366" height="250.178" filterUnits="userSpaceOnUse" color-interpolation-filters="sRGB">
<feFlood flood-opacity="0" result="BackgroundImageFix"/>
<feColorMatrix in="SourceAlpha" type="matrix" values="0 0 0 0 0 0 0 0 0 0 0 0 0 0 0 0 0 0 127 0" result="hardAlpha"/>
<feOffset dy="4"/>
<feGaussianBlur stdDeviation="2"/>
<feComposite in2="hardAlpha" operator="out"/>
<feColorMatrix type="matrix" values="0 0 0 0 0 0 0 0 0 0 0 0 0 0 0 0 0 0 0.25 0"/>
<feBlend mode="normal" in2="BackgroundImageFix" result="effect1_dropShadow"/>
<feBlend mode="normal" in="SourceGraphic" in2="effect1_dropShadow" result="shape"/>
</filter>
<clipPath id="clip0">
<rect width="105" height="260" fill="white" transform="translate(2)"/>
</clipPath>
</defs>
</svg>
