<svg width="105" height="260" viewBox="0 0 105 260" fill="none" xmlns="http://www.w3.org/2000/svg">
<path d="M49.4192 252.781C49.3419 252.707 48.0888 252.591 46.6346 252.522C42.9141 252.346 42.7639 252.281 42.9968 250.949C43.1023 250.346 43.1902 248.623 43.1921 247.121C43.195 244.895 43.2839 244.389 43.6727 244.389C43.935 244.389 44.1497 244.592 44.1497 244.84C44.1497 245.089 44.2421 245.204 44.3549 245.097C44.6325 244.835 45.2782 238.734 46.8437 221.584C47.4184 215.288 47.478 214.303 47.927 203.69C48.1124 199.307 48.4137 192.879 48.5964 189.406C48.9327 183.015 49.0043 173.152 48.7094 173.843C48.6212 174.05 48.331 174.219 48.0645 174.219C47.7666 174.219 47.6497 174.391 47.7611 174.665C47.8676 174.928 47.685 175.242 47.3181 175.428C46.9748 175.601 46.6917 175.637 46.689 175.508C46.6864 175.378 46.5719 175.438 46.4348 175.643C46.2418 175.93 46.0259 175.908 45.4802 175.547C45.0924 175.29 44.8475 174.969 44.936 174.834C45.0245 174.698 44.8634 174.606 44.578 174.629C43.7432 174.695 43.7099 173.947 44.5344 173.651C44.9494 173.501 45.4779 173.164 45.7089 172.901C46.5416 171.952 44.0593 173.034 42.7981 174.169C42.1422 174.76 41.6055 175.072 41.6055 174.864C41.6055 174.655 41.4727 174.562 41.3104 174.657C41.148 174.751 40.9254 174.561 40.8156 174.234C40.6552 173.756 40.429 173.674 39.6668 173.819C38.8391 173.975 38.5668 173.833 37.5379 172.709C35.7935 170.803 35.7635 170.711 36.5123 169.565C37.3276 168.317 38.2607 167.97 39.0296 168.628C39.8141 169.3 40.6514 169.236 40.6514 168.505C40.6514 168.174 40.8564 167.904 41.107 167.904C41.3576 167.904 41.6535 168.174 41.7645 168.505C42.0882 169.469 44.0016 169.337 44.5702 168.311L45.0111 167.515L45.6935 168.16C46.5796 168.998 46.8584 168.975 46.939 168.054C46.98 167.585 46.8396 167.302 46.5658 167.302C46.0905 167.302 45.602 165.952 45.9079 165.484C46.011 165.326 46.3016 165.197 46.5537 165.197C46.8057 165.197 47.0119 164.994 47.0119 164.746C47.0119 164.495 47.2946 164.295 47.648 164.295C48.0013 164.295 48.284 164.495 48.284 164.746C48.284 164.994 48.4115 165.197 48.5672 165.197C48.9919 165.197 49.0919 163.682 48.969 159.112C48.8595 155.041 48.8485 154.987 48.1986 155.316C47.6736 155.582 47.4622 155.55 47.161 155.161C46.6732 154.53 46.4582 154.541 46.4609 155.198C46.465 156.196 46.3742 156.412 45.876 156.593C45.2862 156.807 43.1956 155.398 43.1956 154.786C43.1956 154.558 42.9211 154.371 42.5856 154.371C41.5548 154.371 40.9694 154.032 40.9694 153.436C40.9694 152.829 40.1823 152.681 39.4108 153.143C39.1352 153.308 38.4791 153.248 37.6909 152.985C36.5651 152.609 36.3268 152.615 35.6462 153.037C34.9611 153.461 34.7641 153.465 33.8678 153.074C33.3134 152.831 32.5032 152.531 32.0672 152.406C31.3661 152.205 31.3234 152.234 31.6971 152.66C31.9294 152.925 32.0272 153.283 31.9143 153.455C31.6493 153.861 30.7927 153.864 30.7927 153.459C30.7927 152.901 29.4054 152.597 28.8742 153.038C28.4646 153.379 28.1603 153.37 26.9661 152.983C24.8354 152.292 24.0644 151.482 24.1787 150.053C24.2973 148.571 25.3537 148.025 26.3242 148.943C26.6824 149.281 27.1849 149.451 27.5563 149.36C27.9012 149.274 28.4962 149.362 28.8785 149.556C29.5323 149.887 29.5702 149.849 29.5149 148.907C29.3913 146.801 29.5095 146.295 30.1719 146.096C30.5301 145.989 31.0247 146.059 31.271 146.252C31.5173 146.446 31.8779 146.511 32.0722 146.397C32.2776 146.277 32.5015 146.465 32.607 146.847C32.7376 147.319 32.9627 147.46 33.4113 147.349C34.3061 147.127 34.927 147.43 34.927 148.088C34.927 149.364 37.9452 148.446 38.2336 147.082C38.4515 146.052 39.2577 145.994 40.529 146.918C41.0336 147.284 41.5258 147.689 41.6228 147.817C41.7197 147.946 42.4558 148.136 43.2586 148.24C44.7009 148.427 44.7209 148.418 44.9434 147.46C45.0672 146.927 45.419 146.254 45.7252 145.964C46.2554 145.463 46.1141 145.44 42.7511 145.475C38.4298 145.521 37.4712 145.203 37.4712 143.724C37.4712 143.17 37.6698 142.56 37.9127 142.37C38.5261 141.888 40.9694 142.277 40.9694 142.856C40.9694 143.626 41.7523 143.083 42.1073 142.068C42.2958 141.529 42.6328 140.981 42.8561 140.851C43.3816 140.544 45.1038 141.156 45.1038 141.65C45.1038 141.859 45.4973 142.118 45.9783 142.227C46.4594 142.336 47.0026 142.535 47.1856 142.67C47.3686 142.805 47.8337 142.893 48.2192 142.865C48.8767 142.818 48.9201 142.671 48.9201 140.491V138.166L47.5708 138.074C46.4707 137.998 46.1469 137.833 45.8167 137.179C45.1537 135.864 45.8232 134.876 47.4531 134.764C48.5321 134.689 48.7788 134.555 48.8627 133.996C48.9802 133.214 48.2598 133.099 46.7941 133.666C45.6223 134.119 44.5141 133.993 43.4671 133.288C42.9072 132.911 42.6719 132.528 42.774 132.158C42.8674 131.82 42.6034 131.267 42.1081 130.761C41.3385 129.976 41.1233 130.063 41.2554 131.105C41.3169 131.59 40.2714 131.907 39.9969 131.487C39.6207 130.911 37.2891 130.848 36.8044 131.4C35.9845 132.334 34.9327 132.48 33.7552 131.823C33.1553 131.489 32.4888 131.215 32.2742 131.215C31.5368 131.215 30.7145 129.448 30.9349 128.337C31.0619 127.696 31.0134 127.305 30.8071 127.305C30.6242 127.305 30.4746 127.44 30.4746 127.606C30.4746 127.771 30.1518 127.907 29.7572 127.907C28.8854 127.907 28.3885 126.913 28.1362 124.664C27.8837 122.414 28.039 122.193 29.8726 122.193C31.4251 122.193 31.5996 122.062 31.2365 121.167C31.0993 120.829 30.8125 120.748 30.233 120.886C29.6519 121.024 29.3031 120.925 29.004 120.538C28.6674 120.103 28.4955 120.07 28.1185 120.366C27.8611 120.568 27.6062 121.027 27.552 121.388C27.4725 121.915 27.2741 122.024 26.5302 121.949C26.0225 121.897 25.4968 122.024 25.362 122.23C25.0459 122.713 22.7787 122.049 21.59 121.125C21.1417 120.776 20.5244 120.404 20.2183 120.299C19.6167 120.091 19.4448 118.746 19.9798 118.434C20.1547 118.331 20.3024 117.884 20.3079 117.438C20.319 116.551 20.9559 115.577 21.5255 115.577C21.7248 115.577 21.888 115.424 21.888 115.238C21.888 115.026 21.5476 114.964 20.9762 115.072C20.0521 115.247 18.7077 114.449 18.7077 113.726C18.7077 113.537 18.4089 113.476 17.9921 113.581C17.5986 113.679 16.4822 113.606 15.5112 113.418C14.121 113.148 13.6647 112.913 13.3645 112.311C12.8398 111.26 12.8869 110.263 13.4714 110.051C14.0704 109.833 17.0433 110.408 17.2925 110.789C17.3918 110.941 17.6973 111.066 17.9712 111.066C18.3493 111.066 18.4255 110.859 18.2876 110.207C18.0563 109.113 18.572 108.57 19.4296 109.004C19.907 109.246 20.1736 109.207 20.5621 108.84C21.0275 108.399 20.985 108.359 20.0553 108.359C18.926 108.359 18.2776 107.658 17.9246 106.055C17.7463 105.245 17.8208 105.071 18.4257 104.89C18.9135 104.744 19.2546 104.83 19.5136 105.165C20.0119 105.809 22.4589 105.813 23.4287 105.17C23.844 104.895 24.5051 104.751 24.9676 104.835C25.4732 104.926 25.9785 104.792 26.3105 104.478C26.808 104.007 26.8035 103.936 26.2412 103.385C25.4709 102.63 25.0011 101.488 25.2833 101.056C25.6931 100.429 25.3688 98.2886 24.7399 97.4698C23.9645 96.4602 23.9649 96.4383 24.7867 94.8075C25.7569 92.8821 26.2949 92.3763 26.9955 92.7308C27.3118 92.8909 27.902 93.0262 28.3071 93.0314C29.145 93.0423 30.1566 93.672 30.1566 94.1828C30.1566 94.3713 30.2915 94.5255 30.4563 94.5255C30.6212 94.5255 30.8001 93.9515 30.8539 93.25C30.9751 91.6688 31.5401 91.5004 33.1845 92.5556C33.8418 92.9774 34.5028 93.3226 34.6533 93.3226C34.8038 93.3226 34.927 92.5606 34.927 91.6292V89.9359L36.0401 90.1067C37.2771 90.2965 37.5146 89.9179 36.4854 89.3971C36.0078 89.1553 35.8594 88.8527 35.9643 88.3339C36.0756 87.783 35.9723 87.6087 35.5339 87.6087C35.2165 87.6087 34.5767 87.4449 34.112 87.2447C33.3861 86.9319 33.2071 86.9584 32.8402 87.4329C32.5445 87.8152 32.1548 87.9383 31.573 87.8332C30.8704 87.7062 30.6813 87.8211 30.4181 88.5349C30.1018 89.393 29.1665 89.9141 28.5693 89.5651C28.1129 89.2984 28.1711 87.9786 28.646 87.825C28.8646 87.7543 28.6857 87.7544 28.2484 87.8252C27.8112 87.896 27.4057 88.0792 27.3474 88.2324C27.2269 88.5489 25.9157 88.596 24.529 88.3337C23.262 88.0941 22.2926 86.4744 22.8387 85.5095C23.1167 85.0182 23.3936 84.895 23.9028 85.0359C25.7912 85.5582 26.6863 85.5729 27.2498 85.0907C27.6476 84.7502 28.1272 84.6537 28.7941 84.7798C30.0188 85.0114 30.4808 84.4216 29.555 83.8085C29.0938 83.503 28.8845 83.0412 28.8845 82.3289C28.8845 81.459 28.9989 81.2915 29.6001 81.2816C30.1794 81.2721 30.1038 81.1817 29.2025 80.8067C28.1469 80.3676 27.2203 80.3802 25.0333 80.8633C24.3695 81.0099 24.1684 80.9205 24.0291 80.4169C23.9096 79.9849 23.6922 79.8463 23.3366 79.9753C22.069 80.4353 20.6298 77.5425 21.6475 76.5802C22.0712 76.1795 22.2686 76.199 23.4203 76.7546C24.6458 77.3458 26.3403 77.5087 26.3403 77.0353C26.3403 76.6829 25.7982 76.4655 24.5388 76.3131C22.8729 76.1114 22.1531 75.4065 22.2701 74.0912C22.3479 73.2156 22.4795 73.04 23.001 73.1163C23.3509 73.1674 24.4242 73.2464 25.3862 73.2917C26.3482 73.3371 27.4453 73.4699 27.8241 73.5869C28.223 73.71 28.6039 73.6604 28.729 73.469C28.8527 73.2798 29.3203 73.2164 29.8224 73.3207C30.5249 73.4666 30.803 73.3539 31.2177 72.7554C31.7071 72.0491 31.7008 71.9975 31.1049 71.8186C30.3382 71.5885 28.8845 69.8483 28.8845 69.1606C28.8845 68.8112 28.6083 68.6627 27.9587 68.6627C27.326 68.6627 26.7854 68.3846 26.2512 67.7843C25.7974 67.2743 25.0853 66.8644 24.5533 66.8069C23.6541 66.7098 23.6324 66.6637 23.3872 64.3214C23.2498 63.0089 23.2095 61.7571 23.2977 61.5397C23.5287 60.9704 24.2084 61.053 24.9949 61.7459C25.3704 62.0767 25.7654 62.3473 25.8727 62.3473C25.9799 62.3473 26.2824 62.5503 26.5447 62.7984C26.8071 63.0465 27.2132 63.2495 27.4472 63.2495C27.7746 63.2495 27.7378 62.9856 27.2879 62.105C26.8943 61.3346 26.7008 60.2719 26.6961 58.8547C26.6922 57.6966 26.539 56.3759 26.3556 55.9198C26.1723 55.4638 26.0223 54.7205 26.0223 54.2682C26.0223 52.7933 27.3874 52.1362 27.7345 53.444C27.8884 54.0237 28.1711 54.1861 29.1854 54.2776C30.3853 54.3858 30.4496 54.3481 30.5394 53.4824C30.6175 52.7292 30.7911 52.5566 31.5532 52.4743C32.069 52.4187 32.5851 52.5469 32.7285 52.7663C32.8692 52.9816 33.0982 53.0499 33.2374 52.9182C33.3766 52.7866 33.2484 52.5507 32.9524 52.394C32.6564 52.2374 32.2027 51.9092 31.9441 51.6648C31.6856 51.4203 31.3476 51.2203 31.1929 51.2203C30.7171 51.2203 29.3269 49.6212 28.888 48.5691C28.5286 47.7078 28.5412 47.5066 28.9803 47.0913C29.38 46.7134 29.5861 46.6871 29.9445 46.9684C30.6272 47.5042 30.8643 46.6388 30.3202 45.597C29.567 44.1547 29.5933 43.0946 30.3951 42.5823C31.0653 42.154 31.1107 42.166 31.1107 42.7726C31.1107 43.1288 31.3315 43.5003 31.6014 43.5983C32.2814 43.845 32.551 43.5042 32.0906 42.9797C31.8801 42.7398 31.7524 41.9584 31.8068 41.2432C31.897 40.0571 31.9774 39.9472 32.7212 39.9919C33.4423 40.0352 33.5215 39.9434 33.4059 39.1988C33.2677 38.3084 34.1021 36.7852 34.728 36.7852C35.2785 36.7852 35.8981 37.8969 35.6662 38.4684C35.5241 38.8187 35.5984 38.9293 35.9099 38.8311C36.1564 38.7534 36.3704 38.5658 36.3856 38.4142C36.4007 38.2626 36.5261 37.8948 36.6643 37.5969C36.8396 37.2192 36.702 36.8404 36.2095 36.3447C35.8212 35.9538 35.4599 35.2502 35.4067 34.7811C35.3535 34.3121 35.2321 33.6244 35.137 33.2529C35.0174 32.7858 35.148 32.4843 35.5606 32.2755C36.2618 31.9206 36.9347 31.8766 36.7283 32.1991C36.6488 32.3231 36.774 32.5907 37.0063 32.7937C37.3471 33.0914 37.4483 33.0332 37.5295 32.493C37.5959 32.0511 37.889 31.7886 38.3905 31.7215C38.9604 31.6453 39.1048 31.7333 38.9671 32.0726C38.762 32.5781 39.569 33.0147 39.8667 32.5592C40.1187 32.1737 39.7359 31.0714 39.35 31.0714C38.7904 31.0714 38.36 29.4912 38.7175 28.7492C39.1026 27.9501 39.4674 27.8896 40.129 28.5151C40.9998 29.3387 41.1692 28.9981 40.8604 27.0444C40.5096 24.8244 40.6843 24.1546 41.6143 24.1546C41.9799 24.1546 42.2085 24.2625 42.1223 24.3945C42.0361 24.5264 42.0878 24.8215 42.2373 25.0503C42.43 25.345 42.5732 25.1437 42.7288 24.3593C42.981 23.0879 43.8317 22.8222 43.8317 24.0148C43.8317 24.6703 43.9163 24.7344 44.4353 24.4717C44.9621 24.2051 45.0007 24.0055 44.7387 22.9027C44.4278 21.5943 44.78 20.2349 45.6469 19.3966C45.8729 19.178 46.0578 18.8203 46.0578 18.6017C46.0578 18.3831 46.2711 18.1269 46.5316 18.0324C46.8544 17.9152 47.0728 18.1143 47.2168 18.6568C47.3331 19.0948 47.6199 19.8005 47.8541 20.225C48.0884 20.6495 48.281 21.1516 48.2821 21.3406C48.283 21.5297 48.5112 21.7668 48.7889 21.8676C49.1872 22.0121 49.2484 22.3046 49.079 23.253C48.9315 24.0785 48.9792 24.4553 49.2313 24.4553C49.4441 24.4553 49.5561 24.8028 49.4977 25.2823C49.4187 25.9319 49.2095 26.1297 48.5224 26.2045C48.0413 26.2568 47.5072 26.5479 47.3354 26.8514C46.9087 27.6054 47.521 29.1883 48.3336 29.4322C48.7092 29.5449 48.8962 29.7942 48.794 30.046C48.5522 30.6419 49.0757 30.5743 49.5862 29.9436C49.8205 29.6542 49.8899 29.5148 49.7405 29.634C49.5911 29.7532 49.0593 29.5749 48.5587 29.2378C47.3448 28.4204 47.7521 27.5311 49.3017 27.6155C50.9507 27.7052 51.4636 28.0134 51.1783 28.7428C50.8942 29.4689 51.6541 31.1619 52.1884 30.9935C52.5529 30.8786 52.8983 30.3561 53.1805 29.4925C53.2751 29.2031 53.6587 28.9662 54.033 28.9662C54.6129 28.9662 54.6833 29.0885 54.509 29.7933C54.1327 31.3156 53.6172 32.2743 53.1748 32.2743C52.9337 32.2743 52.7364 32.4699 52.7364 32.709C52.7364 32.948 52.3491 33.3202 51.8758 33.536C51.4025 33.7518 50.6314 34.4636 50.1622 35.1179C49.3801 36.2087 49.3482 36.3638 49.7781 36.9843C50.036 37.3565 50.1462 37.8153 50.0229 38.0038C49.879 38.2241 50.0113 38.3084 50.393 38.2395C50.7302 38.1787 51.0332 37.8265 51.0935 37.4254C51.1611 36.9757 51.0743 36.7918 50.855 36.92C50.6653 37.0308 50.5102 36.9829 50.5102 36.8136C50.5102 36.3952 51.6372 35.8517 51.9502 36.1192C52.0885 36.2374 52.124 36.1274 52.0291 35.8748C51.9342 35.6221 52.1877 35.0226 52.5925 34.5426C53.187 33.8375 53.4163 33.7387 53.7853 34.0283C54.1435 34.3095 54.3249 34.2925 54.6256 33.9499C54.8365 33.7096 55.2132 33.5871 55.4628 33.6776C56.2805 33.9743 55.9551 35.9161 54.6776 38.3641C53.6237 40.3837 53.5378 40.6947 54.0342 40.6947C54.3492 40.6947 54.6957 40.8304 54.8041 40.9963C54.9329 41.1934 55.2422 41.1758 55.6974 40.9455C56.5234 40.5275 56.3536 40.4829 57.5451 41.4309C58.0756 41.853 58.6062 42.1984 58.7243 42.1984C58.8424 42.1984 59.2806 42.8074 59.6982 43.5517C60.1157 44.296 60.5932 44.905 60.7591 44.905C61.4071 44.905 60.6271 47.4552 59.7786 48.1109C58.819 48.8524 58.8667 48.9588 60.2717 49.2115C61.0993 49.3603 61.3242 49.2848 61.4857 48.8036C61.5947 48.4788 61.8946 48.213 62.1522 48.213C62.9645 48.213 65.1866 46.9938 65.055 46.6204C64.9062 46.1983 66.0775 45.5523 66.65 45.7407C66.8686 45.8126 67.0475 46.3194 67.0475 46.8668C67.0475 47.4143 67.2163 47.9154 67.4227 47.9804C67.6668 48.0574 67.7054 48.3026 67.533 48.6821C67.3872 49.003 67.2512 49.4009 67.2307 49.5663C67.1475 50.238 66.6703 51.2203 66.4271 51.2203C66.2844 51.2203 66.0928 51.491 66.0013 51.8218C65.8943 52.2086 65.5675 52.4232 65.0855 52.4232C64.6134 52.4232 64.2199 52.6736 64.0222 53.0999C63.6585 53.8837 62.3104 54.1746 61.8179 53.5755C61.5192 53.2122 60.4667 53.0899 59.5739 53.3147C59.399 53.3588 59.1031 53.413 58.9164 53.4353C58.424 53.494 57.4585 54.467 57.7428 54.618C58.6088 55.0778 59.8736 55.1118 60.5489 54.6934C61.463 54.127 62.6255 54.5196 63.417 55.6618C63.8482 56.2841 64.1054 56.3749 65.0339 56.2324C65.6412 56.1392 66.4858 56.188 66.9108 56.3408C67.5437 56.5683 67.6835 56.8273 67.6835 57.7719C67.6835 58.8256 67.5668 58.9817 66.3319 59.5796C65.5885 59.9394 65.2211 60.2358 65.5154 60.2381C65.8098 60.2405 66.1414 60.5129 66.2524 60.8437C66.385 61.2386 66.7336 61.4452 67.2677 61.4452C67.9944 61.4452 68.0615 61.5375 67.8978 62.3116L67.7145 63.1781L68.991 62.8718C70.3873 62.5366 70.7824 62.7207 70.9544 63.7863C71.0957 64.6617 71.8338 65.3682 72.0431 64.8284C72.2631 64.261 72.7811 64.374 73.5481 65.1565C73.9276 65.5438 74.5088 66.0039 74.8395 66.1789C75.7826 66.678 75.8903 69.9827 75.0069 71.3146C74.2415 72.4686 73.3708 72.4941 73.0903 71.3707C72.977 70.9166 72.8158 70.7581 72.6795 70.9666C72.3733 71.4351 70.1444 71.3493 69.7497 70.8538C69.3288 70.3255 67.0475 69.9658 67.0475 70.4277C67.0475 70.6148 67.3779 70.7678 67.7818 70.7678C68.8554 70.7678 69.8539 71.5305 69.378 71.9871C69.173 72.1838 69.0769 72.5212 69.1644 72.7368C69.252 72.9524 68.9826 73.3401 68.5659 73.5983C67.9743 73.9649 67.5686 74.0027 66.7144 73.771C66.1128 73.6079 65.5906 73.4744 65.5539 73.4744C65.4209 73.4744 64.8248 75.7434 64.8231 76.2561C64.8221 76.578 65.0622 76.7824 65.4416 76.7824C65.7827 76.7824 66.1763 76.9657 66.3161 77.1896C66.68 77.7723 67.8274 78.2861 68.7645 78.2861C69.8095 78.2861 70.9627 80.112 70.1994 80.5581C70.0401 80.6512 69.9097 80.8548 69.9097 81.0104C69.9097 81.387 73.325 81.3765 73.461 80.9994C73.5193 80.8378 74.0226 80.6197 74.5795 80.5147C75.543 80.3332 75.6025 80.3767 75.8081 81.4134C75.9547 82.1524 75.8848 82.6621 75.5907 82.9979C75.1964 83.448 75.2724 83.4732 76.4292 83.2764C77.1289 83.1573 77.853 82.8747 78.0385 82.6483C78.2239 82.422 79.011 82.1767 79.7876 82.1034C81.3816 81.9528 82.3127 82.4783 82.3127 83.5285C82.3127 84.2775 81.478 85.5036 80.9681 85.5036C80.7731 85.5036 80.339 85.7386 80.0033 86.0259C79.4222 86.5232 79.3707 86.5196 78.9263 85.9507C78.4889 85.3907 78.4399 85.3862 78.1442 85.8795C77.9596 86.1874 77.4535 86.4058 76.9245 86.4058C75.8183 86.4058 75.5729 86.9227 75.9942 88.3656C76.2601 89.2762 76.2206 89.568 75.7669 90.0421C75.1056 90.733 75.4842 90.7702 77.0162 90.1649C77.6442 89.9168 78.3705 89.7138 78.6302 89.7138C79.341 89.7138 79.8215 91.6778 79.3524 92.6661C78.8676 93.6878 77.9888 94.5255 77.4021 94.5255C77.15 94.5255 76.8604 94.6532 76.7584 94.8092C76.6564 94.9653 75.7083 95.057 74.6514 95.013C72.8421 94.9378 72.7036 94.9811 72.2805 95.7547C72.0334 96.2066 71.6493 96.6377 71.427 96.7127C71.2047 96.7877 71.1185 96.9468 71.2355 97.0663C71.3525 97.1857 71.9249 97.0818 72.5076 96.8354C74.1438 96.1433 75.9505 95.9758 76.1618 96.4966C76.2898 96.8119 76.8868 96.9314 78.3343 96.9314C80.1242 96.9314 80.3493 96.9998 80.5136 97.5939C80.6285 98.0095 80.3598 98.878 79.7925 99.9245C79.08 101.239 78.7438 101.577 78.2066 101.52C77.7448 101.47 77.4345 101.671 77.2446 102.144C77.0904 102.527 76.6095 103.061 76.1759 103.329C75.441 103.785 75.3067 103.779 74.1953 103.243C73.2941 102.809 72.8528 102.744 72.3884 102.979C72.0161 103.168 70.9679 103.209 69.7287 103.083C68.1057 102.919 67.6826 102.961 67.6792 103.287C67.6766 103.513 67.5826 104.024 67.47 104.422C67.2952 105.04 67.3593 105.123 67.9062 104.988C68.6512 104.803 69.5872 105.22 69.6017 105.743C69.6072 105.941 69.968 106.349 70.4035 106.649C71.1496 107.162 71.2545 107.165 72.2221 106.693C73.4185 106.109 76.8745 105.879 77.4833 106.342C77.7428 106.54 77.8832 107.239 77.8537 108.186C77.8275 109.026 77.8183 109.84 77.8332 109.997C77.8482 110.153 78.3255 109.871 78.8939 109.37C79.8227 108.55 80.1495 108.453 82.1174 108.415L84.3074 108.372L84.0858 110.684C83.6995 114.715 82.8536 116.166 81.6734 114.821C81.4282 114.542 81.1371 114.468 80.9189 114.63C80.7235 114.775 80.3489 114.902 80.0865 114.912C79.8242 114.923 79.2875 115.025 78.8939 115.139C78.3566 115.294 78.1784 115.225 78.1784 114.86C78.1784 114.593 77.9995 114.378 77.7808 114.383C77.0482 114.401 76.2703 115.185 76.2654 115.911C76.2565 117.225 75.8293 117.478 73.5155 117.537C72.3194 117.567 71.0904 117.694 70.7843 117.819C70.0062 118.137 69.2737 117.806 69.2737 117.136C69.2737 116.21 68.1577 115.472 67.0685 115.678C66.5458 115.777 66.0325 115.727 65.928 115.567C65.8234 115.407 65.2545 115.276 64.6637 115.276C63.6843 115.276 63.5807 115.362 63.4899 116.253C63.4068 117.068 63.2444 117.247 62.5156 117.326C62.0151 117.38 61.6411 117.605 61.6411 117.852C61.6411 118.089 61.4734 118.283 61.2686 118.283C61.0637 118.283 60.6453 118.498 60.3387 118.76C59.8276 119.198 59.7066 119.187 58.8825 118.628C57.7802 117.88 57.3331 117.801 55.9399 118.112C55.0618 118.307 54.7683 118.249 54.4292 117.81C54.0303 117.294 54.0085 117.298 54.0085 117.887C54.0085 118.229 54.0961 118.923 54.2033 119.43C54.3717 120.226 54.4755 120.305 54.969 120.014C55.427 119.744 55.9461 119.866 57.5959 120.634C59.8513 121.684 60.5337 121.801 60.785 121.182C60.9798 120.702 63.8665 120.319 64.3645 120.707C64.5505 120.852 66.0381 120.93 67.6703 120.881C70.6337 120.792 70.6386 120.793 71.1484 121.641C71.6696 122.508 72.1892 122.651 74.3052 122.511C75.1228 122.457 75.3982 122.575 75.5245 123.031C75.6692 123.555 75.966 123.62 78.153 123.611C80.7808 123.599 81.5052 123.804 81.2313 124.479C80.9076 125.276 81.4003 125.801 82.4717 125.801C83.1147 125.801 83.5883 125.978 83.7028 126.26C83.8983 126.742 85.2589 126.612 86.032 126.038C86.241 125.882 86.7419 125.8 87.1451 125.854C87.7582 125.936 87.894 126.158 87.975 127.212C88.0598 128.315 87.9605 128.539 87.1799 129.001C86.6894 129.291 86.2176 129.58 86.1316 129.643C86.0456 129.705 86.2011 129.876 86.4771 130.022C87.2386 130.425 87.2008 132.306 86.4164 133.048C85.9213 133.516 85.6669 133.581 85.3384 133.323C85.002 133.059 84.8158 133.169 84.4827 133.826C83.9327 134.911 83.221 135.018 81.6643 134.251C80.9714 133.91 80.4045 133.763 80.4045 133.926C80.4045 134.418 78.8969 134.258 78.6884 133.744C78.5816 133.481 78.5648 133.158 78.6509 133.026C78.9522 132.565 77.932 132.109 76.3084 131.98C74.7702 131.858 73.726 131.327 73.726 130.667C73.726 130.33 72.2324 129.92 71.8393 130.15C71.6922 130.236 71.3951 130.104 71.1789 129.858C70.5595 129.152 69.63 129.312 69.4043 130.162C69.2945 130.576 69.0055 130.914 68.7621 130.914C68.5187 130.914 68.3196 131.109 68.3196 131.347C68.3196 131.8 70.2148 132.198 72.5865 132.243C73.6564 132.264 73.8738 132.385 74.1272 133.104C74.3337 133.69 74.3042 134.076 74.0288 134.39C73.4019 135.104 73.9974 135.311 75.0444 134.743C76.2772 134.074 76.6428 134.087 77.3126 134.827C78.0359 135.626 78.021 135.689 76.7924 137.02C76.0515 137.822 75.4133 138.201 74.6519 138.29C74.0552 138.36 73.2362 138.584 72.8318 138.786C72.2579 139.074 71.9623 139.076 71.4845 138.794C71.1479 138.595 70.6816 138.432 70.4484 138.432C70.2152 138.432 69.7108 138.091 69.3276 137.675C68.6528 136.941 68.5993 136.932 67.6435 137.399C66.6028 137.908 66.2327 137.766 66.0342 136.778C65.8526 135.876 63.7738 136 62.9454 136.962C62.3394 137.667 62.3094 137.671 61.3787 137.154C60.2205 136.512 60.0509 136.502 60.0509 137.079C60.0509 137.327 59.848 137.53 59.5999 137.53C58.7093 137.53 58.1428 137.155 58.1428 136.564C58.1428 136.234 57.7761 135.551 57.328 135.047L56.5132 134.132L56.6124 135.305C56.7059 136.409 56.6604 136.477 55.8371 136.466L54.9625 136.454V139.843V143.231L56.3936 143.172C57.1808 143.14 57.8248 142.965 57.8248 142.784C57.8248 142.186 59.1095 141.139 59.8445 141.139C60.2736 141.139 60.8448 141.494 61.2502 142.012C61.8549 142.786 62.0525 142.858 62.9796 142.648C63.5553 142.518 64.277 142.313 64.5835 142.194C65.4165 141.869 66.6321 142.258 66.8117 142.907C66.9212 143.303 67.3749 143.544 68.2849 143.69C70.254 144.004 70.8625 145.631 69.5806 147.154C68.982 147.865 68.9239 147.876 68.5093 147.366C67.8006 146.495 62.5951 146.308 62.5951 147.154C62.5951 147.297 62.9887 147.457 63.4697 147.51C64.2937 147.599 64.3443 147.692 64.3443 149.108C64.3443 150.484 64.2766 150.621 63.5492 150.716C61.7558 150.951 61.3449 152.173 63.0712 152.138C63.6829 152.126 64.1838 151.998 64.1843 151.853C64.185 151.709 64.3767 151.741 64.6106 151.925C64.9354 152.18 65.206 152.087 65.7555 151.534C66.9265 150.355 69.0745 151.056 68.5152 152.435C68.2828 153.007 69.0918 152.994 70.0351 152.41C71.0808 151.762 71.9251 152.135 71.7103 153.15C71.4948 154.169 71.7765 154.585 72.7719 154.717C73.4133 154.802 73.5867 155.017 73.6689 155.828C73.7707 156.833 73.0592 157.975 72.3251 157.984C72.1336 157.987 71.7714 158.112 71.5203 158.262C71.1484 158.485 71.1385 158.621 71.467 158.995C71.8755 159.46 71.6786 160.686 71.1955 160.686C71.0517 160.686 70.3849 160.224 69.7139 159.66C68.6899 158.798 68.3903 158.685 67.8509 158.958C67.4384 159.167 67.3503 159.328 67.6049 159.409C68.1185 159.571 68.1179 160.281 67.6039 160.46C66.9504 160.687 66.3882 160.367 66.0762 159.591L65.7823 158.86L64.5615 159.525C63.2259 160.252 62.2771 160.133 62.2771 159.239C62.2771 158.928 61.9803 158.421 61.6175 158.11C61.1977 157.751 61.0082 157.297 61.0963 156.861C61.1856 156.419 61.081 156.175 60.8019 156.175C60.5638 156.175 60.369 156.383 60.369 156.636C60.369 157.201 59.5929 157.52 59.0326 157.185C58.4538 156.839 56.8707 156.791 56.8707 157.119C56.8707 157.269 56.5129 157.545 56.0756 157.734C54.7125 158.321 55.1591 158.677 57.0297 158.495C58.8221 158.32 58.9224 158.38 58.7951 159.561C58.7208 160.249 59.4331 160.906 60.3936 161.035C61.3205 161.159 61.5421 161.94 60.8392 162.605C60.4841 162.94 59.7582 163.092 58.5088 163.092C57.0876 163.092 56.5759 163.223 56.1494 163.694C55.6673 164.226 55.6626 164.295 56.1085 164.295C56.3855 164.295 56.687 164.566 56.7785 164.897C56.87 165.228 57.1922 165.498 57.4945 165.498C57.7968 165.498 58.2846 165.749 58.5785 166.056C59.2649 166.774 60.687 166.576 60.687 165.764C60.687 165.452 60.9016 165.197 61.164 165.197C61.4264 165.197 61.641 165.398 61.641 165.643C61.641 165.888 62.0346 166.167 62.5156 166.262C62.9966 166.358 63.6387 166.564 63.9424 166.719C64.2461 166.875 64.7828 167.002 65.135 167.002C66.3711 166.989 65.61 166.987 66.951 166.788C67.4778 166.888 68.0556 166.83 68.2351 166.661C68.4581 166.45 68.9508 166.454 69.7921 166.675C71.6693 167.168 71.8266 167.119 71.6111 166.1C71.4317 165.251 71.4795 165.197 72.4141 165.197C73.0855 165.197 73.408 165.344 73.408 165.649C73.408 166.178 73.5629 166.203 74.3496 165.805C74.7687 165.593 75.0361 165.63 75.3061 165.938C75.6147 166.289 75.4801 166.4 74.5444 166.566C73.7176 166.713 73.408 166.923 73.408 167.336C73.408 167.648 73.5153 167.877 73.6465 167.844C74.0487 167.744 75.4624 168.267 75.6881 168.6C75.9693 169.014 80.0514 168.96 80.5002 168.535C81.0584 168.007 81.9422 168.152 82.3281 168.834C82.7393 169.56 82.3021 170.856 81.3791 171.646C80.8768 172.076 80.7075 172.078 79.6692 171.667C78.4878 171.201 75.3123 171.033 75.321 171.438C75.3236 171.562 75.4394 171.832 75.5783 172.039C75.7764 172.334 75.9633 172.32 76.448 171.973C76.7875 171.731 77.2441 171.528 77.4628 171.522C78.0441 171.508 77.949 172.619 77.3503 172.836C77.064 172.94 76.9187 173.215 77.0191 173.462C77.1174 173.704 76.9744 174.021 76.7014 174.165C76.0581 174.506 76.2827 175.6 76.9733 175.49C77.761 175.364 78.0388 176.055 77.3484 176.424C77.0178 176.6 76.0551 176.784 75.2091 176.833L73.6709 176.922L73.8791 175.756C74.0658 174.711 73.9937 174.527 73.1848 173.983C72.6884 173.648 71.6053 173.279 70.778 173.162L69.2737 172.948V174.636C69.2737 176.216 69.2249 176.325 68.5126 176.325C67.6044 176.325 67.2359 175.612 67.7104 174.773C67.8989 174.44 67.9962 174.114 67.9266 174.048C67.857 173.983 66.8079 174.044 65.5952 174.184C63.7204 174.402 63.2711 174.361 62.5951 173.914C62.1578 173.624 61.5138 173.336 61.164 173.274C60.7899 173.207 60.4851 172.876 60.4238 172.469C60.2848 171.546 59.4977 171.303 58.9104 172.001C58.5675 172.41 58.4805 173.025 58.5957 174.23C58.7976 176.342 58.5582 177.227 57.7849 177.227C57.245 177.227 57.2036 177.062 57.3821 175.626C57.5309 174.428 57.4468 173.779 57.0482 173.05C56.2593 171.608 55.8095 172.024 55.7659 174.237C55.7449 175.303 55.6253 183.55 55.5001 192.564C55.375 201.578 55.1119 217.277 54.9155 227.449C54.5311 247.356 54.6227 249.3 56.0381 251.279C56.4237 251.818 56.8545 252.437 56.9955 252.655C57.2029 252.975 56.5161 253.037 53.4059 252.982C51.2906 252.945 49.4966 252.854 49.4192 252.781L49.4192 252.781ZM61.3206 147.078C61.3177 146.651 59.8957 145.95 59.0335 145.95C58.2267 145.95 58.3206 146.696 59.1764 147.087C60.1625 147.536 61.3236 147.532 61.3206 147.078V147.078ZM35.8075 127.576C36.9602 127.63 37.0356 127.518 37.248 125.425C37.4159 123.771 37.1983 123.635 36.4087 124.899C36.0987 125.395 35.9298 125.801 36.0333 125.801C36.1368 125.801 36.0683 126.072 35.8811 126.403C35.5527 126.983 34.3126 127.225 33.8604 126.798C33.6098 126.56 32.3828 126.432 32.3828 126.643C32.3828 127.062 33.8429 127.9 34.2724 127.727C34.5449 127.617 35.2358 127.549 35.8075 127.576ZM48.0748 127.566C48.5261 127.92 48.9201 127.733 48.9201 127.165C48.9201 126.953 48.5004 126.87 47.807 126.947C47.1472 127.02 46.6939 126.939 46.6939 126.748C46.6939 126.571 46.3925 126.16 46.024 125.836C45.3067 125.204 45.4391 124.623 46.3151 124.559C46.6109 124.537 46.3657 124.435 45.7703 124.333C44.9522 124.193 44.6602 123.975 44.5752 123.443C44.4951 122.941 44.6437 122.694 45.0933 122.583C45.7095 122.43 45.7081 122.415 45.0342 121.899C44.4791 121.474 44.1315 121.426 43.2519 121.656C42.6509 121.813 41.8827 121.873 41.5449 121.79C41.1856 121.701 40.8585 121.815 40.757 122.065C40.6615 122.301 40.2506 122.493 39.8438 122.493C38.8549 122.493 38.6165 123.336 39.2194 124.7C39.6745 125.73 39.7958 125.801 41.0987 125.801C42.1055 125.801 42.5479 125.94 42.695 126.303C42.8501 126.685 42.9867 126.72 43.2697 126.453C43.8344 125.919 44.8265 126.034 44.9977 126.653C45.1878 127.341 46.6941 127.919 47.2505 127.518C47.5073 127.333 47.799 127.35 48.0748 127.566H48.0748ZM42.0825 114.674C43.4189 114.03 44.3236 113.91 44.6041 114.339C45.1578 115.186 48.602 114.592 48.602 113.65C48.602 113.005 48.2303 112.878 47.7305 113.35C47.0844 113.961 46.1879 113.754 46.3246 113.025C46.408 112.581 46.3359 112.524 46.0066 112.771C45.7724 112.948 44.8952 113.161 44.0573 113.246C43.2193 113.331 42.2572 113.637 41.9193 113.926C41.4867 114.296 41.0196 114.398 40.342 114.27C39.8125 114.17 39.3793 114.141 39.3793 114.206C39.3793 114.271 39.2925 114.538 39.1863 114.8C38.9043 115.495 40.5266 115.424 42.0825 114.674ZM43.5136 101.069C43.776 100.96 44.3485 100.822 44.7857 100.762L45.5808 100.655L44.6917 100.242C43.5072 99.6921 43.616 98.6257 44.8706 98.4894C45.3546 98.4368 45.6682 98.2676 45.5674 98.1135C45.2617 97.6457 44.2509 97.797 42.9926 98.499C42.3363 98.8652 41.3686 99.1697 40.8424 99.1757C40.0916 99.1841 39.8425 99.3484 39.6858 99.9383C39.5759 100.352 39.5353 100.826 39.5956 100.992C39.7166 101.325 42.7575 101.385 43.5136 101.069ZM34.0927 76.6723C34.421 76.5616 34.8652 76.6089 35.0799 76.7774C35.8024 77.3443 38.9814 77.2078 38.3765 76.6358C37.7414 76.0352 31.6451 75.8558 31.0483 76.4201C30.8377 76.6192 30.4163 76.7821 30.1118 76.7821C29.8072 76.7821 29.4566 76.9373 29.3327 77.127C29.1703 77.3755 29.5222 77.4277 30.591 77.3138C31.4071 77.2268 32.1583 77.2834 32.2604 77.4396C32.3674 77.6034 32.668 77.5437 32.9709 77.2985C33.2596 77.0648 33.7644 76.783 34.0927 76.6723Z" fill="#222222"/>
<path d="M85.2653 18.3043L85.3777 5.55008L14.6262 4.93852L14.5138 17.6928" stroke="#F4A740" stroke-width="4.91627"/>
</svg>
