<svg width="105" height="263" viewBox="0 0 105 263" fill="none" xmlns="http://www.w3.org/2000/svg">
<g clip-path="url(#clip0)" filter="url(#filter0_d)">
<path fill-rule="evenodd" clip-rule="evenodd" d="M80.4426 8.35893C82.2678 8.40681 81.1981 8.88137 81.0991 10.9365C78.8445 11.8553 81.6565 12.921 79.4761 13.3423C77.5978 13.6779 77.2964 15.7502 75.8785 16.1011C74.1793 16.4669 73.6224 15.8999 72.6352 15.1767C72.67 14.5202 74.9899 13.6741 73.7746 12.6606C74.515 11.0533 74.9193 9.97073 76.9944 10.3965C78.3577 10.669 78.928 11.7148 79.5595 9.35672C80.0187 8.98239 79.8574 8.38572 80.4426 8.35893Z" fill="#F4A740" stroke="#242424" stroke-width="1.51216" stroke-linecap="square" stroke-linejoin="bevel"/>
<path fill-rule="evenodd" clip-rule="evenodd" d="M73.3401 37.4219C73.3827 37.8466 73.3842 38.1859 73.9599 37.9609C74.0931 38.9759 74.7179 37.226 75.0406 37.6775C74.5441 36.9278 76.1246 37.0267 76.3019 36.5649C77.0642 36.6076 76.7161 35.1562 77.6655 35.0855C78.3307 34.2315 79.4663 36.2593 80.0526 34.881C80.8631 35.4785 80.4985 35.7762 80.571 36.7176C80.7243 37.3961 80.5437 37.9576 80.0984 37.7985C80.1231 38.1451 79.6313 38.6748 79.7355 39.1526C79.9437 39.5111 79.1346 39.8742 80.1091 39.7577C80.1042 40.4641 79.3869 41.407 79.2924 41.9889C79.9739 42.2742 80.2869 44.0116 79.4278 44.0834C79.2826 44.4777 78.4047 43.7219 78.6488 44.5361C78.3215 45.104 78.923 45.9469 78.6412 46.7394C79.941 45.8241 79.2149 47.7524 78.3059 47.1673C77.7863 49.2918 77.5584 52.8987 79.3219 54.1665C77.7722 54.4246 79.4241 57.9814 80.2651 55.6483C79.3949 52.7805 84.0404 56.7606 84.198 53.2612C83.7927 51.1111 84.6712 49.9918 86.3686 49.5082C86.9749 48.8806 88.3646 49.7087 89.07 48.978C89.6834 48.7489 90.4443 48.6479 90.8042 48.4357C91.0831 49.0201 90.5357 49.3342 90.6766 50.0549C90.5402 50.6947 89.7236 50.0255 90.0224 51.0104C90.0491 51.7337 89.6553 52.2278 90.583 52.2341C90.9897 52.1902 90.3717 54.2219 91.3298 53.1218C92.0974 52.8763 91.9498 51.6349 92.9738 52.0982C93.0668 51.4611 93.8824 50.3754 94.176 51.3311C94.0666 52.1986 94.4463 52.2061 95.0119 52.2479C95.1137 52.8781 95.4764 53.2062 94.7689 53.3317C93.4159 53.6706 95.2066 53.4465 93.9337 53.9593C92.9794 52.5505 93.1129 54.4056 93.1617 55.0078C91.9021 54.7977 93.0832 55.7843 92.8296 55.8423C92.4599 56.365 92.3822 57.6303 93.6534 57.1287C94.5258 57.6366 93.7527 55.9588 94.816 56.4595C95.2891 56.4546 94.9646 56.6891 94.7264 56.9308C94.9285 58.0484 96.1557 56.7368 96.4542 58.0558C97.6658 59.0304 95.7203 60.6842 94.4157 60.7026C93.638 61.1112 93.4405 62.199 92.5784 62.3618C92.8717 62.9241 90.9071 61.8736 91.1408 63.1108C90.6552 63.8535 89.5549 62.3251 90.0787 63.3326C89.6018 63.9978 90.2813 63.9294 90.5123 64.2571C89.9485 64.9046 90.7734 66.7052 91.2911 65.956C91.9731 65.9216 91.2575 66.6885 91.7864 66.7776C91.4636 67.2869 90.8527 67.4632 90.2011 67.6208C91.3478 67.8404 89.7835 67.9311 89.8877 68.3712C90.7959 68.6809 88.3357 69.0137 89.7526 69.4196C90.0916 69.969 90.6 69.5679 90.9822 69.8504C91.6531 70.1182 90.2305 70.6688 90.1344 71.0038C89.1597 72.2882 87.8584 71.9143 86.711 73.1827C85.7375 73.0382 85.096 74.16 85.3993 74.9105C86.2776 75.9618 85.1465 76.9041 84.5228 77.4569C84.9274 75.6976 83.6018 76.5037 84.058 77.5489C83.4724 79.222 84.6338 80.7358 85.9575 79.0613C87.6307 77.3612 88.4299 78.7863 87.178 80.5614C87.3381 82.1533 85.9162 83.0064 86.6705 83.9347C87.9017 82.3838 90.7243 82.8673 91.268 80.7109C91.654 82.1902 91.8952 83.2409 92.8668 84.1256C91.0017 84.1271 93.957 85.6384 92.2421 85.9747C93.4465 88.1954 92.4011 86.1968 93.4465 88.1954C93.4704 88.445 93.8006 89.2362 92.8389 89.877C90.8409 97.0736 92.5889 92.7067 90.8409 97.0736C90.0777 98.2618 88.7341 100.269 87.8593 101.222C85.6236 102.518 85.0885 103.224 87.2535 105.016C88.2726 106.573 89.4269 105.035 90.7989 104.743C92.8423 104.815 91.7644 108.66 93.8144 107.879C93.9252 108.668 93.3714 109.124 94.236 109.285C94.8052 109.593 94.3613 110.721 94.3211 111.346C95.729 111.037 95.0083 111.518 94.2049 112.122C94.7152 111.668 95.5716 112.016 94.8395 112.336C95.1126 113.815 91.2337 113.544 90.3199 114.579C88.4954 114.334 88.4058 117.751 86.7433 116.834C88.0292 118.141 85.7448 118.711 84.6963 118.813C82.81 117.606 83.3575 120.236 83.3575 120.236C82.4591 121.487 85.487 120.608 84.8818 121.624C85.9525 123.747 83.2668 123.826 82.0916 123.606C81.1649 122.677 80.0351 122.417 80.8067 120.996C82.1184 120.631 79.4456 120.037 79.8282 122.165C78.8649 122.414 79.3137 123.043 78.6117 123.459C78.0809 123.653 77.5889 125.067 76.7884 124.289C76.8735 125.249 77.8651 127.904 75.8843 127.201C76.2027 125.908 75.1202 125.675 74.8382 126.733C74.8151 127.034 73.7208 127.845 73.7159 129.007C73.3389 131.103 73.3749 133.163 72.6019 134.998C73.0206 135.476 73.3788 136.304 74.1064 136.222C74.5392 137.588 73.195 138.041 73.9316 138.689C73.4342 139.741 74.3587 142.932 72.2255 141.754C72.018 143.946 71.1509 142.794 70.3843 144.078C68.699 144.598 70.4738 145.799 69.8656 146.916C70.1364 147.634 72.035 144.995 72.2785 146.644C72.3736 147.802 69.2465 148.161 69.4881 149.607C70.9155 149.334 72.1449 150.125 72.9073 151.396C75.2577 153.212 71.8883 150.958 72.508 153.104C72.8539 154.935 74.1169 152.785 74.4991 154.698C74.5469 155.765 72.3935 156.846 74.409 156.979C73.8534 158.243 72.5262 158.787 73.254 159.591C72.2205 159.807 70.5058 161.554 71.1505 161.949C70.9011 163.692 72.5434 162.848 73.3636 163.423C73.9963 164.454 73.1239 165.497 74.2652 166.506L74.308 167.483C74.6204 167.704 74.1979 171.179 74.7957 169.333C75.5306 168.899 75.7161 172.674 74.4072 172.275C72.9747 171.429 71.065 175.055 72.9913 174.332C74.0715 174.491 76.1681 173.171 75.7664 174.506C75.8599 180.797 77.4962 175.831 77.8304 175.64C79.5657 178.876 81.4674 176.442 79.8723 178.108C79.1361 178.096 81.3553 176.128 80.8357 179.276C81.0814 179.363 81.4998 179.581 81.8627 179.904C82.1372 180.887 82.8368 180.98 83.5886 181.454C83.3256 182.332 85.4247 181.347 84.2439 180.762C83.5407 179.176 85.9094 180.139 86.2982 179.341C85.9739 181.456 87.8647 180.677 88.7938 179.482C89.7223 178.786 89.2936 176.596 90.5447 178.272C91.6072 178.088 89.0535 176.615 90.4191 176.39C91.1099 175.151 90.4012 174.492 90.8801 173.25C91.154 173.842 91.8982 174.023 91.9126 173.274C92.5666 172.557 93.0519 172.271 94.1459 172.339C93.3931 171.139 95.6085 171.766 95.7882 172.368C95.4742 174.562 96.5595 176.446 94.9646 178.494C94.7445 179.372 92.6494 180.51 94.3763 179.846C95.036 179.204 96.4587 178.302 97.2206 178.894C97.5712 179.281 97.9669 180.165 98.4736 179.885C98.0988 181.231 96.6314 182.166 96.5037 183.739C95.3858 183.402 94.0829 184.437 95.5597 185.225C96.1581 185.505 97.1047 187.531 95.811 187.335C95.7933 187.153 94.9423 188.779 95.2526 189.444C95.9466 189.978 95.9683 190.749 96.6505 191.416C96.3837 192.73 95.3505 191.951 94.9798 192.693C93.4682 191.636 95.5338 193.333 95.7711 193.727C97.0629 194.233 94.8916 195.022 94.7482 195.291C93.6835 196.245 94.3803 195.694 95.3223 195.517C96.8082 195.581 97.111 197.438 95.66 197.289C93.6106 197.77 97.3707 200.213 95.4612 200.964C95.0055 201.988 97.0875 202.029 95.9454 203.256C97.2391 202.172 97.6585 205.114 96.4224 204.735C97.5454 206.381 93.4742 206.217 94.1187 207.064C95.9418 207.077 96.3633 207.292 95.0048 208.288C94.479 208.917 95.3483 209.157 95.3882 209.91C94.8372 210.948 94.6897 212.228 95.0982 213.152C94.852 214.244 94.2649 215.989 95.9404 215.837C94.4506 217.103 95.9211 218.385 96.3985 219.985C95.6716 221.316 94.692 221.424 95.9237 223.133C97.4172 223.543 96.7755 226.288 95.7207 226.724C94.4716 227.938 94.6311 229.776 92.9771 230.843C93.7764 232.597 96.7662 229.962 98.2384 230.744C98.3119 232.242 95.1221 231.093 93.8806 231.936C91.9513 232.986 92.5846 235.103 91.0532 236.305C89.7672 237.341 88.368 237.993 87.1827 237.316C85.4791 238.865 82.7951 238.517 80.6993 239.685C79.093 240.042 79.2619 240.199 77.7551 239.652C76.6622 240.678 74.4253 239.777 73.4795 240.189C72.9826 241.548 71.7533 239.503 70.797 239.645C70.3136 238.356 70.1778 238.587 69.169 238.495C69.9888 237.394 67.4467 237.124 67.1802 237.726C67.6141 239.109 67.1469 240.99 65.6941 240.755C65.0376 240.952 64.3684 240.892 64.7885 239.773C63.8079 239.293 62.7417 239.593 61.8975 239.441C61.4628 240.978 60.2542 237.241 59.6128 239.223C58.8003 240 60.0635 238.63 59.5508 238.098C58.7745 237.749 58.5274 237.67 58.0348 236.976C57.88 237.261 57.5071 238.079 56.2839 238.113C55.2531 238.122 54.3407 238.51 53.2693 238.797C52.0923 238.718 49.8932 238.186 49.1146 238.158C48.4533 236.817 46.9891 236.431 45.7549 235.94C44.3718 233.203 42.3286 237.146 40.3186 235.876C38.0061 236.037 37.9321 232.671 36.0773 232.585C35.4818 233.462 34.7529 232.981 34.4628 233.636C34.1084 233.705 33.649 234.753 33.121 234.306C32.4263 234.615 32.6299 232.573 32.2708 233.849C30.262 234.008 31.4959 237.601 29.1539 237.048C28.008 238.919 26.6326 237.309 25.4596 236.668C23.9029 236.861 23.134 237.096 22.6537 238.942C20.0059 239.684 21.7558 242.739 20.0354 243.759C17.9002 244.21 15.6168 243.357 13.7013 244.144C11.8734 245.926 11.4728 243.481 11.4239 244.178C9.84754 245.777 8.50098 247.827 9.44478 250.249C9.87558 251.68 8.94949 255.387 7.80469 252.715C7.47954 250.863 5.46509 249.594 6.33751 247.937C5.86692 246.93 6.86415 246.378 6.08364 245.189C7.17681 244.585 6.46542 243.753 5.95403 242.749C6.74799 241.054 7.38341 239.575 6.04694 237.972C4.90092 237.163 3.61531 236.278 3.00351 234.929C2.33672 235.42 1.10204 236.821 0.421414 234.874C-0.654008 233.492 0.291139 231.226 1.94048 232.476C0.576953 231.03 2.15835 229.587 2.78809 227.818C3.26126 226.284 5.79038 226.786 5.6472 224.874C6.88428 224.868 8.69676 225.456 9.07709 223.478C11.0631 221.326 10.4424 216.936 7.73421 215.835C6.28032 215.168 5.56606 213.453 7.28944 213.121C6.94521 212.559 6.78396 211.352 8.12983 211.891C8.28269 210.183 6.14852 211.454 6.00082 209.62C5.92654 207.728 5.32719 205.565 6.11294 203.928C7.04354 203.058 9.63105 203.501 8.15933 201.592C9.96717 200.195 13.0326 199.879 13.151 197.151C14.7551 197.445 15.6387 197.568 17.3924 196.584C17.9238 195.219 20.4614 196.025 20.9023 193.54C22.1792 191.413 22.3269 190.409 24.2543 189.253C22.6946 188.091 25.9027 187.05 24.4096 185.416C25.5363 183.106 21.5957 183.698 22.7931 181.663C22.8691 180.151 20.1322 180.318 21.1496 181.722C23.5194 181.869 20.7863 184.068 20.3976 182.45C19.5974 183.691 19.8794 182.678 18.7312 182.916C17.9931 182.615 17.2037 185.107 16.5008 183.966C17.6886 181.712 20.2116 181.42 21.9031 180.068C23.1157 182.887 26.2015 180.057 24.8391 178.095C25.4189 177.122 26.3784 178.694 26.6033 178.177C26.038 177.267 26.7078 175.683 25.5199 176.1C26.013 174.503 28.1056 173.667 28.4123 172.08C28.2582 171.175 29.5908 169.988 31.1459 171.124C33.4992 172.076 31.0154 169.761 33.5238 170.855C34.5258 171.602 35.732 172.286 36.7284 171.536C36.8673 169.451 39.0329 169.315 40.4772 169.704C41.5553 168.488 42.113 168.183 39.8649 168.848C38.0548 167.663 36.3315 170.009 34.4864 168.926C32.3911 168.643 30.4602 168.315 28.3039 167.642C27.861 166.644 28.0401 165.519 27.0376 166.579C27.5521 165.548 30.6693 163.185 29.2393 162.904C27.3211 162.802 30.0589 159.406 27.86 160.293C26.816 159.571 25.7402 157.782 24.2175 157.155C24.0757 156.436 21.6214 157.285 22.364 157.776C21.0805 157.783 19.8802 157.026 19.8064 155.89C18.9211 156.239 16.984 156.178 17.9448 154.645C16.7552 154.059 15.0437 154.054 15.4537 151.844C16.5132 150.887 17.4854 150.128 17.7604 151.267C18.2055 150.937 19.2231 151.222 18.8549 151.896C19.7509 151.467 21.2345 151.376 22.1835 150.657C22.86 149.574 23.7072 149.54 24.2536 148.09C24.4266 147.059 23.9524 147.263 23.86 146.247C24.4948 145.352 22.6748 144.98 23.8087 143.96C24.4501 144.545 25.0223 142.959 25.2107 142.919C26.3606 143.202 25.0639 144.169 25.8114 144.865C26.5152 145.445 24.9573 146.785 26.2837 146.914C26.98 146.352 27.5818 146.329 27.4943 147.346C29.9048 146.702 27.3094 145.885 27.1671 145.025C29.4915 145.103 28.6504 144.027 28.4052 143.135C28.4397 141.778 29.4512 141.466 30.6428 141.231C31.0795 139.54 32.904 140.65 34.1191 139.7C34.6676 139.662 33.9262 138.333 35.1584 138.36C36.624 137.786 37.1589 136.12 37.3439 134.937C37.6276 134.099 35.3516 133.963 36.1077 132.779C37.6229 133.575 37.0529 131.821 36.2589 131.934C34.4751 133.142 32.2175 130.141 34.125 128.692C35.8263 129.708 33.5897 126.509 35.4142 127.331C36.4244 127.797 37.1633 126.481 37.4961 125.6C34.7359 124.399 37.8295 122.555 39.4021 123.237C38.7579 120.874 42.306 121.402 40.6819 119.838C39.1499 118.94 41.1668 117.011 41.4826 115.956C41.7763 114.985 41.2109 114.445 42.0297 113.694C42.5868 112.83 43.867 112.839 44.5354 112.652C44.0528 111.871 42.8121 112.737 42.6572 111.224C42.8308 109.983 42.7408 109.177 41.9707 108.653C41.7504 107.394 42.2187 107.033 43.2182 106.934C42.918 106.062 44.5198 105.866 42.9362 105.033C43.27 104.299 42.4624 103.633 43.0284 103.291C42.7811 102.522 42.7274 101.842 41.6804 101.494C41.1667 100.771 42.5974 98.9842 42.768 97.8674C43.5449 97.7227 43.871 96.9088 44.4944 96.6366C44.0967 95.4684 44.458 94.5878 45.4676 94.3936C46.3106 93.6582 46.7779 93.4576 46.4377 92.7221C48.5635 90.8998 47.7597 91.0022 50.4766 87.4024C48.9107 87.335 49.652 84.8656 50.9329 84.8127C51.9931 83.1522 52.3883 84.9242 51.5303 85.6981C52.2258 86.1506 53.2927 86.3068 53.1349 85.1343C52.4232 84.8351 52.1377 84.0852 51.6195 83.8123C51.1579 83.5804 51.4206 83.217 51.6371 83.1815C52.1586 82.234 53.0426 81.8944 53.9648 81.1973C54.7006 81.4392 54.9047 80.1808 55.7556 80.4275C56.02 79.764 56.385 81.066 56.6506 80.1416C56.3449 78.9478 58.508 80.4425 57.7786 79.4741C56.436 79.2512 58.8208 77.9365 57.4916 77.0988C57.7641 76.0859 58.8912 75.8471 59.4258 75.1009C59.9282 75.0376 60.6371 74.8576 60.6339 74.3454C60.3953 73.3719 58.0871 73.5156 59.2261 72.4384C59.7226 72.1506 59.2515 71.3148 58.8074 71.0436C58.7014 70.4576 58.7897 68.0176 59.9846 67.2018C60.8163 66.7037 63.3853 67.4973 63.071 65.6913C62.5824 65.6046 63.1499 64.9737 63.3927 64.6493C63.5769 64.6194 65.0337 64.4939 64.1604 64.1285C63.1065 63.8637 63.1791 62.8596 64.0958 62.3692C64.481 61.8593 66.1519 62.4162 65.2482 61.5316C66.0096 60.824 66.5221 61.2972 67.4712 61.02C68.6301 61.4341 67.1996 59.9153 66.7189 60.9642C65.5679 60.9873 67.1988 58.4094 65.8722 59.4053C64.6014 59.4839 65.4578 60.2657 65.4649 60.6374C64.6628 59.549 64.427 61.8718 63.8179 60.8491C62.9661 59.8874 62.1671 62.029 61.9285 60.6714C60.2809 60.2032 60.9274 58.4425 58.8936 58.6107C56.6792 52.6236 60.196 53.4514 59.0976 49.7788C59.3298 49.6332 58.9031 49.3427 58.8405 49.0253C58.9544 48.5281 59.5769 48.4844 60.0486 49.0737C59.8224 48.108 60.8574 48.2711 60.7497 47.3304C61.2497 46.6994 62.108 44.8515 62.0375 46.3039C62.5778 45.3228 63.4758 46.5907 63.8389 46.1053C63.3975 44.5593 64.4378 46.508 64.4738 45.3903C65.3287 45.3047 65.1296 46.6104 65.7082 46.1458C66.6079 46.002 64.5381 44.3982 65.384 43.5648C65.2497 42.1252 62.6568 43.4776 63.0733 41.4022C62.7286 40.3782 63.7432 40.7854 63.6182 39.9009C63.7557 40.0008 64.7131 40.1716 65.1863 39.7703C65.5104 40.9092 65.4416 40.3519 65.8819 40.0067C66.2481 39.807 66.962 38.9854 66.1839 38.5929C65.7855 37.6233 68.2678 37.9687 67.8093 38.6121C68.7183 38.024 67.9499 37.7539 67.9887 37.4073C68.5967 37.4195 68.3524 36.9676 68.7686 37.279C68.947 36.682 69.0004 36.1304 69.5614 36.1044C69.9301 35.4549 70.4907 32.2184 71.4687 33.6329C72.1593 34.709 69.7279 33.9231 70.6675 35.2301C72.1075 34.2805 73.0751 37.416 70.9893 36.5611C69.6626 37.4532 71.5685 37.7683 71.9993 37.3073C72.093 38.7732 72.7858 38.0274 72.985 37.497C73.1895 37.5173 73.0221 37.2513 73.3401 37.4219Z" fill="#F4A740" stroke="#242424" stroke-width="1.51216" stroke-linecap="square" stroke-linejoin="bevel"/>
<path fill-rule="evenodd" clip-rule="evenodd" d="M68.5064 36.5632C68.0313 36.8442 68.5993 36.0715 68.5064 36.5632V36.5632Z" fill="#F4A740" stroke="#242424" stroke-width="0.916719" stroke-linecap="square" stroke-linejoin="bevel"/>
<path fill-rule="evenodd" clip-rule="evenodd" d="M67.9565 36.785C67.3991 37.0844 68.0208 36.3022 67.9565 36.785V36.785Z" fill="#F4A740" stroke="#242424" stroke-width="0.916719" stroke-linecap="square" stroke-linejoin="bevel"/>
<path fill-rule="evenodd" clip-rule="evenodd" d="M65.9268 38.9255C65.3785 38.9725 66.306 38.5641 65.9268 38.9255V38.9255Z" fill="#F4A740" stroke="#242424" stroke-width="0.916719" stroke-linecap="square" stroke-linejoin="bevel"/>
<path fill-rule="evenodd" clip-rule="evenodd" d="M71.3325 37.1618C71.1209 37.5269 71.0232 36.8438 71.3325 37.1618V37.1618Z" fill="#F4A740" stroke="#242424" stroke-width="0.916719" stroke-linecap="square" stroke-linejoin="bevel"/>
<path fill-rule="evenodd" clip-rule="evenodd" d="M73.346 37.4264C73.341 37.4257 73.3275 37.4059 73.346 37.4264V37.4264Z" fill="#F4A740" stroke="#242424" stroke-width="0.916719" stroke-linecap="square" stroke-linejoin="bevel"/>
<path fill-rule="evenodd" clip-rule="evenodd" d="M73.3461 37.4264C73.3513 37.424 73.355 37.4424 73.3461 37.4264V37.4264Z" fill="#F4A740" stroke="#242424" stroke-width="0.916719" stroke-linecap="square" stroke-linejoin="bevel"/>
<path fill-rule="evenodd" clip-rule="evenodd" d="M35.9982 126.953C35.3543 127.206 36.1121 126.435 35.9982 126.953V126.953Z" fill="#F4A740" stroke="#242424" stroke-width="0.916719" stroke-linecap="square" stroke-linejoin="bevel"/>
<path fill-rule="evenodd" clip-rule="evenodd" d="M27.9381 146.758C27.4929 147.046 27.8784 146.405 27.9381 146.758V146.758Z" fill="#F4A740" stroke="#242424" stroke-width="0.916719" stroke-linecap="square" stroke-linejoin="bevel"/>
<path fill-rule="evenodd" clip-rule="evenodd" d="M95.6396 189.236C95.3041 189.472 95.6786 188.851 95.6396 189.236V189.236Z" fill="#F4A740" stroke="#242424" stroke-width="0.916719" stroke-linecap="square" stroke-linejoin="bevel"/>
<path fill-rule="evenodd" clip-rule="evenodd" d="M70.608 239.511C70.3458 239.208 70.4673 239.356 70.608 239.511V239.511Z" fill="#F4A740" stroke="#242424" stroke-width="0.916719" stroke-linecap="square" stroke-linejoin="bevel"/>
<path fill-rule="evenodd" clip-rule="evenodd" d="M58.458 195.467C58.0398 196.875 59.975 197.131 58.5455 198.037C58.1072 197.262 56.8748 198.958 57.1438 199.011C58.1905 198.853 58.4409 198.54 57.8615 199.201C59.1084 199.244 58.7867 198.426 59.4525 198.788C59.194 199.798 58.0196 199.998 59.5585 200.249C58.4857 202.183 60.9533 200.951 60.3827 199.684C61.2484 199.467 61.9536 200.078 61.5323 200.276C62.1563 200.326 62.469 201.169 61.8913 199.725C61.9571 198.925 62.3121 198.095 62.8418 198.368C63.3784 199.401 61.9298 199.843 63.1506 200.433C61.3104 201.185 65.5167 203.244 64.59 201.471C65.8482 201.009 67.0617 202.519 67.9629 200.469C69.3537 201.117 67.6235 199.809 68.606 199.172C68.796 198.371 70.5208 197.826 71.4541 197.888C72.7791 198.926 70.5104 201.6 70.854 201.41C72.0562 200.223 74.5011 201.541 72.3557 202.665C72.1221 203.346 70.3135 203.289 71.8754 204.018C72.611 204.879 70.431 205.445 72.0039 206.335C72.6941 207.423 69.6682 206.654 71.7138 207.594C72.3335 208.125 69.6456 208.687 71.7457 208.436C73.134 209.204 70.1227 209.277 71.8608 210.451C70.8846 211.65 73.2373 211.779 72.2367 212.737C71.4022 213.392 69.8502 213.392 71.7329 213.714C70.8336 214.431 71.1625 217.364 71.5546 217.655C71.3452 218.681 72.4368 219.353 71.4703 220.236C74.5281 221.5 67.6653 224.845 71.4576 224.268C72.4308 223.654 74.1255 224.399 72.1955 224.459C69.5572 223.666 69.1302 228.085 66.4201 227.011C63.875 227.99 61.1898 228.3 58.5369 228.241C56.4667 229.266 54.4836 225.22 53.7337 228.463C52.4428 228.907 51.9756 227.342 50.5576 228.108C49.9046 226.976 49.0655 228.546 49.3887 227.36C47.217 226.763 44.0181 228.645 41.7673 226.65C39.7196 225.252 36.979 227.611 35.3024 224.981C34.0216 225.445 32.9171 225.485 31.9546 225.754C30.9364 228.849 27.5607 225.339 26.152 227.904C25.5618 230.995 22.1464 229.543 20.0154 230.242C17.9901 229.923 18.7408 233.025 18.1939 234.215C16.0562 233.494 16.6799 230.552 16.53 229.153C17.6818 227.016 14.3576 225.948 13.1151 226.183C11.699 225.138 13.8999 224.519 13.6447 224.613C13.6669 222.682 15.9445 221.46 17.4192 221.487C20.1141 220.513 18.6446 217.413 16.5791 216.782C16.7175 215.807 18.6421 215.43 16.6388 215.07C15.4814 213.414 16.6236 211.769 17.9423 211.37C18.0191 210.583 20.6987 210.121 21.1411 209.164C23.2216 209.288 25.3768 208.34 26.4496 206.393C27.9483 205.662 28.582 203.336 26.5918 202.51C27.2204 201.181 24.3559 202.037 26.2968 202.426C25.4081 203.054 23.9266 202.631 22.854 203.246C24.3496 201.408 26.3674 202.113 27.9871 201.624C28.2049 200.733 27.9177 200.214 29.0809 200.667C27.674 199.254 29.962 198.744 30.6433 197.397C32.413 197.318 33.4778 197.643 35.3218 197.709C35.3835 196.461 39.7366 196.642 37.255 196.511C36.4058 196.264 32.1241 197.082 34.8452 195.922C36.2803 195.625 37.3759 194.616 35.1371 194.774C33.2329 193.431 36.9254 192.25 38.1253 192.57C39.6197 192.452 39.214 195.367 41.1236 195.53C43.64 196.426 41.6754 190.717 44.3396 193.332C46.1696 193.83 47.984 193.279 48.7335 195.802C49.8338 196.492 53.2461 194.242 53.9381 195.721C55.6322 194.746 56.876 193.479 58.458 195.467L58.458 195.467Z" fill="#242424" stroke="#242424" stroke-width="0.48036" stroke-linecap="square" stroke-linejoin="bevel"/>
</g>
<defs>
<filter id="filter0_d" x="-4" y="0" width="113" height="268" filterUnits="userSpaceOnUse" color-interpolation-filters="sRGB">
<feFlood flood-opacity="0" result="BackgroundImageFix"/>
<feColorMatrix in="SourceAlpha" type="matrix" values="0 0 0 0 0 0 0 0 0 0 0 0 0 0 0 0 0 0 127 0" result="hardAlpha"/>
<feOffset dy="4"/>
<feGaussianBlur stdDeviation="2"/>
<feColorMatrix type="matrix" values="0 0 0 0 0 0 0 0 0 0 0 0 0 0 0 0 0 0 0.25 0"/>
<feBlend mode="normal" in2="BackgroundImageFix" result="effect1_dropShadow"/>
<feBlend mode="normal" in="SourceGraphic" in2="effect1_dropShadow" result="shape"/>
</filter>
<clipPath id="clip0">
<rect width="105" height="260" fill="white"/>
</clipPath>
</defs>
</svg>
