<svg width="105" height="262" viewBox="0 0 105 262" fill="none" xmlns="http://www.w3.org/2000/svg">
<g filter="url(#filter0_d)">
<path d="M11.0969 257.855C10.7601 257.787 10.2907 257.657 10.0537 257.566C9.81675 257.475 9.23928 257.4 8.77047 257.4C7.90065 257.4 6.73462 257.134 6.73462 256.936C6.73462 256.875 6.83039 256.746 6.94744 256.649C7.06449 256.552 7.30747 256.131 7.4874 255.713C7.78988 255.01 7.85465 254.953 8.34602 254.953C8.80509 254.953 8.87748 254.903 8.87748 254.586C8.87748 254.314 8.99859 254.176 9.34335 254.056C9.59959 253.967 10.2771 253.478 10.8489 252.97C11.9601 251.984 12.2837 251.869 12.5865 252.353C12.6916 252.521 12.856 252.659 12.9517 252.659C13.0474 252.659 13.2115 252.762 13.3163 252.888C13.4211 253.014 13.6533 253.118 13.8324 253.119C14.0667 253.121 14.2301 253.292 14.4146 253.731C14.5557 254.067 14.775 254.341 14.9021 254.341C15.3354 254.341 15.9259 254.04 16.0237 253.77C16.0773 253.621 16.255 253.307 16.4187 253.071C16.5954 252.816 16.6871 252.491 16.6446 252.268C16.6052 252.062 16.6243 251.894 16.687 251.894C16.7497 251.894 16.8409 251.774 16.8898 251.626C16.9386 251.479 17.1229 251.182 17.2992 250.966C17.4756 250.75 17.633 250.321 17.6492 250.011L17.6785 249.448H21.0841H24.4897V249.995C24.4897 250.295 24.5785 250.622 24.687 250.721C25.4739 251.44 26.4486 251.482 27.0918 250.825C27.3386 250.573 27.6766 250.366 27.8429 250.366C28.0091 250.366 28.1877 250.297 28.2397 250.213C28.4317 249.903 29.0264 250.063 29.3615 250.516C29.6885 250.958 29.7291 250.97 30.6531 250.886C31.1778 250.839 31.8003 250.727 32.0364 250.637C32.4089 250.496 32.4975 250.52 32.7058 250.817C32.8938 251.086 33.0415 251.14 33.3862 251.069C33.6283 251.019 34.0238 250.937 34.265 250.887C34.6644 250.804 34.7328 250.857 35.0303 251.471C35.21 251.842 35.3571 252.29 35.3571 252.467C35.3571 253.449 35.7941 253.514 36.2508 252.6C36.5267 252.048 36.6827 251.911 37.1267 251.827C37.5243 251.753 37.7082 251.617 37.8236 251.314C37.9099 251.087 38.07 250.799 38.1795 250.672C38.5643 250.228 39.1669 249.005 39.2692 248.46C39.3261 248.157 39.5407 247.661 39.7461 247.359C39.9515 247.056 40.0842 246.717 40.0409 246.604C39.9977 246.492 40.0218 246.363 40.0945 246.318C40.3168 246.18 40.7585 244.584 40.6514 244.305C40.5961 244.161 40.6136 244.004 40.6905 243.955C40.9396 243.797 41.3329 239.494 41.318 237.09C41.3081 235.487 41.3609 234.679 41.4854 234.53C41.5979 234.394 41.629 234.107 41.5669 233.776C41.5116 233.482 41.539 233.105 41.6277 232.94C41.7164 232.774 41.8158 231.677 41.8485 230.501C41.8812 229.325 41.9412 228.307 41.9818 228.238C42.1649 227.929 42.2554 227.035 42.315 224.948C42.3607 223.349 42.4429 222.6 42.6001 222.348C42.7216 222.154 42.8637 221.499 42.916 220.893C42.9929 220.002 42.9656 219.753 42.7737 219.593C41.9952 218.945 41.9607 218.859 41.9108 217.432C41.8841 216.665 41.9512 215.555 42.06 214.964C42.1841 214.29 42.2792 212.116 42.3151 209.132C42.3466 206.516 42.4174 204.073 42.4723 203.703C42.5272 203.333 42.4946 202.308 42.3998 201.425C42.219 199.741 41.9109 192.765 41.9709 191.713C42.0338 190.61 42.0024 189.141 41.8794 187.431C41.8128 186.505 41.7605 185.68 41.7632 185.595C41.8386 183.203 41.9693 181.063 42.0968 180.131C42.1858 179.48 42.2505 177.553 42.2406 175.848C42.2307 174.143 42.2623 172.335 42.311 171.831C42.4972 169.901 42.7328 164.826 42.769 161.966C42.8135 158.454 42.9613 155.746 43.1931 154.199C43.3503 153.15 43.3409 153.065 43.032 152.736C42.8516 152.543 42.704 152.299 42.704 152.193C42.704 152.055 42.5617 152.03 42.2066 152.105C41.5795 152.239 41.4058 152.381 41.1713 152.946C40.9951 153.371 40.5611 153.585 40.5611 153.247C40.5611 152.977 40.0259 153.084 39.7475 153.408C39.5332 153.659 39.4835 153.973 39.5043 154.948C39.5202 155.691 39.4623 156.242 39.3571 156.347C39.2617 156.442 39.1836 156.645 39.1836 156.797C39.1836 157.091 38.4113 157.988 38.1584 157.988C37.8992 157.988 37.653 158.737 37.653 159.525C37.653 159.943 37.7236 160.282 37.8108 160.282C37.8977 160.282 38.0144 160.401 38.0702 160.547C38.126 160.692 38.3305 160.958 38.5246 161.138C38.7187 161.317 38.8775 161.609 38.8775 161.785C38.8775 162.205 38.2786 163.8 38.1208 163.8C38.0535 163.8 37.9484 164.638 37.8873 165.661C37.8096 166.961 37.7092 167.589 37.5542 167.744C37.4321 167.866 37.2839 167.917 37.2248 167.858C37.0888 167.722 37.0819 161.506 37.2176 161.506C37.2729 161.506 37.2384 161.334 37.1411 161.123C36.8192 160.427 36.0425 160.461 35.8691 161.179C35.763 161.618 35.3103 162.342 34.8746 162.77C34.5228 163.115 33.9263 163.341 33.366 163.341C33.096 163.341 32.8407 163.462 32.7066 163.653L32.4879 163.965L32.4062 163.653C32.3613 163.482 32.3869 163.341 32.4632 163.341C32.5395 163.341 32.6035 163.221 32.6054 163.074C32.6073 162.926 32.7434 162.634 32.9081 162.424C33.0727 162.213 33.2089 161.99 33.2108 161.928C33.2141 161.819 33.5477 161.379 33.9412 160.964C34.0465 160.854 34.1326 160.723 34.1326 160.673C34.1326 160.624 34.3341 160.396 34.5804 160.165C34.8266 159.935 35.2471 159.317 35.5147 158.79C35.7822 158.264 36.0583 157.798 36.128 157.755C36.1978 157.712 36.4489 157.282 36.6861 156.8C36.9232 156.318 37.3251 155.672 37.5793 155.364C37.8333 155.056 38.1213 154.505 38.2192 154.14C38.3427 153.68 38.6354 153.242 39.175 152.712C39.6028 152.291 40.0279 151.967 40.1198 151.991C40.4791 152.084 40.8673 151.838 40.8683 151.516C40.8692 151.152 41.18 150.647 41.8052 149.993C42.3579 149.415 42.4622 148.752 42.1411 147.86C41.8063 146.929 41.4367 146.898 40.6622 147.734C40.3541 148.067 40.1019 148.38 40.1019 148.43C40.1019 148.558 39.2867 149.26 39.1314 149.266C39.0606 149.269 38.7304 149.503 38.3977 149.788C37.8857 150.226 37.6468 150.316 36.8428 150.376C35.964 150.441 35.4482 150.343 34.1708 149.865C33.7939 149.724 33.748 149.497 33.9757 148.898C34.0974 148.578 34.2257 148.506 34.6709 148.506C35.0041 148.506 35.344 148.387 35.5433 148.202C35.7229 148.035 36.0996 147.855 36.3805 147.802C36.6613 147.75 36.9288 147.645 36.9749 147.571C37.021 147.496 37.2858 147.435 37.5633 147.435C38.0695 147.435 38.499 147.092 40.7907 144.853C41.1275 144.524 41.5523 144.21 41.7347 144.156C42.3571 143.972 42.8381 143.452 43.31 142.454C43.7542 141.515 43.7756 141.387 43.6801 140.243L43.5788 139.029L43.0643 138.933C42.7328 138.871 42.3697 138.922 42.0438 139.076C41.5467 139.312 40.8673 139.271 40.8673 139.006C40.8673 138.931 40.7477 138.871 40.6016 138.871C40.3052 138.871 38.6766 139.647 38.5968 139.826C38.5688 139.89 38.3622 139.943 38.1377 139.946C37.9132 139.949 37.5958 140.052 37.4324 140.175C37.269 140.299 37.0241 140.4 36.8881 140.4C36.7522 140.4 36.4311 140.555 36.1746 140.744C35.7911 141.027 35.5528 141.079 34.8334 141.035C34.1045 140.991 33.9381 140.927 33.8353 140.653C33.7628 140.459 33.7751 140.283 33.865 140.226C33.9492 140.173 34.0266 139.863 34.037 139.538C34.055 138.98 34.0321 138.949 33.6212 138.978C33.382 138.995 32.9426 139.194 32.6446 139.421C32.1955 139.764 31.9625 139.83 31.281 139.807L30.4591 139.78L30.4586 140.281C30.4577 140.98 29.9443 141.776 29.4941 141.776C29.2976 141.776 28.9053 141.983 28.6224 142.235C28.3396 142.488 28.0489 142.694 27.9765 142.694C27.9041 142.694 27.5697 142.983 27.2333 143.336C26.7446 143.85 26.5153 143.979 26.0915 143.979C25.5103 143.979 25.3418 143.861 25.1866 143.348C25.1086 143.09 25.1969 142.897 25.5521 142.55C25.8097 142.298 26.0204 142.059 26.0204 142.018C26.0204 141.977 26.1754 141.773 26.3648 141.566C26.5542 141.358 26.9847 140.875 27.3214 140.493C27.7823 139.97 28.0447 139.796 28.3828 139.793C29.1721 139.785 30.1606 139.196 30.4174 138.581C30.5441 138.278 30.8464 137.779 31.0892 137.472C31.5793 136.853 31.6469 136.501 31.301 136.368C31.1747 136.32 31.0704 136.123 31.0691 135.931C31.0648 135.302 30.5717 134.891 29.5529 134.667C29.2956 134.611 29.0458 134.501 28.9978 134.424C28.9498 134.346 28.8049 134.282 28.6759 134.282C28.5468 134.282 28.266 134.145 28.052 133.976C27.601 133.622 26.6897 133.582 25.8569 133.879C24.7975 134.258 23.8776 133.978 23.8776 133.277C23.8776 132.817 24.2484 132.618 24.9361 132.707C25.3322 132.759 25.5698 132.699 25.7909 132.493C26.435 131.894 27.2975 131.309 28.235 130.838C28.7704 130.569 29.3958 130.201 29.6249 130.021C29.8539 129.841 30.1743 129.694 30.3369 129.694C30.8523 129.694 31.1943 129.408 31.387 128.816C31.4898 128.5 31.6713 128.184 31.7904 128.114C31.9094 128.044 32.0702 127.821 32.1476 127.617C32.2452 127.361 32.4069 127.247 32.6748 127.247C33.2264 127.247 33.1823 126.718 32.5844 126.16C32.1409 125.746 32.1232 125.691 32.3314 125.372C32.4546 125.184 32.8241 124.887 33.1525 124.713C33.481 124.539 33.7727 124.278 33.8008 124.132C33.8722 123.762 33.5494 123.424 33.1244 123.424C32.9269 123.424 32.6949 123.291 32.6078 123.128C32.5208 122.966 32.2953 122.811 32.1065 122.784C31.9178 122.757 31.7405 122.616 31.7126 122.469C31.6566 122.175 31.8688 122.066 33.2908 121.659C33.796 121.514 34.347 121.275 34.5153 121.129C34.6837 120.982 34.9069 120.894 35.0114 120.932C35.1159 120.97 35.3087 120.894 35.4399 120.763C35.571 120.632 35.7955 120.437 35.9387 120.33C36.2724 120.08 36.979 119.017 37.1152 118.559C37.173 118.364 37.5243 117.926 37.8959 117.583C38.2674 117.241 38.5715 116.836 38.5715 116.682C38.5715 116.529 38.6627 116.348 38.7741 116.281C38.8856 116.214 39.1439 115.92 39.3481 115.628C39.5523 115.335 39.8055 115.004 39.9108 114.89C40.2001 114.578 40.1402 114.14 39.796 114.05C39.587 113.995 39.4898 113.841 39.4898 113.565C39.4898 113.177 39.4585 113.162 38.7669 113.206C38.0898 113.25 38.0333 113.287 37.8746 113.788C37.4602 115.098 37.355 115.248 36.6927 115.477C36.1337 115.67 36.0395 115.766 35.9985 116.19C35.9669 116.516 35.8508 116.711 35.6503 116.775C35.4849 116.827 35.1204 117.106 34.8404 117.394C34.5604 117.682 34.2505 117.918 34.1517 117.918C34.0529 117.918 33.9063 118.091 33.8259 118.302C33.7454 118.513 33.4889 118.77 33.2557 118.872C33.0225 118.974 32.7766 119.146 32.7093 119.253C32.6419 119.36 32.4606 119.447 32.3062 119.447C32.1518 119.447 31.9922 119.574 31.9515 119.73C31.8989 119.931 31.6839 120.039 31.2103 120.102C30.8434 120.152 30.4726 120.136 30.3864 120.068C30.1205 119.858 28.7755 119.715 28.7755 119.896C28.7755 119.986 28.6068 120.059 28.4005 120.059C28.1942 120.059 27.9704 120.152 27.903 120.266C27.7169 120.58 27.3493 120.644 27.108 120.403C26.9543 120.249 26.7323 120.218 26.3413 120.297C25.4034 120.485 23.5788 120.492 23.1843 120.309C22.7944 120.129 22.6464 119.411 22.9591 119.218C23.0433 119.166 23.1122 119.002 23.1122 118.855C23.1122 118.546 23.8095 117.845 24.2601 117.701C24.6406 117.58 25.4081 116.915 25.4081 116.707C25.4081 116.623 25.2659 116.421 25.0921 116.259C24.7589 115.949 23.344 115.831 23.1778 116.1C23.0034 116.382 22.653 116.228 22.653 115.869C22.653 115.472 22.4011 115.318 21.7521 115.318C21.4789 115.318 21.1612 115.138 20.8291 114.796C20.35 114.302 20.3017 113.941 20.7146 113.941C20.8172 113.941 21.1278 113.734 21.4049 113.481C21.9898 112.948 22.0235 112.365 21.474 112.287C21.2886 112.261 21.0898 112.091 21.0324 111.911C20.8951 111.478 21.9383 110.514 22.3282 110.713C22.4647 110.783 22.8943 110.881 23.2828 110.932C23.8653 111.008 24.0397 110.97 24.2777 110.718C24.4364 110.55 24.6868 110.297 24.8341 110.155C25.2038 109.799 25.1729 109.631 24.6447 109.125C24.0456 108.552 23.9119 107.843 24.2834 107.21L24.5663 106.729L25.9055 106.823L27.2448 106.917V106.533C27.2448 106.202 26.9364 105.374 26.4596 104.423C26.2982 104.101 26.2879 103.073 26.4436 102.83C26.6136 102.565 27.1666 102.521 27.4436 102.751C27.5864 102.869 27.8243 102.912 28.0115 102.853C28.2626 102.773 28.3233 102.647 28.2867 102.282C28.2373 101.789 28.0507 101.628 27.3596 101.483C27.0144 101.41 26.9387 101.312 26.9387 100.938C26.9387 100.29 27.4212 99.8523 28.0069 99.9694L28.4693 100.062V99.287C28.4693 98.4263 28.7149 98.0918 28.8594 98.7555C29.0393 99.5818 29.2742 99.8987 29.6531 99.8263C29.8883 99.7814 30.1218 99.8794 30.348 100.118C30.7647 100.557 30.9221 100.568 31.3357 100.183C31.6556 99.8847 31.6603 99.8847 32.0392 100.183C32.5011 100.546 32.6925 100.56 32.8152 100.24C33.0027 99.7522 32.9151 99.4118 32.602 99.4118C32.4336 99.4118 32.2958 99.4855 32.2958 99.5756C32.2958 99.6658 32.1839 99.6277 32.0471 99.491C31.9103 99.3543 31.7984 99.0704 31.7984 98.8601C31.7984 98.5578 31.7304 98.4875 31.4731 98.5242C31.1275 98.5735 30.4591 98.0989 30.4591 97.8041C30.4591 97.7073 30.2697 97.5306 30.0382 97.4114C29.8067 97.2921 29.5828 97.1559 29.5407 97.1085C29.4986 97.0611 29.2315 96.9576 28.9471 96.8784C28.5186 96.7592 28.4238 96.655 28.3935 96.2701C28.3653 95.9121 28.4397 95.7667 28.7185 95.6353C29.0177 95.4942 29.166 95.523 29.5783 95.8024C29.9127 96.029 30.0621 96.2425 30.0327 96.4517C29.9925 96.7372 30.0674 96.7623 30.9261 96.7506C31.6525 96.7408 31.9073 96.7982 32.0594 97.0059C32.2324 97.2423 32.2781 97.2469 32.446 97.0446C32.556 96.9123 32.8368 96.8307 33.1101 96.8518C33.4912 96.8811 33.6233 96.8075 33.7867 96.4744C34.05 95.9379 34.4 96.068 34.5281 96.7501C34.641 97.3513 34.8765 97.4035 35.6691 97.0028C36.0852 96.7924 36.322 96.7654 36.7729 96.8768C37.0886 96.9548 37.3469 97.0754 37.3469 97.1446C37.3469 97.5214 38.0697 96.9446 38.9934 95.8308C39.3927 95.3493 39.7862 95.8678 39.7961 96.8883C39.7985 97.1406 39.8511 97.2776 39.913 97.1927C40.0902 96.9494 41.299 96.2 41.5145 96.1999C41.6215 96.1998 41.9103 95.8384 42.1562 95.3969C42.4021 94.9554 42.6593 94.5563 42.7278 94.5101C42.7964 94.4638 42.8946 94.2157 42.946 93.9586C43.0317 93.5305 42.9998 93.4832 42.5657 93.3965C42.305 93.3444 41.8935 93.3414 41.6511 93.3898C41.2347 93.4731 41.2067 93.4456 41.1418 92.8899C41.0744 92.3133 41.2697 91.9177 41.6216 91.9177C41.7118 91.9177 41.7856 91.8488 41.7856 91.7647C41.7856 91.6806 41.8832 91.6118 42.0024 91.6118C42.1216 91.6118 42.3106 91.4053 42.4224 91.153C42.5342 90.9006 42.6777 90.6941 42.7414 90.6941C42.805 90.6941 42.8571 90.5962 42.8571 90.4765C42.8571 90.2575 42.0042 89.3145 41.8121 89.3213C41.7555 89.3232 41.5048 89.6008 41.2551 89.9379C40.8515 90.4831 40.7503 90.5398 40.3418 90.4502C39.4825 90.2616 39.323 90.0732 39.3831 89.3177C39.4133 88.9391 39.5227 88.4712 39.6263 88.2777C39.7299 88.0843 39.7933 87.7402 39.767 87.513C39.7275 87.1706 39.634 87.0918 39.2202 87.052C38.891 87.0203 38.5844 87.1114 38.3195 87.3196C37.8472 87.6908 37.3732 87.729 37.2492 87.4059C37.1224 87.0759 36.7344 87.1233 36.3113 87.5206C36.0698 87.7473 35.7462 87.8679 35.3628 87.8741C35.0314 87.8794 34.6694 87.9947 34.5223 88.1417C34.1943 88.4695 34.1644 88.4671 33.5203 88.0618C32.6174 87.4935 32.2725 87.3294 31.9813 87.3294C31.8275 87.3294 31.6646 87.2695 31.6193 87.1963C31.574 87.123 31.3387 87.0235 31.0965 86.9751C30.7945 86.9147 30.5963 86.7426 30.4656 86.4275C30.2932 86.0114 30.2004 85.9635 29.487 85.9222L28.6989 85.8765L28.7165 85.0353C28.7261 84.5726 28.8412 83.9405 28.9723 83.6306C29.19 83.1159 29.3056 83.0389 30.3087 82.7404C30.9127 82.5607 31.3693 82.3761 31.3234 82.3303C31.2776 82.2845 31.0299 82.3202 30.7731 82.4097C30.3925 82.5422 30.3061 82.5313 30.3061 82.3509C30.3061 82.0696 29.991 82.0669 29.6105 82.3449C29.2685 82.5947 28.7755 82.4134 28.7755 82.0378C28.7755 81.8663 28.6435 81.8167 28.2805 81.852C27.8354 81.8952 27.768 81.8467 27.6121 81.3715C27.4964 81.0189 27.3045 80.7983 27.0356 80.7087C26.7051 80.5987 26.6326 80.4804 26.6326 80.052C26.6326 79.6894 26.5623 79.5294 26.403 79.5294C26.0557 79.5294 26.1279 79.0137 26.5276 78.6384C26.9515 78.2406 27.4804 78.2071 27.6811 78.5654C27.8173 78.8086 27.8648 78.8077 28.4359 78.5504C28.8702 78.3547 29.1275 78.318 29.3313 78.4227C29.4886 78.5035 29.9754 78.6098 30.4131 78.659C31.0927 78.7354 31.2218 78.7081 31.2967 78.4723C31.4302 78.052 31.2632 77.7758 30.7611 77.5865C29.9273 77.2719 30.26 76.1193 31.2228 75.9875C31.5018 75.9492 31.6918 75.7497 31.9327 75.2418C32.1136 74.8603 32.3668 74.461 32.4954 74.3543C32.6906 74.1924 32.7458 74.2122 32.8289 74.4739C32.9496 74.8541 33.5931 75.0453 33.8987 74.7918C34.0333 74.6801 34.3023 74.6483 34.5855 74.7104C34.9379 74.7877 35.0509 74.7584 35.0509 74.5897C35.0509 74.4672 35.1543 74.2812 35.2805 74.1765C35.6219 73.8934 35.5592 73.3405 35.1275 72.8279C34.8405 72.4871 34.7448 72.1973 34.7448 71.6691V70.9647H35.3785C35.8052 70.9647 36.076 71.0521 36.2079 71.2323C36.3741 71.4593 36.474 71.4734 36.8666 71.3254C37.2631 71.1758 37.367 71.1922 37.5915 71.4401C37.9003 71.7811 38.0577 71.7954 38.5714 71.5293C38.7878 71.4172 39.1202 71.375 39.3367 71.4322C39.9806 71.6023 42.5865 71.4182 43.151 71.1627C43.6282 70.9466 43.6905 70.9477 43.8566 71.1746C44.0965 71.5025 44.2813 71.4886 44.6173 71.1177C44.9724 70.7256 45.4111 70.7256 45.5356 71.1177C45.5891 71.2859 45.7603 71.4236 45.9162 71.4236C46.1595 71.4236 46.2003 71.2961 46.204 70.525C46.2083 69.6388 46.6851 67.8979 47.0472 67.4471C47.3068 67.1238 47.755 66.1036 47.755 65.836C47.755 65.4979 47.3663 65.5669 47.079 65.9559C46.9047 66.192 46.7987 66.24 46.7415 66.1088C46.6427 65.8825 45.9183 65.8488 45.9183 66.0706C45.9183 66.1547 45.7399 66.2235 45.5219 66.2235C45.2982 66.2235 45.0068 66.3701 44.8529 66.56L44.5802 66.8964L44.327 66.407C44.0717 65.9137 43.6707 65.7776 43.367 66.081C43.2771 66.1709 42.8328 66.3047 42.3798 66.3783C41.9267 66.452 41.1826 66.5902 40.7261 66.6855C40.0865 66.819 39.8156 66.8157 39.5451 66.671C39.2687 66.5232 39.1461 66.523 38.969 66.67C38.8044 66.8066 38.6619 66.8128 38.4381 66.6931C38.2699 66.6031 38.0195 66.5295 37.8817 66.5295C37.2401 66.5295 36.9755 65.6837 37.4992 65.3065C37.9727 64.9655 38.0661 64.1395 37.678 63.7267L37.3597 63.3881L37.812 63.0853C38.0889 62.9 38.2645 62.649 38.2648 62.4383C38.2653 61.9701 37.7045 61.4254 37.3733 61.5726C37.2325 61.6351 36.676 61.6985 36.1368 61.7135C35.3633 61.7349 35.0966 61.6811 34.874 61.4586C34.5323 61.1172 34.4456 61.11 34.226 61.4046C34.0996 61.5741 33.9383 61.6 33.5969 61.5056C33.2354 61.4057 33.1438 61.3002 33.1666 61.01C33.1825 60.8072 33.2259 60.2283 33.263 59.7236C33.3503 58.537 33.8535 57.6215 34.3499 57.746C34.5601 57.7987 34.7673 57.7397 34.8897 57.5923C34.999 57.4607 35.2516 57.3531 35.451 57.3531C35.6505 57.3531 35.8997 57.2154 36.0048 57.0472C36.1397 56.8314 36.3618 56.7413 36.7589 56.7413C37.4713 56.7413 37.806 56.6138 37.806 56.3425C37.806 56.2254 37.8987 56.1295 38.0119 56.1295C38.1251 56.1295 38.3425 55.9918 38.4948 55.8236C38.7873 55.5007 39.1836 55.4127 39.1836 55.6707C39.1836 55.9327 39.6175 55.8379 39.7086 55.556C39.7853 55.3186 40.0163 55.1384 41.0481 54.511C41.1978 54.42 41.4906 54.1619 41.6987 53.9375C42.1528 53.4479 42.5509 53.4047 42.5509 53.8451C42.5509 54.109 42.6324 54.1528 43.0484 54.1127C43.5256 54.0667 43.5498 54.0322 43.6438 53.2631C43.7787 52.1585 43.8483 52.0293 44.3391 51.9729C44.8547 51.9136 45.0043 51.4651 44.5481 51.3459C44.2146 51.2587 44.0989 50.5724 44.3877 50.3941C44.7516 50.1693 44.5296 49.8588 44.005 49.8588C43.2662 49.8588 43.2589 49.7597 43.8371 47.586C44.0465 46.7986 44.3249 46.0361 44.4558 45.8916C44.5867 45.7471 44.6938 45.4794 44.6938 45.2968C44.6938 45.1141 44.7627 44.9647 44.8469 44.9647C44.931 44.9647 44.9999 44.8615 44.9999 44.7353C44.9999 44.6091 45.1362 44.3697 45.3029 44.2032C45.5272 43.979 45.5818 43.7808 45.5134 43.4388C45.46 43.1721 45.4975 42.8851 45.6022 42.759C45.7155 42.6227 45.7449 42.3357 45.6808 41.9939C45.5575 41.3373 45.0873 41.241 44.824 41.8185C44.6821 42.1297 44.6095 42.1617 44.3762 42.0161C44.1416 41.8698 44.0096 41.9329 43.5397 42.4164C43.1007 42.8682 42.937 42.9533 42.7715 42.816C42.6559 42.7201 42.4859 42.6667 42.3939 42.6974C42.1804 42.7685 41.4576 44.5244 41.5454 44.7586C41.5818 44.8555 41.4115 45.1308 41.1671 45.3703C40.9227 45.6099 40.7208 45.8771 40.7185 45.9641C40.7161 46.0511 40.5057 46.2453 40.2509 46.3958C39.9961 46.5462 39.6204 46.8363 39.416 47.0405C38.8935 47.5625 38.6726 47.5191 38.7757 46.9147C38.9617 45.8242 39.1501 45.0203 39.3157 44.6106C39.4114 44.3738 39.4897 44.0125 39.4897 43.8077C39.4897 43.6023 39.5798 43.4353 39.6905 43.4353C39.9372 43.4353 40.5611 42.6176 40.5611 42.2944C40.5611 42.1648 40.6817 42.0566 40.829 42.0539C41.2531 42.0462 41.6235 41.6835 41.725 41.1765C41.7808 40.8978 41.9353 40.6789 42.1082 40.6337C42.323 40.5776 42.3979 40.4193 42.3979 40.0212C42.3979 39.7259 42.484 39.454 42.5892 39.4169C42.732 39.3665 42.7086 39.2246 42.4971 38.8571C41.8737 37.7743 42.3592 35.7882 43.2472 35.7882C43.4895 35.7882 43.7972 35.5568 44.1887 35.08C44.5086 34.6905 45.1358 34.0194 45.5826 33.5888C46.4789 32.7248 46.9897 31.996 46.9897 31.5812C46.9897 31.2693 46.5706 30.9061 46.2025 30.899C45.9326 30.8938 45.7652 30.5925 45.7652 30.1121C45.7652 29.9481 45.6619 29.7743 45.5356 29.7259C45.1803 29.5896 45.2642 29.2201 45.6869 29.0595C45.8964 28.9799 46.3958 28.5583 46.7966 28.1225C48.0966 26.7093 48.3545 26.4588 48.5093 26.4588C48.8022 26.4588 49.0061 25.2338 48.8752 24.2609C48.7484 23.3179 48.8965 22.7528 49.4431 22.0947C49.5868 21.9217 49.5743 21.7439 49.3851 21.2715C49.1491 20.6821 49.1537 20.6505 49.5974 19.8197C49.8468 19.3526 50.0509 18.8756 50.0509 18.7596C50.0509 18.6436 50.2893 18.2961 50.5806 17.9875C50.9981 17.5452 51.1882 17.446 51.4788 17.5188C51.7582 17.5889 51.9223 17.5161 52.1574 17.2174C52.3279 17.0008 52.5369 16.8235 52.6218 16.8235C52.8759 16.8235 53.116 17.7395 53.0197 18.3413C52.9541 18.7514 52.9957 18.9576 53.1741 19.1055C53.3084 19.2169 53.4183 19.4771 53.4183 19.6838C53.4183 20.0171 53.4675 20.0488 53.8531 19.9642C54.154 19.8981 54.3498 19.9433 54.4889 20.1108C54.6428 20.296 54.8461 20.3294 55.3551 20.2532C55.9545 20.1634 56.0203 20.1843 56.0203 20.4642C56.0203 21.0012 56.194 21.2588 56.556 21.2588C57.0588 21.2588 57.1266 21.6208 56.733 22.2043C56.5142 22.5288 56.2286 22.7387 55.938 22.7884C55.5739 22.8509 55.4746 22.9535 55.4339 23.3102C55.3526 24.0207 55.5472 24.7456 55.9299 25.1583C56.3432 25.6039 56.5457 25.6257 57.3089 25.3071C57.8003 25.1019 57.8972 25.1006 58.0929 25.2962C58.3809 25.5839 58.3809 26.3678 58.0929 26.6066C57.96 26.7168 57.6888 26.7521 57.4231 26.6938C56.9852 26.5977 56.4795 26.8874 56.4795 27.2344C56.4795 27.3125 56.3762 27.3765 56.2499 27.3765C56.1236 27.3765 56.0203 27.2732 56.0203 27.147C56.0203 27.0196 55.8843 26.9176 55.7142 26.9176C55.5458 26.9176 55.4081 26.9815 55.4081 27.0597C55.4081 27.1378 55.3106 27.2991 55.1915 27.4181C55.0724 27.5371 54.9518 27.8685 54.9236 28.1545C54.8755 28.6426 54.9078 28.6833 55.4492 28.8178C55.9139 28.9333 56.0494 29.0524 56.147 29.4306C56.2289 29.7484 56.3763 29.9158 56.6034 29.9489C56.8814 29.9894 56.9387 30.0976 56.9387 30.5825C56.9387 30.9455 57.0208 31.1987 57.1552 31.2503C57.3651 31.3307 57.7468 31.9144 57.9476 32.4618C58.0016 32.609 58.1067 32.7294 58.181 32.7294C58.2554 32.7294 58.3162 32.8625 58.3162 33.0251C58.3162 33.234 58.4398 33.3351 58.7372 33.3692C59.0385 33.4039 59.172 33.5154 59.207 33.7618C59.2382 33.9813 59.3616 34.1059 59.5479 34.1059C60.1048 34.1059 60.613 35.3932 60.2717 35.9393C60.0001 36.3738 59.5047 36.3229 59.2052 35.8298L58.9519 35.4126L58.8544 35.868C58.8008 36.1186 58.6936 36.4408 58.6163 36.5841C58.5286 36.7465 58.532 36.8795 58.6255 36.9372C58.8547 37.0788 58.8044 37.5901 58.5184 38.0263C58.3127 38.34 58.2974 38.4759 58.4419 38.707C58.5411 38.8659 58.6224 39.1344 58.6224 39.3038C58.6224 39.5273 58.7236 39.6118 58.9916 39.6118C59.303 39.6118 59.3769 39.7074 59.4642 40.2235C59.5608 40.795 59.6014 40.8353 60.0805 40.8353C60.5709 40.8353 60.5979 40.8654 60.6965 41.5225C60.8168 42.3236 60.6853 43.1874 60.3997 43.4728C60.096 43.7763 59.8833 44.6119 59.7914 45.8624C59.6862 47.293 59.8523 47.5252 60.8075 47.283C61.3321 47.1499 61.4726 47.1608 61.5743 47.3424C61.6428 47.4647 61.8331 47.5647 61.9973 47.5647C62.1615 47.5647 62.2958 47.6425 62.2958 47.7375C62.2958 47.852 62.5292 47.8841 62.9864 47.8326C63.6159 47.7617 63.685 47.7869 63.7683 48.1186C63.8185 48.3186 63.9555 48.4823 64.0726 48.4823C64.4705 48.4823 64.2996 49.1004 63.8274 49.3689C63.2773 49.6816 63.2571 49.8543 63.7146 50.335C64.4686 51.1274 64.5048 51.2147 64.2131 51.5368C64.0179 51.7522 63.8248 51.8085 63.502 51.744C63.1103 51.6657 63.0393 51.711 62.8919 52.1336C62.7694 52.4847 62.6303 52.6118 62.3683 52.6118C62.1721 52.6118 61.9083 52.715 61.782 52.8412C61.4405 53.1823 60.9183 53.1361 60.9183 52.7647C60.9183 52.4278 60.4818 52.3444 60.1987 52.6272C60.101 52.7249 59.8382 52.7535 59.5733 52.6954C59.2242 52.6187 59.0952 52.4889 59.0263 52.1446C58.8347 51.1871 58.0101 51.9039 58.0101 53.0281C58.0101 53.5738 58.0594 53.6823 58.3072 53.6823C58.4706 53.6823 58.6547 53.6009 58.7163 53.5013C58.9101 53.1879 59.0444 53.86 58.9045 54.4437C58.8335 54.74 58.8181 55.5083 58.8703 56.1511L58.9651 57.3199L58.2407 58.0629C57.4214 58.9032 57.2448 59.264 57.2448 60.098C57.2448 60.5743 57.3083 60.699 57.5892 60.7742C58.1214 60.9167 58.1632 60.8966 58.1632 60.4982C58.1632 59.5447 58.8944 58.61 59.3956 58.9228C59.7668 59.1544 60.1281 58.9614 60.2461 58.4683C60.3023 58.2334 60.4161 57.9551 60.499 57.85C60.6867 57.6118 61.3928 57.6027 61.8962 57.8319C62.109 57.9287 62.3985 57.9521 62.5539 57.8848C62.9847 57.6985 63.3743 57.8036 63.7485 58.207C63.9832 58.46 64.2575 58.5765 64.6189 58.5765C65.0056 58.5765 65.2644 58.6992 65.5867 59.0353C65.8286 59.2876 66.1488 59.4941 66.2982 59.4941C66.6623 59.4941 66.9724 60.5795 66.735 61.0229C66.6447 61.1915 66.5043 61.3294 66.4231 61.3294C66.3419 61.3294 66.2754 61.4159 66.2754 61.5215C66.2754 61.6271 66.0765 61.8015 65.8335 61.9091C65.2669 62.1597 64.5322 63.2011 64.6583 63.5749C64.7712 63.9096 65.6054 64.8471 65.7904 64.8471C66.0568 64.8471 66.4441 65.4366 66.5316 65.9752C66.61 66.4579 66.582 66.5294 66.3146 66.5294C66.1457 66.5294 65.7923 66.5724 65.5293 66.625C65.1618 66.6984 65.0509 66.6669 65.0509 66.4886C65.0509 66.3611 64.8741 66.2124 64.658 66.1582C64.4419 66.104 64.1492 65.856 64.0075 65.6071C63.8344 65.3029 63.5868 65.1236 63.2525 65.0603C62.8278 64.9798 62.755 64.9013 62.755 64.5242C62.755 64.2812 62.7131 64.0824 62.6619 64.0824C62.6107 64.0824 62.2317 64.2369 61.8197 64.4258C60.947 64.8258 60.5473 65.4724 60.6849 66.2614C60.7327 66.535 60.7076 66.856 60.6293 66.9748C60.5082 67.1585 60.4505 67.1544 60.2434 66.9475C60.1095 66.8137 59.9997 66.6477 59.9995 66.5786C59.9992 66.5095 59.7928 66.3153 59.5407 66.1471C59.2887 65.9789 59.0822 65.7896 59.082 65.7265C59.0818 65.6634 58.9438 65.6118 58.7754 65.6118C58.4013 65.6118 58.3844 65.8814 58.7279 66.3715C58.8702 66.5744 58.9986 67.0198 59.0133 67.3614C59.0605 68.4559 59.0774 68.5177 59.3285 68.5177C59.58 68.5177 59.5739 68.8599 59.3076 69.703C59.2143 69.9984 59.2543 70.0471 59.5904 70.0471C59.8057 70.0471 60.0205 70.1095 60.0676 70.1857C60.1148 70.2619 60.5017 70.3722 60.9274 70.4307C61.4292 70.4996 61.8439 70.6689 62.1064 70.912C62.4392 71.2202 62.6111 71.2701 63.0714 71.1924C63.5885 71.1051 63.6553 71.1382 63.9418 71.6233C64.2217 72.0974 64.3216 72.1502 64.9634 72.1631C65.3546 72.1709 65.741 72.2183 65.822 72.2683C65.9031 72.3183 65.9693 72.26 65.9693 72.1387C65.9693 72.0173 66.1031 71.8831 66.2666 71.8404C66.6547 71.739 67.9591 72.0185 67.9591 72.2031C67.9591 72.2817 68.1618 72.3306 68.4095 72.3118C68.7413 72.2865 68.9456 72.3865 69.1859 72.6917C69.4266 72.9975 69.6487 73.1059 70.0346 73.1059C70.4583 73.1059 70.7053 73.2532 71.3407 73.8848C71.7717 74.3131 72.1863 74.8881 72.2621 75.1624C72.3765 75.5764 72.5754 75.7493 73.4321 76.1799C73.9998 76.4652 74.4872 76.7506 74.5153 76.8141C74.5433 76.8775 74.8188 76.9304 75.1275 76.9315C75.777 76.9339 76.3775 77.0726 76.3775 77.2202C76.3775 77.2764 76.1537 77.4518 75.8801 77.6099C75.6065 77.7681 75.1742 78.1271 74.9195 78.4076C74.6648 78.6882 74.369 78.9177 74.2621 78.9177C74.1552 78.9177 73.8969 79.0883 73.6882 79.2968C73.4645 79.5204 72.9178 79.7765 72.3559 79.9209C71.8318 80.0557 71.2608 80.298 71.087 80.4594C70.9132 80.6209 70.6142 80.753 70.4224 80.753C70.2306 80.753 69.8986 80.8906 69.6846 81.0589C69.2671 81.387 68.8775 81.4608 68.8775 81.2118C68.8775 80.9386 68.2805 81.0504 68.1179 81.354C68.031 81.5164 67.8053 81.6713 67.6165 81.6982C67.1767 81.7608 66.8239 82.4805 66.8429 83.2765C66.876 84.6602 66.9079 84.8617 67.1225 85.0396C67.6125 85.446 67.0914 87.0396 66.5766 86.7091C66.4531 86.6298 66.089 86.5786 65.7677 86.5953C65.4068 86.6141 65.1332 86.5448 65.0523 86.414C64.9414 86.2346 64.8252 86.2339 64.2942 86.409C63.6912 86.6078 63.6506 86.6001 63.2409 86.2079C62.8141 85.7994 62.3863 85.6831 62.2313 85.9336C62.1131 86.1247 60.9036 86.0545 60.5075 85.8336C60.0706 85.5899 59.1124 85.5945 58.8652 85.8414C58.5238 86.1826 58.3595 86.6245 58.3409 87.2519C58.331 87.5877 58.2525 87.886 58.1665 87.9146C58.0805 87.9432 58.0102 88.0738 58.0102 88.2048C58.0102 88.4024 58.1558 88.4278 58.8685 88.3543C59.8605 88.252 60.1216 88.406 60.0287 89.0387C59.9739 89.4113 60.0162 89.4706 60.3364 89.4706C60.5405 89.4706 60.874 89.6255 61.0775 89.8147C61.2811 90.004 61.6556 90.1744 61.91 90.1935C63.0084 90.2759 65.2965 90.628 65.4725 90.7417C65.5882 90.8166 65.6272 91.0138 65.5707 91.2388C65.4608 91.6761 65.7275 91.7395 66.1333 91.3725C66.376 91.153 66.4375 91.172 66.8776 91.6019C67.1415 91.8597 67.424 92.0706 67.5052 92.0706C67.5865 92.0706 67.653 92.1601 67.653 92.2695C67.653 92.3789 67.7391 92.6537 67.8443 92.8801C68.0397 93.3005 68.3254 93.4152 68.4949 93.1412C68.652 92.8871 68.8775 92.9692 68.8775 93.2805C68.8775 93.4767 69.1103 93.6853 69.5862 93.9155C69.9759 94.1041 70.7048 94.6591 71.2058 95.149L72.1167 96.0396L72.1602 97.1189C72.1841 97.7125 72.237 98.2314 72.2777 98.2721C72.3184 98.3127 72.6204 98.2901 72.9488 98.2218C73.5971 98.0869 74.2883 98.3205 74.4445 98.7273C74.4921 98.8514 74.6538 98.954 74.8038 98.9553C75.2436 98.9591 75.4082 99.1455 75.5232 99.7702C75.6304 100.353 75.6275 100.357 75.2005 100.263C74.8511 100.187 74.7408 100.234 74.617 100.513C74.4729 100.838 73.0663 102.009 72.8188 102.011C72.7557 102.011 72.704 101.913 72.704 101.793C72.704 101.426 72.1841 101.382 71.5472 101.694C71.1752 101.876 70.888 101.935 70.7984 101.847C70.5966 101.651 69.332 101.67 68.7329 101.879C68.2523 102.046 68.2396 102.073 68.335 102.708C68.4114 103.217 68.3798 103.395 68.1938 103.499C68.0183 103.597 67.9446 103.917 67.9184 104.696C67.884 105.715 67.8978 105.761 68.2524 105.811C68.4558 105.84 68.8809 106.132 69.197 106.461C69.5132 106.79 69.8337 107.059 69.9094 107.059C69.985 107.059 70.2831 107.27 70.5719 107.528C70.9765 107.89 71.1934 107.979 71.5178 107.915C71.7493 107.869 71.9387 107.891 71.9387 107.965C71.9387 108.038 72.4381 108.148 73.0484 108.209C74.5594 108.36 74.7085 108.438 75.1878 109.328C75.7513 110.374 75.6039 110.509 73.8614 110.547C73.1309 110.562 72.4159 110.638 72.2726 110.715C72.1293 110.791 71.8314 110.819 71.6106 110.777C71.3899 110.735 71.1627 110.776 71.1058 110.868C70.976 111.078 69.341 111.088 68.7994 110.882C68.5771 110.797 68.2903 110.623 68.1621 110.495C68.0017 110.335 67.774 110.291 67.4321 110.356C66.9845 110.439 66.9159 110.402 66.7398 109.977C66.5324 109.477 66.0417 109.342 65.6938 109.689C65.3499 110.033 65.5237 111.494 65.9086 111.494C66.0239 111.494 66.219 111.735 66.3421 112.029C66.4948 112.394 66.6658 112.565 66.8799 112.565C67.0525 112.565 67.1938 112.625 67.1938 112.699C67.1938 112.772 67.3916 112.872 67.6333 112.92C68.0181 112.997 68.0628 113.061 67.9928 113.436C67.9488 113.672 67.751 114.016 67.5533 114.202C67.1153 114.612 67.0992 114.808 67.4932 114.933C67.6579 114.985 67.9521 115.218 68.147 115.449C68.4969 115.864 68.9859 116.158 69.2351 116.102C69.3054 116.086 69.3996 116.213 69.4442 116.384C69.4972 116.586 69.6524 116.694 69.8902 116.694C70.0909 116.694 70.255 116.763 70.255 116.847C70.255 116.931 70.3537 117 70.4743 117C70.5949 117 70.7361 117.134 70.7881 117.298C70.8575 117.516 71.0741 117.62 71.602 117.69C71.9977 117.742 72.4169 117.797 72.5337 117.813C72.6505 117.828 72.8066 118.005 72.8807 118.206C72.9982 118.524 72.9068 118.675 72.1674 119.391C71.701 119.842 71.2836 120.212 71.2397 120.212C71.1959 120.212 70.9811 120.378 70.7624 120.58C70.1989 121.102 70.3717 121.505 71.1005 121.368C71.5331 121.287 71.6567 121.321 71.7408 121.543C71.8941 121.947 72.1574 122.172 72.609 122.286C72.8296 122.341 73.0101 122.482 73.0101 122.599C73.0101 122.716 73.079 122.812 73.1632 122.812C73.2474 122.812 73.3163 122.949 73.3163 123.118C73.3163 123.288 73.4183 123.424 73.5459 123.424C73.6721 123.424 73.7754 123.492 73.7754 123.576C73.7754 123.661 74.0682 123.735 74.426 123.742C74.7837 123.748 74.9904 123.788 74.8851 123.831C74.7706 123.877 74.6935 124.194 74.6931 124.622C74.6922 125.659 73.6987 127.14 72.5492 127.818C72.0872 128.091 71.382 128.625 70.9821 129.006C70.3823 129.577 70.255 129.793 70.255 130.239C70.255 130.91 70.5837 131.562 71.2635 132.241C71.8834 132.861 71.9248 133.267 71.403 133.608C71.0477 133.841 70.9627 133.84 70.2168 133.597C69.7748 133.453 69.3297 133.267 69.2276 133.183C69.1255 133.099 68.6159 132.992 68.0951 132.945L67.1482 132.859L67.2555 133.667C67.3711 134.538 67.6875 135.088 68.2137 135.333C68.3958 135.418 68.5898 135.629 68.6448 135.802C68.6998 135.975 68.9124 136.159 69.1173 136.21C69.4 136.281 69.4897 136.406 69.4897 136.729C69.4897 137.112 69.5541 137.163 70.1467 137.252C70.6939 137.334 70.8323 137.426 70.9752 137.805C71.0696 138.054 71.2954 138.314 71.4771 138.381C71.9062 138.54 72.6152 140.193 72.3273 140.363C71.9227 140.603 71.7934 141.113 71.9255 141.948C71.997 142.401 72.0484 142.908 72.0397 143.076C72.031 143.245 72.0822 143.879 72.1536 144.486C72.2802 145.562 72.2958 145.593 72.7998 145.759C73.1482 145.874 73.3163 146.025 73.3163 146.224C73.3163 146.385 73.2474 146.518 73.1632 146.518C73.079 146.518 73.0101 146.617 73.0101 146.739C73.0101 146.86 72.846 147.15 72.6455 147.383L72.2808 147.807L71.3447 146.818C70.8298 146.274 70.4008 145.726 70.3914 145.6C70.3575 145.148 70.4282 144.597 70.5836 144.103C70.7031 143.723 70.6915 143.517 70.536 143.262C70.4177 143.067 70.3342 142.512 70.3394 141.956C70.3482 141.025 70.3346 140.99 69.9956 141.055C69.8016 141.092 69.6428 141.063 69.6428 140.991C69.6428 140.738 68.9228 140.861 68.6519 141.16C68.381 141.459 68.3767 141.459 68.0984 141.105C67.8588 140.801 67.8304 140.562 67.9037 139.466C67.9859 138.235 67.9694 138.145 67.4979 137.274C67.2276 136.774 66.7024 136.061 66.3307 135.69C65.7179 135.078 65.6053 135.024 65.1233 135.114C64.8059 135.174 64.5918 135.304 64.5918 135.436C64.5918 135.715 64.5299 135.714 63.9798 135.43C63.7358 135.304 63.3466 134.942 63.115 134.627C62.5381 133.841 61.9942 133.365 61.6735 133.365C61.5258 133.365 60.9683 133.155 60.4346 132.899C59.5963 132.497 59.3548 132.446 58.6601 132.528C57.9851 132.607 57.8397 132.58 57.7545 132.358C57.6122 131.988 58.2862 130.765 58.6327 130.765C58.7834 130.765 59.0149 130.657 59.1471 130.524C59.2794 130.392 59.3877 130.358 59.3877 130.448C59.3877 130.538 59.5599 130.612 59.7703 130.612C60.0084 130.612 60.153 130.525 60.153 130.382C60.153 130.256 60.0497 130.153 59.9234 130.153C59.7971 130.153 59.6938 130.075 59.6938 129.979C59.6938 129.883 59.5733 129.714 59.4259 129.604C59.1805 129.42 59.1857 129.41 59.4877 129.486C59.7258 129.546 59.8441 129.485 59.9136 129.266C59.9666 129.099 60.1964 128.924 60.4258 128.876C60.7697 128.804 60.9461 128.898 61.444 129.419L62.0462 130.049L63.6634 130.028C64.5528 130.017 65.6127 130.006 66.0187 130.003C67.1198 129.997 67.3469 129.82 67.3469 128.971C67.3469 128.301 67.2951 128.212 66.4668 127.443C65.9827 126.994 65.4317 126.587 65.2423 126.538C64.8828 126.445 64.8485 126.363 64.8917 125.694C64.9136 125.354 64.8389 125.27 64.4378 125.182C64.1737 125.124 63.9165 125.118 63.8662 125.168C63.6994 125.335 63.2142 124.759 63.2142 124.394C63.2142 124.133 63.1277 124.035 62.8972 124.035C62.5123 124.035 62.1977 123.741 61.9846 123.181C61.8746 122.892 61.8744 122.713 61.9841 122.603C62.0715 122.516 62.1429 122.321 62.1429 122.169C62.1429 121.936 62.0076 121.894 61.2437 121.894C59.7673 121.894 59.423 122.012 59.2341 122.584C59.1274 122.907 58.8942 123.17 58.5789 123.323C58.1256 123.542 58.0552 123.538 57.6289 123.27C57.3141 123.072 57.1534 122.835 57.1211 122.522C57.0814 122.138 56.9513 122.009 56.3175 121.722C55.9016 121.534 55.5613 121.329 55.5613 121.265C55.5613 121.057 54.939 120.947 54.7324 121.119C54.5827 121.243 54.4808 121.226 54.3384 121.055C54.2326 120.928 54.0597 120.824 53.954 120.824C53.8483 120.824 53.683 120.729 53.5867 120.613C53.4903 120.497 53.2146 120.362 52.9741 120.314C52.1072 120.141 52.0407 119.943 52.0407 117.533C52.0407 116.325 51.9797 115.298 51.905 115.252C51.8304 115.206 51.7253 114.933 51.6714 114.646C51.5328 113.908 51.2272 113.688 50.6969 113.944C50.4679 114.055 50.1697 114.131 50.0342 114.114C49.8987 114.096 49.664 114.274 49.5127 114.509C49.3613 114.743 49.145 114.99 49.032 115.058C48.9189 115.125 48.8265 115.28 48.8265 115.402C48.8265 115.524 48.7278 115.624 48.6072 115.624C48.4866 115.624 48.3449 115.759 48.2924 115.924C48.2319 116.115 48.0039 116.261 47.6699 116.323C47.38 116.378 47.1428 116.483 47.1428 116.558C47.1428 116.633 47.0804 116.694 47.0041 116.694C46.9277 116.694 46.8995 116.563 46.9413 116.404C47.0492 115.992 46.728 115.471 46.3659 115.471C46.0832 115.471 45.3769 115.888 44.8783 116.35C44.7648 116.455 44.608 116.541 44.5298 116.541C44.4516 116.541 44.3877 116.674 44.3877 116.836C44.3877 116.998 44.2155 117.266 44.005 117.431C43.7946 117.597 43.6224 117.815 43.6224 117.916C43.6224 118.016 43.4909 118.266 43.3303 118.47L43.0382 118.841L42.8338 118.379C42.6182 117.893 42.5705 117.869 41.9001 117.913C41.6385 117.93 41.4437 117.849 41.3862 117.7C41.2434 117.328 40.9938 117.41 40.3779 118.033C39.3643 119.059 38.5161 119.883 37.3102 121.013C36.3057 121.955 36.1253 122.199 36.124 122.621C36.1225 123.016 36.1848 123.118 36.4285 123.118C36.5969 123.118 36.7346 123.049 36.7346 122.965C36.7346 122.881 36.8207 122.812 36.9259 122.812C37.0312 122.813 37.5783 122.316 38.1417 121.708L39.1662 120.603L39.9722 120.638C40.4155 120.658 40.8403 120.735 40.9161 120.811C41.0605 120.955 40.5916 121.894 40.3751 121.894C40.3091 121.894 40.255 121.997 40.255 122.124C40.255 122.25 40.1966 122.353 40.1252 122.353C40.0538 122.353 39.8656 122.645 39.707 123.003C39.3802 123.74 39.3249 123.805 38.5331 124.403C38.2174 124.641 37.9591 124.926 37.9591 125.035C37.9591 125.145 37.7614 125.278 37.5198 125.331C37.2271 125.395 36.9846 125.606 36.7928 125.964C36.6345 126.259 36.3392 126.583 36.1365 126.683C35.9338 126.783 35.6927 126.999 35.6008 127.164C35.5088 127.329 35.3475 127.557 35.2423 127.672C34.9243 128.019 35.0164 128.594 35.4336 128.867C35.8359 129.13 35.9401 129.6 35.6376 129.786C35.4451 129.905 33.5594 130.163 32.8698 130.164C32.6383 130.165 32.4489 130.234 32.4489 130.318C32.4489 130.402 32.3063 130.664 32.1321 130.899C31.6837 131.505 31.7644 132.502 32.2675 132.574C32.4755 132.603 32.7284 132.503 32.8798 132.33C33.0216 132.169 33.3271 131.99 33.5586 131.933C33.7901 131.876 33.9795 131.74 33.9795 131.632C33.9795 131.403 34.6734 130.856 35.1585 130.703C35.4456 130.612 35.4961 130.663 35.5382 131.086C35.6024 131.733 36.0024 131.991 36.3933 131.638C36.8113 131.26 36.99 131.314 37.0975 131.851C37.2181 132.454 37.1232 132.6 36.6108 132.601C36.3074 132.602 36.0981 132.751 35.8162 133.168C35.6058 133.48 34.9342 134.222 34.3239 134.818C33.7136 135.414 33.2142 135.989 33.2142 136.097C33.2142 136.434 33.5769 136.675 34.2431 136.781L34.8854 136.884L35.5421 135.947C35.9034 135.432 36.2779 134.874 36.3744 134.706C36.4709 134.539 36.7637 134.207 37.0249 133.968C37.2862 133.73 37.4999 133.497 37.4999 133.45C37.4999 133.403 37.6291 133.236 37.7869 133.078C37.9448 132.92 38.0997 132.724 38.1313 132.641C38.1688 132.543 38.5744 132.544 39.2984 132.644L40.4081 132.796V133.317C40.4081 133.604 40.2715 134.121 40.1045 134.466C39.6625 135.38 39.5464 136.118 39.8444 136.118C39.974 136.118 40.1834 136.014 40.3097 135.888C40.436 135.762 40.5985 135.659 40.6709 135.659C40.7434 135.659 41.0399 135.263 41.3299 134.779C41.9962 133.668 42.1765 133.528 42.9512 133.522C43.649 133.517 44.3877 133.054 44.3877 132.623C44.3877 132.479 44.4977 132.205 44.6322 132.013C44.9167 131.608 45.4058 131.652 46.492 132.183L47.1422 132.501L47.4869 132.186C47.6764 132.012 47.9899 131.822 48.1834 131.764C48.5046 131.666 48.527 131.595 48.4399 130.943C48.2906 129.827 48.2699 129.798 47.689 129.892C47.0189 130.001 46.7639 129.784 46.5561 128.929C46.3982 128.28 46.4135 128.211 46.8266 127.706C47.1937 127.257 47.3525 127.176 47.8093 127.203C48.4828 127.244 48.8932 126.747 49.1418 125.588C49.3022 124.841 49.3248 124.815 49.7486 124.9C49.9907 124.949 50.3936 124.917 50.6439 124.83C51.0119 124.701 51.116 124.716 51.1886 124.905C51.2501 125.065 51.3941 125.109 51.6474 125.046C52.1605 124.917 52.4804 125.071 52.3931 125.404C52.353 125.558 52.3917 125.727 52.4787 125.781C52.6898 125.911 54.0305 125.568 54.0305 125.384C54.0305 125.304 54.1699 124.915 54.3403 124.52C54.6272 123.853 54.7067 123.787 55.4177 123.618C56.1908 123.434 56.9387 123.558 56.9387 123.868C56.9387 123.949 57.1281 124.037 57.3596 124.063C57.7294 124.106 57.7805 124.177 57.7805 124.647C57.7805 125.091 57.7198 125.191 57.4237 125.233C57.2158 125.262 56.9867 125.174 56.8747 125.021C56.7689 124.876 56.586 124.79 56.4681 124.829C56.3033 124.884 56.2487 125.296 56.2316 126.611C56.2193 127.552 56.2701 128.359 56.3444 128.405C56.6303 128.582 56.4576 129.146 55.9438 129.714C55.3492 130.372 55.3431 130.402 55.6104 131.376C55.8729 132.333 56.1352 132.753 56.4709 132.753C56.6428 132.753 56.9271 133.021 57.1812 133.422C57.5154 133.95 57.7508 134.135 58.2966 134.301C58.8507 134.47 59.0113 134.599 59.1028 134.949C59.1965 135.308 59.1637 135.4 58.9197 135.464C58.4347 135.591 58.5252 136.426 59.0816 136.959C59.6226 137.477 59.6637 137.916 59.216 138.396C58.9474 138.685 58.7954 138.727 58.3359 138.642C58.0305 138.585 57.7576 138.476 57.7295 138.399C57.6483 138.176 57.2861 138.237 57.1888 138.49C57.0239 138.919 57.2621 139.635 57.5701 139.635C57.7279 139.635 57.8571 139.705 57.8571 139.79C57.8571 139.875 58.1842 140.099 58.5841 140.288C59.2027 140.581 59.3333 140.722 59.4596 141.232C59.5477 141.588 59.8435 142.064 60.1867 142.404C60.6312 142.843 60.7652 143.097 60.7652 143.498C60.7652 143.914 60.8901 144.132 61.3775 144.57C61.7142 144.872 61.9897 145.212 61.9897 145.325C61.9897 145.439 62.0873 145.671 62.2067 145.841C62.326 146.012 62.4695 146.423 62.5257 146.755C62.5818 147.087 62.6977 147.587 62.7832 147.866C62.8687 148.145 62.9387 148.61 62.9387 148.899C62.9387 149.187 62.9835 149.425 63.0382 149.426C63.2444 149.431 64.3873 150.586 64.5487 150.953C65.0235 152.031 64.9366 152.636 64.3073 152.633C63.4509 152.629 63.2142 152.479 63.2142 151.941C63.2142 151.495 63.1485 151.414 62.6564 151.251C62.3343 151.145 61.6944 151.1 61.1424 151.144C60.6165 151.186 60.127 151.178 60.0546 151.125C59.7794 150.925 59.478 150.169 59.6316 150.064C59.7159 150.006 59.8699 149.511 59.9737 148.965C60.1585 147.992 60.1385 147.67 59.7372 145.149C59.6911 144.859 59.5334 144.515 59.3869 144.385C59.2403 144.254 59.0032 143.84 58.8599 143.465C58.7166 143.09 58.4667 142.69 58.3047 142.577C58.1427 142.464 57.9331 142.065 57.8389 141.691C57.7207 141.222 57.5874 141.012 57.4086 141.012C57.2661 141.012 56.9947 140.868 56.8055 140.692C56.5578 140.461 56.3519 140.399 56.0695 140.47C55.6904 140.565 55.6808 140.597 55.7777 141.44C55.8963 142.473 55.8965 142.586 55.781 143.382C55.7322 143.719 55.7541 144.159 55.8296 144.36C55.9178 144.596 55.893 145.115 55.7604 145.813C55.6469 146.411 55.5104 147.208 55.4572 147.585C55.4039 147.961 55.2678 148.362 55.1546 148.475C54.84 148.789 54.8986 149.543 55.255 149.765C55.4233 149.87 55.5611 150.013 55.5611 150.083C55.5611 150.153 55.6472 150.306 55.7524 150.423C56.2418 150.969 56.3264 151.114 56.3264 151.413C56.3264 151.712 56.5473 152.227 57.1455 153.324C57.2833 153.576 57.3974 153.92 57.3992 154.088C57.403 154.455 57.4557 154.54 58.2271 155.442C58.8568 156.178 59.2284 157.018 59.2322 157.715C59.2337 157.943 59.3626 158.252 59.5191 158.403C59.6756 158.553 59.8513 158.875 59.9096 159.117C59.9678 159.359 60.2417 159.91 60.5182 160.342C60.7947 160.774 61.2329 161.574 61.4921 162.119C62.1666 163.54 62.1879 163.885 61.6143 164.103C61.1335 164.286 60.7388 165.051 60.6851 165.904C60.6619 166.272 60.6016 166.614 60.551 166.665C60.5004 166.715 60.459 167.027 60.459 167.358C60.459 168.536 59.7079 169.456 59.1348 168.981C58.9487 168.826 58.9239 168.648 59.0214 168.165C59.0901 167.825 59.1409 165.961 59.1344 164.022C59.1238 160.832 59.0933 160.431 58.815 159.816C58.6457 159.441 58.3609 158.983 58.1821 158.798C58.0033 158.612 57.857 158.418 57.857 158.366C57.857 158.173 57.421 157.847 57.0322 157.749C56.8108 157.694 56.5918 157.587 56.5455 157.512C56.4992 157.438 56.3283 157.376 56.1656 157.376C56.0029 157.376 55.7838 157.239 55.6786 157.071C55.403 156.63 55.0964 156.69 55.1005 157.185C55.1025 157.417 55.0821 158.329 55.0553 159.212C55.0285 160.095 55.0596 161.567 55.1244 162.484C55.2022 163.583 55.1873 164.252 55.0806 164.451C54.9659 164.666 54.97 164.936 55.0948 165.385C55.1916 165.733 55.2621 166.155 55.2517 166.324C55.2413 166.492 55.2173 167.352 55.1984 168.235C55.1795 169.119 55.0744 170.315 54.9648 170.893C54.8514 171.493 54.8241 171.986 54.9014 172.04C54.9775 172.094 54.9902 172.875 54.9305 173.818C54.8025 175.836 54.9141 179.814 55.1089 180.178C55.1855 180.321 55.2592 180.806 55.2726 181.257C55.286 181.708 55.3557 182.191 55.4274 182.331C55.5773 182.623 55.7541 184.776 55.7198 185.89C55.7049 186.37 55.611 186.706 55.4609 186.816C55.2629 186.961 55.2409 187.255 55.3228 188.662C55.3764 189.582 55.4182 190.679 55.4157 191.1C55.4114 191.842 55.6976 193.165 55.8624 193.165C56.0166 193.165 55.9851 194.01 55.7722 195.586C55.6548 196.455 55.5934 197.223 55.6358 197.291C55.6782 197.36 55.7409 198.3 55.7752 199.381C55.8095 200.463 55.9524 201.826 56.0927 202.411C56.234 203.001 56.3404 204.024 56.3312 204.705C56.322 205.382 56.3221 206.038 56.3315 206.165C56.3408 206.291 56.3127 207.149 56.269 208.071C56.2172 209.164 56.2473 209.816 56.3555 209.947C56.5326 210.16 56.5995 211.907 56.4369 212.07C56.2985 212.208 56.4919 216.897 56.6485 217.198C56.8666 217.619 56.8275 218.891 56.5716 219.7C56.2905 220.589 56.2501 221.612 56.4962 221.612C56.6078 221.612 56.6324 221.808 56.568 222.185C56.3369 223.537 56.2912 224.824 56.4741 224.824C56.6039 224.824 56.634 225.099 56.5788 225.779C56.5013 226.734 56.6557 227.878 56.9734 228.701C57.066 228.941 57.1507 229.698 57.1617 230.383C57.1734 231.109 57.2687 231.787 57.3897 232.007C57.5161 232.237 57.5862 232.777 57.5685 233.384C57.5524 233.933 57.6107 234.726 57.6981 235.147C57.7855 235.568 57.8877 236.462 57.9253 237.135C58.1186 240.596 58.1912 241.304 58.3982 241.748C58.5221 242.014 58.5811 242.341 58.5292 242.476C58.4774 242.611 58.5201 242.824 58.624 242.949C58.7552 243.107 58.7604 243.176 58.6411 243.176C58.3888 243.176 58.4307 243.491 58.7659 244.116C58.931 244.424 59.0249 244.813 58.9776 244.993C58.9309 245.172 58.9598 245.318 59.0417 245.318C59.1236 245.318 59.1938 245.507 59.1976 245.738C59.206 246.243 59.5455 248.49 59.8679 250.174C60.0187 250.962 60.032 250.977 60.5847 251.003C61.5858 251.049 61.6656 251.06 61.7774 251.172C61.8381 251.233 61.7727 251.282 61.6325 251.282C61.2756 251.282 61.313 251.7 61.6804 251.817C61.847 251.869 62.103 252.115 62.2491 252.362C62.5573 252.883 62.9081 252.954 62.9081 252.495C62.9081 252.2 62.9665 252.185 63.7499 252.283C64.4176 252.366 64.5917 252.344 64.5917 252.175C64.5917 252.058 64.8001 251.734 65.0547 251.456C65.4827 250.988 65.554 250.962 65.9959 251.116C66.7611 251.382 66.8876 251.333 66.8876 250.77C66.8876 250.167 67.1657 249.302 67.4513 249.016C67.5622 248.904 67.653 248.681 67.653 248.518C67.653 248.205 67.8979 248.141 68.2481 248.363C68.4065 248.463 68.4532 248.832 68.4316 249.813C68.4086 250.852 68.4476 251.129 68.6163 251.129C68.8676 251.129 69.3366 250.649 69.3366 250.391C69.3366 250.292 69.4399 250.212 69.5662 250.212C69.6925 250.212 69.7967 250.091 69.7977 249.944C69.7987 249.797 70.0483 249.515 70.3524 249.319C70.8569 248.992 70.9263 248.982 71.1478 249.203C71.3583 249.413 71.3648 249.541 71.1967 250.169C71.0901 250.567 70.928 250.939 70.8363 250.996C70.6023 251.14 70.8061 251.588 71.1058 251.588C71.346 251.588 71.9232 251.024 71.9336 250.779C71.9364 250.713 72.211 250.376 72.5439 250.029C73.0027 249.552 73.2607 249.403 73.6106 249.413C74.3107 249.433 74.5102 249.702 74.3681 250.434C74.1612 251.499 74.2051 252.812 74.4476 252.812C74.5647 252.812 74.7038 252.64 74.7566 252.429C74.8094 252.219 74.9202 252.047 75.0028 252.047C75.3434 252.047 75.7652 251.416 75.7652 250.907C75.7652 250.069 76.0485 249.6 76.5551 249.6C76.828 249.6 76.9897 249.681 76.9897 249.817C76.9897 249.936 77.0528 250.056 77.13 250.084C77.2082 250.113 77.1771 250.404 77.0593 250.744C76.8492 251.351 76.9017 252.047 77.1576 252.047C77.4665 252.047 77.9134 251.485 78.0044 250.981C78.0581 250.684 78.2011 250.246 78.3222 250.007C78.4434 249.768 78.5069 249.48 78.4634 249.367C78.42 249.253 78.4352 249.139 78.4972 249.113C78.5592 249.086 78.7675 248.807 78.9602 248.491C79.3615 247.834 79.4292 247.814 79.9084 248.201C80.2235 248.456 80.2624 248.63 80.2925 249.922C80.3256 251.336 80.5384 252.945 80.7344 253.262C80.7893 253.351 80.9766 253.424 81.1505 253.424C81.4191 253.424 81.4531 253.355 81.3764 252.972C81.2514 252.347 81.7964 251.129 82.201 251.129C82.5124 251.129 82.5681 251.311 82.5122 252.144C82.4576 252.958 83.2624 254.188 83.8497 254.188C84.2709 254.188 84.8343 252.95 84.8746 251.935C84.8921 251.495 84.9927 251.031 85.0981 250.905C85.2683 250.7 85.3413 250.704 85.7476 250.94C86.1951 251.2 86.2037 251.228 86.1296 252.173C86.0664 252.979 86.0956 253.153 86.3049 253.216C87.2724 253.511 87.5509 253.73 87.5509 254.196C87.5509 254.598 87.602 254.661 87.8953 254.619C88.2379 254.571 88.2396 254.557 88.2167 252.009L88.1937 249.447H89.1733C89.9972 249.447 90.1559 249.49 90.1716 249.715C90.1818 249.862 90.199 250.685 90.2098 251.543C90.2255 252.787 90.2802 253.145 90.479 253.302C90.6162 253.411 90.7725 253.689 90.8263 253.921C90.8801 254.152 91.013 254.341 91.1216 254.341C91.2302 254.341 91.6764 254.685 92.1131 255.106L92.907 255.871H93.9662C94.639 255.871 95.0472 255.936 95.0851 256.05C95.1231 256.163 95.5833 256.236 96.351 256.25C97.1296 256.264 97.5787 256.336 97.6178 256.453C97.6978 256.693 97.943 256.682 98.4578 256.413C99.0814 256.088 99.8588 256.394 100.223 257.108L100.502 257.654L98.7328 257.683C97.7601 257.699 96.842 257.715 96.6927 257.718C96.5433 257.722 95.945 257.609 95.3631 257.467C94.5904 257.28 94.1885 257.251 93.8736 257.361C93.6363 257.443 93.3027 257.459 93.1323 257.396C92.6859 257.231 90.7652 257.244 90.7652 257.411C90.7652 257.489 90.5987 257.553 90.3953 257.553C90.1919 257.553 89.9907 257.639 89.9482 257.744C89.9045 257.852 89.8658 257.812 89.8589 257.651C89.8494 257.428 89.7668 257.387 89.4732 257.461C89.2677 257.512 88.3647 257.445 87.4666 257.312C86.5684 257.179 85.6861 257.106 85.506 257.151C85.3259 257.196 84.903 257.163 84.5662 257.077C83.2719 256.748 82.5765 256.635 82.5391 256.748C82.5178 256.812 82.0697 256.841 81.5434 256.812C79.9351 256.722 79.7172 256.738 79.5819 256.957C79.478 257.125 79.4127 257.129 79.2614 256.978C78.98 256.697 78.401 256.745 78.3197 257.056C78.2579 257.292 78.2476 257.294 78.2319 257.068C78.2085 256.731 77.5585 256.599 76.181 256.65C75.5735 256.673 74.9164 256.638 74.7207 256.573C74.5153 256.505 74.1838 256.53 73.9358 256.632C73.3969 256.855 70.0708 256.618 69.9815 256.351C69.8985 256.102 69.5382 256.135 69.4361 256.401C69.3748 256.561 69.1781 256.609 68.7564 256.567C68.43 256.535 67.5488 256.599 66.7982 256.71C66.0477 256.821 65.3991 256.86 65.357 256.797C65.2081 256.574 64.4281 256.477 64.1186 256.643C63.7854 256.821 62.7653 256.896 59.3111 256.995C58.1325 257.029 57.0454 256.993 56.8954 256.915C56.7168 256.821 56.4369 256.839 56.0856 256.966C55.6626 257.119 55.4856 257.121 55.2509 256.974C54.8589 256.73 53.9827 256.739 52.9834 256.998C52.2945 257.176 52.0051 257.175 51.0152 256.988C50.1721 256.829 49.7455 256.813 49.4553 256.928C49.2357 257.016 48.6427 257.084 48.1376 257.079C47.2298 257.072 45.3983 257.384 45.0347 257.608C44.9314 257.672 44.8468 257.654 44.8468 257.569C44.8468 257.301 43.7831 257.196 43.1589 257.402C42.6493 257.57 42.538 257.562 42.3206 257.345C41.9965 257.021 40.605 257.013 40.1818 257.333C39.9757 257.488 39.6824 257.535 39.2634 257.478C37.6945 257.264 37.0056 257.206 35.5101 257.16C34.6262 257.133 33.637 257.071 33.3119 257.021C32.9868 256.972 32.6415 256.998 32.5446 257.078C32.2646 257.311 27.5682 257.577 27.305 257.376C27.2119 257.304 26.6264 257.249 26.004 257.252C25.3816 257.256 24.6037 257.257 24.2753 257.255C23.9469 257.253 23.2848 257.353 22.8041 257.477C22.114 257.656 21.7451 257.669 21.0518 257.541C20.5688 257.452 20.0599 257.424 19.921 257.478C19.782 257.533 18.6351 257.559 17.3723 257.538C16.1096 257.516 14.8009 257.51 14.4642 257.524C14.1274 257.539 13.5936 257.553 13.278 257.555C12.876 257.559 12.704 257.628 12.704 257.786C12.704 258.038 12.1275 258.063 11.0968 257.855L11.0969 257.855Z" fill="#242424"/>
<path d="M18.0561 249.891C18.372 249.35 18.3897 249.112 18.4385 244.746C18.4782 241.189 18.5444 239.95 18.7351 239.191C18.9991 238.14 18.9408 237.538 18.5607 237.39C18.3587 237.312 18.3397 237.104 18.4359 236.025C18.6525 233.594 18.6753 232.287 18.5099 231.78C18.4184 231.5 18.2972 231.27 18.2406 231.27C18.0652 231.27 16.7039 231.817 16.5886 231.934C16.5286 231.994 16.2643 232.044 16.0012 232.044C15.6135 232.044 15.4768 232.139 15.2796 232.547C15.1458 232.824 14.8806 233.351 14.6904 233.719L14.3444 234.388L13.5796 234.282C12.8159 234.176 12.8149 234.176 12.892 234.584C12.9344 234.808 12.9095 235.029 12.8366 235.074C12.7637 235.12 12.704 235.295 12.704 235.463C12.704 235.631 12.5021 235.968 12.2554 236.212C12.0049 236.459 11.7029 237.008 11.5719 237.455C11.2371 238.594 10.5458 239.248 9.52415 239.39C9.0843 239.451 8.72444 239.556 8.72444 239.623C8.72444 239.69 8.59541 239.779 8.43772 239.821C8.2172 239.879 8.16831 239.83 8.22598 239.607C8.26721 239.448 8.24066 239.317 8.16695 239.317C8.09325 239.317 8.04894 238.866 8.06848 238.315C8.0957 237.548 8.17652 237.24 8.41423 237C8.58484 236.828 8.72444 236.591 8.72444 236.473C8.72444 236.311 8.89749 236.279 9.45148 236.341C9.85135 236.385 10.2015 236.481 10.2295 236.554C10.3533 236.875 10.8465 236.66 10.999 236.218C11.0879 235.96 11.2669 235.641 11.3966 235.51C11.5264 235.379 11.6326 235.146 11.6326 234.992C11.6326 234.838 11.7389 234.623 11.8689 234.514C11.9988 234.405 12.2374 234.031 12.399 233.683C12.5606 233.335 12.6954 233.137 12.6984 233.243C12.7013 233.35 12.8073 233.437 12.9336 233.437C13.0599 233.437 13.1633 233.35 13.1634 233.243C13.1637 232.926 13.8653 232.199 14.1759 232.194C14.3345 232.192 14.7397 232.018 15.0765 231.808C15.4132 231.598 15.8093 231.426 15.9566 231.426C16.1039 231.426 16.2244 231.367 16.2244 231.295C16.2244 231.224 16.6205 230.979 17.1045 230.75C18.7826 229.958 18.7465 229.987 18.7975 229.37C18.844 228.806 18.834 228.794 18.309 228.794C18.0143 228.794 17.7355 228.856 17.6896 228.931C17.6436 229.006 17.2155 229.117 16.7382 229.177C15.7265 229.305 15.4591 229.392 15.4591 229.592C15.4591 229.903 14.6029 230.487 14.139 230.492C13.3306 230.5 12.704 230.679 12.704 230.903C12.704 231.02 12.5663 231.116 12.3979 231.116C12.2295 231.116 12.0918 231.051 12.0918 230.971C12.0918 230.892 11.9641 230.786 11.8081 230.736C11.5112 230.641 10.9467 229.639 10.779 228.91C10.7251 228.676 10.5869 228.485 10.4718 228.485C10.3567 228.485 10.037 228.234 9.76131 227.928C9.31479 227.431 9.26584 227.288 9.31227 226.615C9.36679 225.825 9.25038 225.603 8.59916 225.25C7.70147 224.765 7.93471 223.444 9.0402 222.753C9.6856 222.35 9.81532 222.002 9.36476 221.883C9.17206 221.832 9.03616 221.563 8.92202 221.008C8.67864 219.823 8.927 219.328 10.018 218.823C10.4901 218.605 10.9137 218.426 10.9593 218.426C11.0049 218.426 11.1481 218.319 11.2774 218.189C11.5064 217.957 11.5017 217.751 11.2429 216.694C11.1687 216.39 11.2353 216.143 11.4875 215.784C11.73 215.44 11.8526 215.008 11.8956 214.345C11.9294 213.824 12.0563 213.195 12.1775 212.948C12.2987 212.701 12.3979 212.44 12.3979 212.368C12.3979 212.184 11.518 212.203 11.4042 212.389C11.2685 212.611 9.79831 212.512 9.79696 212.281C9.79648 212.177 9.6581 212.018 9.48973 211.927C9.30784 211.829 9.18361 211.603 9.18361 211.371C9.18361 210.695 9.52426 209.539 9.80447 209.265C10.1899 208.888 11.1731 206.885 11.1753 206.472C11.1763 206.281 11.4412 205.837 11.7639 205.486C12.0866 205.134 12.3931 204.735 12.445 204.598C12.4996 204.454 12.6369 204.388 12.7708 204.44C13.0055 204.531 13.4693 204.179 13.4693 203.91C13.4693 203.83 13.5841 203.668 13.7244 203.551C14.2229 203.136 14.8469 202.126 14.8495 201.729C14.851 201.508 15.018 201.168 15.2212 200.973C15.4242 200.779 15.6343 200.417 15.688 200.17C15.7614 199.832 15.9578 199.635 16.4766 199.382C17.1366 199.059 17.4402 198.713 17.2411 198.512C17.1901 198.46 16.6961 198.531 16.1431 198.669C15.4643 198.838 14.9967 199.063 14.7031 199.359C14.3978 199.668 14.0146 199.845 13.4156 199.955C12.3688 200.147 12.3462 200.113 12.3318 198.347C12.323 197.268 12.3624 197.056 12.5852 196.984C13.1003 196.817 13.4693 196.139 13.4693 195.359C13.4693 194.788 13.5313 194.596 13.7372 194.529C14.0186 194.437 14.6938 193.534 14.6938 193.25C14.6938 193.159 14.8316 193.048 14.9999 193.003C15.2562 192.935 15.3061 192.792 15.3061 192.123C15.3061 191.607 15.3902 191.239 15.5438 191.083C15.6746 190.951 15.7607 190.695 15.7351 190.514C15.6663 190.026 14.5951 189.98 13.7356 190.428C13.3787 190.614 12.9789 190.819 12.8471 190.885C12.5991 191.007 12.2577 190.868 11.7651 190.441C11.404 190.128 11.3957 189.414 11.75 189.15C11.8988 189.038 12.1415 188.756 12.2893 188.522C12.46 188.251 12.6918 188.096 12.925 188.096C13.7098 188.096 15.3061 185.861 15.3061 184.762C15.3061 184.566 15.1339 184.199 14.9234 183.946C14.7129 183.693 14.5408 183.378 14.5408 183.246C14.5408 182.853 14.9877 181.237 15.1225 181.142C15.1909 181.094 15.3401 180.812 15.454 180.514C15.5678 180.216 15.8222 179.794 16.0192 179.577C16.2163 179.359 16.3775 179.098 16.3775 178.996C16.3775 178.895 16.4464 178.811 16.5305 178.811C16.6147 178.811 16.6836 178.672 16.6836 178.502C16.6836 178.332 16.7796 178.192 16.8968 178.192C17.1309 178.192 17.2959 177.867 17.2959 177.406C17.2959 177.166 17.1856 177.109 16.7177 177.109C16.2916 177.109 16.0099 176.99 15.6463 176.654C15.375 176.403 15.153 176.152 15.153 176.095C15.153 176.038 15.3879 175.495 15.6749 174.887C15.9845 174.232 16.2666 173.318 16.3683 172.641C16.4626 172.014 16.641 171.354 16.7647 171.175C16.8885 170.997 16.9897 170.668 16.9897 170.444C16.9897 170.22 17.2221 169.592 17.5061 169.047C17.79 168.502 18.0746 167.886 18.1385 167.677C18.2024 167.468 18.3426 167.208 18.45 167.1C18.5575 166.991 18.6945 166.609 18.7544 166.25C18.8476 165.693 18.8156 165.559 18.5342 165.329C18.2318 165.081 18.2116 164.956 18.2866 163.788C18.3316 163.088 18.4251 162.44 18.4945 162.346C18.8064 161.926 19.1137 160.705 19.1175 159.872C19.1208 159.157 19.189 158.896 19.4332 158.666C19.6046 158.505 19.7448 158.21 19.7448 158.011C19.7448 157.812 19.8494 157.561 19.9772 157.454C20.5042 157.012 20.6948 156.284 20.5718 155.183C20.507 154.604 20.4701 153.984 20.4898 153.807C20.5094 153.629 20.3843 153.122 20.2117 152.679C19.8064 151.64 19.8143 151.154 20.2423 150.798C20.6148 150.488 21.1707 150.531 21.5936 150.901C21.7265 151.017 21.9079 151.112 21.9966 151.112C22.0855 151.112 22.2054 151.625 22.2638 152.255C22.3554 153.243 22.43 153.456 22.8175 153.831C23.3139 154.312 23.3985 154.898 23.0405 155.377C22.9169 155.542 22.8136 155.828 22.8109 156.012C22.8081 156.197 22.7347 156.372 22.6475 156.401C22.4154 156.479 22.0553 157.598 22.0475 158.266C22.0437 158.583 22.1382 159.105 22.2573 159.426C22.3764 159.747 22.5167 160.206 22.569 160.446C22.6214 160.686 22.8855 161.11 23.1561 161.388C24.0056 162.262 24.2239 162.81 24.3572 164.408C24.4347 165.337 24.5572 165.946 24.686 166.044C25.0617 166.329 25.1126 166.78 24.8662 167.637C24.6598 168.355 24.6515 168.607 24.8127 169.277C24.9175 169.712 24.9863 170.322 24.9655 170.633C24.9447 170.943 24.9974 171.241 25.0826 171.294C25.1677 171.347 25.283 171.698 25.3387 172.074C25.3945 172.45 25.5707 172.877 25.7302 173.023C25.8898 173.169 26.0204 173.471 26.0204 173.694C26.0204 173.979 26.2538 174.329 26.8033 174.867C27.6576 175.705 27.8571 176.085 27.8571 176.874C27.8571 177.16 27.9432 177.424 28.0484 177.462C28.163 177.503 27.8604 177.917 27.2942 178.494L26.3487 179.458L25.3427 179.45C24.4424 179.443 24.3367 179.474 24.3367 179.746C24.3367 179.927 24.4403 180.049 24.5937 180.049C24.8027 180.049 25.8673 181.032 25.8673 181.225C25.8673 181.374 26.7223 183.092 26.8764 183.253C26.9745 183.355 27.2265 183.482 27.4363 183.535C27.753 183.616 27.9894 183.905 28.263 184.548C28.2837 184.597 28.1957 184.841 28.0675 185.09C27.9392 185.339 27.7364 185.922 27.6166 186.386C27.4969 186.849 27.3299 187.298 27.2454 187.384C27.1609 187.469 27.0918 187.664 27.0918 187.818C27.0918 187.971 26.9885 188.096 26.8622 188.096C26.7359 188.096 26.6326 188.158 26.6326 188.233C26.6326 188.308 26.4948 188.406 26.3265 188.451C25.9338 188.554 25.9117 189.312 26.2882 189.762C26.9983 190.61 27.0918 190.741 27.0918 190.885C27.0918 190.97 27.6084 191.554 28.2397 192.182C28.9187 192.857 29.3877 193.452 29.3877 193.637C29.3877 193.81 29.5255 194.276 29.6938 194.673C29.8622 195.07 29.9999 195.595 29.9999 195.839C29.9999 196.411 29.7017 197.071 29.4432 197.071C29.3324 197.071 29.1196 197.262 28.9703 197.494C28.4168 198.357 28.1762 198.495 27.038 198.598C26.0492 198.687 25.9288 198.735 25.7504 199.112C25.4361 199.776 25.7907 200.675 26.7474 201.638C27.1894 202.083 27.551 202.519 27.551 202.606C27.551 202.693 27.6543 202.804 27.7806 202.853C27.9168 202.906 28.0102 203.139 28.0102 203.425C28.0102 203.814 28.1935 204.088 28.9442 204.824C29.458 205.328 29.9683 205.791 30.0784 205.854C30.3032 205.984 30.4287 207.114 30.2506 207.405C30.187 207.509 29.9748 207.594 29.7792 207.594C29.3499 207.594 29.24 207.924 29.3476 208.889C29.4409 209.726 29.2246 210.013 28.3653 210.192C27.8552 210.299 27.7746 210.375 27.7339 210.793C27.6933 211.21 27.7505 211.294 28.1777 211.445C28.4474 211.54 28.7849 211.618 28.9276 211.618C29.2472 211.618 29.538 211.945 30.043 212.875C30.2569 213.269 30.8225 214.184 31.3 214.91C32.412 216.599 32.4036 216.915 31.2423 217.058C30.7891 217.114 30.3758 217.223 30.3239 217.301C30.272 217.379 30.1012 217.491 29.9443 217.55C29.6932 217.644 29.672 217.762 29.7675 218.534C29.8272 219.017 29.9408 219.585 30.0201 219.795C30.2846 220.499 30.2238 221.193 29.8638 221.58C29.6028 221.861 29.5492 222.048 29.6305 222.391C29.6885 222.636 29.797 222.915 29.8714 223.011C30.0677 223.265 30.8985 223.4 31.2133 223.23C31.5275 223.06 32.1428 223.416 32.1428 223.769C32.1428 224.197 31.6523 225.437 31.3555 225.759C31.1121 226.023 30.8987 226.08 30.2588 226.051C28.8538 225.99 28.7846 226.037 28.8824 226.995C28.9546 227.701 28.9142 227.898 28.6124 228.311L28.2576 228.796L28.5415 229.917C28.932 231.459 29.0541 231.692 29.6763 232.081C30.562 232.634 30.7964 232.941 30.6941 233.412C30.6439 233.643 30.4509 233.899 30.2651 233.982C30.0793 234.065 29.7462 234.481 29.5248 234.907C29.3034 235.332 29.0098 235.703 28.8723 235.731C28.7349 235.758 28.6224 235.845 28.6224 235.924C28.6224 236.003 28.3574 236.067 28.0336 236.067C27.1334 236.067 26.794 235.673 26.6191 234.424C26.4257 233.044 26.0644 231.487 25.8396 231.066C25.7404 230.881 25.6738 230.502 25.6916 230.226C25.7093 229.949 25.6664 229.723 25.5962 229.723C25.526 229.723 25.3446 229.374 25.193 228.948C24.8749 228.054 24.335 227.76 23.9511 228.273C23.7044 228.602 23.6446 230.032 23.8775 230.032C23.9617 230.032 24.0306 230.272 24.0306 230.565C24.0306 230.858 24.0941 231.137 24.1718 231.186C24.2495 231.234 24.3548 231.466 24.4057 231.7C24.4566 231.935 24.7375 232.39 25.0297 232.713C25.322 233.035 25.5612 233.396 25.5612 233.514C25.5612 233.632 25.6401 233.777 25.7365 233.838C25.8456 233.906 25.7153 234.05 25.3921 234.22C25.1063 234.369 24.8035 234.438 24.7193 234.371C24.6351 234.305 24.3157 234.205 24.0095 234.15C23.4618 234.05 23.451 234.058 23.3487 234.632C23.2522 235.174 23.0725 240.058 23.0709 242.18C23.0695 244.154 23.4477 246.885 23.9176 248.292C24.0454 248.675 24.1953 249.198 24.2506 249.453C24.306 249.708 24.387 250.039 24.4308 250.188C24.5049 250.44 24.2771 250.459 21.1176 250.459H17.7248L18.0561 249.891Z" fill="#F4A740" stroke="#242424" stroke-width="1.5"/>
<path d="M88.1633 248.529C88.1633 247.952 88.1071 247.765 87.9337 247.765C87.8074 247.765 87.7041 247.661 87.7041 247.535C87.7041 247.409 87.6008 247.306 87.4745 247.306C87.3482 247.306 87.2449 247.371 87.2449 247.451C87.2449 247.531 86.8348 247.677 86.3335 247.776C85.8322 247.874 85.3069 248.082 85.1662 248.237C84.6141 248.847 83.8252 247.836 84.0552 246.814C84.1291 246.485 84.1498 246.151 84.1011 246.073C84.0524 245.994 83.6424 245.929 83.1901 245.929C82.502 245.929 82.3517 245.879 82.2704 245.624C82.126 245.169 82.3103 244.753 82.8152 244.394C83.1026 244.189 83.2653 243.938 83.2653 243.7C83.2653 243.495 83.4319 243.183 83.6356 243.006C84.4437 242.304 84.185 241.304 83.2771 241.62C82.9139 241.747 82.7788 241.721 82.5148 241.475C82.3383 241.311 82.1941 240.99 82.1945 240.762C82.1949 240.413 82.307 240.301 82.8959 240.059C83.2813 239.901 83.6328 239.677 83.677 239.562C83.7211 239.447 83.8509 239.353 83.9653 239.353C84.3146 239.353 85.316 238.836 85.5944 238.512C85.9053 238.15 85.9446 237.616 85.676 237.404C85.5708 237.32 85.2747 237.248 85.0181 237.243C84.3746 237.23 83.24 236.771 82.9413 236.401C82.8021 236.229 82.7302 235.956 82.7771 235.777C82.8578 235.468 82.9587 235.314 83.3968 234.83C83.5113 234.704 83.5725 234.431 83.5329 234.224C83.4933 234.017 83.5201 233.847 83.5927 233.847C83.6652 233.847 83.7245 233.757 83.7245 233.646C83.7245 233.536 83.9311 233.248 84.1837 233.006C84.761 232.453 84.775 232.078 84.2235 231.94C83.4307 231.741 83.3453 231.062 84.0306 230.406C84.2832 230.164 84.4898 229.852 84.4898 229.713C84.4898 229.573 84.5982 229.242 84.7306 228.976C85.0325 228.372 84.9641 227.972 84.5484 227.913C84.3286 227.881 84.1652 227.678 84.0298 227.268C83.8367 226.683 83.8452 226.653 84.3905 225.988C84.6977 225.614 84.9502 225.25 84.9516 225.18C84.955 225.013 85.5215 224.503 86.0969 224.149C86.8076 223.711 87.3972 222.96 87.3976 222.491C87.3978 222.26 87.3344 222.071 87.2566 222.071C87.1789 222.071 86.9107 221.899 86.6607 221.688C86.2345 221.33 86.2149 221.266 86.3482 220.673C86.5111 219.949 87.2363 218.4 87.4125 218.4C87.4773 218.4 87.5687 218.28 87.6154 218.132C87.7135 217.823 88.4862 217.444 89.0667 217.419C89.341 217.408 89.6672 217.601 90.1187 218.043L90.7731 218.683L90.672 220.12C90.5731 221.526 90.5792 221.564 90.9535 221.858C91.5297 222.311 91.8366 223.032 91.8376 223.937C91.8385 224.835 92.0839 225.894 92.2912 225.894C92.3649 225.894 92.5048 226.135 92.602 226.429C92.6993 226.724 92.8373 226.965 92.9088 226.965C93.166 226.965 93.1508 227.51 92.8791 228.033C92.5247 228.715 92.5306 228.886 92.9179 229.157C93.0916 229.278 93.591 229.712 94.0277 230.121C94.4643 230.53 94.9908 230.939 95.1977 231.03L95.5737 231.196L95.2358 231.485C94.979 231.705 94.898 231.941 94.898 232.472C94.898 233.434 94.4151 233.72 92.7393 233.749C91.7415 233.767 91.5127 233.817 91.444 234.032C91.313 234.444 91.649 234.918 92.0717 234.918C92.2792 234.918 92.449 234.98 92.449 235.057C92.449 235.295 93.6943 235.437 93.8319 235.215C93.8999 235.105 94.2083 235.029 94.54 235.041C95.603 235.078 96.0559 236.204 95.2794 236.878C95.0683 237.062 94.8101 237.212 94.7055 237.213C94.2868 237.215 93.3673 237.542 93.3673 237.689C93.3673 238 93.8092 238.276 94.4619 238.373C95.2309 238.487 95.8163 238.807 95.8163 239.114C95.8163 239.232 95.8944 239.353 95.9898 239.385C96.0852 239.417 95.8441 239.575 95.4541 239.735C94.7371 240.031 94.5443 240.356 94.9859 240.526C95.1597 240.592 95.1989 240.729 95.1266 241.017C94.9605 241.678 94.7925 241.788 94.2002 241.625C93.6384 241.47 93.3673 241.544 93.3673 241.853C93.3673 242.096 94.1644 242.565 94.5793 242.565C94.7568 242.565 95.0217 242.629 95.1679 242.706C95.3141 242.784 95.5558 242.886 95.705 242.932C96.0928 243.053 96.1795 243.399 95.9439 243.886C95.752 244.282 95.687 244.305 94.8597 244.266C94.0944 244.23 93.9799 244.261 93.9817 244.504C93.9855 245.028 94.1682 245.471 94.3801 245.471C94.7081 245.471 94.6301 246.027 94.2474 246.419C94.0487 246.622 93.7124 246.774 93.4522 246.779C93.0153 246.787 92.449 246.394 92.449 246.082C92.449 245.785 92.009 245.934 91.9033 246.267C91.8238 246.517 91.8804 246.66 92.1225 246.821C92.5289 247.09 92.566 247.835 92.1811 247.999C92.0338 248.061 91.6722 248.126 91.3775 248.142C90.1491 248.208 90.1718 248.198 90.0664 248.759L89.9659 249.294H89.0646H88.1633V248.529Z" fill="#F4A740" stroke="#242424" stroke-width="1.5"/>
<path d="M39.5 117.5C40.6667 116.833 44.1 114.9 48.5 112.5H53L62.5 120.5L67 124.5L68.5 130.5L61 131.5L57.5 132.5L56.5 134L50 131.5L43.5 137.5L33 137L30.5 132L33.5 128.5L35.5 122L39.5 117.5Z" fill="#222222" stroke="#222222"/>
</g>
<defs>
<filter id="filter0_d" x="-4" y="0" width="113" height="268" filterUnits="userSpaceOnUse" color-interpolation-filters="sRGB">
<feFlood flood-opacity="0" result="BackgroundImageFix"/>
<feColorMatrix in="SourceAlpha" type="matrix" values="0 0 0 0 0 0 0 0 0 0 0 0 0 0 0 0 0 0 127 0" result="hardAlpha"/>
<feOffset dy="4"/>
<feGaussianBlur stdDeviation="2"/>
<feComposite in2="hardAlpha" operator="out"/>
<feColorMatrix type="matrix" values="0 0 0 0 0 0 0 0 0 0 0 0 0 0 0 0 0 0 0.25 0"/>
<feBlend mode="normal" in2="BackgroundImageFix" result="effect1_dropShadow"/>
<feBlend mode="normal" in="SourceGraphic" in2="effect1_dropShadow" result="shape"/>
</filter>
</defs>
</svg>
