<svg width="105" height="259" viewBox="0 0 105 259" fill="none" xmlns="http://www.w3.org/2000/svg">
<g clip-path="url(#clip0)">
<g filter="url(#filter0_d)">
<path d="M29.4144 259.724C29.2386 259.602 28.8281 259.456 28.5023 259.4C28.1764 259.345 27.768 259.189 27.5949 259.054C27.4217 258.919 26.7679 258.718 26.142 258.608C25.158 258.436 24.9482 258.27 24.5915 257.381C24.3141 256.69 23.9005 256.234 23.3291 255.989C22.8616 255.789 22.4312 255.685 22.3725 255.758C22.3138 255.831 21.3291 255.902 20.1842 255.916C18.5929 255.935 18.0016 255.828 17.6736 255.458C17.4285 255.182 17.1148 255.074 16.9422 255.207C16.7759 255.335 16.096 255.471 15.4314 255.508C14.5192 255.56 14.187 255.46 14.0765 255.102C13.967 254.747 13.8498 254.71 13.6107 254.957C13.3861 255.189 13.151 255.194 12.8192 254.973C12.5595 254.8 11.7976 254.725 11.126 254.807C10.392 254.896 9.84116 254.827 9.74501 254.634C9.63352 254.409 7.98711 254.792 7.74674 255.041C7.25025 255.554 0.727654 256.069 0.0141373 255.514C-0.57489 255.056 3.87706 254.659 5.16662 253.633C6.25062 252.769 8.09386 251.382 9.14401 251.406C10.21 251.43 10.4806 251.32 10.8694 250.703C11.868 249.118 12.4709 247.032 12.6926 244.396C12.7692 243.485 12.9688 242.497 13.136 242.199C13.3676 241.788 13.4065 240.205 13.299 235.567C13.2213 232.217 13.174 228.594 13.1938 227.516C13.2137 226.439 13.2312 224.065 13.2327 222.242C13.2362 217.935 13.2376 217.592 13.2795 210.487C13.2991 207.171 13.2363 204.22 13.14 203.929C13.0437 203.638 13.0486 202.892 13.151 202.271C13.2533 201.651 13.3318 200.906 13.3255 200.616C13.3192 200.326 13.302 199.319 13.2872 198.378L13.2603 196.668L12.6447 197.387C12.1001 198.024 11.9692 198.061 11.5102 197.704C11.0262 197.328 10.8622 197.466 9.0747 199.764C7.17482 202.207 6.66505 202.539 6.53307 201.421C6.4874 201.034 7.11012 200.044 8.40966 198.437C9.47939 197.115 10.3546 195.882 10.3546 195.696C10.3546 195.255 11.1992 194.308 11.3855 194.539C11.4648 194.638 11.697 194.316 11.9017 193.823C12.1064 193.331 12.4369 192.849 12.6363 192.754C12.8876 192.634 12.9792 192.23 12.935 191.437C12.8999 190.807 12.9634 190.053 13.0761 189.761C13.2201 189.387 13.1879 189.253 12.968 189.309C12.7958 189.353 12.6005 189.53 12.5339 189.703C12.3086 190.288 8.63316 194.361 8.33047 194.361C7.94133 194.361 7.44894 193.744 7.44894 193.257C7.44894 193.047 7.77583 192.412 8.17535 191.846C8.57488 191.279 8.90177 190.732 8.90177 190.629C8.90177 190.19 7.96991 190.496 7.54971 191.074C6.83485 192.057 6.26121 192.349 5.85955 191.934C5.6683 191.737 5.51182 191.468 5.51182 191.338C5.51182 191.208 6.22008 190.408 7.08572 189.561C7.95137 188.715 8.65963 188.096 8.65963 188.188C8.65963 188.279 9.16556 187.637 9.78392 186.761C10.4023 185.885 11.4374 184.719 12.0842 184.169C12.9492 183.435 13.2603 182.976 13.2603 182.436C13.2603 181.555 13.0168 181.514 12.268 182.268C11.8252 182.715 11.6147 182.763 11.2726 182.497C10.9486 182.245 10.7188 182.253 10.3642 182.529C10.1031 182.732 9.72264 182.818 9.51873 182.721C9.30624 182.619 9.08756 182.74 9.00642 183.003C8.82531 183.591 6.37316 185.094 5.81458 184.96C5.55078 184.897 5.39075 184.584 5.39075 184.133C5.39075 183.575 5.66559 183.218 6.57599 182.595C7.22787 182.148 7.95644 181.461 8.19505 181.067C8.58398 180.425 8.59087 180.299 8.26174 179.846C7.9748 179.451 7.95358 179.204 8.16458 178.713C8.31306 178.368 8.54777 178.085 8.68614 178.085C8.82452 178.085 9.56564 177.34 10.3331 176.429C11.1005 175.517 11.7832 174.84 11.8501 174.923C11.9171 175.007 12.163 174.812 12.3967 174.491C12.6303 174.169 12.9475 173.966 13.1014 174.04C13.2698 174.12 13.3872 173.842 13.396 173.341C13.4041 172.884 13.4761 172.069 13.5563 171.531C13.6364 170.993 13.6119 170.484 13.5019 170.399C13.3918 170.315 12.8294 170.854 12.252 171.598C11.6745 172.342 11.0438 172.954 10.8504 172.956C10.657 172.956 10.1585 173.372 9.74268 173.874C9.16555 174.57 8.68099 174.831 7.69524 174.976C6.9326 175.088 6.22124 175.394 5.95784 175.722C5.42516 176.385 4.34064 176.454 4.15054 175.838C3.99107 175.32 6.26661 172.358 6.82354 172.358C7.02496 172.358 7.30639 172.087 7.44894 171.756C7.59148 171.424 7.87782 171.153 8.08524 171.153C8.53733 171.153 10.752 169.074 10.9572 168.457C11.0782 168.093 11.0308 168.096 10.6677 168.476C10.0322 169.141 9.55632 169.003 9.1881 168.047C8.97008 167.481 8.76904 167.289 8.57948 167.466C8.42381 167.612 8.03484 167.721 7.71513 167.709C6.83304 167.675 6.85472 166.661 7.76368 165.439C8.18987 164.866 8.37174 164.553 8.16784 164.743C7.96394 164.933 7.4736 165.162 7.07821 165.251C6.68282 165.34 6.01353 165.645 5.59093 165.928C4.95176 166.356 4.75834 166.376 4.44076 166.048C4.23078 165.831 4.05898 165.553 4.05898 165.43C4.05898 165.307 4.65754 164.419 5.38912 163.456C6.1207 162.493 6.69276 161.679 6.66035 161.648C6.62795 161.616 5.81313 161.699 4.84964 161.832C3.50225 162.017 2.89642 162.264 2.22537 162.901C2.22537 162.901 2.5307 161.314 1.1619 160.565L1.92753 161.041C2.34863 161.302 2.62006 161.425 2.5307 161.314C2.28614 161.009 2.84789 160.303 3.33439 160.303C3.56912 160.303 3.92578 159.99 4.12695 159.608C4.32813 159.226 4.94152 158.729 5.49004 158.503C6.03855 158.278 6.60809 157.912 6.75566 157.691C6.90324 157.47 7.16074 157.289 7.3279 157.289C7.49505 157.289 7.76746 157.085 7.93324 156.836C8.09904 156.588 8.4457 156.384 8.70361 156.384C8.96152 156.384 9.10932 156.257 9.03207 156.102C8.95483 155.946 9.0846 155.679 9.32046 155.508C9.65574 155.265 9.47842 155.195 8.50771 155.188C7.67427 155.178 7.1637 155.332 6.95453 155.646C6.55226 156.249 5.41947 156.094 5.31701 155.421C5.26777 155.097 5.5788 154.637 6.16243 154.171C6.67027 153.765 7.54464 152.876 8.1055 152.196C8.82713 151.321 9.33166 150.959 9.83136 150.959C10.2197 150.959 10.6789 150.747 10.8518 150.488C11.049 150.192 11.3724 150.081 11.7193 150.189C12.11 150.311 12.3446 150.199 12.5184 149.789C12.717 149.328 12.6722 149.187 12.286 149.061C12.0016 148.969 11.8075 148.65 11.8075 148.275C11.8075 147.928 11.7193 147.644 11.6116 147.644C11.339 147.644 10.4266 148.526 10.687 148.538C11.1465 148.559 10.2621 149.452 9.78018 149.454C9.49684 149.454 8.95291 149.658 8.57145 149.906C7.38165 150.678 5.75399 150.309 5.75399 149.267C5.75399 148.738 7.98067 146.012 8.49258 145.915C8.60046 145.895 9.27161 145.258 9.98404 144.5C10.6965 143.742 11.3792 143.123 11.5012 143.123C11.6232 143.123 11.9715 142.793 12.2752 142.391C12.6973 141.832 12.7357 141.676 12.4385 141.73C12.2247 141.77 11.8897 142.065 11.6942 142.387C11.4986 142.709 11.3351 142.867 11.3309 142.738C11.3177 142.336 9.83128 143.442 8.94637 144.512C8.10368 145.531 7.74527 145.675 6.34835 145.561C5.86635 145.522 5.45499 145.715 5.16066 146.12C4.913 146.461 4.49067 146.739 4.22215 146.739C3.95364 146.739 3.53873 146.959 3.30014 147.228C2.76528 147.831 2.12189 147.571 2.12189 146.753C2.12189 146.418 2.73846 145.24 3.49203 144.134C4.85971 142.127 4.86082 142.124 4.1129 142.31C3.10452 142.561 2.10897 141.628 2.50832 140.806C2.65427 140.505 3.10081 140.123 3.50062 139.957C3.90043 139.791 4.41444 139.462 4.64286 139.226C5.02806 138.828 5.02904 138.777 4.65636 138.517C4.39612 138.336 4.16036 138.355 3.98729 138.57C3.58554 139.07 2.61172 138.97 2.43933 138.411C2.35593 138.14 2.42273 137.649 2.58788 137.32C2.80322 136.891 2.81403 136.63 2.62608 136.396C2.18962 135.852 2.31461 135.62 3.55128 134.672C4.20425 134.172 4.80013 133.563 4.87545 133.319C4.95075 133.075 5.1352 132.875 5.28529 132.875C5.43539 132.875 5.86756 132.6 6.24568 132.265C6.6238 131.93 7.022 131.68 7.13055 131.71C7.23911 131.74 7.49137 131.681 7.69114 131.581C7.89091 131.48 8.31821 131.357 8.64072 131.307C9.33988 131.2 9.58904 130.541 9.0314 130.275C8.79426 130.162 8.51062 130.301 8.32159 130.622C8.11465 130.975 7.89249 131.07 7.67341 130.902C7.49007 130.761 7.06493 130.638 6.72865 130.63C6.28375 130.618 6.09616 130.429 6.03986 129.936C5.94086 129.068 5.7167 129.082 4.82962 130.012C4.43394 130.426 3.94994 130.765 3.75407 130.765C3.5582 130.765 3.12088 131.037 2.78227 131.368C1.6424 132.484 0.66909 131.988 0.66909 130.29C0.66909 129.132 1.17956 128.534 2.00071 128.729C2.5098 128.85 2.75614 128.623 3.51519 127.333C4.77614 125.19 5.29353 124.135 5.08459 124.133C4.98666 124.133 5.23343 123.791 5.63296 123.376C6.03249 122.96 6.23406 122.656 6.08091 122.699C5.92776 122.743 5.79871 122.643 5.79412 122.477C5.78952 122.311 5.94209 122.215 6.13312 122.264C6.32415 122.313 6.48045 122.211 6.48045 122.038C6.48045 121.623 6.08815 121.639 5.43543 122.081C4.56702 122.668 2.16357 122.731 1.49247 122.183C0.250656 121.17 1.16955 119.613 3.00901 119.613C3.57081 119.613 4.09781 119.478 4.18012 119.312C4.26242 119.146 4.47839 119.01 4.66006 119.01C4.84172 119.01 5.32139 118.598 5.72598 118.095L6.4616 117.179L5.62088 117.375C4.24807 117.696 3.6976 116.716 4.36529 115.14C4.68571 114.383 7.23377 113.116 7.84628 113.409C8.02969 113.496 8.31499 113.288 8.48027 112.946C8.64555 112.604 9.37057 111.794 10.0914 111.146C11.3746 109.993 11.3645 109.783 10.0341 109.956C9.77292 109.99 9.54117 109.769 9.46691 109.416C9.39785 109.087 9.1335 108.751 8.87946 108.668C8.34486 108.494 8.26402 107.488 8.74472 106.991C8.92465 106.805 9.38776 106.623 9.77382 106.586C10.1638 106.548 10.6719 106.213 10.9171 105.832C11.1598 105.454 11.6165 105.146 11.9319 105.146C12.2473 105.146 12.5565 105.043 12.6189 104.917C12.6814 104.791 12.2932 104.689 11.7562 104.691C10.401 104.691 9.98618 103.913 10.5572 102.433C10.867 101.63 11.1206 101.371 11.62 101.348C11.9808 101.33 12.4258 101.163 12.6088 100.974C12.7919 100.785 13.0209 100.728 13.1176 100.849C13.4414 101.252 14.2181 99.5845 14.2235 98.4745C14.2299 97.1798 13.5297 96.7029 13.044 97.6711C12.8833 97.9913 12.6211 98.1969 12.4613 98.1277C12.3015 98.0587 11.9186 98.2453 11.6105 98.5429C11.3023 98.8404 10.9112 99.0174 10.7412 98.9362C10.5713 98.8548 10.2925 98.9986 10.1217 99.2544C9.95087 99.5107 9.60652 99.7203 9.35648 99.7203C9.10643 99.7203 8.92908 99.8899 8.96238 100.097C9.00253 100.347 8.77348 100.445 8.28194 100.387C7.77952 100.328 7.39713 100.498 7.09425 100.914C6.49117 101.744 5.4003 101.712 4.91564 100.85C4.60791 100.303 4.32681 100.182 3.46293 100.224C1.70205 100.308 1.35966 98.8934 3.01588 98.376C3.36345 98.2675 3.86416 97.8362 4.12858 97.4177C4.46145 96.891 4.76289 96.7069 5.10854 96.8195C5.38311 96.9087 5.73093 96.8549 5.88146 96.6993C6.032 96.5437 6.58248 96.306 7.10476 96.1709C7.62704 96.0358 8.05435 95.7958 8.05435 95.6374C8.05435 95.1163 6.89092 95.1321 5.61871 95.67C4.30319 96.2266 3.57477 96.1206 3.57477 95.3726C3.57477 95.1265 3.86018 94.6814 4.20902 94.3836C4.55786 94.0857 5.07545 93.563 5.35919 93.2221C6.65948 91.6595 8.08065 90.6629 8.89112 90.7453C9.93322 90.8512 10.0904 90.2995 9.28342 89.3685C8.56331 88.5378 8.51089 88.0619 9.03664 87.1274C9.24397 86.7591 9.3101 86.4576 9.18362 86.4576C9.05714 86.4576 8.89094 86.6611 8.81428 86.9097C8.65652 87.4214 7.63848 87.5093 6.97642 87.0681C6.734 86.9067 6.30899 86.2963 6.03194 85.7118C5.75487 85.1273 5.37442 84.6491 5.18647 84.6491C4.99852 84.6491 4.70739 84.4432 4.53953 84.1913C4.28976 83.8167 4.31318 83.6251 4.66848 83.1364C4.90727 82.808 5.28983 82.5393 5.51862 82.5393C6.36958 82.5393 8.1822 81.2776 9.26168 79.9339C10.3907 78.5285 10.6127 77.6295 9.51331 78.9152C9.0416 79.4668 8.84414 79.5394 8.57417 79.2606C8.05829 78.7276 8.11232 76.4831 8.65848 75.758C9.11048 75.158 9.10281 75.1546 7.19528 75.1205C5.401 75.0879 4.5433 74.748 4.5433 74.0681C4.5433 73.9254 5.06087 73.4819 5.69347 73.0826C6.32606 72.6833 7.06155 72.0522 7.32791 71.6801C7.59426 71.3079 8.13693 70.8312 8.53384 70.6207C9.22932 70.2518 9.20738 70.2395 7.92849 70.2787C6.61024 70.319 6.60149 70.3132 6.60149 69.4217C6.60149 68.9176 6.41567 68.3511 6.17775 68.13C5.94469 67.9134 5.75401 67.5432 5.75401 67.3072C5.75401 66.8656 7.40649 65.6604 8.01202 65.6604C8.19913 65.6604 8.6405 65.3782 8.99283 65.0333L9.63343 64.406L9.08602 63.8317L8.5386 63.2575L9.13719 62.6741C9.46641 62.3533 9.79449 62.1359 9.86627 62.1912C10.0718 62.3492 10.8649 61.5378 10.7875 61.2486C10.7492 61.1056 10.8268 60.9887 10.96 60.9887C11.0932 60.9887 11.1786 61.0769 11.1499 61.1839C11.1211 61.2912 11.3106 61.3097 11.5709 61.2251C12.2542 61.0027 11.9321 60.5919 10.891 60.3582C9.63113 60.0753 9.58529 60.0074 9.99234 59.0276C10.4569 57.9093 10.4682 57.949 9.68877 57.9629C9.13737 57.9725 9.02289 57.8452 9.02289 57.2213C9.02289 55.9886 8.69265 55.5837 8.16872 56.1739C7.89986 56.4767 7.53671 56.5981 7.24457 56.4827C6.97987 56.3781 6.69324 56.4338 6.60758 56.6062C6.52192 56.7787 6.20766 56.9199 5.90921 56.9199C5.61076 56.9199 5.26307 57.04 5.13655 57.187C5.01003 57.3339 4.1115 57.7617 3.13982 58.1376C1.78123 58.6631 1.30705 58.7388 1.08707 58.465C0.675301 57.9524 1.08307 57.2626 2.50335 56.0669C3.1592 55.5149 3.73214 54.9385 3.77653 54.7859C3.92538 54.2745 3.24838 54.5021 2.69465 55.1496C1.98875 55.9751 1.48846 55.7209 1.33131 54.4572C1.23872 53.7129 1.33531 53.2786 1.70642 52.7756C1.98137 52.4025 2.32353 52.0968 2.46679 52.096C2.61004 52.0954 3.27207 51.5829 3.93795 50.9571C4.70172 50.2394 5.46004 49.7911 5.9922 49.7427C6.45614 49.7005 6.94102 49.5347 7.06972 49.3746C7.36014 49.0131 7.28111 49.0125 6.28409 49.365C5.63682 49.596 5.40433 49.5489 5.05649 49.1159C4.82048 48.8221 4.44502 48.4947 4.22213 48.3882C3.74794 48.1616 3.68159 47.1126 4.11956 46.7664C4.28603 46.6348 5.02154 46.5136 5.75401 46.4969C7.17567 46.4643 9.3861 45.3871 9.3861 44.7262C9.3861 44.5233 9.93092 43.7152 10.5968 42.9304C11.8196 41.4892 12.0527 40.765 11.5109 40.0904C11.2768 39.7991 11.2804 39.5896 11.5277 39.0966C11.7 38.753 11.779 38.3948 11.7032 38.3004C11.6274 38.2064 11.5654 38.2678 11.5654 38.4372C11.5654 38.6069 10.9744 39.2231 10.2522 39.8066C9.31436 40.5643 8.86442 40.7748 8.67825 40.5431C8.16656 39.9061 8.5671 37.9399 9.21302 37.9178C9.63041 37.9035 10.5968 36.8476 10.5968 36.4058C10.5968 36.2019 10.4167 35.8712 10.1966 35.6709C9.6889 35.2088 9.94425 34.6755 10.9285 34.1424C12.0574 33.5308 11.2615 33.6239 9.76554 34.2785C8.82338 34.6906 8.3888 34.7575 8.19768 34.5195C7.68313 33.879 7.9463 33.1825 9.0229 32.3354C9.62219 31.8639 10.1125 31.3981 10.1125 31.3003C10.1125 31.2025 9.81287 31.1278 9.44664 31.1344C8.82565 31.1459 8.779 31.0586 8.75472 29.8469C8.73325 28.7749 8.83527 28.4586 9.33813 28.0385C10.1079 27.3954 11.8075 25.2045 11.8075 24.8553C11.8075 24.7105 11.6441 24.7613 11.4443 24.9674C11.2445 25.1737 11.0811 25.2551 11.0811 25.148C11.0811 25.041 10.8241 25.1634 10.5099 25.4193C10.001 25.8344 9.90565 25.8355 9.63538 25.4298C9.14684 24.6971 9.53301 23.6609 10.7004 22.5721C11.2991 22.0137 11.7271 21.4321 11.6514 21.2797C11.1505 20.2707 11.6399 17.9853 12.2555 18.4589C12.6555 18.7666 13.3251 16.1597 13.2934 14.4178C13.2768 13.5061 13.3488 12.2854 13.4533 11.7052C13.6071 10.8517 13.7564 10.6502 14.2355 10.6502C14.6376 10.6502 14.8551 10.8436 14.9132 11.253C14.9603 11.5846 15.2303 12.0818 15.5132 12.358C15.9771 12.8108 15.9952 12.9353 15.6971 13.6286C15.4279 14.2546 15.4241 14.4835 15.6763 14.8618C15.9036 15.2027 15.9419 15.9575 15.82 17.697L15.6538 20.0676L16.2517 19.9253C17.1444 19.7129 17.6157 21.0574 17.0464 22.1923C16.9381 22.408 16.9681 22.7582 17.1134 22.9762C17.5132 23.5758 17.4797 25.542 17.0608 26.0634C16.8164 26.3677 16.854 26.8406 17.1071 26.6458C17.4433 26.3872 17.8734 27.2241 17.8033 28.0006C17.7491 28.6008 17.861 28.7168 18.5688 28.795C19.0248 28.8458 19.5864 29.099 19.8169 29.3587C20.1694 29.7557 20.3163 29.7682 20.7415 29.4373C21.1884 29.0898 21.3241 29.1403 21.9119 29.8721C22.7286 30.8885 22.5693 31.3266 20.8752 32.7239C19.8911 33.5355 19.6837 33.8671 19.641 34.6968C19.5929 35.6333 19.6367 35.693 20.3598 35.6757C20.7833 35.6652 21.2621 35.5527 21.4237 35.4249C21.5967 35.288 21.9204 35.445 22.2107 35.8062C22.4819 36.1438 22.7038 36.3356 22.7038 36.2324C22.7038 36.1293 22.8591 36.2056 23.049 36.4015C23.2389 36.5976 23.5385 36.7249 23.7149 36.6843C23.8912 36.644 24.4575 36.8389 24.9731 37.1181C25.4888 37.3972 26.0475 37.6257 26.2147 37.6257C26.3819 37.6257 26.656 37.8317 26.8239 38.0834C27.3452 38.8653 26.4633 39.7715 25.2568 39.6937C24.4211 39.64 22.9459 40.3589 22.9459 40.82C22.9459 40.8814 23.5053 41.2838 24.1889 41.715C25.4066 42.4832 26.8201 44.087 26.8201 44.7006C26.8201 44.8708 26.4266 45.401 25.9456 45.8787C25.086 46.7324 25.0568 46.7389 24.2424 46.2555C23.131 45.5958 23.0765 45.6263 23.6319 46.5971C24.0534 47.334 24.0705 47.5211 23.7798 48.2116C23.4579 48.9764 22.3362 50.0944 21.8563 50.129C21.7231 50.1386 21.3744 50.2523 21.0814 50.3818C20.7327 50.5359 20.2727 50.4412 19.7497 50.1079L18.9506 49.5986L19.677 50.4808C20.0765 50.9661 20.4797 51.3201 20.5729 51.2676C20.6661 51.2148 20.86 51.4458 21.0039 51.7804C21.1477 52.1149 21.3983 52.356 21.5608 52.3162C21.8908 52.2357 21.9481 53.9257 21.6521 55.0067C21.4968 55.5736 21.554 55.6487 22.0854 55.5761C22.5466 55.5128 22.8613 55.7608 23.3615 56.5808C23.7267 57.1794 24.3546 58.0466 24.7569 58.5078L25.4884 59.3465L24.9719 60.4598C24.6178 61.2233 24.2821 61.5754 23.9035 61.5803C23.191 61.5899 22.9846 62.3312 23.6355 62.5432C23.9097 62.6324 24.2949 63.0111 24.4916 63.3846C24.706 63.792 25.1922 64.1331 25.7067 64.2369C26.686 64.4348 28.7573 66.093 28.7573 66.6792C28.7573 67.1318 27.9502 68.1159 27.6374 68.0446C27.5208 68.0178 27.2724 68.012 27.0853 68.0322C26.8028 68.0619 26.8079 68.1573 27.1152 68.5953C27.5895 69.2714 27.8876 71.2717 27.5525 71.5294C27.4144 71.6357 26.8663 71.7301 26.3344 71.7392C25.8025 71.7488 25.3673 71.8168 25.3673 71.892C25.3673 71.9668 25.6717 72.5952 26.0437 73.2881C27.2828 75.5963 27.3834 76.1263 26.8039 77.2935C26.2063 78.4971 25.53 79.0234 24.9007 78.7747C24.5891 78.6517 24.0414 79.0374 23.1051 80.0391C21.912 81.3156 21.8034 81.5235 22.156 81.8573C22.375 82.0645 22.7525 82.234 22.9948 82.234C23.7271 82.234 25.6695 83.5096 25.7867 84.0675C25.847 84.3546 26.1042 84.6571 26.3582 84.7399C26.959 84.9353 26.9496 85.913 26.3404 86.5993C25.9478 87.0415 25.7938 87.0707 25.4929 86.7597C25.2906 86.5509 25.1252 86.0741 25.1252 85.7001C25.1252 85.3263 24.989 84.8854 24.8225 84.7203C24.4599 84.3609 21.4492 83.3937 21.2941 83.5869C21.0428 83.8996 22.0782 85.3313 22.8437 85.7294C23.7593 86.2056 23.8904 86.8362 23.294 87.8961C22.9443 88.5176 22.9552 88.6375 23.4377 89.4809C23.9686 90.409 23.9392 91.2799 23.3772 91.2716C23.2066 91.2716 22.6479 91.0855 22.1357 90.8636C20.7999 90.2846 19.698 90.6222 19.6023 91.6396C19.5271 92.4382 19.8134 92.5847 20.4629 92.0797C20.6476 91.936 20.9761 92.1229 21.3104 92.561C21.6106 92.9548 22.4011 93.7331 23.067 94.2907C24.9132 95.8367 27.6675 98.687 28.089 99.4877C28.3504 99.9843 28.3953 100.358 28.2361 100.713C27.9245 101.406 27.1332 101.356 26.7641 100.62C26.5978 100.288 25.8614 99.5133 25.1276 98.8974C24.3938 98.2815 23.4801 97.4621 23.0971 97.0762C21.9248 95.8954 22.1067 96.5537 23.5294 98.6412C24.2739 99.7336 24.883 100.799 24.883 101.008C24.883 101.218 24.7155 101.687 24.5109 102.051C24.1606 102.673 24.1739 102.723 24.7352 102.899C25.5154 103.142 26.1906 104.09 26.0075 104.684C25.5639 106.123 24.2518 105.09 22.5795 101.986C22.0063 100.922 21.1534 99.5737 20.6841 98.9895L19.8309 97.9274L19.6643 99.5864C19.5352 100.873 19.5814 101.361 19.8698 101.761C20.1099 102.094 20.1936 102.587 20.1059 103.151C20.0187 103.711 20.0595 103.956 20.2198 103.832C20.3572 103.727 20.6036 103.842 20.7673 104.087C21.0079 104.447 20.9351 104.913 20.3872 106.518C19.6494 108.679 19.739 109.044 21.0088 109.054C21.6521 109.064 24.1342 110.137 24.4888 110.565C24.6049 110.705 24.8417 110.752 25.015 110.67C25.1883 110.587 25.4562 110.812 25.6102 111.17C26.0003 112.078 25.2839 113.092 24.4392 112.828C23.9663 112.68 23.8825 112.74 24.0049 113.137C24.0883 113.408 24.1566 113.694 24.1566 113.773C24.1566 113.852 24.2581 113.839 24.3822 113.743C24.5062 113.647 24.7786 113.874 24.9875 114.245C25.1964 114.616 25.3673 114.818 25.3673 114.694C25.3673 114.57 25.6888 114.675 26.0817 114.928C26.4746 115.181 27.0773 115.388 27.4211 115.388C27.7648 115.388 28.1111 115.6 28.1907 115.858C28.2703 116.116 28.4743 116.261 28.6439 116.18C28.8135 116.099 29.1386 116.202 29.3663 116.409C29.7538 116.762 29.7472 116.867 29.2639 118.046C28.8396 119.082 28.6239 119.307 28.0556 119.307C27.675 119.307 27.2291 119.105 27.0645 118.858C26.8999 118.611 26.6414 118.506 26.49 118.624C26.3386 118.742 26.1058 118.85 25.9726 118.864C25.5127 118.912 24.883 119.372 24.883 119.661C24.883 119.82 25.1062 119.862 25.3789 119.755C26.0164 119.503 26.578 120.087 26.578 121.002C26.578 121.555 26.7089 121.718 27.1537 121.718C27.4703 121.718 27.865 121.922 28.0308 122.17C28.1966 122.419 28.469 122.623 28.6362 122.623C28.8033 122.623 29.0798 122.832 29.2505 123.088C29.4592 123.401 29.7785 123.494 30.2256 123.372C31.0816 123.138 31.3065 123.608 30.9206 124.826C30.4545 126.297 29.7173 127.209 29.3232 126.802C29.1451 126.618 28.9994 126.272 28.9994 126.034C28.9994 125.796 28.9037 125.675 28.7867 125.765C28.6697 125.855 28.2577 125.732 27.8712 125.492C27.4848 125.252 26.9342 125.132 26.6479 125.225C26.0684 125.414 25.7439 126.121 26.1082 126.401C26.2378 126.501 26.2809 126.709 26.2042 126.864C26.1274 127.018 26.3163 127.272 26.624 127.428C26.9316 127.584 27.4489 128.07 27.7734 128.508C28.2833 129.196 28.3284 129.421 28.105 130.158C27.8821 130.893 27.9092 131.031 28.3018 131.159C28.5724 131.247 28.7572 131.574 28.7572 131.966C28.7572 132.72 27.9434 134.134 27.345 134.42C27.0183 134.576 27.0684 134.675 27.6071 134.939C27.9733 135.119 28.273 135.428 28.273 135.626C28.273 135.823 28.3475 135.892 28.4387 135.779C28.5298 135.665 28.9384 135.973 29.3467 136.463C29.9022 137.13 30.3632 137.378 31.1786 137.448C32.4649 137.559 32.6 138.038 31.6945 139.275C31.361 139.731 31.2136 140.104 31.367 140.104C31.5204 140.104 31.7603 139.838 31.9002 139.513C32.0533 139.156 32.3013 138.991 32.5231 139.097C32.7258 139.194 33.1055 139.032 33.3669 138.738C33.6283 138.443 33.8422 138.294 33.8422 138.407C33.8422 138.68 34.9383 137.798 36.1954 136.514C36.9879 135.705 37.1568 135.381 36.949 135.069C36.7476 134.767 36.789 134.519 37.1152 134.07C37.5312 133.498 37.5313 133.448 37.1193 132.882C36.853 132.515 36.7524 132.085 36.8551 131.752C36.9759 131.36 36.8358 131.427 36.3396 131.997C35.5525 132.903 32.7095 133.992 32.3386 133.531C31.7859 132.843 32.305 132.14 34.0203 131.254C34.9838 130.757 35.7283 130.295 35.6748 130.228C35.6212 130.162 35.2142 130.085 34.7703 130.057C34.1074 130.016 33.9665 129.889 33.981 129.347C33.9907 128.983 33.8818 128.712 33.7388 128.744C33.2156 128.86 33.4711 127.317 34.0329 126.968C34.3375 126.779 34.8551 126.311 35.1831 125.927C35.511 125.544 35.7793 125.348 35.7793 125.491C35.7793 125.634 35.9338 125.491 36.1225 125.168C36.3647 124.755 36.3916 124.472 36.214 124.206C35.9019 123.738 36.3051 123.069 37.2751 122.444C37.659 122.197 37.9586 121.755 37.9586 121.435C37.9586 121.075 38.4131 120.518 39.1957 119.918C39.8761 119.397 40.3888 118.916 40.3352 118.849C40.2815 118.782 39.6401 119.002 38.9097 119.337C37.8673 119.815 37.44 119.879 36.9227 119.634C35.453 118.938 36.5985 117.197 38.5258 117.197C39.8312 117.197 40.5094 116.472 39.8045 115.831C39.5646 115.612 39.1873 115.487 38.9661 115.552C38.7449 115.617 37.8239 115.891 36.9195 116.16C35.0969 116.702 34.5686 116.603 34.5686 115.717C34.5686 114.912 34.7995 114.783 36.4829 114.649C38.1113 114.52 39.2904 113.944 39.2904 113.278C39.2904 113.019 38.9869 112.768 38.5639 112.678C37.9177 112.54 37.8289 112.391 37.7593 111.329C37.691 110.287 37.7837 110.029 38.4857 109.304C38.9283 108.847 39.1606 108.469 39.002 108.465C38.8434 108.465 38.6463 108.592 38.5639 108.758C38.3064 109.277 36.5099 109.122 36.3386 108.566C35.9911 107.439 37.7098 106.013 39.7141 105.766C40.0447 105.725 39.9028 105.15 39.4114 104.538C39.1451 104.207 38.8727 103.935 38.8061 103.935C38.6089 103.935 38.6683 103.484 38.8666 103.475C39.2942 103.457 39.8485 102.835 39.932 102.281C39.9817 101.951 40.2261 101.633 40.4751 101.573C41.5597 101.313 42.9927 103.283 42.5061 104.366C42.2105 105.023 42.846 106.268 43.6783 106.662C44.1229 106.872 44.2669 107.134 44.2105 107.628C44.1427 108.222 44.2832 108.343 45.3439 108.607C46.3456 108.856 46.5546 109.02 46.5546 109.556C46.5546 109.912 46.8542 110.549 47.2204 110.973C47.9331 111.797 48.0886 112.796 47.5654 113.189C47.3889 113.321 47.1696 113.682 47.0782 113.991C46.9706 114.355 46.7522 114.501 46.4596 114.406C46.0751 114.281 46.0327 114.377 46.1768 115.047C46.3023 115.632 46.6193 115.954 47.3991 116.292C48.4962 116.766 48.7627 117.18 48.5066 118.011C48.3908 118.386 48.2875 118.42 48.0721 118.152C47.6339 117.606 47.402 117.733 47.402 118.517C47.402 119.51 46.9707 119.846 45.755 119.799C44.7186 119.759 44.7161 119.762 45.2707 120.274C46.8713 121.751 47.1599 122.114 47.1599 122.652C47.1599 122.985 46.898 123.387 46.5529 123.582C45.9745 123.911 45.9655 123.954 46.3611 124.498C46.6692 124.922 46.712 125.196 46.5271 125.561C46.1351 126.335 45.8225 126.321 45.0367 125.499C44.1214 124.54 43.7507 124.498 44.4564 125.433C44.7472 125.819 44.9145 126.222 44.8282 126.329C44.5663 126.655 45.9782 127.175 46.7271 127.028C47.2592 126.923 47.6299 127.11 48.2628 127.802C48.7216 128.303 49.097 128.989 49.097 129.325C49.097 130.127 48.1764 131.967 47.7752 131.967C47.6026 131.967 47.3377 132.152 47.1866 132.379C46.8338 132.908 47.4024 133.57 47.9747 133.297C49.0711 132.773 48.5146 135.922 47.3819 136.651C46.3314 137.328 46.4466 138.142 47.5949 138.158C48.8457 138.175 50.3077 139.548 50.3077 140.706C50.3077 141.473 49.9608 142.127 49.5208 142.189C49.4209 142.203 49.3119 142.224 49.2786 142.238C48.7612 142.435 48.2022 142.422 47.736 142.2C46.701 141.711 47.1109 142.473 48.221 143.102C48.8045 143.433 49.3397 143.891 49.4101 144.12C49.4847 144.362 50.0673 144.613 50.8037 144.722C52.1393 144.919 52.9713 145.58 52.9713 146.444C52.9713 147.113 52.4047 147.697 51.9612 147.485C51.7715 147.395 51.3573 147.664 51.0408 148.083C50.7244 148.502 50.2873 148.845 50.0696 148.845C49.852 148.845 49.4627 149.038 49.2045 149.272C48.8733 149.574 48.6459 149.607 48.4318 149.386C47.9351 148.873 48.0877 149.397 48.6324 150.075C49.1049 150.664 49.1112 150.737 48.7326 151.258C48.354 151.779 48.3565 151.808 48.7734 151.731C49.018 151.685 49.4447 151.831 49.7217 152.056C49.9987 152.281 50.2808 152.395 50.3487 152.311C50.4166 152.226 50.6699 152.429 50.9117 152.762C51.1535 153.094 51.5524 153.366 51.7981 153.366C52.4477 153.366 53.2334 154.45 53.05 155.093C52.8005 155.967 52.2005 156.682 51.7154 156.682C51.1381 156.682 50.8888 155.907 51.2783 155.322C51.5347 154.938 51.4356 154.882 50.5756 154.924C49.5414 154.975 49.0499 155.418 48.9282 156.41C48.8709 156.877 49.3184 157.204 49.6418 156.932C49.8364 156.769 50.792 157.677 50.792 158.025C50.792 158.255 50.3381 158.927 49.7833 159.518C48.794 160.572 48.7831 160.605 49.2185 161.204C49.5001 161.591 49.8291 161.748 50.1178 161.634C50.6282 161.433 51.2763 161.967 51.2763 162.589C51.2763 163.213 50.131 164.01 49.2779 163.979C48.7812 163.962 48.4022 164.156 48.1877 164.537C48.0068 164.858 47.6108 165.121 47.3076 165.121C47.0044 165.121 46.6746 165.223 46.5747 165.347C46.4749 165.472 46.1843 165.59 45.929 165.611C44.915 165.694 44.8908 165.77 45.7071 166.312C46.2838 166.695 46.6472 166.78 46.8445 166.577C47.004 166.413 47.4472 166.218 47.8293 166.143C48.7251 165.967 49.2644 166.693 49.479 168.364C49.6143 169.417 49.5688 169.667 49.2107 169.838C48.7928 170.038 48.0784 169.277 47.8197 168.357C47.7434 168.086 47.5878 168.125 47.2468 168.501C46.9694 168.806 46.2444 169.065 45.4675 169.136C44.0724 169.262 43.6305 169.721 44.547 170.091C44.8521 170.214 45.1562 170.345 45.2228 170.381C45.2894 170.418 45.5246 170.548 45.7455 170.67C45.9664 170.792 46.753 170.848 47.4934 170.794C48.2587 170.739 48.8628 170.827 48.8935 170.999C48.9231 171.164 49.3897 171.484 49.9302 171.708C50.4708 171.932 51.1037 172.326 51.3368 172.583C51.5699 172.841 51.7606 172.959 51.7606 172.846C51.7606 172.539 53.0512 173.43 53.9108 174.33C54.7453 175.204 54.8711 175.988 54.2758 176.603C53.9386 176.951 53.7904 176.874 53.1896 176.037C52.8069 175.504 52.4146 175.068 52.3179 175.068C52.2211 175.068 51.9199 175.41 51.6486 175.828C51.3772 176.246 50.9373 176.64 50.6709 176.704C50.4046 176.767 49.888 176.914 49.523 177.03C49.0629 177.177 48.8206 177.116 48.7331 176.833C48.6154 176.452 46.7033 176.214 46.6617 176.575C46.6153 176.978 46.9926 177.758 47.1685 177.623C47.2786 177.539 47.4341 177.601 47.5141 177.762C47.5942 177.923 47.8022 177.987 47.9764 177.904C48.1505 177.821 48.4279 177.955 48.5927 178.202C48.8107 178.529 49.0473 178.579 49.4602 178.383C50.1859 178.04 50.5746 178.571 50.2876 179.513C50.1741 179.886 49.9857 180.192 49.869 180.192C49.7524 180.192 49.0951 180.862 48.4084 181.682C47.4426 182.834 47.1599 183.379 47.1599 184.086C47.1599 184.729 46.98 185.147 46.5546 185.494C46.2216 185.765 45.9492 186.093 45.9492 186.222C45.9492 186.35 46.7677 186.418 47.7682 186.372C48.7686 186.326 49.65 186.416 49.7268 186.57C49.8079 186.734 50.0217 186.691 50.236 186.47C50.5426 186.153 50.68 186.203 51.0448 186.764C51.2865 187.136 51.5736 187.409 51.6829 187.371C52.0963 187.228 54.4102 187.756 54.543 188.024C54.6193 188.177 54.8425 188.226 55.0391 188.133C55.4359 187.943 56.6034 188.775 56.6034 189.248C56.6034 189.413 56.1696 190.134 55.6394 190.85C54.7885 191.999 54.5488 192.155 53.5972 192.173C53.0042 192.184 52.3211 192.012 52.0793 191.791C51.7078 191.452 51.5735 191.464 51.2148 191.867C50.8725 192.251 50.6729 192.278 50.1873 192.002C49.6218 191.681 49.6032 191.697 49.8856 192.262C50.0564 192.603 50.3962 192.828 50.6709 192.782C50.9897 192.728 51.1562 192.876 51.1581 193.212C51.1597 193.493 51.4736 194.129 51.8555 194.626C52.3129 195.22 52.496 195.703 52.3919 196.04C52.2583 196.474 52.013 196.524 50.7978 196.366C50.008 196.263 49.3016 196.299 49.2282 196.447C49.1549 196.595 48.7685 196.652 48.3698 196.574C47.7289 196.448 47.6518 196.512 47.705 197.128C47.7429 197.566 47.6305 197.839 47.402 197.864C47.2023 197.887 46.8895 197.921 46.707 197.94C46.5202 197.96 46.8186 198.511 47.3894 199.2C48.2258 200.211 48.3903 200.593 48.3267 201.379C48.2534 202.284 48.2922 202.332 49.0935 202.339C50.0996 202.349 50.3023 202.972 49.6815 204.151C49.4064 204.674 49.1374 204.873 48.8796 204.746C48.6662 204.64 48.3006 204.506 48.067 204.446C47.8335 204.387 47.5489 204.267 47.4346 204.179C47.3204 204.091 47.239 204.524 47.2539 205.141L47.281 206.264L46.261 206.164C44.8943 206.029 44.7262 206.218 45.1583 207.405C45.4669 208.253 45.6351 208.393 46.2738 208.338C47.6112 208.223 48.3497 209.177 47.557 209.996C47.3758 210.183 47.2756 210.649 47.3343 211.031C47.3964 211.435 47.281 211.891 47.0583 212.121C46.8478 212.338 46.6756 212.428 46.6756 212.321C46.6756 212.214 46.3559 212.332 45.9651 212.583L45.2546 213.04L45.365 220.467C45.4257 224.551 45.5411 228.025 45.6213 228.187C45.7016 228.348 45.8004 229.078 45.841 229.809C45.8815 230.54 45.9862 232.119 46.0735 233.319C46.3258 236.786 46.3992 238.019 46.5446 241.227C46.7082 244.837 46.7424 245.118 47.0816 245.642C47.2266 245.866 47.3168 246.753 47.2821 247.612C47.221 249.124 47.2599 249.228 48.4594 250.777C49.1418 251.658 49.8095 252.326 49.9433 252.262C50.0772 252.198 50.4625 252.122 50.7997 252.094C51.1368 252.067 51.5242 251.958 51.6605 251.853C52.1055 251.511 53.5554 251.706 54.5697 252.244C56.415 253.224 56.5346 252.069 54.7859 250.157C54.1349 249.446 53.7727 249.255 53.334 249.392C52.9398 249.515 52.5062 249.359 52.0028 248.913L51.2563 248.251L51.7182 247.277L52.1802 246.302L51.4461 246.025C50.2524 245.575 50.0808 244.875 50.9231 243.893C51.3171 243.434 51.7644 243.033 51.917 243.003C52.0697 242.972 52.4346 242.648 52.728 242.283C53.1054 241.814 53.4669 241.657 53.9642 241.748C54.4366 241.834 54.7982 241.696 55.0673 241.325C55.5048 240.724 56.2441 240.596 56.4847 241.081C56.5684 241.25 56.7259 241.319 56.8348 241.235C56.9437 241.152 57.1701 241.289 57.3379 241.541C57.5693 241.888 57.5781 242.176 57.3741 242.733C57.1157 243.439 57.134 243.461 57.8368 243.286C58.4497 243.133 58.591 243.211 58.7073 243.764C58.8413 244.402 58.868 244.392 59.4875 243.469C60.0703 242.6 60.1591 242.558 60.4598 243.009C60.7451 243.437 60.7181 243.601 60.2644 244.203C59.9748 244.586 59.6966 245.159 59.6462 245.475C59.5957 245.791 59.4734 246.445 59.3744 246.928C59.2183 247.69 59.2515 247.779 59.6245 247.601C60.2268 247.313 60.8154 247.954 60.4509 248.501C60.2998 248.727 60.2661 248.913 60.376 248.913C60.4859 248.913 60.1645 249.437 59.6619 250.078C58.7489 251.242 58.7605 251.46 59.7511 251.761C59.8177 251.781 60.0901 251.943 60.3565 252.12C60.9655 252.527 63.6606 252.445 65.0108 251.979C66.0117 251.634 67.8728 251.488 68.8274 251.68C69.6916 251.853 69.4374 250.272 68.177 247.635C67.5381 246.297 67.0153 245.084 67.0153 244.938C67.0153 244.434 66.2325 243.186 65.9164 243.186C65.7422 243.186 65.2644 242.835 64.8546 242.406C64.4449 241.977 64.1096 241.706 64.1096 241.805C64.1096 241.904 63.5648 241.508 62.8989 240.926C62.2331 240.343 61.6883 239.959 61.6883 240.072C61.6883 240.185 61.4431 239.998 61.1434 239.657C60.8438 239.316 60.2173 238.802 59.7511 238.514C59.285 238.227 58.6597 237.714 58.3615 237.375C57.7644 236.695 56.5815 236.391 56.6696 236.939C56.6997 237.127 56.4907 237.287 56.205 237.295C55.6298 237.31 54.6566 238.265 54.7363 238.736C54.7829 239.011 54.4397 239.184 53.4555 239.382C53.2557 239.422 52.6189 239.829 52.0403 240.287C50.9705 241.134 50.6842 241.12 50.6541 240.222C50.6251 239.359 50.0738 237.335 49.7032 236.732C49.3873 236.217 49.4022 236.047 49.8404 235.164L50.3321 234.174L49.7814 233.489C49.4785 233.112 48.9774 232.786 48.6679 232.766C47.8456 232.711 47.5435 232.228 47.8645 231.482C48.0395 231.075 48.0472 230.801 47.8869 230.678C47.7534 230.575 47.6441 230.25 47.6441 229.955C47.6441 229.659 47.3899 229.274 47.0792 229.097C45.9925 228.481 46.6837 226.935 48.1402 226.724C48.5542 226.663 49.0022 226.531 49.1357 226.428C49.2692 226.325 49.69 226.613 50.0708 227.067C50.5254 227.609 50.905 227.825 51.1767 227.695C51.5159 227.533 51.4097 227.325 50.5858 226.536C50.0333 226.008 49.5813 225.411 49.5813 225.209C49.5813 225.008 49.3906 224.606 49.1575 224.316C48.9245 224.027 48.7212 223.538 48.7059 223.23C48.6717 222.544 49.7244 221.456 50.2021 221.684C50.3933 221.775 50.5498 221.715 50.5498 221.549C50.5498 221.383 50.3864 221.17 50.1866 221.074C49.9868 220.979 49.8234 220.738 49.8234 220.538C49.8234 220.339 49.6342 219.915 49.4029 219.597C49.0024 219.047 49.0053 218.998 49.4634 218.581C49.7653 218.306 50.17 218.218 50.5498 218.345C51.6196 218.704 53.3052 218.467 53.8183 217.886C54.0849 217.584 54.5481 217.387 54.8478 217.449C55.1475 217.512 55.3926 217.427 55.3926 217.263C55.3926 217.098 55.3109 216.994 55.211 217.031C55.1112 217.069 54.7468 216.764 54.4014 216.353C53.7993 215.638 53.7481 215.388 53.6275 212.571C53.608 212.114 53.4674 211.975 53.1044 212.055C52.8312 212.114 52.2847 211.836 51.8887 211.434C51.2669 210.804 51.2135 210.639 51.4946 210.217C51.7119 209.892 52.207 209.73 52.9866 209.73C53.6283 209.73 54.2166 209.602 54.2938 209.447C54.4311 209.17 55.3336 209.254 55.5847 209.567C55.6544 209.653 55.8615 209.567 56.045 209.38C56.3058 209.11 56.5298 209.215 57.0698 209.859C57.5992 210.491 57.8045 210.589 57.9474 210.282C58.0499 210.061 58.0434 209.982 57.933 210.107C57.689 210.383 56.8454 209.486 56.8454 208.951C56.8454 207.617 59.7136 206.708 60.2184 207.882C60.3515 208.191 60.3991 208.521 60.324 208.615C60.2489 208.708 60.4228 208.708 60.7103 208.615C61.228 208.446 61.2267 208.436 60.5817 207.598C59.7936 206.574 59.9224 205.729 60.8353 205.935C61.2341 206.025 61.4461 205.935 61.4461 205.678C61.4461 205.124 61.9469 204.669 62.7591 204.485C63.5884 204.298 64.4389 204.793 64.2639 205.361C64.0906 205.923 64.729 206.573 64.9725 206.082C65.1032 205.819 65.2371 205.865 65.464 206.251C65.7591 206.754 65.8159 206.747 66.515 206.127C67.8219 204.969 68.3111 206.475 67.0153 207.668C66.2537 208.369 66.097 209.069 66.5701 209.658C66.9854 210.175 68.226 209.19 68.226 208.343C68.226 207.977 68.4948 207.47 68.8382 207.19C69.7682 206.432 70.3077 207.142 69.6043 208.199C69.1533 208.877 69.8585 210.576 70.537 210.447C70.7975 210.397 71.1777 210.628 71.382 210.959C71.7324 211.528 71.8038 211.536 72.6422 211.1C73.1311 210.846 73.9349 210.094 74.4284 209.43C74.922 208.766 75.4752 208.223 75.6578 208.223C76.4067 208.223 76.2017 209.136 75.1443 210.51C74.5355 211.301 74.0408 212.093 74.045 212.271C74.0489 212.448 74.2127 212.33 74.4083 212.008C74.9122 211.179 75.4755 211.169 75.7737 211.983C75.9142 212.367 76.3331 212.961 76.7047 213.303C77.2408 213.796 77.5314 213.871 78.1125 213.663C78.686 213.458 78.9276 213.516 79.2262 213.926C79.436 214.215 79.5347 214.542 79.4457 214.653C79.3566 214.763 79.402 214.854 79.5464 214.854C79.6909 214.854 79.967 214.93 80.1599 215.022C80.3614 215.118 80.836 214.784 81.2746 214.238C81.6974 213.712 82.1904 213.36 82.3787 213.45C82.5658 213.539 82.8492 213.417 83.0085 213.178C83.3832 212.616 83.8276 212.627 84.2145 213.207C84.4727 213.595 84.4113 213.816 83.8384 214.56C83.2563 215.316 83.193 215.552 83.4163 216.131C83.5608 216.507 83.7447 217.066 83.8251 217.375C83.9347 217.797 84.1328 217.899 84.6197 217.783C84.9895 217.694 85.5082 217.824 85.8263 218.083L86.3842 218.539L85.69 219.635C85.1319 220.517 85.0483 220.834 85.2633 221.253C85.4701 221.657 85.4408 221.887 85.1339 222.269C84.8179 222.662 84.7869 222.942 84.9818 223.637C85.1586 224.269 85.1458 224.633 84.9358 224.948C84.6994 225.303 84.7947 225.555 85.444 226.293L86.243 227.201L85.5321 228.125C84.9533 228.877 84.8857 229.098 85.1685 229.316C85.3595 229.463 85.5953 229.522 85.6923 229.448C85.7893 229.373 85.9372 229.448 86.0208 229.618C86.1045 229.787 86.3878 229.924 86.6505 229.924C87.6641 229.924 87.4321 230.829 85.992 232.493C85.2102 233.396 84.4615 234.087 84.3283 234.028C84.1951 233.969 83.8975 234.126 83.667 234.376C83.3201 234.752 83.1822 234.763 82.8678 234.437C82.5506 234.11 82.42 234.135 82.0763 234.589C81.85 234.888 81.7849 235.05 81.9318 234.949C82.0786 234.848 82.396 234.949 82.637 235.165C83.2098 235.686 82.9409 236.686 82.2853 236.473C81.9587 236.366 81.8606 236.447 81.9526 236.745C82.0243 236.978 82.2613 237.132 82.4793 237.088C82.7343 237.036 82.8625 237.202 82.839 237.555C82.8158 237.905 82.9224 238.046 83.134 237.945C83.7339 237.659 83.765 238.354 83.1941 239.294C81.9391 241.361 81.5623 241.669 80.4881 241.505C79.2907 241.322 78.6435 241.714 79.0752 242.362C79.232 242.597 79.2794 242.896 79.1807 243.027C79.082 243.158 79.2393 243.085 79.5303 242.864C79.8214 242.643 80.0052 242.353 79.9387 242.219C79.7396 241.818 80.5559 241.585 80.9031 241.944C81.0802 242.127 81.2812 242.207 81.3498 242.121C81.4185 242.036 81.6125 242.172 81.7809 242.425C82.029 242.797 82.024 242.983 81.7549 243.404C81.5418 243.737 81.6716 243.684 82.1169 243.257C83.2413 242.179 83.5726 243.05 82.6767 244.73C82.2743 245.484 82.176 245.514 80.5071 245.393C77.4906 245.176 77.5472 245.192 77.5624 244.524C77.5822 243.658 76.8686 243.678 76.2006 244.563C75.8966 244.966 75.7383 245.296 75.8487 245.296C75.9592 245.296 75.8526 245.567 75.6112 245.898C75.3702 246.23 75.0859 246.501 74.9794 246.501C74.6141 246.501 73.558 248.03 73.4074 248.776C73.3246 249.187 73.0783 249.653 72.8602 249.811C72.6419 249.97 72.5585 250.104 72.6747 250.109C72.7909 250.119 72.7412 250.335 72.5642 250.601C71.9639 251.501 72.0898 251.981 72.7553 251.329C73.0922 250.999 73.4912 250.829 73.6421 250.951C73.7929 251.073 74.3521 251.177 74.8848 251.183C75.4175 251.193 76.1927 251.296 76.6075 251.424C77.2225 251.612 77.4942 251.517 78.0808 250.902C78.5437 250.417 78.9781 250.206 79.2996 250.311C79.5744 250.4 80.0737 250.25 80.4091 249.976C80.977 249.513 81.0347 249.514 81.2468 249.986C81.3862 250.296 81.8548 250.533 82.455 250.596C83.4817 250.705 83.568 250.538 83.0913 249.365C82.8867 248.862 82.8417 247.877 82.9706 246.722C82.9849 246.594 83.2685 246.335 83.6009 246.146C84.0993 245.864 84.2893 245.898 84.6848 246.344C84.9485 246.641 85.1085 246.996 85.0402 247.134C84.9718 247.272 85.1403 247.663 85.4146 248.005C85.8187 248.508 85.9386 248.543 86.0474 248.19C86.1212 247.951 86.0735 247.503 85.9414 247.196C85.7854 246.833 85.7835 246.454 85.936 246.115C86.0651 245.828 86.1085 245.468 86.0325 245.315C85.9566 245.162 85.9905 244.963 86.1081 244.872C86.2256 244.782 86.2694 244.367 86.2055 243.951C86.1266 243.437 86.2144 243.134 86.4783 243.008C86.7437 242.881 86.8233 242.603 86.7285 242.133C86.652 241.754 86.7077 241.353 86.8522 241.242C86.9967 241.131 87.0538 240.737 86.9792 240.367C86.8052 239.504 87.6983 238.369 88.1291 238.905C88.4022 239.245 88.4919 239.723 88.6219 241.529C88.6577 242.026 88.8085 242.531 88.957 242.651C89.1056 242.771 89.1946 243.238 89.1549 243.688C89.1151 244.139 89.2021 244.785 89.348 245.124C89.494 245.464 89.6572 246.353 89.7107 247.101C89.7642 247.849 89.8364 248.8 89.871 249.215C89.9056 249.629 89.8169 250.16 89.6737 250.394C89.4568 250.749 89.497 250.765 89.9143 250.488C90.4448 250.136 90.9243 250.143 91.3943 250.509C91.5582 250.637 91.9609 250.408 92.3377 249.973C92.6993 249.556 93.2516 249.215 93.5651 249.215C93.8786 249.215 94.1351 249.094 94.1351 248.946C94.1351 248.718 93.5907 248.289 93.1665 248.181C92.7695 248.081 92.4786 247.632 92.5855 247.286C92.6724 247.004 92.5266 246.908 92.1016 246.966C91.0794 247.105 90.8653 246.382 91.6771 245.532C92.2707 244.91 92.3231 244.749 92.012 244.505C91.4805 244.088 92.0274 242.928 92.9432 242.531C93.7604 242.176 93.894 241.652 93.1403 241.759C92.3476 241.87 91.9961 240.95 92.5437 240.197C92.7892 239.859 93.0102 239.342 93.0349 239.049C93.0596 238.755 93.1659 238.276 93.2713 237.984C93.3786 237.686 93.3534 237.288 93.214 237.079C93.0337 236.809 93.1668 236.457 93.697 235.802C94.3913 234.944 94.8371 233.941 94.9692 232.939C95.0858 232.054 95.7011 232.507 96.07 233.75C96.2761 234.444 96.6677 235.326 96.9403 235.709C97.4594 236.438 97.4861 236.655 97.1678 237.56C97.0307 237.95 97.1259 238.303 97.4914 238.758L98.0094 239.402L98.3891 238.728C98.598 238.356 98.858 238.121 98.967 238.205C99.2322 238.409 99.8205 237.504 99.6006 237.23C99.5056 237.112 99.2556 237.014 99.045 237.012C98.5439 237.002 98.4356 236.007 98.8554 235.261C99.1056 234.816 99.1208 234.541 98.9177 234.137C98.7103 233.723 98.7412 233.425 99.0528 232.833C99.275 232.411 99.3602 231.992 99.2422 231.901C99.1242 231.81 99.0546 230.982 99.0876 230.061C99.1336 228.778 99.2618 228.287 99.6363 227.961C99.905 227.726 100.188 227.614 100.266 227.71C100.521 228.028 100.733 226.309 100.486 225.927C100.172 225.443 100.532 224.246 101.069 223.99C101.629 223.722 102.572 225.216 102.429 226.146C102.37 226.53 102.496 227.175 102.709 227.58C102.922 227.984 103.024 228.405 102.935 228.515C102.847 228.625 102.982 229 103.235 229.349C103.689 229.973 103.688 229.99 103.153 230.529C102.488 231.2 102.487 231.249 103.119 232.313C103.595 233.115 103.603 233.216 103.237 233.909C102.812 234.717 102.845 236.367 103.298 236.93C103.452 237.122 103.579 237.546 103.579 237.872C103.579 238.198 103.65 238.375 103.738 238.266C103.988 237.954 104.547 238.678 104.547 239.315C104.547 239.631 104.384 239.968 104.185 240.063C103.986 240.158 103.874 240.337 103.935 240.461C103.997 240.585 103.891 240.944 103.7 241.258C103.303 241.911 103.213 243.016 103.579 242.734C103.948 242.45 104.299 243.922 104.093 244.891C103.947 245.575 103.753 245.768 103.139 245.843C102.171 245.962 102.064 246.792 103.028 246.71C103.904 246.634 103.911 247.283 103.045 248.547C102.673 249.092 102.368 249.586 102.368 249.646C102.368 249.705 102.722 249.659 103.155 249.542C103.588 249.425 103.805 251.273 103.967 252.103L104.644 255.079C103.544 256.837 103.65 257.75 103.297 258.189C102.567 259.098 101.294 258.13 101.904 257.13C102.081 256.84 101.822 257.07 101.329 257.641C100.835 258.213 100.431 258.569 100.431 258.433C100.431 258.298 100.268 258.356 100.068 258.562C99.7974 258.841 99.621 258.851 99.377 258.598C99.1248 258.338 98.8954 258.437 98.3814 259.03C97.647 259.878 96.4358 259.961 96.4358 259.164C96.4358 258.906 96.218 258.712 95.9282 258.712C95.649 258.712 95.2418 258.528 95.0233 258.302C94.7868 258.057 94.3838 257.967 94.0272 258.079C93.5785 258.219 93.3632 258.114 93.1681 257.66C92.824 256.86 92.6753 256.891 91.7115 257.962C90.9342 258.825 90.4446 258.819 90.352 257.943C90.3354 257.786 90.3082 257.586 90.2915 257.499C90.2747 257.413 90.016 257.542 89.7164 257.785C89.0708 258.311 88.2164 258.224 88.1704 257.628C88.1524 257.395 88.1252 257.082 88.1098 256.932C88.0946 256.782 87.8588 256.911 87.586 257.218C87.0713 257.798 86.5927 258.007 85.8035 257.995C85.5492 257.995 85.1507 258.115 84.918 258.271C84.6131 258.474 84.3383 258.395 83.9353 257.989C83.4522 257.501 83.4208 257.357 83.7052 256.931C84.2389 256.13 83.8814 256.111 82.9592 256.891C82.4874 257.29 81.8943 257.576 81.6412 257.526C81.388 257.477 80.7958 257.677 80.3251 257.971C79.7053 258.359 79.3507 258.424 79.0392 258.207C78.8026 258.043 78.425 258.011 78.2 258.137C77.5799 258.486 76.948 258.512 76.7909 258.196C76.7135 258.04 76.4 258.206 76.0941 258.563C75.475 259.287 74.4049 259.286 74.3945 258.563C74.3906 258.268 74.1893 258.138 73.8175 258.19C73.1884 258.277 72.5145 257.743 72.723 257.323C72.796 257.176 72.7665 257.056 72.6575 257.056C72.5485 257.056 72.3232 257.327 72.1569 257.659C71.9905 257.99 71.7088 258.262 71.5308 258.262C71.3528 258.262 71.0099 257.99 70.7689 257.659C70.5241 257.322 70.0231 257.056 69.6342 257.056C68.4202 257.056 68.4371 255.224 69.6531 254.999L70.1828 254.901L69.5934 254.324C69.0905 253.832 68.8314 253.787 67.8282 254.022C66.9233 254.233 66.5668 254.2 66.2804 253.879C65.9142 253.469 65.2183 253.526 64.2311 254.046C63.7509 254.3 61.7106 254.75 60.9077 254.78C60.678 254.79 60.305 255.123 60.0789 255.524C59.8311 255.963 59.7948 256.154 59.9875 256.006C60.5978 255.536 62.2758 255.59 62.7313 256.094C63.0739 256.473 63.2638 256.504 63.6082 256.236C63.9347 255.982 64.1183 255.982 64.3211 256.236C64.7467 256.766 64.6476 257.321 63.9788 258.153C63.4913 258.76 63.2923 258.846 63.022 258.567C62.7607 258.297 62.4829 258.303 61.8374 258.594C61.1498 258.903 60.9228 258.9 60.6079 258.575C60.2818 258.238 60.1378 258.268 59.6839 258.767C59.2266 259.27 58.7099 259.444 58.4803 259.172C58.447 259.133 58.0929 259.064 57.6933 259.02C57.2938 258.976 56.858 258.894 56.7248 258.839C56.5916 258.783 56.2352 258.909 55.9328 259.118C55.6304 259.327 55.2543 259.399 55.0971 259.278C54.9398 259.157 53.7983 259.042 52.5605 259.024C51.2203 259.004 50.197 258.849 50.0308 258.642C49.8202 258.38 49.5783 258.407 49.044 258.751C48.5274 259.083 48.2507 259.118 48.0198 258.879C47.804 258.656 47.5044 258.647 47.0772 258.849C46.6793 259.037 46.3987 259.04 46.3076 258.859C46.2218 258.686 45.8751 258.756 45.4445 259.033C45.0486 259.288 44.5965 259.398 44.4398 259.277C44.2831 259.157 43.6597 259.048 43.0546 259.035C42.3023 259.02 41.9742 258.891 42.0172 258.63C42.0624 258.356 41.9187 258.38 41.5065 258.716C41.191 258.974 40.7485 259.096 40.5232 258.989C40.2677 258.866 39.8991 259.043 39.5434 259.46C39.0882 259.992 38.8772 260.063 38.4969 259.809C38.2349 259.635 37.7861 259.548 37.4996 259.617C37.1803 259.693 36.8749 259.535 36.7107 259.208C36.4606 258.709 36.4044 258.722 35.8604 259.399C35.3576 260.025 35.1381 260.095 34.2576 259.915C33.6964 259.799 33.1202 259.588 32.9772 259.445C32.8277 259.295 32.6103 259.318 32.4653 259.499C32.1646 259.873 29.8695 260.048 29.4148 259.732L29.4144 259.724ZM71.9649 254.784C72.4929 254.286 73.6916 254.19 73.9087 254.627C74.051 254.914 75.635 254.864 75.8749 254.566C75.945 254.479 75.6687 254.112 75.2609 253.75C74.5611 253.13 74.4768 253.12 73.7569 253.567C73.3375 253.827 72.8065 254.04 72.5769 254.04C72.3473 254.04 72.0292 254.236 71.87 254.474C71.7108 254.713 71.2888 254.964 70.9323 255.032C70.2953 255.153 70.2945 255.156 70.8894 255.191C71.2224 255.21 71.7063 255.027 71.9648 254.784L71.9649 254.784ZM79.1518 254.266C79.6307 253.849 79.6684 253.715 79.3759 253.47C79.1825 253.308 78.9449 253.236 78.8478 253.311C78.7508 253.386 78.5989 253.3 78.5104 253.122C78.4068 252.914 78.2333 252.993 78.0241 253.344C77.7542 253.796 77.6175 253.827 77.2205 253.526C76.588 253.045 76.1304 253.749 76.4284 254.743C76.5242 255.063 78.668 254.687 79.1518 254.266ZM33.6653 252.777C33.9512 253.072 34.1673 253.076 34.6646 252.794C35.1618 252.512 35.4225 252.516 35.8696 252.814C36.3646 253.144 36.5964 253.09 37.6211 252.411C38.2707 251.981 38.9313 251.629 39.0892 251.629C39.247 251.629 39.5911 251.289 39.8538 250.873C40.2955 250.174 40.3299 249.653 40.3121 243.945C40.3014 240.55 40.344 237.708 40.4067 237.63C40.6666 237.307 40.4025 228.282 40.1134 227.61C39.8727 227.051 39.8771 226.766 40.1358 226.165C40.5214 225.268 40.6179 223.59 40.3131 223.082C40.1815 222.863 40.1891 222.321 40.3321 221.726C40.463 221.181 40.587 220.085 40.6077 219.291C40.6433 217.927 40.6193 217.868 40.1691 218.218C39.7894 218.513 39.6157 218.509 39.3126 218.195C39.1035 217.979 39.0066 217.648 39.0973 217.46C39.188 217.271 39.0675 217.314 38.8296 217.555C38.4451 217.944 38.3527 217.923 37.9962 217.372C37.7757 217.032 37.4021 216.668 37.1661 216.565C36.1876 216.138 36.4839 214.7 37.5964 214.478C37.8621 214.425 38.2843 214.236 38.5344 214.058C39.3013 213.513 38.5652 213.323 37.5 213.791C36.9531 214.031 36.5057 214.149 36.5057 214.053C36.5057 213.957 36.3526 214.037 36.1656 214.23C35.7074 214.704 34.6189 214.332 34.3014 213.593C33.9824 212.851 34.1847 212.144 34.7159 212.144C34.9384 212.144 35.2599 211.907 35.4303 211.617C35.6723 211.205 36.1144 211.085 37.45 211.068C38.3905 211.057 39.417 210.875 39.7313 210.666C40.2514 210.32 40.2989 210.105 40.2612 208.276C40.1964 205.138 39.7999 204.031 39.036 204.858C38.662 205.263 36.759 205.929 36.5873 205.715C36.5003 205.607 36.2829 205.669 36.1042 205.854C35.9255 206.039 35.7793 206.089 35.7793 205.965C35.7793 205.842 35.6401 205.885 35.4701 206.06C35.0675 206.476 31.7412 207.418 31.4542 207.197C31.3328 207.104 31.1165 207.207 30.9735 207.417C30.7111 207.81 31.2242 207.845 32.5104 207.521C33.6795 207.227 33.9661 208.727 32.9341 209.74C32.5679 210.1 32.2682 210.686 32.2682 211.043C32.2682 211.474 32.0964 211.723 31.7566 211.783C31.4752 211.833 31.1234 212.206 30.9748 212.612C30.8263 213.018 30.587 213.35 30.4431 213.35C30.2992 213.35 30.2499 213.488 30.3335 213.656C30.4172 213.825 30.5725 213.896 30.6787 213.814C30.7849 213.733 31.0568 213.92 31.2831 214.231C31.5528 214.602 31.6056 214.865 31.4365 214.996C31.2947 215.105 31.1786 215.457 31.1786 215.779C31.1786 216.322 31.6271 216.527 32.5319 216.398C32.6769 216.377 32.9934 216.632 33.2353 216.965C33.6602 217.549 33.6602 217.59 33.2334 218.177C32.8048 218.767 32.8079 218.825 33.339 220.149C33.64 220.899 33.8203 221.727 33.7397 221.989C33.6219 222.371 33.7241 222.433 34.2599 222.305C35.1126 222.102 35.8644 222.586 35.6712 223.212C35.5911 223.472 35.7066 223.934 35.928 224.239C36.2687 224.707 36.2804 224.867 36.0043 225.281C35.8249 225.55 35.4013 225.913 35.0629 226.088C34.5005 226.378 34.4892 226.417 34.9318 226.541C35.7643 226.774 36.0722 227.276 35.9292 228.166C35.8555 228.624 35.9006 229.081 36.0294 229.18C36.3998 229.465 36.3021 230.473 35.8753 230.771C35.5426 231.002 35.5332 231.133 35.8101 231.685C36.0879 232.239 36.0744 232.402 35.7132 232.851C35.3562 233.296 35.1799 233.321 34.5354 233.018C34.0089 232.771 33.6371 232.755 33.318 232.968C32.9632 233.205 31.2998 233.189 31.2998 232.949C31.2998 232.922 30.9527 232.844 30.5285 232.775C29.8385 232.663 29.7493 232.736 29.681 233.474C29.616 234.176 29.7478 234.383 30.5733 234.872C31.106 235.188 31.7159 235.42 31.9286 235.389C32.1412 235.357 32.4612 235.55 32.6397 235.817C32.9155 236.231 32.8793 236.497 32.3985 237.593C31.8182 238.915 31.8751 239.573 32.5697 239.573C33.1097 239.573 34.0844 240.763 34.0844 241.423C34.0844 242.168 33.2827 242.65 32.5868 242.324C32.0377 242.067 29.0517 242.12 28.834 242.39C28.7734 242.466 28.8665 242.812 29.0409 243.16C29.3013 243.679 29.3018 243.904 29.0435 244.419C28.7662 244.972 28.8036 245.132 29.3583 245.772C29.8822 246.377 29.9435 246.602 29.7236 247.113C29.5783 247.451 29.3389 247.634 29.1914 247.521C29.0017 247.375 28.9698 247.737 29.0825 248.76C29.17 249.555 29.2416 250.548 29.2416 250.967C29.2416 251.386 29.3133 251.64 29.401 251.531C29.7533 251.092 30.1849 251.974 29.9671 252.687C29.708 253.535 30.0474 253.783 30.918 253.381C31.3481 253.183 31.6044 253.235 31.8777 253.575C32.2135 253.993 32.3029 253.958 32.7757 253.219C33.2113 252.54 33.3629 252.464 33.6655 252.777L33.6653 252.777ZM25.1251 250.23V247.962L24.2819 248.611C23.8181 248.968 23.0024 249.284 22.4693 249.314C21.4386 249.371 20.9698 249.96 21.7519 250.214C22.0096 250.299 22.2194 250.627 22.2194 250.947C22.2194 251.66 23.1148 252.286 23.8659 252.098C24.2107 252.012 24.474 252.125 24.5572 252.395C24.8593 253.375 25.1251 252.361 25.1251 250.23ZM100.717 248.545C100.654 248.003 100.399 247.382 100.152 247.165C99.8174 246.871 99.7608 246.634 99.931 246.239C100.115 245.809 100.064 245.711 99.6641 245.729C99.3916 245.741 99.0058 245.45 98.8066 245.083C98.4618 244.446 98.4867 244.389 99.3287 243.889C100.106 243.428 100.155 243.338 99.7356 243.145C99.2514 242.922 99.1919 242.458 99.5547 241.735C99.6833 241.479 99.5577 241.075 99.2039 240.606C98.5748 239.772 98.2053 239.882 98.8155 240.721C99.1894 241.236 99.1767 241.336 98.6202 242.275C98.293 242.827 98.0778 243.385 98.1422 243.515C98.2065 243.644 98.1563 243.829 98.0309 243.926C97.8929 244.032 97.8865 244.465 98.0145 245.021C98.148 245.6 98.1314 246.201 97.9699 246.642C97.6323 247.564 98.024 248.446 98.7756 248.456C99.0867 248.456 99.3149 248.628 99.2832 248.83C99.249 249.047 99.3781 249.123 99.6003 249.017C99.8499 248.897 100.021 249.054 100.111 249.486C100.33 250.525 100.853 249.711 100.717 248.545H100.717ZM73.3904 243.502C73.3676 242.265 73.4671 240.976 73.6117 240.639C73.8298 240.129 73.8163 240.079 73.5321 240.344C73.1124 240.737 72.6249 240.729 72.394 240.326C72.299 240.16 72.0306 239.985 71.7975 239.936C71.491 239.872 71.3738 240.049 71.3738 240.577C71.3738 241.25 70.8537 242.139 70.6251 241.856C70.4035 241.583 70.4363 243.626 70.6589 243.96C70.8177 244.198 70.8187 244.588 70.662 245.101C70.51 245.599 70.5081 245.946 70.6566 246.06C70.7847 246.158 70.8895 246.615 70.8895 247.075C70.8895 248.402 71.1344 248.394 72.3203 247.03L73.432 245.751L73.3904 243.502ZM22.466 246.984C22.7965 246.931 23.3737 246.733 23.7486 246.545C24.1235 246.357 24.5321 246.203 24.6566 246.203C25.2272 246.203 24.8062 245.684 24.2171 245.661C22.9229 245.611 22.6361 245.494 22.527 244.975C22.4664 244.687 22.221 244.387 21.9817 244.309C21.3854 244.115 20.8987 244.532 21.1444 245.027C21.2531 245.246 21.3137 246.041 21.2791 246.794C21.2236 247.997 21.2552 248.097 21.5406 247.622C21.7191 247.324 22.1355 247.038 22.466 246.984ZM24.7192 243.068C24.802 242.8 24.7059 242.672 24.4556 242.718C24.239 242.757 24.0195 242.947 23.9679 243.14C23.833 243.644 24.5633 243.574 24.7192 243.068V243.068ZM68.0009 242.927C67.8677 242.618 67.8181 242.29 67.8906 242.2C67.9631 242.11 67.8467 241.702 67.6319 241.294C67.417 240.885 67.1937 240.245 67.1357 239.87C67.0778 239.495 66.8466 238.936 66.622 238.627C66.3975 238.318 66.2943 238.065 66.3927 238.065C66.4911 238.065 66.2084 237.494 65.7644 236.796C65.3204 236.099 65.0116 235.511 65.0781 235.492C65.1447 235.472 64.6816 234.838 64.0491 234.084C63.4164 233.329 62.8989 232.779 62.8989 232.861C62.8989 232.944 62.6365 232.796 62.3157 232.535C61.8175 232.129 61.6916 232.121 61.4506 232.482C61.2955 232.715 61.1989 233.151 61.2358 233.451C61.3205 234.137 60.7673 235.425 60.4821 235.205C60.0419 234.867 60.023 235.594 60.4592 236.085C60.7572 236.421 60.9686 236.487 61.0731 236.276C61.308 235.803 62.3092 235.886 62.6567 236.407C62.8226 236.656 62.8735 236.86 62.7699 236.86C62.6664 236.86 62.7769 237.128 63.0148 237.455C63.253 237.783 63.5161 237.998 63.5995 237.934C63.9034 237.701 65.2782 238.63 65.426 239.169C65.5096 239.474 66.0198 240.103 66.5598 240.568C67.2408 241.153 67.4963 241.559 67.3937 241.892C67.3123 242.156 67.4287 242.624 67.6523 242.931C68.1719 243.646 68.3092 243.644 68.0009 242.931L68.0009 242.927ZM21.5998 242.125C21.8583 241.881 21.9366 241.682 21.7738 241.682C21.2514 241.682 21.178 240.776 21.6453 240.094C22.0032 239.571 22.0116 239.515 21.6852 239.829C21.458 240.048 21.1415 240.127 20.9819 240.004C20.805 239.868 20.7551 239.908 20.8542 240.108C20.9435 240.288 20.9041 240.521 20.7666 240.627C20.6291 240.733 20.5746 240.936 20.6455 241.079C20.7165 241.222 20.6685 241.421 20.539 241.52C20.2381 241.752 20.4871 242.589 20.853 242.577C21.0053 242.567 21.3413 242.368 21.5998 242.125L21.5998 242.125ZM77.9899 239.994C77.8967 239.692 77.7649 239.634 77.6099 239.827C77.3326 240.172 77.601 240.866 77.9177 240.623C78.0358 240.531 78.0683 240.249 77.9899 239.994H77.9899ZM23.0719 239.466C23.242 239.547 23.4533 239.466 23.5415 239.291C23.7609 238.849 22.7657 239.056 22.4583 239.516C22.2909 239.767 22.3007 239.791 22.4911 239.596C22.6405 239.443 22.9019 239.384 23.0719 239.466L23.0719 239.466ZM69.6788 237.951C69.6788 237.723 69.8411 237.369 70.0396 237.164C70.3527 236.84 70.3237 236.716 69.8198 236.222C69.2276 235.643 68.6738 235.498 68.3911 235.85C68.3044 235.958 68.4013 236.199 68.6064 236.386C68.9272 236.678 69.0997 237.209 69.176 238.141C69.2097 238.552 69.6788 238.375 69.6788 237.951ZM30.59 237.429C30.767 237.072 30.2329 236.505 29.9357 236.734C29.8386 236.809 29.6897 236.734 29.6047 236.558C29.5197 236.387 29.3416 236.331 29.209 236.433C28.9146 236.659 29.6642 237.764 30.1122 237.764C30.2835 237.764 30.4985 237.613 30.59 237.429ZM21.6482 229.835C21.9052 229.515 21.1779 229.596 20.7666 229.933C20.4784 230.169 20.5146 230.211 20.942 230.137C21.2382 230.085 21.556 229.949 21.6482 229.835ZM20.6352 223.92C20.7118 223.766 20.6638 223.554 20.5284 223.45C20.3931 223.346 20.2823 223.472 20.2823 223.731C20.2823 224.26 20.4276 224.338 20.6352 223.92ZM21.145 222.624C21.2276 222.521 21.125 222.468 20.9169 222.506C20.7088 222.545 20.4709 222.66 20.3882 222.763C20.3056 222.866 20.4082 222.919 20.6163 222.881C20.8244 222.842 21.0623 222.727 21.145 222.624ZM21.3827 214.836C21.47 214.66 21.3399 214.331 21.0935 214.104C20.7345 213.774 20.7057 213.616 20.9482 213.31C21.1147 213.1 21.2509 212.39 21.2509 211.731C21.2509 211.06 21.42 210.302 21.6364 210.004C21.9935 209.513 21.9852 209.486 21.5232 209.636C20.691 209.907 20.5198 210.453 20.4173 213.16C20.3242 215.622 20.3427 215.743 20.7715 215.457C21.0203 215.291 21.2954 215.012 21.3827 214.836ZM62.7954 211.02C62.7613 210.623 62.4983 210.005 62.2108 209.647C61.7572 209.083 61.6882 209.065 61.6882 209.516C61.6882 210.348 61.6622 210.463 61.3649 210.939C61.1246 211.324 61.1409 211.335 61.4745 211.011C61.7917 210.703 61.9178 210.708 62.1382 211.039C62.2879 211.264 62.3569 211.514 62.2914 211.595C62.226 211.677 62.3265 211.743 62.5149 211.743C62.7319 211.743 62.8346 211.479 62.7954 211.021V211.02ZM63.5469 207.147C63.5697 206.415 63.4877 205.815 63.3647 205.815C63.2417 205.815 63.141 206.031 63.141 206.296C63.141 206.56 62.9231 206.847 62.6567 206.933C62.3904 207.02 62.1725 207.145 62.1725 207.211C62.1725 207.618 62.7748 208.411 63.1085 208.442C63.4154 208.471 63.5149 208.177 63.5469 207.147ZM21.3789 205.891C21.6131 205.435 21.7161 205.164 21.6077 205.289C21.4993 205.414 21.1835 205.331 20.906 205.105C20.43 204.716 20.4003 204.75 20.3808 205.706C20.3555 206.95 20.7931 207.031 21.3789 205.891ZM32.3501 205.041C33.2317 204.494 33.9307 203.394 33.6328 203.023C33.2938 202.601 32.1601 203.096 32.315 203.598C32.3895 203.84 32.1999 204.37 31.8934 204.776C31.2418 205.639 31.3167 205.683 32.3501 205.041ZM46.1929 203.968C45.7277 203.849 45.3032 203.806 45.2497 203.873C45.0637 204.105 46.3146 204.53 46.6755 204.357C46.9018 204.25 46.7199 204.103 46.1929 203.968V203.968ZM21.1333 203.103C21.3218 203.103 21.5926 202.831 21.7352 202.5C21.9375 202.029 21.9193 201.897 21.6523 201.897C21.4641 201.897 21.1806 201.703 21.0222 201.465C20.7961 201.126 20.8215 200.867 21.1401 200.262C21.3633 199.838 21.6547 199.575 21.7876 199.677C21.9362 199.791 21.967 199.619 21.8675 199.229C21.7402 198.729 21.8716 198.47 22.4862 198.004C23.2834 197.401 24.7284 194.873 24.4642 194.544C24.3838 194.444 24.0855 194.362 23.8014 194.362C22.6359 194.362 22.2912 192.734 23.3505 192.232C24.136 191.861 24.786 192 24.695 192.52C24.613 192.989 25.4109 192.844 25.5387 192.366C25.5885 192.18 25.4068 191.955 25.135 191.867C24.4493 191.643 24.5161 190.789 25.2462 190.444C25.9623 190.105 25.9981 189.892 25.4278 189.364C25.073 189.036 25.0542 188.883 25.3123 188.427C25.4818 188.127 25.8459 187.443 26.1212 186.906C26.5215 186.126 26.7074 185.988 27.0482 186.215C27.3658 186.426 27.51 187.02 27.614 188.546C27.7971 191.232 27.9225 191.591 28.6199 191.426C29.3621 191.249 29.5314 191.654 29.1881 192.787C28.9677 193.513 28.9757 193.813 29.2254 194.187C29.7053 194.907 30.3358 194.763 31.0968 193.759C31.5572 193.152 32.0168 192.855 32.4963 192.855C32.9389 192.855 33.4651 192.551 33.8807 192.055C34.404 191.431 34.6242 191.332 34.8848 191.601C35.3899 192.123 35.5864 191.637 35.1814 190.868C34.8618 190.261 34.8681 190.122 35.2411 189.556C35.4705 189.208 35.8922 188.869 36.1782 188.803C36.8616 188.644 38.6849 187.204 38.6849 186.823C38.6849 186.214 37.5371 186.555 36.5534 187.456C35.9944 187.967 35.5371 188.313 35.5371 188.225C35.5371 188.135 35.1533 188.263 34.6841 188.507C33.7495 188.993 32.8736 188.687 32.8736 187.875C32.8736 187.263 34.381 186.103 36.0214 185.452C36.088 185.425 36.4941 185.301 36.924 185.175C37.3538 185.049 37.8442 184.733 38.0136 184.473C38.2725 184.077 38.2588 184.031 37.9275 184.185C37.7106 184.286 37.4156 184.222 37.2719 184.043C37.0848 183.81 36.9043 183.827 36.637 184.103C36.4316 184.316 36.2601 184.371 36.2558 184.226C36.2516 184.082 36.0835 184.236 35.8822 184.566C35.583 185.059 35.2202 185.173 33.8923 185.191C32.999 185.203 32.0406 185.307 31.7624 185.422C31.1305 185.683 29.5966 184.915 29.3861 184.232C29.2961 183.941 29.4024 183.488 29.6364 183.166C30.0428 182.607 29.9583 182.494 29.2024 182.587C28.9811 182.614 28.7293 182.494 28.6427 182.319C28.5562 182.145 28.2388 182.079 27.9374 182.173C27.0545 182.449 26.6782 181.633 27.1311 180.424C27.3333 179.884 27.5378 179.171 27.5856 178.839C27.6404 178.459 27.8954 178.204 28.2754 178.149C28.607 178.1 29.0962 177.94 29.3626 177.792C29.6289 177.645 30.2609 177.293 30.767 177.01C31.5157 176.591 31.8035 176.562 32.3118 176.85C32.8332 177.146 33.0212 177.115 33.4498 176.666C34.2637 175.811 34.3278 175.573 33.9012 174.986C33.5751 174.538 33.5548 174.327 33.7924 173.853C33.9529 173.533 34.0843 173.195 34.0843 173.102C34.0843 172.731 31.7304 173.195 31.1309 173.683C30.6459 174.079 30.269 174.149 29.5642 173.974C29.0537 173.848 28.5577 173.77 28.4618 173.802C28.3659 173.834 28.1782 173.606 28.0447 173.296C27.7258 172.554 27.1325 172.291 26.5913 172.652C26.3397 172.819 25.8611 172.837 25.4587 172.695C25.0755 172.559 24.544 172.553 24.2776 172.683L23.7933 172.92L24.2776 172.976C24.544 173.008 24.8768 173.017 25.0173 172.997C25.3932 172.945 26.8992 174.972 26.9811 175.64C27.1219 176.788 26.1289 177.142 23.7933 176.775C23.2606 176.691 22.7703 176.596 22.7037 176.565C22.6371 176.533 22.4895 176.527 22.3756 176.553C22.2617 176.578 22.0103 176.436 21.8171 176.236C21.6238 176.037 21.4991 175.998 21.5399 176.15C21.5807 176.302 21.5324 176.461 21.4325 176.502C21.3326 176.544 21.2416 176.476 21.2303 176.352C21.219 176.227 21.0866 175.941 20.9361 175.715C20.7161 175.385 20.6258 175.474 20.4756 176.167C20.3056 176.952 20.4194 177.179 21.7384 178.688C22.5996 179.673 23.188 180.595 23.188 180.96C23.188 181.298 22.875 182.041 22.4925 182.611C21.8782 183.527 21.7495 183.599 21.3907 183.228C21.1595 182.989 21.0158 182.486 21.0572 182.06C21.1133 181.481 21.0064 181.288 20.585 181.207C19.9916 181.093 19.8994 181.492 20.2482 182.662C20.3736 183.082 20.3392 184.197 20.1616 185.469C19.8978 187.359 19.9119 187.673 20.2976 188.483C20.6846 189.296 20.693 189.491 20.3804 190.413C20.0276 191.453 19.9272 194.996 20.1404 198.882C20.1995 199.96 20.2589 201.587 20.2725 202.499C20.2914 203.778 20.3533 204.036 20.5438 203.629C20.6796 203.339 20.9449 203.102 21.1333 203.102L21.1333 203.103ZM31.1142 203.608C31.3332 203.608 31.3427 203.499 31.1496 203.21C30.7903 202.671 29.8659 202.89 29.764 203.538C29.6967 203.967 29.7873 204.023 30.2483 203.838C30.5602 203.713 30.9499 203.61 31.1142 203.608ZM33.6248 200.632C34.0538 200.506 35.5253 199.043 35.5995 198.668C35.6974 198.173 37.5692 195.906 37.7593 196.053C37.8689 196.137 37.9585 196.063 37.9585 195.887C37.9585 195.58 37.375 195.412 36.8689 195.573C36.7357 195.615 36.4401 195.674 36.2119 195.703C35.9837 195.732 35.5787 196.001 35.3119 196.302C35.0451 196.603 34.5235 196.847 34.1528 196.844C33.7822 196.844 33.3427 196.977 33.1762 197.145C32.9675 197.355 32.7536 197.326 32.4867 197.05C31.6978 196.235 29.4836 196.4 29.4836 197.274C29.4836 197.535 29.1567 198.212 28.7572 198.778C28.0397 199.795 27.8094 200.691 28.2656 200.691C28.3947 200.691 28.9063 200.407 29.4025 200.06C30.1666 199.526 30.3438 199.495 30.5601 199.856C31.1827 200.896 32.0068 201.105 33.6248 200.632V200.632ZM33.1384 181.989C33.3997 181.815 33.5494 181.543 33.471 181.386C33.3817 181.206 33.1568 181.213 32.8687 181.405C32.6158 181.573 32.3228 181.693 32.2175 181.671C31.8089 181.586 31.6406 181.715 31.784 182.004C31.9777 182.394 32.5395 182.388 33.1384 181.989V181.989ZM37.3789 180.378C37.6977 180.45 37.9585 180.363 37.9585 180.184C37.9585 180.005 37.8716 179.926 37.7653 180.007C37.6591 180.089 37.427 180.044 37.2495 179.908C37.0528 179.757 36.621 179.885 36.1433 180.235C35.7123 180.552 35.1927 180.731 34.9886 180.633C34.7845 180.536 34.5352 180.622 34.4346 180.825C34.3172 181.061 34.3524 181.116 34.5329 180.977C34.6896 180.856 34.8772 180.965 34.9567 181.223C35.0775 181.615 35.229 181.576 35.9493 180.966C36.4672 180.528 37.0257 180.299 37.3789 180.378V180.378ZM29.6652 170.839C29.6985 170.805 29.8075 170.748 29.9074 170.713C30.5313 170.494 32.8717 168.958 33.0978 168.619C33.4775 168.049 32.8232 167.741 31.3364 167.789C30.349 167.821 30.1422 167.731 30.0349 167.22C29.9156 166.652 29.8697 166.643 29.3298 167.084C28.6321 167.653 27.7886 167.241 27.7886 166.331C27.7886 165.559 28.6206 165.04 29.6253 165.186C30.1275 165.259 30.4825 165.161 30.554 164.929C30.6259 164.695 30.5337 164.618 30.3098 164.725C30.1118 164.82 29.7632 164.691 29.5351 164.439C29.307 164.186 28.7118 163.77 28.2124 163.513C27.713 163.256 27.3044 162.841 27.3044 162.591C27.3044 162.29 27.0794 162.144 26.6385 162.159C25.5594 162.198 24.0671 161.763 23.6202 161.28C23.3456 160.983 22.9766 160.899 22.5306 161.031C21.6555 161.291 21.4803 161.292 20.8271 161.043C20.418 160.887 20.2823 160.957 20.2823 161.323C20.2823 161.609 20.482 161.81 20.7666 161.81C21.033 161.81 21.4462 162.053 21.685 162.35C21.9238 162.647 22.4958 163.075 22.9562 163.301C23.4166 163.527 23.9196 163.903 24.074 164.137C24.2283 164.371 24.4462 164.527 24.5582 164.484C24.6703 164.441 24.8164 164.737 24.883 165.142C24.9628 165.628 25.1692 165.879 25.4883 165.879C25.8768 165.879 25.9621 166.058 25.9195 166.783C25.8904 167.28 25.732 168.001 25.5675 168.385C25.325 168.951 25.3309 169.131 25.5986 169.337C25.7802 169.476 26.0738 169.521 26.2513 169.437C26.4287 169.352 26.6433 169.508 26.7282 169.783C26.8131 170.059 27.0344 170.211 27.22 170.123C27.4056 170.034 27.7457 170.219 27.9757 170.532C28.3174 170.998 29.3322 171.183 29.6652 170.839L29.6652 170.839ZM13.6678 169.289C13.5905 169.048 13.5331 169.12 13.5215 169.471C13.511 169.788 13.5682 169.966 13.6487 169.866C13.7292 169.766 13.7378 169.506 13.6678 169.289H13.6678ZM29.9679 160.854C29.9679 160.66 30.1451 160.257 30.3616 159.96C30.6545 159.557 30.8674 159.493 31.1932 159.71C31.6967 160.045 32.3396 159.759 33.5511 158.658C33.9903 158.259 34.4727 157.881 34.623 157.819C34.7734 157.756 34.8187 157.549 34.7237 157.357C34.6034 157.115 34.3989 157.199 34.0512 157.631C33.7181 158.046 33.4708 158.153 33.3094 157.952C33.148 157.751 32.9183 157.836 32.6204 158.207C32.2805 158.63 32.0108 158.706 31.4944 158.525C31.1209 158.393 30.6799 158.344 30.5142 158.415C30.3486 158.486 30.1058 158.192 29.9747 157.763C29.8436 157.334 29.6149 157.018 29.4664 157.061C29.3179 157.104 29.0749 156.909 28.9265 156.628C28.7151 156.229 28.7545 155.984 29.1076 155.498C29.4571 155.017 29.8538 154.878 30.8688 154.878C31.5894 154.878 32.4166 154.719 32.7071 154.526C32.9975 154.332 33.5411 154.144 33.9151 154.107C34.2891 154.071 34.6545 153.967 34.7271 153.877C34.9842 153.557 34.5323 153.069 33.9786 153.069C33.6698 153.069 33.2777 152.86 33.1073 152.604C32.8503 152.219 32.8877 151.988 33.327 151.248C33.8966 150.289 33.8456 150.172 33.0809 150.681C32.8129 150.86 32.4114 150.91 32.1888 150.793C31.9661 150.676 30.5866 150.562 29.1233 150.541C26.7431 150.505 26.4535 150.443 26.3765 149.945C26.2694 149.253 26.5873 148.838 27.3344 148.694C27.6508 148.634 28.2911 148.493 28.7572 148.381C29.2233 148.27 29.7299 148.154 29.8829 148.124C30.3703 148.028 30.8914 147.334 31.1387 146.451C31.4218 145.44 31.3112 145.435 29.6785 146.382C28.2648 147.202 27.7445 147.211 27.172 146.423C26.7307 145.816 26.7355 145.792 27.437 145.096C27.83 144.706 28.2334 144.449 28.3333 144.526C28.4333 144.603 28.5151 144.526 28.5151 144.347C28.5151 143.919 28.0407 143.947 27.3044 144.421C26.9714 144.635 26.2371 144.803 25.6726 144.796C24.3817 144.777 24.2329 145.23 25.1404 146.412C26.0738 147.628 26.0376 148.182 24.989 148.727L24.1265 149.176L24.6822 149.736C24.9878 150.044 25.4278 150.25 25.66 150.195C25.8922 150.139 26.2911 150.424 26.5465 150.828C26.8019 151.232 27.0873 151.563 27.1808 151.563C27.2742 151.563 27.6541 151.832 28.0249 152.161C28.7492 152.803 29.0879 154.11 28.7398 154.919C28.452 155.589 27.0797 156.176 26.7058 155.79C26.5365 155.615 26.3303 155.606 26.1969 155.768C26.0629 155.93 25.6076 155.817 25.0656 155.486C24.53 155.159 24.0998 155.051 24.015 155.221C23.8121 155.63 24.1068 156.46 24.3802 156.249C24.5052 156.153 24.6729 156.206 24.7529 156.368C24.833 156.529 25.0438 156.591 25.2215 156.507C25.4028 156.42 25.9571 156.936 26.485 157.682C27.0022 158.414 27.4904 158.998 27.5698 158.98C27.9265 158.9 28.5151 159.842 28.5151 160.492C28.5151 161.087 28.638 161.208 29.2415 161.208C29.641 161.208 29.9679 161.049 29.9679 160.855V160.854ZM30.3311 140.625C30.6199 140.248 30.6493 140.148 30.404 140.376C30.1777 140.587 29.5784 140.736 29.0722 140.706C28.566 140.677 28.0974 140.677 28.0308 140.706C27.4543 140.952 26.8182 140.953 26.6969 140.706C26.6158 140.543 26.4226 140.409 26.2676 140.409C25.8902 140.409 26.8143 141.199 27.4254 141.399C28.2939 141.683 29.8342 141.272 30.3311 140.624V140.625ZM45.2227 117.804C45.2227 117.427 44.9336 117.242 44.5951 117.404C44.4091 117.493 44.306 117.664 44.3659 117.785C44.5025 118.06 45.2227 118.076 45.2227 117.804V117.804ZM45.3994 114.244C45.6085 114.078 45.5005 113.864 45.0362 113.522C44.3925 113.049 44.3743 113.056 44.3403 113.763C44.3044 114.508 44.7874 114.728 45.3994 114.244ZM8.05428 85.252C7.97196 85.0862 7.79566 84.9505 7.66248 84.9505C7.5293 84.9505 7.48769 85.0862 7.56999 85.252C7.65231 85.4178 7.82861 85.5534 7.96178 85.5534C8.09496 85.5534 8.13658 85.4178 8.05428 85.252ZM10.3546 69.004C10.3546 68.7676 10.3262 68.6306 10.2915 68.6997C10.2568 68.7687 10.0116 69.1497 9.74667 69.5461L9.26497 70.267L9.80978 69.8504C10.1094 69.6213 10.3546 69.2404 10.3546 69.004H10.3546ZM8.53855 48.5532C8.80491 48.3574 8.89306 48.1931 8.73445 48.1881C8.57584 48.1785 8.37762 48.3168 8.29397 48.4852C8.21032 48.6537 8.04798 48.7193 7.9332 48.6311C7.81844 48.5428 7.66199 48.5965 7.58557 48.7504C7.40524 49.1135 7.92135 49.0068 8.53855 48.5532ZM12.4256 183.235C12.3476 183.078 12.387 182.87 12.5132 182.773C12.6393 182.676 12.8063 182.725 12.8843 182.882C12.9622 183.039 12.9228 183.247 12.7967 183.344C12.6705 183.441 12.5035 183.392 12.4256 183.235V183.235Z" fill="#222222"/>
</g>
<path d="M10.995 253H16.9899V248.333C16.9897 247.185 17.5806 246.092 18.6126 245.332L18.1889 244.569C16.7833 244.921 15.2907 244.307 14.7696 243.162C14.2485 242.018 14.8761 240.733 16.2072 240.217C17.5384 239.702 19.1207 240.132 19.832 241.203C20.5433 242.274 20.1419 243.621 18.9123 244.289L19.272 244.936C20.8124 244.132 22.7675 244.132 24.3078 244.936L24.6675 244.289C23.4397 243.617 23.0434 242.268 23.7596 241.199C24.4759 240.13 26.0611 239.705 27.3903 240.225C28.7195 240.745 29.3403 242.034 28.8122 243.177C28.2841 244.32 26.7868 244.927 25.3829 244.569L24.9593 245.332C25.9912 246.092 26.5822 247.185 26.5819 248.333V255C26.5819 257.761 23.8979 260 20.5869 260H5.39966C5.17894 260 5 259.851 5 259.667V258C5 255.238 7.68404 253 10.995 253ZM19.3879 242.332C19.3879 241.412 18.4932 240.665 17.3896 240.665C16.286 240.665 15.3913 241.412 15.3913 242.332C15.3913 243.253 16.286 243.999 17.3896 243.999C18.4932 243.999 19.3879 243.253 19.3879 242.332ZM28.1805 242.332C28.1805 241.412 27.2859 240.665 26.1822 240.665C25.0786 240.665 24.1839 241.412 24.1839 242.332C24.1839 243.253 25.0786 243.999 26.1822 243.999C26.7122 243.999 27.2205 243.823 27.5953 243.511C27.97 243.198 28.1805 242.774 28.1805 242.332ZM5.79933 259.333H20.5869C23.4564 259.333 25.7826 257.393 25.7826 255V248.333C25.7839 247.448 25.3608 246.599 24.6075 245.976L24.1479 246.806C24.0552 246.973 23.8172 247.046 23.6164 246.969C23.4155 246.892 23.3278 246.693 23.4205 246.526L23.9681 245.542C22.6417 244.821 20.9301 244.821 19.6037 245.542L20.1513 246.526C20.244 246.693 20.1563 246.892 19.9555 246.969C19.7546 247.046 19.5166 246.973 19.4239 246.806L18.9643 245.976C18.211 246.599 17.7879 247.448 17.7893 248.333V254.666C17.7893 255.955 16.5367 257 14.9916 257H14.592C14.3712 257 14.1923 256.851 14.1923 256.666C14.1923 256.482 14.3712 256.333 14.592 256.333H14.9916C16.0953 256.333 16.9899 255.587 16.9899 254.666V253.666H10.995C8.1255 253.666 5.79933 255.606 5.79933 258V259.333Z" fill="#222222" stroke="#222222"/>
<path d="M26.2007 242.983C25.7592 242.983 25.4013 242.685 25.4013 242.317C25.4013 241.948 25.7592 241.65 26.2007 241.65C26.6421 241.65 27 241.948 27 242.317C27 242.685 26.6421 242.983 26.2007 242.983Z" fill="#222222" stroke="white" stroke-width="2.5"/>
<path d="M17.2007 242.999C16.7592 242.999 16.4013 242.7 16.4013 242.332C16.4013 241.964 16.7592 241.665 17.2007 241.665C17.6421 241.665 18 241.964 18 242.332C18 242.7 17.6421 242.999 17.2007 242.999Z" fill="#222222" stroke="white" stroke-width="2.5"/>
<path d="M16.3034 259.229C20.9957 259.212 21.4368 259.206 21.6678 259.154C22.7695 258.904 23.5079 258.558 24.2062 257.965C24.9706 257.317 25.474 256.481 25.6186 255.621C25.6482 255.445 25.6577 254.204 25.6496 251.555L25.6379 247.742L25.5312 247.454C25.3913 247.075 25.1746 246.715 24.8993 246.402C24.7766 246.262 24.6657 246.148 24.6529 246.148C24.6401 246.148 24.5253 246.329 24.3978 246.551C24.1371 247.003 24.0487 247.08 23.7856 247.08C23.4765 247.08 23.263 246.874 23.3041 246.616C23.3148 246.549 23.4379 246.286 23.5777 246.033L23.8318 245.573L23.5729 245.462C22.4549 244.98 21.1239 244.977 20.012 245.454C19.8789 245.511 19.7699 245.572 19.7699 245.589C19.7699 245.607 19.8852 245.832 20.026 246.09C20.3525 246.688 20.3602 246.833 20.0745 247.006C19.9172 247.101 19.6535 247.105 19.507 247.015C19.442 246.975 19.3139 246.797 19.1711 246.549C19.044 246.329 18.9307 246.149 18.9193 246.149C18.9078 246.15 18.8065 246.25 18.6941 246.371C18.4138 246.674 18.1251 247.18 18.0076 247.574L17.9108 247.899L17.9076 250.713C17.9058 252.261 17.8912 253.904 17.8751 254.365C17.8463 255.194 17.8446 255.206 17.7258 255.475C17.4035 256.205 16.6604 256.784 15.7794 256.993C15.4671 257.067 14.758 257.117 14.5294 257.08C14.3397 257.05 14.1648 256.918 14.1107 256.765C14.0729 256.658 14.0771 256.621 14.1391 256.515C14.2683 256.294 14.3636 256.26 14.9197 256.236C15.2897 256.219 15.4705 256.195 15.6449 256.139C16.1315 255.984 16.5107 255.681 16.737 255.268C16.8411 255.077 16.8445 255.053 16.8575 254.404L16.8708 253.735L13.6434 253.75C10.0739 253.767 10.1563 253.762 9.36366 253.987C7.6252 254.48 6.34779 255.704 5.99403 257.216C5.94044 257.445 5.92617 257.684 5.92482 258.375L5.92311 259.246L8.55692 259.247C10.0055 259.247 13.4914 259.239 16.3034 259.229V259.229Z" fill="#F4A740"/>
</g>
<defs>
<filter id="filter0_d" x="-4.03931" y="10.6502" width="112.683" height="257.351" filterUnits="userSpaceOnUse" color-interpolation-filters="sRGB">
<feFlood flood-opacity="0" result="BackgroundImageFix"/>
<feColorMatrix in="SourceAlpha" type="matrix" values="0 0 0 0 0 0 0 0 0 0 0 0 0 0 0 0 0 0 127 0" result="hardAlpha"/>
<feOffset dy="4"/>
<feGaussianBlur stdDeviation="2"/>
<feColorMatrix type="matrix" values="0 0 0 0 0 0 0 0 0 0 0 0 0 0 0 0 0 0 0.25 0"/>
<feBlend mode="normal" in2="BackgroundImageFix" result="effect1_dropShadow"/>
<feBlend mode="normal" in="SourceGraphic" in2="effect1_dropShadow" result="shape"/>
</filter>
<clipPath id="clip0">
<rect width="105" height="260" fill="white" transform="matrix(-1 0 0 1 105 0)"/>
</clipPath>
</defs>
</svg>
