<svg width="105" height="260" viewBox="0 0 105 260" fill="none" xmlns="http://www.w3.org/2000/svg">
<g clip-path="url(#clip0)">
<path d="M57.7927 16.3879C58.1167 16.1361 58.1088 16.1262 57.6209 16.1712C57.3395 16.1972 57.077 16.316 57.0375 16.4352C56.9382 16.7347 57.3821 16.7069 57.7927 16.3879ZM54.7793 22.9683C55.0526 22.629 55.4713 22.278 55.7097 22.1882C56.0463 22.0614 56.1307 21.9216 56.0877 21.5618C56.0221 21.0123 55.5949 20.792 55.5949 21.3076C55.5949 21.6894 54.9881 22.1985 54.5331 22.1985C54.3769 22.1985 54.1134 22.347 53.9475 22.5286C53.6908 22.8095 53.68 22.9127 53.875 23.2219C54.001 23.4217 54.1442 23.5852 54.1932 23.5852C54.2422 23.5851 54.506 23.3076 54.7793 22.9683ZM53.3224 25.2824C53.3796 25.0302 53.6809 24.7585 54.1473 24.5385C55.0883 24.0946 55.0974 23.8554 54.1678 24.0027C53.2838 24.1427 53.1449 24.2203 53.1449 24.5737C53.1449 24.7248 52.8557 25.096 52.5023 25.3986C52.0993 25.7436 51.9092 26.0279 51.9924 26.1612C52.1838 26.4679 53.2069 25.792 53.3224 25.2824ZM59.4449 26.5905C59.6422 26.5275 59.5988 26.4469 59.2699 26.2654C58.6932 25.9474 58.4551 25.9529 58.3255 26.2875C58.1175 26.8245 58.439 26.9116 59.4449 26.5905ZM51.5316 26.6185C51.5045 26.5232 51.3472 26.4633 51.182 26.4854C50.9643 26.5146 50.8273 26.3257 50.684 25.7985C50.5029 25.1324 50.5187 25.0453 50.8725 24.7616C51.3033 24.416 51.5699 24.3639 51.5699 24.6252C51.5699 24.7205 51.688 24.7985 51.8324 24.7985C52.2444 24.7985 52.1392 24.5004 51.6876 24.3882C51.1755 24.2608 49.3362 24.5488 49.0244 24.805C48.7232 25.0526 48.8782 25.4475 49.3328 25.5904C49.5284 25.6519 49.9266 25.9709 50.2178 26.2994C50.5927 26.7223 50.8687 26.8813 51.1639 26.8442C51.3932 26.8154 51.5586 26.7138 51.5316 26.6185ZM55.9449 28.2549C55.9449 28.0586 55.8661 27.9462 55.7699 28.0052C55.6736 28.0641 55.5949 28.2247 55.5949 28.3621C55.5949 28.4994 55.6736 28.6118 55.7699 28.6118C55.8661 28.6118 55.9449 28.4512 55.9449 28.2549ZM55.5949 30.3239C55.5949 30.0166 55.5517 29.9915 55.3324 30.1718C55.188 30.2905 55.0699 30.4561 55.0699 30.5397C55.0699 30.6234 55.188 30.6918 55.3324 30.6918C55.4832 30.6918 55.5949 30.5354 55.5949 30.3239ZM53.8121 30.876C53.8558 30.746 53.7902 30.681 53.6589 30.7243C53.5326 30.766 53.3948 30.9025 53.3527 31.0277C53.3089 31.1577 53.3746 31.2227 53.5058 31.1793C53.6321 31.1376 53.7699 31.0011 53.8121 30.876ZM64.4324 34.6785C64.4919 34.5832 64.4571 34.5052 64.3552 34.5052C64.2533 34.5052 64.1699 34.5832 64.1699 34.6785C64.1699 34.7738 64.2046 34.8518 64.247 34.8518C64.2895 34.8518 64.3729 34.7738 64.4324 34.6785ZM64.6949 37.1918C64.4619 36.9138 63.9949 36.8367 63.9949 37.0763C63.9949 37.3134 64.207 37.4518 64.5705 37.4518C64.8549 37.4518 64.8759 37.4079 64.6949 37.1918ZM66.4449 38.0483C66.4449 37.8996 66.3661 37.8262 66.2699 37.8852C66.1736 37.9441 66.0949 38.0657 66.0949 38.1554C66.0949 38.2451 66.1736 38.3185 66.2699 38.3185C66.3661 38.3185 66.4449 38.1969 66.4449 38.0483ZM49.8199 38.1452C49.8199 38.0498 49.7017 37.9718 49.5574 37.9718C49.413 37.9718 49.2949 38.0498 49.2949 38.1452C49.2949 38.2405 49.413 38.3185 49.5574 38.3185C49.7017 38.3185 49.8199 38.2405 49.8199 38.1452ZM53.8422 38.0916C53.8437 38.0145 53.7661 37.9996 53.6699 38.0585C53.5736 38.1174 53.4961 38.2975 53.4975 38.4587C53.4999 38.7113 53.5237 38.7159 53.6699 38.4918C53.7632 38.3488 53.8407 38.1687 53.8422 38.0916ZM48.2099 40.0172C48.3254 39.9028 48.4199 39.6957 48.4199 39.557C48.4199 39.3568 48.3477 39.3695 48.0699 39.6185C47.7103 39.9408 47.6119 40.2252 47.8599 40.2252C47.9369 40.2252 48.0944 40.1316 48.2099 40.0172ZM52.3388 43.9373C52.4042 43.7685 52.3651 43.6893 52.2372 43.7315C51.9756 43.8179 51.8315 44.2118 52.0616 44.2118C52.1555 44.2118 52.2803 44.0883 52.3388 43.9373ZM59.8386 46.1806C60.7827 46.026 60.6466 45.7718 59.6199 45.7718C58.9588 45.7718 58.7449 45.8354 58.7449 46.0318C58.7449 46.3196 58.8785 46.3378 59.8386 46.1806ZM43.7724 46.5999C44.0796 46.1656 44.1383 45.4252 43.8655 45.4252C43.695 45.4252 43.5434 45.7224 43.2689 46.5952C43.1101 47.1002 43.4166 47.1031 43.7724 46.5999V46.5999ZM51.0886 48.4304C50.9683 48.3823 50.7714 48.3823 50.6511 48.4304C50.5308 48.4785 50.6292 48.5178 50.8699 48.5178C51.1105 48.5178 51.2089 48.4785 51.0886 48.4304ZM50.3449 48.8918C50.3449 48.7965 50.3101 48.7185 50.2677 48.7185C50.2252 48.7185 50.1419 48.7965 50.0824 48.8918C50.0229 48.9872 50.0576 49.0652 50.1595 49.0652C50.2615 49.0652 50.3449 48.9872 50.3449 48.8918ZM46.6981 51.6951C48.0475 51.0137 48.792 50.11 47.5942 50.6074C47.0412 50.837 45.6165 52.0118 45.891 52.0118C45.9899 52.0118 46.3531 51.8693 46.6981 51.6951ZM53.8692 51.8534C54.358 51.461 54.2153 51.1947 53.6903 51.5194C53.3023 51.7594 53.0565 52.1852 53.306 52.1852C53.3885 52.1852 53.642 52.0359 53.8692 51.8534ZM50.9646 52.867C51.028 52.7653 51.0439 52.6465 50.9999 52.6029C50.8779 52.482 50.3449 52.7213 50.3449 52.897C50.3449 53.114 50.8249 53.0907 50.9646 52.867V52.867ZM66.7949 53.3891C66.1978 52.9137 65.3816 52.4872 65.2736 52.5942C65.1135 52.7528 65.4066 53.0493 66.0625 53.3925C66.9289 53.8457 67.3659 53.8438 66.7949 53.3891V53.3891ZM72.3949 54.111C72.3949 53.8359 71.7289 53.1347 71.594 53.2678C71.3955 53.4637 71.825 54.2652 72.1286 54.2652C72.2751 54.2652 72.3949 54.1958 72.3949 54.111V54.111ZM65.3949 54.4464C65.3949 54.1875 63.8069 53.0518 63.4447 53.0518C62.9976 53.0518 63.037 53.2085 63.6735 53.9618C64.1073 54.4753 64.3458 54.6118 64.8088 54.6118C65.1311 54.6118 65.3949 54.5374 65.3949 54.4464V54.4464ZM53.3199 55.2287C53.3199 55.1867 53.2411 55.1041 53.1449 55.0452C53.0486 54.9863 52.9699 55.0206 52.9699 55.1216C52.9699 55.2226 53.0486 55.3052 53.1449 55.3052C53.2411 55.3052 53.3199 55.2708 53.3199 55.2287ZM50.8699 55.2127C50.8699 55.0778 51.1134 54.8426 51.4111 54.6902C52.1154 54.3295 51.9959 54.2399 51.0338 54.4072C50.2461 54.5442 50.1739 54.6706 50.4394 55.4462C50.5361 55.7283 50.8699 55.5473 50.8699 55.2127ZM55.1504 55.8854C54.7652 55.6064 54.6025 55.5926 54.4564 55.8266C54.3334 56.0238 55.0716 56.3549 55.3151 56.2117C55.4019 56.1607 55.3278 56.0138 55.1504 55.8854ZM63.1857 56.4253C63.2999 56.1305 62.9598 55.9369 62.4863 56.0272C62.1983 56.0821 62.1984 56.1011 62.4886 56.3885C62.8657 56.762 63.0514 56.7718 63.1857 56.4253H63.1857ZM65.3949 57.3913C65.3949 57.1845 64.7014 56.801 64.5674 56.9336C64.4229 57.0768 64.8749 57.5585 65.1538 57.5585C65.2864 57.5585 65.3949 57.4832 65.3949 57.3913ZM55.2113 57.7188C55.1768 57.6163 55.0738 57.5325 54.9824 57.5325C54.8909 57.5325 54.7879 57.6163 54.7534 57.7188C54.7189 57.8213 54.822 57.9052 54.9824 57.9052C55.1428 57.9052 55.2458 57.8213 55.2113 57.7188ZM63.6449 58.4252C63.1363 58.0312 62.6338 57.9945 62.2011 58.3198C61.7017 58.6953 61.8365 58.772 62.9886 58.768L64.0824 58.7641L63.6449 58.4252ZM66.6199 58.8709C66.6199 58.5427 66.1104 58.0486 65.9029 58.1756C65.8128 58.2307 65.7921 58.3679 65.8568 58.4805C66.2299 59.1299 66.6199 59.3294 66.6199 58.8709ZM61.3699 61.0252C61.8693 60.5305 63.5885 60.5747 65.4386 61.13C65.9143 61.2727 65.8126 60.7564 65.2838 60.3444C64.811 59.9761 63.9185 59.8602 63.7413 60.1442C63.6354 60.3138 62.2999 60.2708 62.1193 60.0919C61.9641 59.9381 59.6199 59.96 59.6197 60.1152C59.6196 60.2778 60.7103 61.3501 60.8886 61.3626C60.9608 61.3677 61.1774 61.2158 61.3699 61.0252ZM65.1834 62.937C66.587 62.7402 66.8419 62.5345 66.1326 62.1712C65.6603 61.9292 65.5497 61.9284 65.0753 62.1628C64.7838 62.3068 64.1065 62.4298 63.5701 62.4361C63.0337 62.4425 62.5949 62.4996 62.5949 62.563C62.5949 62.7772 63.5555 63.2713 63.8017 63.1836C63.9361 63.1357 64.5579 63.0248 65.1834 62.937ZM50.3449 63.7985C50.3449 63.7032 50.3101 63.6252 50.2677 63.6252C50.2252 63.6252 50.1419 63.7032 50.0824 63.7985C50.0229 63.8938 50.0576 63.9718 50.1595 63.9718C50.2615 63.9718 50.3449 63.8938 50.3449 63.7985ZM68.0199 65.5607C68.0199 65.335 67.8118 65.1849 67.6426 65.2885C67.4616 65.3993 67.6177 65.7052 67.8552 65.7052C67.9458 65.7052 68.0199 65.6402 68.0199 65.5607ZM66.6927 67.1054C66.6204 66.5655 66.6496 66.2274 66.7753 66.1505C66.8823 66.085 66.9699 65.9217 66.9699 65.7876C66.9699 65.4057 65.9204 64.3185 65.5517 64.3185C65.3692 64.3185 65.2199 64.2405 65.2199 64.1452C65.2199 64.0498 65.0624 63.9718 64.8699 63.9718C64.4103 63.9718 64.4283 64.1818 64.9596 65.0153C65.3121 65.5684 65.5029 65.7052 65.9221 65.7052C66.2096 65.7052 66.4449 65.7776 66.4449 65.8661C66.4449 66.193 65.8801 66.5718 65.3927 66.5718C64.7034 66.5718 64.5763 66.8652 65.2063 67.0022C65.8088 67.1333 66.1734 67.5057 66.039 67.8527C65.9021 68.2061 66.0894 68.3202 66.4727 68.1171C66.755 67.9675 66.7879 67.8161 66.6927 67.1054ZM69.2067 68.7818C68.4201 67.4143 67.3176 66.2999 67.3205 66.8752C67.3227 67.3038 68.9194 69.1718 69.2837 69.1718C69.3647 69.1718 69.3301 68.9963 69.2067 68.7818ZM63.9819 69.4164C63.7462 69.1351 63.2949 69.0883 63.2949 69.3452C63.2949 69.4405 63.413 69.5185 63.5574 69.5185C63.7017 69.5185 63.8199 69.6011 63.8199 69.7021C63.8199 69.803 63.9024 69.8351 64.0034 69.7733C64.1288 69.6965 64.122 69.5836 63.9819 69.4164ZM49.1199 71.4252C49.1199 71.3298 48.967 71.2518 48.7802 71.2518C48.5934 71.2518 48.3919 71.3298 48.3324 71.4252C48.271 71.5235 48.4181 71.5985 48.672 71.5985C48.9183 71.5985 49.1199 71.5205 49.1199 71.4252ZM68.9064 71.9391C69.3212 71.7192 69.3451 71.2033 68.9553 70.8831C68.796 70.7522 68.5587 70.3917 68.4279 70.0818C68.1943 69.5284 68.1703 69.5185 67.055 69.5185C66.3745 69.5185 65.9199 69.5918 65.9199 69.7016C65.9199 69.8023 66.1563 70.0986 66.4452 70.36C66.8542 70.73 66.924 70.8813 66.7602 71.0435C66.6445 71.1581 66.4317 71.2518 66.2874 71.2518C65.7903 71.2518 66.3729 71.6157 67.2535 71.8552C68.3375 72.1501 68.4934 72.158 68.9064 71.9391ZM63.9949 72.3543C63.9949 72.2933 63.8571 72.1398 63.6886 72.0131C63.2974 71.719 62.5408 71.6978 62.637 71.9837C62.7352 72.2755 63.9949 72.6192 63.9949 72.3543ZM68.8285 73.0422C69.1841 72.8114 69.3031 72.7981 69.4146 72.9767C69.4915 73.0999 69.6617 73.1653 69.7929 73.122C69.957 73.0678 69.904 72.9757 69.6229 72.8267C69.088 72.5432 67.4949 72.7389 67.4949 73.0881C67.4949 73.4255 68.2794 73.3985 68.8285 73.0422ZM71.5118 76.6338C71.9013 76.3898 71.4657 75.7246 70.399 74.9345C69.5269 74.2885 69.4695 74.2726 67.8446 74.2308C66.2096 74.1887 66.1895 74.1931 66.6168 74.4966C67.0268 74.7878 70.9824 76.7792 71.1699 76.7887C71.218 76.7912 71.3719 76.7215 71.5118 76.6338ZM74.1226 76.5818C73.3699 75.1815 72.6923 74.8488 72.5029 75.7868C72.3503 76.5426 72.7669 76.9718 73.6531 76.9718C74.3028 76.9718 74.3231 76.955 74.1226 76.5818ZM44.1684 77.4949C44.2183 77.3058 44.4668 77.0472 44.7207 76.9201C44.9746 76.793 45.3399 76.6057 45.5324 76.504C46.1291 76.1886 46.7274 75.9563 47.5067 75.7374C47.9189 75.6217 48.1945 75.4756 48.1192 75.4129C47.6217 74.9981 43.9863 74.5649 43.7799 74.8958C43.694 75.0335 43.6174 77.1807 43.6796 77.7085C43.7119 77.9835 44.0821 77.8217 44.1684 77.4949ZM74.8449 78.1852C74.8449 78.0898 74.692 78.0118 74.5052 78.0118C74.3184 78.0118 74.1169 78.0898 74.0574 78.1852C73.996 78.2835 74.1431 78.3585 74.397 78.3585C74.6433 78.3585 74.8449 78.2805 74.8449 78.1852ZM64.8261 78.3753C65.5464 78.3201 64.4103 77.6652 63.5943 77.6652C63.2831 77.6652 62.79 78.0957 62.7754 78.3803C62.7709 78.4693 63.6247 78.4672 64.8261 78.3753V78.3753ZM67.6699 79.0621C67.6699 78.8576 67.3286 78.6388 67.2032 78.763C67.0779 78.8871 67.2987 79.2252 67.5052 79.2252C67.5958 79.2252 67.6699 79.1518 67.6699 79.0621ZM46.573 78.4452C47.293 77.7521 47.3387 77.6654 46.9828 77.6675C46.1741 77.6723 45.7795 77.8641 45.8872 78.2001C45.9433 78.3754 45.9034 78.6777 45.7984 78.872C45.5143 79.3977 45.6761 79.3085 46.573 78.4452ZM39.1979 80.8718C39.1391 80.5768 38.6699 80.5793 38.5552 80.8753C38.472 81.0901 38.5386 81.1428 38.8395 81.1004C39.0556 81.0701 39.2168 80.9672 39.1979 80.8718V80.8718ZM68.0018 81.4451C67.6315 80.7598 67.0713 80.2683 66.8297 80.4168C66.5071 80.6148 66.9203 81.4785 67.3376 81.4785C67.509 81.4785 67.6979 81.5565 67.7574 81.6518C67.9793 82.0075 68.2033 81.818 68.0018 81.4451ZM52.0949 81.5652C52.0949 81.4222 51.9767 81.3052 51.8324 81.3052C51.688 81.3052 51.5699 81.4222 51.5699 81.5652C51.5699 81.7082 51.688 81.8252 51.8324 81.8252C51.9767 81.8252 52.0949 81.7082 52.0949 81.5652ZM70.1179 82.2152C70.1143 81.9688 68.4056 80.1787 68.285 80.2949C68.1657 80.4097 68.6532 81.1947 69.316 81.9552C69.6426 82.33 70.122 82.4854 70.1179 82.2152ZM67.0136 82.7504C66.8933 82.7023 66.6964 82.7023 66.5761 82.7504C66.4558 82.7985 66.5542 82.8378 66.7949 82.8378C67.0355 82.8378 67.1339 82.7985 67.0136 82.7504ZM51.6431 86.7466C51.7953 86.6888 51.9199 86.5718 51.9199 86.4866C51.9199 86.2307 51.104 86.3124 50.8699 86.5919C50.6883 86.8085 50.7115 86.8519 51.0091 86.8519C51.2055 86.8519 51.4908 86.8045 51.6431 86.7466ZM48.0301 86.3857C48.96 85.8706 49.12 85.7206 48.9057 85.5654C48.7234 85.4334 48.6864 85.2605 48.7842 84.9986C48.9045 84.6764 48.8505 84.6055 48.4119 84.5101C47.7655 84.3695 47.7139 84.2803 47.6364 83.1711C47.5756 82.3003 47.551 82.2609 47.0425 82.22C46.7508 82.1966 46.4641 82.2542 46.4056 82.348C46.3471 82.4418 45.8707 82.5185 45.347 82.5185C44.8233 82.5185 44.3949 82.5901 44.3949 82.6777C44.3949 82.7652 44.353 82.9448 44.3019 83.0768C44.2301 83.262 44.3564 83.2998 44.8542 83.2422C45.3523 83.1846 45.4771 83.2221 45.4014 83.4064C45.0267 84.3195 45.0262 84.2968 45.4184 84.1735C45.743 84.0715 45.7948 84.1225 45.7942 84.5435C45.7938 84.8121 45.6363 85.2872 45.4442 85.5994C44.9914 86.3349 45.0031 86.4448 45.5483 86.5803C45.8337 86.6513 45.9678 86.7804 45.9103 86.9288C45.6806 87.5218 46.2358 87.3795 48.0301 86.3857H48.0301ZM51.4824 88.2385C51.6566 88.0478 51.9838 87.8919 52.2095 87.8919C52.5306 87.8919 52.6199 87.7975 52.6199 87.4585C52.6199 86.9762 52.3069 86.8993 51.6896 87.2299C51.4794 87.3425 51.0711 87.4599 50.7824 87.4907C49.9627 87.5784 49.8199 87.6757 49.8199 88.1464C49.8199 88.5398 49.8895 88.5852 50.4927 88.5852C50.9434 88.5852 51.2702 88.4707 51.4824 88.2385ZM47.1074 88.4118C47.3588 88.1367 47.3716 88.0652 47.1695 88.0652C46.895 88.0652 46.4949 88.3942 46.4949 88.6199C46.4949 88.8655 46.782 88.7679 47.1074 88.4118ZM55.5074 89.1052C55.5669 89.0098 55.5275 88.9319 55.4199 88.9319C55.3123 88.9319 55.2729 88.8538 55.3324 88.7585C55.3919 88.6632 55.2784 88.5852 55.0802 88.5852C54.882 88.5852 54.7199 88.6178 54.7199 88.6577C54.7199 88.6975 54.6721 88.8535 54.6136 89.0043C54.5339 89.2101 54.6186 89.2785 54.9533 89.2785C55.1986 89.2785 55.4479 89.2005 55.5074 89.1052ZM37.5699 90.8487C37.5699 90.5485 37.2618 90.4929 37.0433 90.7538C36.8633 90.9685 36.8893 91.0118 37.1984 91.0118C37.4027 91.0118 37.5699 90.9385 37.5699 90.8487ZM52.8216 91.0709C52.7882 90.8001 52.7354 90.5523 52.7043 90.5202C52.6733 90.4881 52.3535 90.729 51.9936 91.0556C51.1916 91.7837 51.2929 92.1055 52.2241 91.7878C52.8042 91.5899 52.8751 91.5047 52.8216 91.0709ZM49.3824 93.2652C49.5715 92.9621 49.291 92.7059 49.0168 92.9313C48.881 93.043 48.7699 93.2028 48.7699 93.2864C48.7699 93.4954 49.2491 93.4788 49.3824 93.2652ZM54.0199 96.0506C54.0199 95.9619 54.1805 95.8644 54.3768 95.8339C54.8689 95.7575 54.8941 95.4441 54.4136 95.3765C53.8877 95.3025 53.9075 94.8168 54.4574 94.3052C55.0306 93.7718 55.0093 93.6119 54.3653 93.6119C53.314 93.6119 51.6811 95.7743 52.4886 96.0971C52.876 96.2519 54.0199 96.2171 54.0199 96.0506ZM51.121 97.0909C51.3161 96.8774 51.3848 96.627 51.3113 96.3976C51.2177 96.1055 51.0515 96.0385 50.4206 96.0385C49.8477 96.0385 49.6449 96.1065 49.6449 96.2985C49.6449 96.4415 49.7253 96.5585 49.8236 96.5585C49.9219 96.5585 50.0921 96.7535 50.2017 96.9919C50.4408 97.5116 50.7101 97.5407 51.121 97.0909ZM63.5574 97.1598C62.9993 96.7067 62.7699 96.6297 62.7699 96.8954C62.7699 97.1206 63.4886 97.5999 63.8151 97.5923C63.9885 97.5882 63.898 97.4364 63.5574 97.1598ZM53.7674 97.3527C53.9541 97.2175 54.0546 97.0552 53.9908 96.992C53.8433 96.8459 53.1449 97.2086 53.1449 97.4313C53.1449 97.6676 53.3722 97.6389 53.7674 97.3527ZM54.8345 99.931C54.8915 99.7839 54.8999 99.6257 54.8533 99.5795C54.7168 99.4444 53.8449 99.826 53.8449 100.021C53.8449 100.305 54.7203 100.226 54.8345 99.931ZM65.2199 100.54C65.2199 100.316 64.7213 100.115 64.5611 100.273C64.4959 100.338 64.5584 100.463 64.6999 100.552C65.0387 100.764 65.2199 100.76 65.2199 100.54ZM73.5427 102.186C73.1984 101.928 72.9199 101.856 72.9199 102.024C72.9199 102.108 73.5881 102.422 73.7949 102.435C73.843 102.438 73.7295 102.326 73.5427 102.186ZM68.0991 112.982C67.981 112.68 66.8115 111.911 66.6754 112.046C66.5286 112.191 67.1366 112.854 67.5824 113.035C68.0849 113.238 68.1951 113.227 68.0991 112.982ZM64.4424 113.299C64.6291 113.164 64.7426 113.027 64.6946 112.994C64.6466 112.962 64.2706 112.677 63.859 112.362C62.8304 111.573 62.5025 111.665 62.936 112.619C63.2169 113.238 63.4121 113.403 64.0052 113.525C64.059 113.536 64.2557 113.435 64.4424 113.299ZM54.4607 113.439C55.0046 112.901 54.9149 112.458 54.2779 112.537C54.0338 112.567 53.8364 112.65 53.8394 112.722C53.8424 112.793 53.8449 113.086 53.8449 113.372C53.8449 114.006 53.8846 114.01 54.4607 113.439H54.4607ZM62.7699 123.165C62.65 123.022 62.4854 122.905 62.4039 122.905C62.3225 122.905 62.3012 123.022 62.3566 123.165C62.412 123.308 62.5767 123.425 62.7225 123.425C62.9384 123.425 62.9472 123.377 62.7699 123.165ZM64.1699 125.266C64.1699 125.135 64.288 124.931 64.4324 124.812C64.8613 124.459 64.7394 124.373 63.9074 124.438C63.0262 124.507 62.8803 124.799 63.5088 125.235C63.9885 125.568 64.1699 125.577 64.1699 125.266ZM67.1449 126.999C67.1449 126.727 66.4934 126.5 66.3539 126.724C66.3036 126.805 66.402 126.951 66.5724 127.049C66.997 127.294 67.1449 127.281 67.1449 126.999ZM48.9942 129.778C49.4895 129.573 50.1941 128.898 51.0449 127.813C51.1892 127.629 51.583 127.293 51.9199 127.067C52.2567 126.84 52.8159 126.416 53.1625 126.123C53.5091 125.831 54.1588 125.285 54.6063 124.911C55.3863 124.258 55.4199 124.192 55.4199 123.308C55.4199 122.8 55.3766 122.385 55.3237 122.385C54.9921 122.385 54.1389 123.033 53.2247 123.978C51.9904 125.254 50.4608 126.543 49.7761 126.884C49.4848 127.029 49.2938 127.266 49.2923 127.484C49.2909 127.683 49.1924 128.01 49.0735 128.212C47.9631 130.094 47.9573 130.208 48.9942 129.778ZM66.4334 130.749C65.8645 130.107 65.5382 129.839 65.3259 129.839C65.2285 129.839 65.4564 130.151 65.8324 130.532C66.6004 131.311 67.0874 131.486 66.4334 130.749ZM52.6199 130.5C54.0727 129.517 54.1601 129.429 54.2236 128.882C54.2702 128.481 54.3998 128.343 54.8511 128.216C55.5241 128.026 55.5832 127.806 55.0002 127.661C54.2192 127.467 53.7837 127.657 53.1942 128.452C52.8759 128.881 52.555 129.31 52.4811 129.405C52.1462 129.837 51.2199 131.251 51.2199 131.331C51.2199 131.436 51.3593 131.353 52.6199 130.5ZM53.6699 131.626C53.6699 131.284 53.2477 131.435 53.1759 131.802C53.1365 132.003 53.2027 132.059 53.3946 131.986C53.546 131.929 53.6699 131.766 53.6699 131.626ZM62.8574 132.092C62.7979 131.997 62.6705 131.919 62.5742 131.919C62.478 131.919 62.4479 131.997 62.5074 132.092C62.5669 132.187 62.6943 132.265 62.7905 132.265C62.8868 132.265 62.9169 132.187 62.8574 132.092ZM49.8199 133.132C49.8199 133.037 50.1115 132.64 50.468 132.249C51.0423 131.619 51.0821 131.52 50.818 131.373C50.466 131.178 50.4334 130.82 50.7386 130.501C51.3887 129.82 52.9443 127.59 52.8214 127.515C52.6699 127.422 51.3235 128.704 50.9826 129.266C50.3031 130.385 50.0444 130.706 49.6969 130.863C49.4827 130.96 49.1113 131.422 48.8715 131.891C48.4388 132.737 48.4414 133.127 48.8774 132.769C49.1468 132.547 49.4699 132.704 49.4699 133.055C49.4699 133.193 49.5486 133.305 49.6449 133.305C49.7411 133.305 49.8199 133.227 49.8199 133.132ZM68.0199 134.772C68.0199 134.497 67.1842 133.417 65.8808 132.009C65.4262 131.518 64.829 130.81 64.5537 130.434C63.7546 129.345 63.55 129.227 63.0375 129.559C62.6478 129.812 62.6243 129.889 62.8076 130.316C63.1228 131.051 63.6645 131.572 64.1129 131.572C64.6096 131.572 64.6558 132.008 64.1856 132.257C63.7986 132.462 63.8658 132.962 64.337 133.385C64.506 133.536 65.3053 133.93 66.1133 134.26C67.5293 134.837 68.0199 134.969 68.0199 134.772ZM51.0731 134.236C52.5098 133.071 52.5148 133.065 52.2426 132.633C52.072 132.362 52.0752 132.238 52.2581 132.019C52.4115 131.836 52.4225 131.745 52.2913 131.745C52.1833 131.745 52.0949 131.814 52.0949 131.898C52.0949 131.983 51.9441 132.09 51.7599 132.138C51.5756 132.186 51.231 132.527 50.994 132.895C50.7571 133.264 50.2663 133.866 49.9035 134.233C49.3829 134.759 49.2953 134.932 49.4881 135.053C49.8299 135.268 49.746 135.311 51.0731 134.236ZM48.7699 134.848C48.7699 134.762 48.6321 134.694 48.4636 134.697C48.1031 134.704 47.5059 135.115 47.65 135.258C47.79 135.397 48.7699 135.038 48.7699 134.848ZM70.2074 136.252C69.7916 135.797 69.6505 135.936 70.0542 136.404C70.2244 136.6 70.4002 136.725 70.4449 136.681C70.4895 136.637 70.3826 136.444 70.2074 136.252ZM51.6304 146.58C51.9589 146.255 52.6608 145.338 53.1902 144.544C53.7196 143.749 54.3197 142.95 54.5238 142.768C54.813 142.511 54.8949 142.236 54.8949 141.522C54.8949 140.078 54.3779 140.133 54.0422 141.613C53.9481 142.028 53.7546 142.482 53.6123 142.623C53.2378 142.994 52.9155 142.718 53.0345 142.128L53.1345 141.633L52.3084 141.738C51.7715 141.807 51.3149 141.998 51.0039 142.284C50.5962 142.66 50.5407 142.82 50.6287 143.365C50.6863 143.722 50.6437 144.169 50.5323 144.375C50.3588 144.697 50.3794 144.745 50.6887 144.745C51.1376 144.745 51.137 145.015 50.6858 146.025C50.1169 147.299 50.6114 147.59 51.6304 146.58H51.6304ZM47.3148 148.528C48.1651 147.737 47.5941 147.615 46.6765 148.392C46.0977 148.882 46.0893 148.905 46.4902 148.905C46.721 148.905 47.0921 148.736 47.3148 148.528ZM45.372 149.425C45.7146 149.425 45.6836 149.14 45.3263 149.004C45.1589 148.94 44.9144 149.01 44.7575 149.165C44.5143 149.406 44.5128 149.456 44.7449 149.599C44.9092 149.7 45.0292 149.698 45.0657 149.593C45.0978 149.501 45.2356 149.425 45.3719 149.425L45.372 149.425ZM64.4642 156.705C64.2542 156.133 64.0316 155.665 63.9695 155.665C63.8273 155.665 63.689 157.025 63.8145 157.19C63.9299 157.341 64.5653 157.721 64.7267 157.735C64.7924 157.741 64.6743 157.277 64.4642 156.705ZM68.1949 168.336C68.1949 168.15 67.1014 167.437 66.9884 167.549C66.9453 167.592 67.0948 167.821 67.3205 168.059C67.7275 168.488 68.1949 168.636 68.1949 168.336ZM69.4199 172.932C69.4199 172.817 68.6504 172.361 68.2386 172.232C67.6422 172.045 67.7676 172.378 68.4136 172.696C68.9589 172.965 69.4199 173.073 69.4199 172.932ZM73.2699 177.419C73.2699 177.276 73.1421 177.159 72.9859 177.159C72.7534 177.159 72.7414 177.206 72.9199 177.419C73.0397 177.562 73.1675 177.679 73.2038 177.679C73.2401 177.679 73.2699 177.562 73.2699 177.419ZM80.2699 253.252C80.2699 253.157 80.1911 253.079 80.0949 253.079C79.9986 253.079 79.9199 253.157 79.9199 253.252C79.9199 253.347 79.9986 253.425 80.0949 253.425C80.1911 253.425 80.2699 253.347 80.2699 253.252ZM59.0949 253.858C59.0949 253.67 59.2544 253.61 59.6636 253.641C60.1798 253.681 60.2669 253.614 60.6059 252.914C60.8997 252.308 60.9374 252.076 60.7825 251.831C60.5062 251.392 60.453 251.423 59.9755 252.288C59.734 252.726 59.3861 253.099 59.1687 253.153C58.7326 253.262 58.4556 254.119 58.8566 254.119C58.9877 254.119 59.0949 254.001 59.0949 253.858ZM68.7199 253.911C68.7199 253.631 68.6681 253.58 68.5251 253.722C68.418 253.828 68.3833 254 68.4479 254.103C68.629 254.394 68.7199 254.329 68.7199 253.911ZM67.4177 254.209C67.7117 253.986 67.7221 253.928 67.4949 253.778C67.1491 253.549 66.3207 253.55 66.1772 253.78C65.8085 254.371 66.7654 254.702 67.4177 254.209V254.209ZM64.6803 254.126C65.25 253.838 65.5699 253.485 65.5699 253.144C65.5699 253.1 65.2746 253.086 64.9136 253.114C64.2918 253.163 64.26 253.14 64.3077 252.689C64.3735 252.067 64.1948 252.103 63.579 252.837C63.1102 253.395 63.0952 253.458 63.3603 253.748C63.5168 253.919 63.6449 254.151 63.6449 254.262C63.6449 254.55 63.9098 254.515 64.6803 254.126ZM52.7997 256.949C53.0377 256.79 53.2575 256.642 53.2882 256.62C53.319 256.597 53.2433 256.419 53.1201 256.224C52.9293 255.921 52.9535 255.767 53.283 255.187C53.6977 254.456 53.7452 254.29 53.5386 254.295C53.4664 254.297 53.1746 254.687 52.8902 255.162C52.4039 255.973 51.8636 256.374 51.6037 256.117C51.5406 256.054 51.6216 255.774 51.7838 255.494C52.1994 254.777 51.9722 254.862 51.2537 255.694C50.8095 256.208 50.5381 256.383 50.2651 256.331C50.0582 256.292 49.7842 256.371 49.6563 256.506C49.5059 256.666 49.2465 256.716 48.9218 256.649C48.6458 256.592 48.1836 256.496 47.8949 256.437C47.4976 256.355 47.3699 256.391 47.3699 256.587C47.3699 256.934 48.5942 257.09 50.236 256.953C51.0485 256.885 51.6388 256.915 51.8498 257.037C52.2855 257.287 52.2953 257.286 52.7997 256.949ZM46.4074 257.34C47.0245 256.85 46.9028 256.559 46.2561 256.979C45.9928 257.15 45.6666 257.222 45.455 257.155C44.9002 256.981 44.6491 257.243 45.1231 257.501C45.7073 257.82 45.8207 257.806 46.4074 257.34ZM48.7699 257.923C48.7699 257.728 48.0185 257.586 47.5833 257.698C46.9264 257.869 47.1524 258.075 47.9824 258.062C48.4155 258.056 48.7699 257.993 48.7699 257.923ZM43.3564 258.099C43.8216 257.853 43.7812 257.585 43.2788 257.585C42.7798 257.585 42.328 258.021 42.6813 258.161C42.8056 258.211 42.9322 258.257 42.9626 258.265C42.993 258.272 43.1702 258.198 43.3564 258.099ZM39.1124 257.889C39.1544 257.67 39.0573 257.586 38.7639 257.588C38.2239 257.591 37.8445 257.844 38.0015 258.096C38.1923 258.402 39.0447 258.243 39.1124 257.889ZM41.8894 258.073C41.8335 257.934 41.7921 257.976 41.7837 258.177C41.7761 258.36 41.8174 258.463 41.8756 258.405C41.9337 258.347 41.94 258.198 41.8894 258.073ZM39.4511 259.825C39.2827 259.728 39.1449 259.496 39.1449 259.31C39.1449 259.036 39.0227 258.972 38.503 258.972C38.1499 258.972 37.3624 258.886 36.7529 258.781C35.8933 258.632 35.6449 258.522 35.6449 258.29C35.6449 257.835 35.5105 257.784 34.8049 257.97C33.99 258.186 32.8489 258.151 32.5452 257.901C32.3925 257.776 31.9708 257.756 31.3103 257.842C29.4696 258.084 26.516 258.059 26.4162 257.801C26.2661 257.414 26.4682 257.364 28.3676 257.317C29.3746 257.292 30.281 257.222 30.3819 257.16C30.4827 257.098 31.9247 256.983 33.5863 256.904C35.7856 256.799 36.6422 256.813 36.7353 256.956C36.8557 257.14 36.535 257.487 36.1013 257.642C35.8238 257.741 36.0047 257.884 36.5911 258.03C37.0587 258.146 37.0908 258.124 36.9935 257.756C36.8509 257.216 37.1675 256.665 37.5619 256.767C37.9149 256.858 40.4041 256.624 41.5949 256.387C42.028 256.301 42.8889 256.141 43.508 256.032C44.1272 255.923 44.8359 255.73 45.083 255.603C45.3302 255.475 45.7511 255.285 46.0185 255.18C46.2859 255.074 46.5318 254.89 46.5649 254.77C46.5979 254.65 46.765 253.967 46.9361 253.252C47.3524 251.512 47.602 251.052 48.6297 250.13C49.7066 249.163 49.8018 248.766 49.8121 245.192C49.8191 242.765 50.0682 240.657 50.5394 239.039C50.8075 238.118 51.4127 231.585 51.6474 227.079C51.7144 225.792 51.8795 223.959 52.0142 223.005C52.2824 221.108 52.3193 220.73 52.7101 215.899C52.8566 214.087 53.0167 212.426 53.0659 212.208C53.1151 211.989 53.2343 211.053 53.3308 210.128C53.4273 209.202 53.5415 208.211 53.5845 207.925C53.6276 207.639 53.7409 206.173 53.8364 204.667C53.9318 203.16 54.0577 201.851 54.1161 201.758C54.3294 201.416 54.2371 196.051 54.0133 195.784C53.7973 195.526 53.8484 193.728 54.1573 190.715C54.2286 190.021 54.2205 189.387 54.1395 189.306C53.8311 189.001 53.607 185.275 53.8207 184.005C53.9329 183.338 54.0669 181.388 54.1185 179.672C54.2842 174.153 54.5895 158.571 54.5605 157.109C54.5451 156.33 54.6083 155.647 54.7009 155.59C54.7974 155.531 54.8206 155.137 54.7552 154.666C54.6925 154.215 54.6391 151.876 54.6367 149.468C54.6343 147.061 54.5863 145.092 54.53 145.092C54.36 145.092 53.4949 146.115 53.4949 146.316C53.4949 146.419 53.2905 146.849 53.0407 147.271C52.5931 148.027 52.232 148.225 51.9941 147.844C51.8808 147.662 50.0156 149.485 49.5386 150.244C49.2848 150.647 48.7699 150.746 48.7699 150.391C48.7699 149.983 48.4119 150.061 47.8524 150.592C47.4511 150.973 47.3236 151.018 47.2018 150.823C47.1064 150.67 47.1506 150.429 47.3213 150.171C47.7205 149.567 47.4773 149.5 46.7861 150.022C46.3474 150.353 46.0592 150.451 45.7461 150.373C45.4164 150.291 45.164 150.395 44.6889 150.808C43.9966 151.41 43.0648 151.757 42.8908 151.479C42.8309 151.383 42.948 151.189 43.1509 151.048C43.3538 150.907 43.5199 150.67 43.5199 150.52C43.5199 150.37 43.7644 149.824 44.0633 149.307C44.5254 148.507 44.5898 148.255 44.4941 147.622C44.411 147.073 44.449 146.823 44.6392 146.667C44.8704 146.477 45.6199 145.203 45.6199 145C45.6199 144.955 45.4282 144.919 45.194 144.919C44.8595 144.919 44.7562 144.816 44.7127 144.442C44.6785 144.147 44.507 143.9 44.2636 143.794C43.4308 143.432 43.9603 141.625 44.8991 141.625C45.2252 141.625 46.1449 140.608 46.1449 140.248C46.1449 140.145 46.0488 139.908 45.9315 139.722C45.749 139.433 45.787 139.312 46.194 138.892C46.474 138.602 46.6699 138.205 46.6699 137.927C46.6699 137.635 46.7867 137.412 46.9761 137.344C47.1446 137.283 47.4684 137.092 47.6957 136.919L48.1091 136.605L47.6151 136.419C47.3433 136.316 46.9408 136.277 46.7204 136.332C46.4085 136.41 46.3199 136.359 46.3199 136.103C46.3199 135.922 46.2017 135.677 46.0574 135.559C45.6165 135.196 45.7617 134.774 46.4611 134.385C46.8276 134.181 47.2133 133.835 47.3183 133.616C47.6172 132.994 48.0293 132.047 48.2367 131.506C48.4213 131.025 48.4137 131.016 47.9418 131.132C47.6754 131.197 47.2948 131.401 47.0961 131.585C46.6736 131.975 45.6199 132.043 45.6199 131.68C45.6199 131.549 45.7338 131.122 45.873 130.731C46.0122 130.341 46.0575 129.979 45.9736 129.927C45.6821 129.749 44.9665 130.223 44.5765 130.852C44.3607 131.2 44.1331 131.563 44.0707 131.659C44.0084 131.754 43.6138 131.952 43.1938 132.099C42.5504 132.325 42.3507 132.516 41.9251 133.313C41.6473 133.833 41.4002 134.314 41.3762 134.382C41.286 134.635 39.1003 135.058 37.5323 135.125C36.6386 135.163 35.7185 135.217 35.4876 135.246C35.2567 135.275 35.0336 135.201 34.9917 135.082C34.9499 134.963 35.0144 134.865 35.135 134.865C35.2556 134.865 35.8508 134.495 36.4577 134.042C37.5512 133.226 37.8877 132.612 37.2413 132.612C37.0606 132.612 36.8196 132.501 36.7057 132.365C36.539 132.166 36.5989 132.044 37.0133 131.741C37.3763 131.475 37.5011 131.262 37.4368 131.019C37.3762 130.789 37.5008 130.531 37.8077 130.249C38.0619 130.015 38.2699 129.677 38.2699 129.496C38.2699 129.217 38.177 129.182 37.6574 129.265C36.8303 129.398 36.8659 129.094 37.7449 128.518C38.1299 128.266 38.4449 127.923 38.4449 127.757C38.4449 127.59 38.563 127.357 38.7074 127.239C38.8517 127.12 38.9699 126.842 38.9699 126.62C38.9699 126.399 39.1449 126.097 39.3588 125.948C39.8864 125.582 40.2435 125.6 40.1198 125.986C40.0351 126.251 40.1264 126.291 40.7643 126.27C41.173 126.256 41.6452 126.196 41.8136 126.135C41.9821 126.075 42.2577 125.974 42.4261 125.911C42.5946 125.848 42.8111 125.82 42.9074 125.848C43.0036 125.876 43.2205 125.913 43.3894 125.93C43.5582 125.947 43.807 126.111 43.9423 126.294C44.1836 126.621 44.1951 126.621 44.5541 126.299C45.0141 125.887 45.0194 125.679 44.5699 125.679C44.3132 125.679 44.2199 125.563 44.2199 125.245C44.2199 124.83 44.2651 124.812 45.2917 124.812H46.3636L46.2638 125.306C46.1274 125.982 46.3019 126.546 46.6465 126.543C47.0092 126.54 49.334 125.27 49.6358 124.909C49.7606 124.76 49.9578 124.639 50.074 124.639C50.2648 124.639 51.8398 123.318 52.9689 122.212C53.2121 121.974 53.6761 121.561 54 121.295C54.726 120.698 54.5978 120.484 53.8051 120.969C53.4843 121.166 52.9093 121.404 52.5271 121.499C52.145 121.594 51.5174 121.76 51.1324 121.867C49.6795 122.273 49.6449 122.274 49.6449 121.923C49.6449 121.731 49.8449 121.507 50.1261 121.384C50.3908 121.268 51.0011 120.972 51.4824 120.726C51.9636 120.48 52.7117 120.111 53.1449 119.907C53.578 119.702 54.3064 119.262 54.7636 118.929L55.5949 118.325L55.6263 116.932C55.69 114.11 55.6795 113.685 55.5441 113.602C55.3443 113.478 54.0356 114.962 54.027 115.322C54.0178 115.713 54.101 115.704 54.7282 115.245C55.1082 114.967 55.2993 114.916 55.4413 115.057C55.9365 115.548 54.4105 116.682 53.0574 116.83C52.3341 116.909 52.1918 116.98 52.2368 117.241C52.302 117.62 51.9755 118.052 51.6236 118.052C51.4842 118.052 50.9966 118.364 50.54 118.745C49.5989 119.531 49.3853 119.583 49.119 119.09C48.8854 118.658 48.2206 118.775 47.4877 119.378C46.8849 119.874 46.2189 119.938 46.4085 119.482C46.7437 118.675 46.7199 118.598 46.1197 118.541C45.7348 118.504 45.5158 118.383 45.4783 118.187C45.4352 117.962 45.6156 117.841 46.2206 117.69C46.6682 117.578 47.0199 117.389 47.0199 117.26C47.0199 116.671 49.2907 115.516 50.1277 115.68C50.3915 115.732 50.7326 115.799 50.8856 115.83C51.0617 115.865 51.5255 115.411 52.1485 114.594C52.69 113.884 53.1069 113.277 53.075 113.245C53.0431 113.213 52.6545 113.283 52.2115 113.401C50.7783 113.78 50.8839 113.042 52.3412 112.494C52.8099 112.318 53.3822 111.998 53.6129 111.783C53.8436 111.569 54.4036 111.195 54.8574 110.952L55.6824 110.512L55.7327 109.209L55.7831 107.906L55.0424 107.887C54.1767 107.865 53.8449 108.125 53.8449 108.826C53.8449 109.402 53.4509 109.824 52.7511 109.997C52.2046 110.132 52.1221 110.494 52.5761 110.763C52.8644 110.934 52.8625 110.96 52.5427 111.205C52.0843 111.556 51.2861 111.54 51.1454 111.176C51.0838 111.017 51.1147 110.807 51.2141 110.708C51.5233 110.402 51.4137 110.09 50.9574 109.976C50.4445 109.849 50.3658 109.303 50.8261 109.067C50.9946 108.98 51.4958 108.857 51.9401 108.794C52.6 108.699 52.8482 108.554 53.2964 108.002C53.598 107.63 53.8449 107.247 53.8449 107.152C53.8449 107.056 54.1796 106.666 54.5886 106.286C55.3627 105.565 56.0825 104.437 55.8897 104.246C55.8285 104.185 55.363 104.487 54.8554 104.916C53.7807 105.824 52.2003 106.863 50.9574 107.479C50.1552 107.876 50.0707 107.977 49.9417 108.692C49.8644 109.121 49.8474 110.031 49.904 110.715C49.9685 111.494 49.9394 111.999 49.8259 112.068C49.7263 112.129 49.6449 112.311 49.6449 112.473C49.6449 112.635 49.2047 113.196 48.6668 113.72C47.801 114.563 47.565 114.695 46.6105 114.872C44.5048 115.264 43.6729 115.578 43.1542 116.179C42.5923 116.829 42.5359 117.012 42.897 117.012C43.3809 117.012 43.3856 117.4 42.9065 117.807C42.3845 118.252 41.4609 118.495 40.874 118.343C40.3801 118.215 39.6699 118.501 39.6699 118.828C39.6699 118.973 39.7796 119.092 39.9136 119.092C40.4251 119.092 40.3671 119.634 39.7998 120.155C39.3251 120.592 39.1257 120.663 38.5795 120.595C38.1455 120.54 37.7079 120.623 37.2738 120.842C36.5034 121.231 35.1199 121.293 35.1199 120.939C35.1199 120.81 35.2774 120.564 35.4699 120.392C35.6624 120.219 35.8199 120.012 35.8199 119.932C35.8199 119.726 35.1635 119.748 35.0324 119.959C34.8348 120.275 34.1162 120.153 34.0194 119.786C33.9392 119.482 33.8306 119.454 33.1164 119.551C32.4272 119.644 32.2519 119.605 31.9554 119.29C31.7634 119.086 31.404 118.919 31.1568 118.919C30.8189 118.919 30.7338 118.851 30.8136 118.644C30.8721 118.494 30.9199 118.338 30.9199 118.298C30.9199 118.258 31.2495 118.225 31.6523 118.225C32.1274 118.225 32.5117 118.11 32.7461 117.897C33.8842 116.862 35.6689 116.516 36.3556 117.196C36.8267 117.662 37.2929 117.566 37.3608 116.987C37.4035 116.623 37.578 116.47 38.2305 116.223C38.6795 116.053 39.2657 115.93 39.5333 115.95C40.4054 116.015 40.7943 116.001 41.6515 115.875C42.3988 115.765 42.485 115.708 42.4025 115.383C42.1801 114.505 43.1601 114.065 45.3383 114.065C46.2568 114.065 47.0475 113.988 47.1074 113.892C47.1668 113.797 47.0587 113.719 46.867 113.719C46.6753 113.719 46.4716 113.572 46.4144 113.394C46.3266 113.12 46.1804 113.082 45.4838 113.151C45.0293 113.196 44.2807 113.339 43.8203 113.468C42.93 113.718 42.4699 113.653 42.4699 113.278C42.4699 113.152 42.254 113.024 41.9901 112.993C41.1338 112.895 41.3725 112.456 42.7728 111.552C44.5267 110.42 45.3842 110.027 46.1969 109.983C47.0258 109.938 47.2046 109.784 46.603 109.635C46.2731 109.553 46.1449 109.408 46.1449 109.118C46.1449 108.807 46.0347 108.702 45.6651 108.66C45.022 108.587 44.8821 107.999 45.5077 107.999C45.7814 107.999 45.9851 107.877 46.0495 107.676C46.1323 107.418 46.3989 107.332 47.3961 107.24C48.08 107.177 48.8544 107 49.1169 106.846C49.4672 106.641 49.6793 106.614 49.9131 106.743C50.1486 106.874 50.4406 106.831 51.032 106.58C51.9422 106.194 54.3699 104.442 54.3699 104.171C54.3699 104.073 54.1948 104.114 53.9809 104.262C53.767 104.41 53.452 104.532 53.2809 104.532C53.1098 104.532 52.9699 104.594 52.9699 104.669C52.9699 104.745 52.3228 105.111 51.5321 105.482C49.2072 106.572 47.6657 106.5 47.9662 105.314C48.1091 104.75 48.8566 104.699 49.0004 105.243C49.116 105.682 49.4928 105.604 49.7255 105.095C49.8179 104.892 50.0148 104.681 50.163 104.624C50.3111 104.568 50.708 104.372 51.0449 104.189C51.3817 104.005 51.8455 103.851 52.0755 103.847C52.8286 103.832 55.5949 101.884 55.5949 101.368C55.5949 101.287 55.1289 101.274 54.5594 101.337C53.6256 101.442 53.5013 101.417 53.2923 101.086C53.1649 100.884 52.9642 100.719 52.8463 100.719C52.2049 100.719 45.9619 105.693 45.5324 106.547C45.4338 106.742 45.1012 107.152 44.7932 107.457C44.4645 107.783 44.1829 108.278 44.1115 108.655C43.9072 109.736 43.5454 110.425 43.1821 110.425C42.9989 110.425 42.8077 110.328 42.7571 110.209C42.6913 110.053 42.6101 110.078 42.4713 110.295C42.3647 110.462 42.0724 110.599 41.8217 110.599C41.5069 110.599 41.1816 110.812 40.7701 111.288C40.1673 111.986 39.0748 112.475 38.5591 112.279C38.4149 112.225 38.2712 112.007 38.2397 111.795C38.2056 111.566 38.0403 111.39 37.8324 111.362C36.3647 111.161 35.9903 111.078 35.9011 110.935C35.8451 110.845 35.607 110.772 35.372 110.772C34.7276 110.772 34.8512 110.309 35.5574 110.079C36.0837 109.906 36.1708 109.801 36.1762 109.328C36.1846 108.605 37.1127 107.886 38.244 107.726C39.1805 107.593 39.7789 107.13 39.9372 106.417C39.998 106.143 40.1202 105.919 40.2088 105.919C40.2974 105.919 40.5414 105.749 40.751 105.541C41.1197 105.176 41.1576 105.173 41.9051 105.439C42.6268 105.696 42.7148 105.693 43.2302 105.401C43.5339 105.228 43.9745 105.03 44.2094 104.961C44.912 104.753 50.13 101.091 50.3157 100.676C50.3478 100.604 50.4856 100.545 50.6219 100.545C50.7583 100.545 50.8699 100.467 50.8699 100.372C50.8699 100.277 50.9603 100.199 51.0709 100.199C51.3759 100.199 52.4794 99.0074 52.3566 98.8107C52.2975 98.716 52.0222 98.6385 51.7449 98.6385C51.4675 98.6385 51.1918 98.5605 51.1324 98.4652C50.9684 98.2025 50.2412 98.2579 49.9949 98.5519C49.8079 98.775 49.8689 98.8119 50.4255 98.8119C50.7822 98.8119 51.0452 98.8704 51.0101 98.9419C50.7862 99.397 50.5368 99.9763 50.4678 100.201C50.2961 100.762 48.389 101.352 47.6509 101.073C47.1054 100.867 45.9699 101.11 45.9699 101.433C45.9699 101.737 45.3002 102.318 45.0941 102.191C44.9787 102.121 44.9367 101.889 44.9965 101.653C45.1258 101.143 45.142 101.143 43.9738 101.672C42.8776 102.168 42.4699 102.215 42.4699 101.845C42.4699 101.649 42.256 101.585 41.5949 101.585C40.7942 101.585 40.7199 101.551 40.7199 101.18C40.7199 100.86 40.5713 100.725 40.0199 100.545C39.094 100.243 39.1221 99.8833 40.1263 99.1822C40.5698 98.8726 40.9694 98.4803 41.0142 98.3105C41.1135 97.9346 42.6917 97.1312 42.7852 97.409C42.8807 97.6926 43.1404 97.6392 43.563 97.2492C44.0147 96.8324 44.287 96.8821 44.3633 97.3954C44.44 97.9116 44.7116 97.8708 45.8946 97.1652C47.0241 96.4915 47.1949 96.4446 47.1949 96.8076C47.1949 96.9983 47.3487 97.0324 47.8511 96.9532C48.6398 96.8287 49.1009 96.3652 48.9929 95.8054C48.9205 95.4302 48.9854 95.3887 49.7936 95.2939C50.7392 95.183 52.4449 94.5332 52.4449 94.2838C52.4449 94.054 51.7842 94.1017 51.7049 94.3372C51.6461 94.5119 50.6393 94.685 48.5949 94.8719C48.2835 94.9003 48.1568 94.8263 48.1553 94.6152C48.1543 94.452 48.0558 94.2219 47.9366 94.1038C47.249 93.4228 48.3078 92.229 49.836 91.9624C50.4983 91.8468 50.8699 91.5945 50.8699 91.2601C50.8699 91.1341 51.3227 90.6656 51.8761 90.219C52.4295 89.7725 52.8615 89.3617 52.8359 89.3062C52.8104 89.2507 52.4653 89.2285 52.069 89.2568C51.5857 89.2914 51.0587 89.51 50.4688 89.9207C49.6437 90.4951 49.5298 90.5262 48.6308 90.4215C47.4132 90.2798 47.3128 90.2111 47.4354 89.6042C47.5586 88.9939 47.4768 88.9852 46.8129 89.5385C46.1923 90.0558 45.7949 90.0955 45.7949 89.6401C45.7949 89.3149 45.7768 89.3151 44.8761 89.6521C42.8828 90.3978 42.5877 90.492 42.2291 90.4974C42.0246 90.5004 41.7119 90.612 41.5341 90.7454C41.1107 91.0632 40.6771 90.8982 40.8139 90.4713C40.8977 90.2098 40.8294 90.1452 40.4692 90.1452C40.222 90.1452 40.0199 90.2232 40.0199 90.3185C40.0199 90.4138 39.9347 90.4918 39.8306 90.4918C39.7264 90.4918 39.1653 90.7682 38.5835 91.1059C37.6377 91.6549 37.4405 91.7072 36.7195 91.6001C35.697 91.4482 34.8591 91.1032 34.5602 90.711C34.4319 90.5428 34.1707 90.3187 33.9797 90.213C33.7887 90.1072 33.6324 89.9221 33.6324 89.8015C33.6324 89.5154 35.8815 88.7648 36.7824 88.7502C37.4114 88.7399 37.5499 88.651 38.1486 87.8727C38.515 87.3964 38.9198 86.9668 39.0481 86.9181C39.3535 86.802 40.209 87.6536 40.0916 87.9568C40.0415 88.0859 39.8019 88.2812 39.559 88.3908C38.8438 88.7136 39.1479 89.0252 40.1228 88.9687C41.6167 88.882 42.67 88.5827 42.6082 88.2624C42.5699 88.0643 42.3029 87.9499 41.7249 87.884C40.7146 87.7687 40.3789 87.5016 40.668 87.0431C40.8102 86.8174 40.815 86.6687 40.6841 86.5391C40.422 86.2795 40.6463 85.8118 41.0328 85.8118C41.211 85.8118 41.5279 85.6168 41.7371 85.3785C41.9464 85.1402 42.2052 84.9452 42.3123 84.9452C42.5387 84.9452 43.8699 83.932 43.8699 83.7597C43.8699 83.5027 42.5916 83.2418 42.2793 83.4351C42.058 83.5719 41.6881 83.5726 40.9524 83.4376C40.3914 83.3347 39.3811 83.2878 38.7074 83.3333C38.0336 83.3789 37.1674 83.3332 36.7824 83.2319C36.3974 83.1305 35.5705 82.921 34.9449 82.7663C33.1128 82.3134 32.8201 82.1704 32.8797 81.7572C32.9238 81.4515 33.0319 81.4016 33.542 81.4517C33.8774 81.4846 34.3573 81.6168 34.6084 81.7455C34.8596 81.8741 35.4712 82.0327 35.9675 82.0979C36.8117 82.2089 36.8699 82.1925 36.8699 81.8432C36.8699 81.5655 37.0069 81.4427 37.4045 81.3639C37.7758 81.2904 37.9094 81.1815 37.8419 81.0074C37.7885 80.8696 37.7449 80.5682 37.7449 80.3377C37.7449 79.9313 37.7046 79.9185 36.4195 79.9185C35.2559 79.9185 35.1013 79.8818 35.1527 79.6178C35.1893 79.4294 35.4392 79.276 35.8217 79.2071C36.1576 79.1466 36.6858 78.9654 36.9956 78.8045C37.3054 78.6436 37.7385 78.4969 37.9581 78.4785C38.6002 78.4249 39.1011 77.973 39.1011 77.4474C39.1011 76.916 38.8999 76.843 38.5074 77.2318C38.2072 77.5291 37.6429 77.5759 37.4813 77.3168C37.4212 77.2205 37.619 76.936 37.9207 76.6845C38.5923 76.1248 38.3956 75.9541 37.209 76.067C36.5006 76.1345 36.3449 76.0996 36.3449 75.8733C36.3449 75.5799 36.9598 75.1659 37.1881 75.3057C37.2629 75.3515 37.4384 75.3102 37.5782 75.2139C37.7713 75.0808 37.7798 75.0177 37.6136 74.9509C37.2563 74.8073 37.3644 74.3747 37.7985 74.2113C38.6412 73.8939 39.2858 73.1782 39.4128 72.4188C39.5927 71.3431 39.7467 71.1508 40.6225 70.9079C41.3156 70.7157 41.471 70.7252 41.8697 70.9839C42.1203 71.1465 42.2795 71.3248 42.2237 71.3801C42.1678 71.4355 42.2828 71.5923 42.4793 71.7286C42.6929 71.8767 42.8156 72.1269 42.7844 72.3508C42.7253 72.7762 43.252 72.9388 43.6949 72.6319C43.922 72.4744 43.9102 72.4169 43.6074 72.2051C42.5581 71.4711 42.5869 71.5124 42.8412 71.1091C43.1852 70.5635 44.0889 70.5947 44.4663 71.1652C44.8347 71.7221 45.6405 71.7481 46.138 71.2192C46.3343 71.0105 46.4949 70.7855 46.4949 70.7191C46.4949 70.6527 46.7002 70.4651 46.9511 70.3023C47.2811 70.0881 47.4602 70.0586 47.5986 70.1957C47.8917 70.4861 48.2456 70.4226 48.5742 70.0208C48.8063 69.7368 49.0905 69.6497 49.861 69.6262C50.9556 69.5929 51.1951 69.4733 50.8918 69.1113C50.563 68.7189 50.8366 68.3614 51.8176 67.9013C52.66 67.5062 52.7325 67.4264 52.6646 66.9684C52.604 66.5593 52.6751 66.4292 53.0525 66.2589C53.3066 66.1442 53.4671 65.9743 53.4091 65.8813C53.3511 65.7884 53.3943 65.5352 53.505 65.3187C53.7475 64.8448 55.0765 63.6317 55.3574 63.6279C55.6458 63.624 55.8191 63.0691 55.578 62.9215C55.4408 62.8375 55.4138 62.536 55.4953 61.9977C55.5774 61.4553 55.5538 61.1985 55.4219 61.1985C54.9965 61.1985 54.1989 61.7449 53.9051 62.2376C53.6661 62.6382 53.4692 62.7585 53.0524 62.7585C52.6785 62.7585 52.3542 62.9199 52.007 63.2789C51.5051 63.7977 48.2287 66.0518 47.9764 66.0518C47.9034 66.0518 47.4283 66.3248 46.9208 66.6585C46.4133 66.9922 45.913 67.2652 45.809 67.2652C45.7049 67.2652 45.6199 67.3313 45.6199 67.4122C45.6199 67.5767 44.7038 67.9769 43.5307 68.3251C43.1035 68.4518 42.5604 68.7332 42.3239 68.9503C42.0873 69.1675 41.7674 69.3456 41.6131 69.3462C41.4587 69.3468 41.1268 69.4535 40.8756 69.5834C40.3897 69.8345 39.8449 69.679 39.8449 69.2893C39.8449 69.0062 41.0102 68.4231 43.0386 67.6913C43.4958 67.5264 43.8699 67.324 43.8699 67.2416C43.8699 67.1592 43.9913 67.0918 44.1397 67.0918C44.5853 67.0918 46.6911 66.0513 47.4206 65.4706C47.7954 65.1723 48.3816 64.551 48.7232 64.09C49.4369 63.1271 50.1566 62.6403 51.7011 62.0759C52.3027 61.8561 52.7949 61.6177 52.7949 61.5462C52.7949 61.3303 51.4951 61.1942 50.9399 61.3519C50.1316 61.5815 48.479 62.3924 48.2413 62.676C48.1235 62.8167 47.9524 62.9318 47.8612 62.9318C47.77 62.9318 47.352 63.1658 46.9324 63.4518C46.5127 63.7378 45.9866 63.9743 45.7633 63.9773C45.0923 63.9865 44.6843 64.4026 44.8203 64.9392L44.9381 65.4043L44.0541 65.3202C43.4377 65.2616 43.1106 65.3071 42.9735 65.4706C42.8654 65.5996 42.5038 65.7052 42.1698 65.7052C41.8275 65.7052 41.3684 65.8565 41.1176 66.0518C40.8729 66.2425 40.5061 66.401 40.3025 66.404C40.0989 66.407 39.7795 66.5241 39.5927 66.664C39.127 67.0129 38.64 66.9822 37.9406 66.5599C37.3573 66.2077 37.307 66.2063 34.4406 66.4655C32.8411 66.6101 31.2754 66.8182 30.9614 66.9278C30.3207 67.1516 29.8699 67.0514 29.8699 66.685C29.8699 66.412 31.8446 66.0564 33.4208 66.0456C34.7416 66.0366 37.5936 65.6328 38.0396 65.3918C38.2498 65.2781 38.5894 65.1852 38.7942 65.1852C38.999 65.1852 39.5751 65.0045 40.0744 64.7838C41.5377 64.1369 42.074 63.9989 42.7733 64.0894C43.3849 64.1685 43.9244 64.0332 44.5699 63.639C45.6411 62.9846 46.6681 62.4363 47.0295 62.3258C47.2648 62.2538 47.796 61.9707 48.2099 61.6967C48.6238 61.4227 49.0372 61.1985 49.1286 61.1985C49.2201 61.1985 49.2949 60.8419 49.2949 60.4061C49.2949 59.6858 49.2699 59.6385 49.0199 59.8861C48.6407 60.2617 48.0699 60.2375 48.0699 59.8458C48.0699 59.6739 48.3455 59.2686 48.6824 58.9452C49.0192 58.6218 49.2949 58.3109 49.2949 58.2543C49.2949 58.1978 49.0783 58.1546 48.8136 58.1583C48.4142 58.164 48.3228 58.0824 48.276 57.6782C48.2035 57.0524 47.8261 57.1624 47.749 57.8319C47.6783 58.4452 47.2898 58.9072 46.7845 58.9788C46.5789 59.008 46.3156 59.2289 46.1995 59.4697C45.8725 60.1477 45.2448 60.639 44.5412 60.7676C43.9962 60.8672 43.8697 60.8287 43.6978 60.5105C43.5385 60.2159 43.3924 60.1587 43.0106 60.2417C42.6739 60.315 42.4524 60.2598 42.2861 60.0614C42.0763 59.8109 42.1216 59.7143 42.652 59.2818C42.9849 59.0103 43.592 58.6163 44.0011 58.4061C44.5569 58.1206 44.7449 57.9207 44.7449 57.6151C44.7449 57.3196 44.9123 57.1271 45.3489 56.9209C45.6837 56.7628 45.9762 56.4836 46.0052 56.2945C46.0405 56.0638 46.5526 55.6958 47.5886 55.1569C48.4308 54.7188 49.1199 54.2915 49.1199 54.2075C49.1199 54.1235 48.982 54.1111 48.8136 54.18C48.6452 54.2489 48.205 54.3762 47.8355 54.4629C47.1822 54.6162 47.1348 54.5941 46.1193 53.6628C45.5449 53.1361 45.0014 52.7052 44.9116 52.7052C44.6791 52.7052 43.5642 54.2453 43.3118 54.9152C43.0938 55.4936 42.4699 55.7184 42.4699 55.2185C42.4699 55.0755 42.3911 54.9585 42.2949 54.9585C42.1986 54.9585 42.1199 55.0341 42.1199 55.1264C42.1199 55.2187 41.9976 55.2478 41.8481 55.191C41.6939 55.1324 41.5993 54.931 41.6294 54.7256C41.6759 54.4077 41.9245 54.2284 42.9832 53.7489C43.3174 53.5976 43.6251 53.0983 43.4755 52.9501C43.3444 52.8202 42.2949 53.2002 42.2949 53.3776C42.2949 53.4649 41.4303 54.071 39.8592 55.0851C39.8189 55.1111 39.8912 55.3271 40.0199 55.5652C40.3189 56.1186 40.1529 56.2838 39.649 55.9342C39.4194 55.7749 39.0873 55.703 38.8518 55.7616C38.5707 55.8315 38.414 55.7739 38.3358 55.5719C38.1929 55.2031 38.4038 54.995 39.5726 54.3518C41.0752 53.525 42.6106 52.3919 42.7289 52.0226C42.7888 51.8358 42.9789 51.6385 43.1513 51.5843C43.3238 51.5301 43.8852 51.1751 44.399 50.7955C44.9127 50.4158 45.5139 50.1052 45.7349 50.1052C45.9705 50.1052 46.2554 49.9258 46.4235 49.6718C46.5811 49.4335 46.8167 49.2385 46.9469 49.2385C47.0771 49.2385 47.2904 49.0367 47.4209 48.7901C47.5637 48.5201 48.1055 48.1235 48.7827 47.7934C49.6017 47.3942 49.9225 47.1397 49.963 46.8571C49.9936 46.6437 50.3677 46.1858 50.7943 45.8395C51.2208 45.4933 51.5699 45.1415 51.5699 45.0576C51.5699 44.9738 51.1951 44.9052 50.737 44.9052C50.0791 44.9052 49.8556 44.982 49.6735 45.2708C49.4969 45.551 49.3279 45.6137 48.951 45.539C48.5971 45.4689 48.3723 45.5365 48.1498 45.78C47.7562 46.2109 47.1949 46.2251 47.1949 45.8043C47.1949 45.6314 47.4311 45.2658 47.7199 44.9918C48.0086 44.7178 48.2449 44.4239 48.2449 44.3386C48.2449 44.2533 48.5205 43.8503 48.8574 43.4431C49.2943 42.915 49.4699 42.5316 49.4699 42.1053C49.4699 41.7767 49.563 41.4155 49.6769 41.3027C49.9914 40.9913 49.7525 40.8865 49.2012 41.0941C48.9305 41.1961 48.5046 41.235 48.2548 41.1807C47.9991 41.125 47.6815 41.1787 47.528 41.3035C47.1561 41.6061 46.1449 42.9268 46.1449 43.1101C46.1449 43.1917 45.8629 43.493 45.5183 43.7795C44.9662 44.2387 44.8767 44.4273 44.7647 45.368C44.6307 46.4935 44.4962 46.7363 43.5361 47.5848C42.6665 48.3533 41.7429 48.8317 40.7014 49.0529C39.5692 49.2934 38.7199 49.7973 38.3219 50.4646C38.1555 50.7436 37.9201 50.9718 37.7988 50.9718C37.5092 50.9718 37.6672 48.8735 37.9708 48.6865C38.0872 48.6148 38.458 48.5933 38.7949 48.6386C39.1317 48.684 39.9159 48.5829 40.5376 48.4139C41.6298 48.1171 41.6724 48.0844 41.8074 47.4413C41.9564 46.7305 42.163 46.3948 43.661 44.4285C44.1876 43.7373 44.7174 43.1718 44.8385 43.1718C45.2114 43.1718 46.1449 41.9763 46.1449 41.4987C46.1449 41.0768 46.6521 40.349 47.6376 39.3566C48.1469 38.8439 48.1699 38.6891 47.7789 38.406C47.3936 38.1269 47.5824 37.6773 48.1962 37.4121C48.4636 37.2965 49.0653 36.9462 49.5333 36.6336C50.4014 36.0537 51.1683 35.9101 51.5227 36.2611C51.6698 36.4068 51.9241 36.2845 52.5144 35.7844C52.9511 35.4145 53.311 34.9909 53.3141 34.8432C53.3221 34.4685 53.6733 34.1595 54.0986 34.153C54.463 34.1474 55.0699 33.7832 55.0699 33.5701C55.0699 33.5058 54.6829 33.5041 54.21 33.5662C53.5601 33.6516 53.2515 33.6107 52.9461 33.3988C52.7238 33.2446 52.4104 33.1185 52.2496 33.1185C51.8144 33.1185 51.7021 32.6333 52.0899 32.4278C52.2725 32.331 52.5361 32.2518 52.6757 32.2518C52.8154 32.2518 53.0596 32.0553 53.2185 31.8152C53.4959 31.3958 53.4915 31.3726 53.1073 31.2284C52.6452 31.0548 52.6878 31.0336 51.2593 32.1496C50.4693 32.7669 50.1699 33.1142 50.1699 33.4133C50.1699 33.9118 49.5034 34.8518 49.15 34.8518C49.0103 34.8518 48.7953 34.9882 48.6722 35.1549C48.5492 35.3216 48.3882 35.3983 48.3146 35.3253C48.2409 35.2524 48.2739 35.1004 48.3878 34.9876C48.6679 34.7102 48.6498 34.3318 48.3565 34.3318C47.8244 34.3318 46.4302 35.7127 45.4391 37.2214C44.8648 38.0957 44.3949 38.8985 44.3949 39.0053C44.3949 39.1122 44.2502 39.3535 44.0733 39.5415C43.8965 39.7295 43.4595 40.4477 43.1021 41.1376C42.7448 41.8274 42.2201 42.8208 41.9362 43.3452C41.6522 43.8695 41.4199 44.4771 41.4199 44.6955C41.4199 45.1628 40.7347 46.148 40.5068 46.0085C40.329 45.8997 40.4989 44.9056 40.7383 44.6538C40.8244 44.5633 40.8949 44.3779 40.8949 44.2419C40.8949 43.8045 42.2672 41.2833 43.8109 38.8845C44.3697 38.0162 44.5181 37.6252 44.2888 37.6252C44.2305 37.6252 44.033 37.8137 43.85 38.0441C43.6671 38.2745 42.947 38.8891 42.2499 39.4098C41.5527 39.9305 40.8249 40.5333 40.6324 40.7494C40.0764 41.3732 38.6122 42.4785 38.3417 42.4785C37.8322 42.4785 38.1232 41.7977 38.9083 41.1531C39.3556 40.7857 39.809 40.4072 39.9157 40.3118C40.0224 40.2165 40.5817 39.7502 41.1586 39.2756C43.3229 37.4949 44.7449 36.1504 44.7449 35.8847C44.7449 35.7336 44.9811 35.3858 45.2699 35.1118C45.7893 34.6189 45.9583 34.1585 45.6199 34.1585C45.2819 34.1585 45.4508 33.8149 46.0574 33.2682C46.3942 32.9646 46.6699 32.6246 46.6699 32.5126C46.6699 32.4007 46.9199 32.0885 47.2254 31.8188C47.7691 31.3391 47.7728 31.3255 47.4004 31.1891C46.8425 30.9847 46.9324 30.7431 47.7129 30.3487C48.4366 29.983 49.1199 29.8881 49.1199 30.1533C49.1199 30.2384 49.2423 30.3546 49.3918 30.4114C49.5701 30.4792 49.9827 30.2019 50.5894 29.6067C51.8782 28.3422 52.9851 27.3985 53.1796 27.3985C53.2699 27.3985 52.862 27.8712 52.2732 28.449C50.9686 29.7292 49.0132 32.3033 49.2786 32.3909C49.4763 32.4562 51.346 31.2752 52.0511 30.6396C52.2677 30.4444 52.4449 30.1023 52.4449 29.8793C52.4449 29.6563 52.5151 29.3383 52.601 29.1728C52.6869 29.0073 52.8347 28.6748 52.9294 28.434C53.0793 28.0528 53.3771 27.8516 54.7131 27.2285C55.0686 27.0627 55.6337 26.0154 55.5225 25.7284C55.3674 25.328 54.76 25.4638 53.8681 26.0985C53.3992 26.4322 52.942 26.7052 52.852 26.7052C52.7621 26.7052 52.4214 26.9782 52.0949 27.3118C51.7684 27.6455 51.4215 27.9185 51.3242 27.9185C51.2268 27.9185 50.8505 28.2054 50.488 28.556C49.8429 29.1799 49.8212 29.1868 49.4743 28.8758C49.2559 28.68 49.1199 28.6388 49.1199 28.7685C49.1199 28.8843 49.0485 28.9353 48.9613 28.8819C48.8741 28.8285 48.8456 28.6223 48.8981 28.4237C48.9505 28.225 49.0435 28.1428 49.1047 28.2409C49.3346 28.6094 50.3449 28.1328 50.3449 27.6558C50.3449 27.3548 49.9854 27.2429 49.3713 27.3529C48.7108 27.4713 48.4199 27.7048 48.4199 28.1168C48.4199 28.525 47.6224 28.9312 47.3502 28.6617C47.22 28.5328 47.2474 28.3206 47.4425 27.947C47.7986 27.265 47.7933 27.2252 47.348 27.2252C47.0281 27.2252 46.9908 27.1524 47.0811 26.7052C47.1389 26.4192 47.1339 26.1852 47.0701 26.1852C46.9168 26.1852 43.8829 28.4765 43.0992 29.1841C42.666 29.5753 42.4701 29.9132 42.4338 30.3318C42.3566 31.2221 41.9449 31.2359 41.9449 30.3482C41.9449 29.3828 42.0943 29.1541 43.4211 28.0878C44.7312 27.0349 44.7873 26.6426 43.5169 27.4168C42.6906 27.9203 41.9385 28.0286 41.8374 27.6585C41.7891 27.4816 47.625 24.5497 48.4199 24.3515C48.6605 24.2915 49.0412 24.1274 49.266 23.9868C49.4907 23.8462 50.1995 23.6268 50.841 23.4993C51.7184 23.3248 51.9128 23.2381 51.6257 23.1492C50.9316 22.9342 50.9695 22.5293 51.798 21.3092C51.9918 21.0239 52.3999 20.7723 52.8888 20.6367C53.6145 20.4355 53.6699 20.379 53.6699 19.8397C53.6699 19.2713 53.6599 19.2636 53.1886 19.4687C52.9239 19.5839 52.668 19.7241 52.6199 19.7802C52.5717 19.8364 52.1583 20.0595 51.7011 20.2759C51.091 20.5647 50.8692 20.7691 50.8672 21.044C50.8629 21.6354 50.5812 21.9819 50.3172 21.7204C50.1976 21.602 49.872 21.5052 49.5935 21.5052C49.2303 21.5052 49.0606 21.4048 48.9934 21.1501C48.8474 20.5972 48.3414 20.8094 48.2785 21.4498C48.2122 22.1259 47.5685 22.6011 46.9331 22.4432C46.5496 22.3479 46.4949 22.3905 46.4949 22.7849C46.4949 23.0478 46.3491 23.3257 46.1449 23.452C45.9524 23.5711 45.7949 23.7532 45.7949 23.8566C45.7949 24.0661 45.2089 24.6007 44.6285 24.9207C44.0175 25.2577 43.8563 24.8535 44.2515 23.9754C44.5986 23.2041 45.8837 21.8618 47.1574 20.9402C48.1998 20.1859 48.0872 19.8651 46.8006 19.9241C45.8945 19.9657 45.7949 19.9358 45.7949 19.622C45.7949 19.3558 45.9289 19.261 46.3636 19.2195C46.7868 19.1791 46.9458 19.0716 46.985 18.7997C47.0547 18.3166 47.8199 17.8949 48.1084 18.1807C48.3599 18.4298 48.9449 18.4516 48.9449 18.2118C48.9449 18.1165 49.1755 18.0385 49.4574 18.0385C50.0949 18.0385 50.5187 17.6376 50.5238 17.0294C50.5259 16.7741 50.6799 16.3702 50.866 16.1318C51.1571 15.759 51.2529 15.7281 51.5517 15.9102C51.83 16.0798 51.9945 16.0729 52.3782 15.8757C52.976 15.5685 53.1713 15.6781 53.0647 16.2607C53.0049 16.5868 53.0853 16.786 53.351 16.9703C53.6598 17.1845 53.68 17.2576 53.474 17.4158C53.3384 17.52 53.089 17.8197 52.9197 18.0818C52.7503 18.344 52.4758 18.561 52.3096 18.564C51.8413 18.5725 51.2922 19.0461 51.5055 19.2574C51.628 19.3788 51.828 19.3236 52.1362 19.0835C52.3845 18.8901 52.684 18.7318 52.8018 18.7318C53.0591 18.7318 54.2296 18.045 54.4109 17.7876C54.4816 17.6873 54.5407 17.3461 54.5422 17.0294C54.5436 16.7128 54.6681 16.3317 54.8186 16.1826C54.9968 16.006 55.0327 15.8523 54.9214 15.7421C54.7076 15.5304 54.3699 15.7223 54.3699 16.0554C54.3699 16.1928 54.2124 16.3052 54.0199 16.3052C53.8095 16.3052 53.6699 16.1896 53.6699 16.0155C53.6699 15.8561 53.5422 15.5861 53.3861 15.4153C53.2301 15.2445 53.1489 14.9848 53.2056 14.8383C53.3074 14.5757 53.4249 14.5513 54.8034 14.5074C55.3153 14.491 55.5154 14.4049 55.5599 14.1818C55.6087 13.9379 55.4969 13.8785 54.9897 13.8785C54.0338 13.8785 53.9925 13.4559 54.8679 12.6309C55.2677 12.2541 55.5949 11.8858 55.5949 11.8124C55.5949 11.7391 55.7797 11.466 56.0056 11.2057C56.2715 10.8991 56.3883 10.5875 56.337 10.3213C56.2474 9.85711 56.9186 8.7847 57.1935 8.95295C57.288 9.01081 57.3155 9.28303 57.2545 9.55788C57.1936 9.83273 57.1969 10.4791 57.2619 10.9942L57.38 11.9308L58.0865 12.0247C58.9487 12.1392 59.3493 12.491 59.1886 12.9925C59.1241 13.1938 58.9978 13.3585 58.9081 13.3585C58.8183 13.3585 58.7449 13.4755 58.7449 13.6185C58.7449 13.7615 58.8236 13.8785 58.9199 13.8785C59.0161 13.8785 59.0949 14.0323 59.0949 14.2202C59.0949 14.4602 59.2641 14.6053 59.6634 14.7078C60.374 14.8902 60.5526 15.4385 59.9014 15.4385C59.6413 15.4385 59.3821 15.5775 59.276 15.7738C58.9993 16.2859 59.0568 16.478 59.4886 16.484C60.0266 16.4915 60.4949 16.8755 60.4949 17.3092C60.4949 17.5068 60.6327 17.7061 60.8011 17.752C60.9696 17.798 61.5208 17.935 62.0261 18.0565C62.6837 18.2146 62.9449 18.3606 62.9449 18.57C62.9449 18.731 63.0621 18.9591 63.2054 19.0769C63.3488 19.1947 63.4273 19.3532 63.3799 19.4292C63.1973 19.7217 63.5117 20.1287 63.8405 20.0254C64.0849 19.9485 64.2147 20.0394 64.3447 20.3781C64.4411 20.6291 64.5199 20.9073 64.5199 20.9964C64.5199 21.2851 63.7043 21.168 63.2502 20.8142C62.8827 20.5279 62.72 20.5004 62.2841 20.6509C61.8253 20.8093 61.6988 20.776 61.2719 20.384C61.0035 20.1377 60.5215 19.7755 60.2008 19.5792C59.8801 19.3828 59.6622 19.1509 59.7166 19.0637C59.771 18.9765 59.6534 18.9052 59.4552 18.9052C59.0803 18.9052 59.0096 19.0413 59.2288 19.3409C59.5125 19.7286 61.1597 20.9742 61.77 21.2624C62.1274 21.4312 62.4199 21.6926 62.4199 21.8433C62.4199 22.0794 62.2326 22.1012 61.0636 22.0012C60.3177 21.9373 59.4047 21.7939 59.0347 21.6825C58.6647 21.571 58.3197 21.5218 58.268 21.5731C58.2162 21.6243 58.1568 21.9456 58.1359 22.287C58.1086 22.7316 58.1863 22.9546 58.4098 23.0731C58.831 23.2963 59.6824 23.2818 60.213 23.0424C60.452 22.9345 60.7904 22.9011 60.965 22.9681C61.2663 23.0837 61.2668 23.1013 60.9761 23.3133C60.5686 23.6106 60.5891 23.8831 61.0295 24.0215C61.2273 24.0837 61.3588 24.2255 61.3216 24.3365C61.279 24.4642 60.6958 24.5569 59.737 24.5886C58.3318 24.635 58.2199 24.6653 58.2199 25.0002C58.2199 25.3096 58.2958 25.3468 58.7449 25.2578C59.0481 25.1978 59.2699 25.227 59.2699 25.3271C59.2699 25.4224 59.4744 25.5774 59.7243 25.6715C59.9743 25.7657 60.2219 26.0061 60.2746 26.2059C60.357 26.5179 60.4594 26.5537 61.0015 26.4599C62.46 26.2075 64.5199 26.1331 64.5199 26.3327C64.5199 26.4422 64.3572 26.5318 64.1584 26.5318C63.6493 26.5318 63.1199 26.8442 63.1199 27.1446C63.1199 27.2842 63.1986 27.3985 63.2949 27.3985C63.677 27.3985 63.4405 27.7078 62.9886 27.7989C62.3845 27.9208 61.1341 28.4361 61.2248 28.5259C61.262 28.5627 61.8198 28.6764 62.4643 28.7783C63.753 28.9823 64.0953 29.1047 65.1324 29.7328C65.5174 29.966 65.9978 30.1602 66.2 30.1643C66.6511 30.1735 68.7169 31.697 69.1347 32.3286C69.4541 32.8113 69.4797 34.2452 69.1689 34.2452C69.079 34.2452 68.7992 33.8942 68.5471 33.4652C68.2412 32.9446 67.7748 32.4981 67.1449 32.1227C66.6257 31.8134 65.9605 31.3368 65.6667 31.0636C65.3728 30.7903 64.8856 30.4275 64.5839 30.2572C64.0541 29.958 64.0238 29.9587 63.69 30.2763C63.27 30.676 63.0513 31.8363 63.3492 32.0845C63.81 32.4684 65.1372 33.3997 65.705 33.7376C66.4508 34.1813 66.7484 34.6405 66.3807 34.7803C66.2386 34.8343 65.9637 34.7945 65.7701 34.6918C65.3662 34.4778 64.6936 34.4422 64.6976 34.6352C64.7023 34.8633 65.0257 35.2844 65.2135 35.3068C65.3133 35.3187 65.4629 35.3382 65.5461 35.3502C65.6293 35.3621 65.6883 35.6561 65.6773 36.0036C65.6606 36.5338 65.7417 36.6831 66.1824 36.9329C66.6376 37.1909 66.7018 37.3183 66.6653 37.8915C66.6413 38.2686 66.4714 38.7127 66.2698 38.9252C66.0018 39.2078 65.9433 39.4309 66.0275 39.8482C66.174 40.5739 65.8127 40.5818 65.1222 39.8679L64.609 39.3374L64.2104 39.8246L63.8119 40.3118L63.453 39.8785C63.2469 39.6298 63.0596 39.527 63.0131 39.6372C62.7689 40.2173 62.453 40.4682 62.2142 40.2719C62.0573 40.1429 61.8793 40.1289 61.714 40.2324C61.3047 40.4888 61.0199 40.4246 61.0199 40.0759C61.0199 39.5433 60.2029 39.8108 59.991 40.4128C59.8071 40.9356 59.8102 40.9404 60.606 41.3494C60.9247 41.5131 61.1962 41.5368 61.4892 41.4265C61.8547 41.2889 61.9528 41.3377 62.2098 41.7851C62.3735 42.0699 62.6058 42.3035 62.7261 42.3041C63.0619 42.3058 62.9856 42.8203 62.6287 42.9607C62.4549 43.0292 61.9416 43.3192 61.4882 43.6052C60.5089 44.2228 60.4592 44.6659 61.3762 44.6047C62.224 44.548 62.7699 44.6956 62.7699 44.9814C62.7699 45.115 63.0061 45.2757 63.2949 45.3385C63.5836 45.4013 63.8199 45.5613 63.8199 45.6941C63.8199 45.8374 64.2095 46.0477 64.7791 46.2117C65.3067 46.3636 65.7739 46.5448 65.8173 46.6143C65.9887 46.8891 65.6928 48.1985 65.4593 48.1985C65.3276 48.1985 65.2199 48.3155 65.2199 48.4585C65.2199 48.6281 65.3913 48.7185 65.7131 48.7185C66.3379 48.7185 67.9844 49.1902 68.5011 49.5173C69.036 49.8559 69.036 50.3612 68.5011 50.201C67.5167 49.9061 66.6936 49.895 66.4603 50.1734C66.332 50.3265 66.1185 50.4518 65.9859 50.4518C65.6395 50.4518 65.6885 50.7593 66.0511 50.861C66.2196 50.9082 66.8496 50.9992 67.4511 51.063C68.3377 51.1572 68.5449 51.2374 68.5449 51.4867C68.5449 51.7093 68.7305 51.8236 69.2177 51.9008C70.4395 52.0943 71.7753 52.5832 72.2451 53.0089C72.4995 53.2395 72.8047 53.771 72.9231 54.19C73.0416 54.6091 73.2468 55.0409 73.3792 55.1498C73.5116 55.2586 73.6199 55.4788 73.6199 55.6391C73.6199 55.7993 73.8997 56.1992 74.2418 56.5276C75.0781 57.3304 75.505 58.2916 75.6042 59.5951C75.6963 60.8044 75.5525 61.0327 75.0269 60.5122C74.7459 60.2338 74.6605 59.8914 74.6201 58.8807L74.5689 57.6015L73.1756 56.2595C72.4093 55.5214 71.6024 54.7512 71.3825 54.548C71.1626 54.3448 70.9384 54.0066 70.8843 53.7964C70.7761 53.3763 69.866 52.9897 69.2042 53.0827C68.747 53.147 68.5712 53.7922 68.9029 54.188C69.1863 54.5263 68.8262 54.9585 68.2609 54.9585C67.7975 54.9585 67.728 55.1637 68.0742 55.5095C68.4121 55.8468 69.2221 57.5585 69.3515 58.2085C69.4363 58.6344 69.4022 58.7718 69.212 58.7718C68.9096 58.7718 68.4091 58.2465 67.0654 56.5185C66.5093 55.8035 65.9737 55.2185 65.875 55.2185C65.7763 55.2185 65.6151 55.3447 65.5169 55.499C65.3816 55.7114 65.4318 55.8789 65.7239 56.1894C67.0802 57.6314 67.6926 59.9852 66.7115 59.9852C66.0152 59.9852 66.3827 60.9775 67.4098 61.8707C67.764 62.1788 68.2843 62.934 68.5916 63.5864C68.8936 64.2274 69.3216 64.894 69.5428 65.0678C69.7639 65.2415 69.9449 65.5379 69.9449 65.7264C69.9449 66.0268 69.8428 66.0628 69.1197 66.0172C68.4527 65.9751 68.2827 66.0225 68.2327 66.2644C68.1833 66.5033 68.7818 67.506 69.2439 67.9585C69.5132 68.2223 70.8199 70.207 70.8199 70.3523C70.8199 70.4469 71.0758 70.734 71.3886 70.9902C72.0151 71.5033 74.0645 72.8118 74.2416 72.8118C74.303 72.8118 74.5884 72.9776 74.8758 73.1803C75.3311 73.5014 75.4525 73.52 75.8213 73.3245C76.054 73.2011 76.2902 73.1456 76.3463 73.2012C76.5134 73.3667 76.0955 73.9938 75.7445 74.1041C75.4234 74.205 74.0601 73.473 72.1565 72.1776C71.2067 71.5312 70.5189 71.3915 70.7991 71.9018C71.1034 72.456 72.9568 74.1053 73.7755 74.5506C74.4756 74.9313 74.5753 75.0544 74.5288 75.4807C74.4582 76.1282 75.1788 77.1981 75.8789 77.4853C76.4282 77.7107 76.6996 78.454 76.1574 78.2479C75.7344 78.0871 75.8552 78.4005 76.3761 78.8157C76.7389 79.1049 76.8082 79.2491 76.6574 79.4016C76.505 79.5558 76.3653 79.5551 76.0702 79.3987C75.8461 79.2799 75.432 79.2401 75.0872 79.3042C74.5487 79.4042 74.5101 79.4494 74.6857 79.7745C74.8511 80.0805 74.9911 80.1191 75.6244 80.0331C76.0338 79.9776 76.6559 79.9782 77.0068 80.0347C77.5635 80.1242 77.6449 80.1989 77.6449 80.6204C77.6449 81.5905 78.0516 81.9507 78.5183 81.3938C78.7738 81.0888 79.0455 81.2052 79.0433 81.6188C79.0424 81.78 79.2881 82.1125 79.5892 82.3577C80.0827 82.7595 80.1139 82.8397 79.9055 83.1703C79.5465 83.7396 79.9862 84.3642 81.1201 84.8955C81.8455 85.2354 82.144 85.2985 82.3685 85.1596C82.7986 84.8936 83.1107 85.1572 82.9794 85.6754C82.8818 86.0606 82.752 86.1247 81.8916 86.2126C80.692 86.3353 80.1606 86.096 78.9954 84.9087C77.9888 83.883 77.5583 83.8623 77.053 84.8152C76.8557 85.1872 76.5778 85.4652 76.4032 85.4652C76.1375 85.4652 76.1205 85.3849 76.2716 84.8428C76.4908 84.0565 76.3666 83.7319 75.8463 83.7319C75.6211 83.7319 75.2849 83.6219 75.0994 83.4876C74.7783 83.255 74.7767 83.2271 75.0659 82.9106C75.4706 82.4677 75.4531 82.4035 74.8896 82.2634C74.1241 82.0731 74.0227 81.9002 74.0998 80.918C74.1682 80.048 74.1463 79.9914 73.6332 79.71C73.2278 79.4875 73.0949 79.2927 73.0949 78.9207C73.0949 78.4863 72.9738 78.3737 72.0886 77.9849L71.0824 77.543L70.9425 78.051C70.7473 78.7605 71.1102 79.4748 71.885 79.9061C72.6773 80.3472 73.0297 80.7457 72.8152 80.9581C72.7188 81.0536 72.1942 80.8514 71.493 80.4485C69.9329 79.552 68.8787 79.331 69.3788 80.0052C69.4495 80.1005 69.8224 80.3416 70.2074 80.5409C72.1596 81.5517 72.5699 81.8327 72.5699 82.1595C72.5699 82.2616 72.373 82.3452 72.1324 82.3452C71.5603 82.3452 71.578 82.435 72.3074 83.2347C73.3888 84.4202 72.9904 84.648 71.7408 83.5585C70.854 82.7853 70.7771 82.7585 70.4758 83.1181C70.3031 83.3243 70.4339 83.6144 71.1849 84.6904C72.4148 86.4526 73.3504 87.2466 74.0241 87.1001C74.44 87.0096 74.5169 87.043 74.4673 87.2926C74.1939 88.6705 72.1315 87.4142 70.4058 84.8186C69.9475 84.1293 69.5185 83.5329 69.4525 83.4933C69.2378 83.3645 68.0199 83.9358 68.0199 84.1652C68.0199 84.4631 68.4291 84.6041 68.7357 84.4118C69.1309 84.1641 69.4394 84.2277 69.3838 84.5456C69.3547 84.7118 69.506 84.927 69.7324 85.0413C69.9524 85.1525 70.3591 85.4948 70.6361 85.8021C71.1181 86.3368 71.1291 86.3861 70.8923 86.9475C70.5753 87.6989 70.5779 87.7185 70.9949 87.7185C71.1874 87.7185 71.3449 87.7965 71.3449 87.8919C71.3449 87.9872 71.5048 88.0652 71.7004 88.0652C72.249 88.0652 72.2955 88.5098 71.8128 89.14C71.3728 89.7146 71.1179 91.0768 71.4421 91.1211C71.533 91.1335 71.802 91.0704 72.0399 90.9808C72.5048 90.8057 73.2699 91.0383 73.2699 91.3546C73.2699 91.4519 73.7012 91.9761 74.2283 92.5195C75.054 93.3706 75.2722 93.5051 75.8033 93.4901C76.2947 93.4763 76.4199 93.5385 76.4199 93.7962C76.4199 93.9741 76.2569 94.206 76.0578 94.3116C75.7085 94.4967 75.7226 94.5338 76.4515 95.3498C77.7251 96.7755 78.1106 97.3115 78.3611 98.0044C78.6006 98.6671 78.5988 98.673 77.9579 99.2547C77.6038 99.5761 77.2282 99.998 77.1233 100.192C77.0184 100.386 76.8294 100.545 76.7033 100.545C76.5773 100.545 76.3316 100.701 76.1574 100.892C75.9672 101.1 75.6184 101.239 75.2844 101.239C74.5898 101.239 74.4569 101.364 74.6922 101.8C74.8234 102.043 74.8217 102.198 74.6861 102.332C74.5809 102.436 74.4949 102.735 74.4949 102.996C74.4949 103.539 74.2071 103.796 73.9196 103.511C73.8125 103.405 73.6619 103.319 73.5849 103.319C73.3956 103.319 73.4059 103.795 73.5967 103.867C73.6803 103.899 73.8038 104.101 73.8713 104.316C73.9587 104.594 73.9131 104.738 73.7129 104.814C73.2815 104.978 72.7449 104.386 72.7449 103.746C72.7449 103.108 72.5105 102.857 71.7918 102.728C71.5143 102.679 71.0442 102.409 70.7473 102.13C70.3203 101.728 70.0936 101.639 69.6636 101.706C68.933 101.82 68.7512 101.376 69.3403 100.917C69.5766 100.733 69.7699 100.505 69.7699 100.41C69.7699 100.204 68.275 99.9557 68.0098 100.118C67.9074 100.181 67.5725 99.9569 67.2655 99.6207C66.605 98.8973 66.1304 98.7343 65.6743 99.0741C65.3586 99.3093 65.4063 99.3902 66.5892 100.624C67.2757 101.339 67.9571 102.209 68.1036 102.556C68.4336 103.339 68.4347 103.319 68.0602 103.319C67.8898 103.319 67.4386 102.929 67.0574 102.452C66.6762 101.975 66.2708 101.585 66.1566 101.585C66.0423 101.585 65.8636 101.979 65.7594 102.46C65.5232 103.551 65.5187 103.492 65.8379 103.492C66.5593 103.492 66.1495 104.703 65.2981 105.088C64.6915 105.361 64.7672 105.685 65.4932 105.922C65.8728 106.046 66.1781 106.286 66.2738 106.536C66.4409 106.971 66.5621 106.962 68.056 106.406C68.403 106.277 68.673 106.292 69.0663 106.464C69.745 106.761 69.6807 107.13 68.9054 107.388C68.0916 107.66 68.0494 107.933 68.7998 108.072C69.1587 108.139 69.4199 108.29 69.4199 108.43C69.4199 108.563 69.5722 108.778 69.7583 108.907C69.9968 109.072 70.0493 109.216 69.936 109.393C69.8476 109.532 69.774 109.821 69.7726 110.035C69.7694 110.491 69.4649 110.529 68.2859 110.216C67.7007 110.061 67.446 110.058 67.2997 110.202C67.1535 110.347 67.5487 110.616 68.8299 111.242C70.9079 112.259 71.194 112.908 69.359 112.443C68.5444 112.237 68.8752 112.672 70.2617 113.632C71.5502 114.524 71.7002 114.741 71.2704 115.095C71.0769 115.254 70.8214 115.241 70.1329 115.038C69.1478 114.749 68.9781 114.874 69.7469 115.324C70.0231 115.486 70.7076 116.088 71.2682 116.662C72.2746 117.692 72.6502 117.9 72.7845 117.501C72.8652 117.261 73.4449 117.436 73.4449 117.7C73.4449 117.942 72.7937 118.572 72.5432 118.572C72.4323 118.572 71.9008 118.134 71.362 117.598C70.5078 116.75 69.6514 116.098 68.0886 115.108C67.7589 114.899 67.6401 114.892 67.4588 115.072C67.2775 115.251 67.2846 115.321 67.4963 115.441C68.6607 116.103 69.0699 116.431 69.0699 116.7C69.0699 117.101 69.0349 117.096 68.2657 116.579C67.5348 116.087 66.7696 116.018 66.4389 116.412C66.2539 116.633 66.2829 116.814 66.6059 117.455C66.8676 117.974 66.9615 118.388 66.8902 118.71C66.7903 119.161 66.8672 119.237 68.1456 119.953C68.8946 120.373 69.7436 120.877 70.0324 121.073C70.3211 121.27 70.5883 121.449 70.6261 121.47C70.6638 121.492 70.6039 121.619 70.4928 121.751C70.3215 121.956 70.139 121.957 69.2866 121.758C68.7343 121.629 68.2233 121.523 68.1511 121.521C67.8521 121.515 68.0663 121.95 68.8511 122.944C69.3083 123.523 70.0604 124.498 70.5224 125.11C70.9844 125.723 71.5985 126.355 71.8871 126.515C72.2971 126.742 72.3947 126.897 72.3338 127.228C72.2254 127.815 72.3723 128.105 72.7782 128.105C72.9783 128.105 73.0924 128.197 73.0489 128.322C73.0003 128.462 72.6208 128.537 71.9732 128.534C70.9877 128.529 70.9578 128.514 70.0049 127.539C69.2423 126.76 69.017 126.4 68.9417 125.845C68.8313 125.029 68.0326 124.292 67.2596 124.292C66.7151 124.292 66.6383 124.558 67.1449 124.689C67.5928 124.805 67.5928 125.094 67.1449 125.332C66.5928 125.625 66.725 125.839 67.7406 126.3C68.7371 126.752 68.9293 126.984 68.7787 127.554C68.7082 127.822 68.7824 127.917 69.0952 127.961C69.3247 127.993 69.5309 128.159 69.5657 128.34C69.6209 128.627 69.5481 128.648 68.8853 128.537C68.477 128.469 67.8988 128.313 67.6002 128.191C67.1853 128.022 66.8203 128.013 66.0511 128.153C65.4977 128.254 65.0449 128.392 65.0449 128.461C65.0449 128.7 65.9112 129.145 66.3757 129.145C66.6331 129.145 66.9456 129.009 67.07 128.842C67.2402 128.614 67.3467 128.588 67.4995 128.737C67.7999 129.03 67.6365 129.554 67.1831 129.752C66.9647 129.847 66.8076 130.009 66.8342 130.112C66.8607 130.216 67.5321 130.866 68.3261 131.559C69.649 132.711 70.074 133.305 69.5764 133.305C69.47 133.305 69.1489 133.11 68.863 132.872C68.2994 132.402 67.6699 132.297 67.6699 132.673C67.6699 133.077 68.6596 134.281 69.4192 134.8C69.8201 135.074 70.4845 135.611 70.8956 135.992C71.76 136.794 72.04 137.023 73.2545 137.921C74.0824 138.533 74.396 139.025 73.9582 139.025C73.8555 139.025 73.5191 138.835 73.2106 138.601C72.9021 138.368 72.2577 138.095 71.7786 137.994C71.2994 137.893 70.4627 137.606 69.9192 137.355C68.8773 136.874 68.0199 136.886 68.0199 137.382C68.0199 137.523 67.8624 137.639 67.6699 137.639C67.2765 137.639 67.2309 137.843 67.5093 138.358C67.6467 138.613 67.8097 138.681 68.1035 138.608C68.5438 138.499 68.7199 138.744 68.7199 139.466C68.7199 139.947 69.7894 140.759 70.423 140.759C70.9137 140.759 70.9526 141.213 70.4748 141.364C69.6602 141.62 66.9342 139.453 66.5887 138.275C66.3379 137.42 65.0484 135.914 64.3007 135.602C63.8406 135.411 63.7431 135.421 63.5395 135.687C63.2728 136.035 63.224 136.535 63.4437 136.669C63.5255 136.719 63.5987 137.353 63.6062 138.077C63.6138 138.801 63.6937 139.486 63.7838 139.599C63.8738 139.713 63.9324 140.234 63.9139 140.759C63.8954 141.283 63.86 143.96 63.8353 146.709C63.7987 150.771 63.8358 151.76 64.0338 151.995C64.3736 152.4 64.6251 153.005 65.4859 155.492C65.8985 156.684 66.5587 158.384 66.953 159.27C67.3473 160.156 67.6699 161.059 67.6699 161.276C67.6699 161.708 68.3309 162.425 68.7311 162.426C68.8693 162.426 69.258 162.758 69.5949 163.163C70.6104 164.383 72.2759 165.862 72.7308 165.948C72.9659 165.993 73.3482 165.943 73.5803 165.839C73.9394 165.677 74.0461 165.706 74.2959 166.034C74.5243 166.334 74.705 166.397 75.1109 166.32C75.5582 166.236 75.7495 166.336 76.4561 167.024C76.9091 167.464 77.3307 167.984 77.393 168.178C77.487 168.472 77.6083 168.515 78.1116 168.434C78.5282 168.367 78.9004 168.439 79.3052 168.664C79.6288 168.844 80.1678 169.042 80.5031 169.105C81.4819 169.286 82.638 170.973 82.0363 171.342C81.9491 171.395 81.9189 171.595 81.9692 171.785C82.0195 171.976 81.9854 172.132 81.8934 172.132C81.8013 172.132 81.6363 172.327 81.5267 172.565C81.2848 173.091 81.145 173.103 80.6092 172.643C80.343 172.414 80.0077 172.306 79.6709 172.339C79.2389 172.383 79.0747 172.285 78.7354 171.785C78.509 171.452 78.2301 171.147 78.1156 171.109C78.0011 171.071 77.6848 170.857 77.4127 170.633C77.1406 170.409 76.7666 170.225 76.5814 170.225C76.3963 170.225 76.2449 170.157 76.2449 170.074C76.2449 169.991 75.9102 169.871 75.5011 169.807C75.0406 169.736 74.6453 169.547 74.4631 169.311C74.0786 168.814 73.8492 169.043 74.2145 169.559C74.5573 170.044 74.5689 170.225 74.2573 170.225C73.9571 170.225 72.0449 167.865 72.0449 167.495C72.0449 167.343 72.181 167.07 72.3475 166.888C72.63 166.579 72.6305 166.546 72.3561 166.394C72.1944 166.304 71.9581 166.128 71.8309 166.002C71.7037 165.876 71.2819 165.574 70.8935 165.331C70.5052 165.088 69.6013 164.286 68.8849 163.548C68.1685 162.81 67.1689 161.789 66.6636 161.279C66.1583 160.77 65.7449 160.256 65.7449 160.138C65.7449 160.02 65.6161 159.589 65.4586 159.181C65.1778 158.453 64.8699 158.195 64.8699 158.688C64.8699 159.12 64.5225 159.174 64.2087 158.791C63.9154 158.433 63.9066 158.451 63.8771 159.467C63.8476 160.485 63.8634 160.524 64.5232 161.041C65.3024 161.652 65.9199 162.561 65.9199 163.096C65.9199 163.656 65.6866 163.544 65.0641 162.686C64.4545 161.845 63.9088 161.449 63.7376 161.723C63.6163 161.918 63.7995 162.772 64.0234 163.055C64.1087 163.163 64.1622 163.475 64.1422 163.748C64.0874 164.498 64.358 164.847 65.9438 166.071C66.7427 166.687 67.9637 167.757 68.6572 168.448C69.3508 169.139 70.132 169.784 70.3933 169.883C70.6546 169.981 70.8209 170.109 70.7628 170.166C70.7047 170.224 70.7359 170.417 70.8322 170.595C71.0816 171.056 70.7505 171.011 70.2582 170.515C69.4539 169.706 68.3965 169.012 67.9685 169.012C67.6555 169.012 67.1523 168.637 66.2093 167.699C65.1266 166.624 64.8042 166.397 64.4204 166.443C64.0187 166.491 63.944 166.591 63.8944 167.149C63.8518 167.628 63.9035 167.799 64.0907 167.799C64.2708 167.799 64.3449 168.002 64.3449 168.496C64.3449 169.071 64.4213 169.227 64.7824 169.39C65.1641 169.562 65.2693 169.754 65.2028 170.155C65.1934 170.211 65.4022 170.481 65.6667 170.755C65.9834 171.082 66.4651 171.322 67.0773 171.458C68.6349 171.803 71.2042 173.345 70.222 173.345C69.811 173.345 69.8859 173.75 70.3824 174.212C70.623 174.436 70.8199 174.749 70.8199 174.909C70.8199 175.455 72.1542 176.218 72.7703 176.024C72.9964 175.953 73.2993 176.087 73.7011 176.437C74.0287 176.721 74.5775 177.055 74.9208 177.178C75.264 177.301 75.5449 177.464 75.5449 177.54C75.5449 177.616 75.7321 177.679 75.9609 177.679C76.1898 177.679 76.4751 177.796 76.5949 177.939C76.7147 178.082 76.8818 178.199 76.9663 178.199C77.0508 178.199 77.1199 178.082 77.1199 177.939C77.1199 177.542 77.396 177.628 77.7257 178.126C77.8886 178.372 78.3006 178.879 78.6412 179.253C79.2494 179.92 79.1959 180.136 78.5255 179.722C78.1304 179.477 77.8329 179.667 78.1378 179.969C78.4273 180.256 78.3961 180.625 78.0824 180.625C77.919 180.625 77.8199 180.789 77.8199 181.059C77.8199 181.297 77.7895 181.492 77.7524 181.492C77.5713 181.492 76.7681 181 76.1248 180.495C75.2621 179.818 75.1949 179.809 75.1949 180.365C75.1949 181.007 74.9491 180.893 74.5107 180.049C74.2967 179.637 73.9103 179.173 73.652 179.017C72.9788 178.613 72.0449 177.699 72.0449 177.444C72.0449 176.922 71.5927 176.295 71.216 176.293C70.9453 176.292 70.7439 176.118 70.5632 175.729C70.4195 175.419 70.2216 175.029 70.1234 174.862C70.0252 174.695 69.8808 174.428 69.8026 174.268C69.6835 174.024 67.6269 172.652 67.3814 172.652C67.3383 172.652 66.8722 172.379 66.3456 172.045C65.8189 171.712 65.3205 171.439 65.2379 171.439C65.1553 171.439 64.9897 171.322 64.8699 171.179C64.75 171.036 64.5042 170.919 64.3234 170.919C64.0356 170.919 63.9965 171.053 64.0082 172.002C64.0296 173.746 64.3869 175.439 64.8953 176.205C65.7652 177.517 67.2888 178.641 68.4253 178.81C69.7855 179.012 69.3869 179.562 67.9817 179.422C67.8163 179.405 67.1609 179.123 66.5252 178.795C65.3745 178.201 64.4675 178.035 64.2527 178.379C64.1907 178.479 64.2344 181.15 64.3499 184.316C64.4654 187.482 64.5774 190.579 64.5988 191.199C64.6201 191.818 64.6993 193.183 64.7748 194.232C64.8822 195.724 64.8476 196.512 64.6155 197.857C64.4524 198.802 64.3123 200.05 64.3043 200.63C64.2874 201.853 64.5043 203.332 64.7005 203.332C64.9551 203.332 65.2516 204.459 65.3616 205.845C65.5163 207.793 65.507 208.835 65.3137 211.219C65.0369 214.631 65.1475 221.432 65.587 228.032C65.6886 229.557 65.8055 232.014 65.8468 233.492C65.8881 234.97 65.9604 236.764 66.0074 237.479C66.0544 238.194 66.1715 240.339 66.2677 242.245C66.563 248.103 66.5608 248.085 67.1475 249.592C67.4488 250.365 67.754 250.999 67.8257 250.999C67.8974 250.999 68.4035 251.411 68.9505 251.915C69.63 252.542 69.9467 252.967 69.9507 253.259C69.9621 254.098 70.4629 254.426 71.8292 254.488C72.513 254.52 73.1323 254.486 73.2054 254.414C73.3745 254.246 73.4741 253.799 73.4583 253.278C73.4404 252.69 73.606 252.505 73.9198 252.763C74.0677 252.884 74.4152 252.96 74.6922 252.931C75.025 252.897 75.2316 252.972 75.3015 253.152C75.4524 253.542 75.8731 253.49 76.2481 253.035C76.6607 252.535 77.094 252.825 76.7861 253.395C76.4399 254.036 76.5365 254.305 77.0438 254.114C77.6904 253.871 77.8109 253.899 77.9783 254.335C78.0954 254.64 78.2567 254.721 78.7177 254.705C79.3628 254.683 79.3688 254.657 79.0136 253.459C78.827 252.829 78.8317 252.689 79.0441 252.559C79.1983 252.465 79.3845 252.478 79.5254 252.594C79.6915 252.73 79.8751 252.729 80.1875 252.588C80.6082 252.398 80.6199 252.411 80.6199 253.088C80.6199 253.964 80.9899 254.146 81.6161 253.577L82.0695 253.165L81.9681 253.816C81.8699 254.446 81.881 254.463 82.3197 254.354C82.7666 254.243 82.7712 254.251 82.653 254.983L82.5333 255.725L83.2246 255.615C83.6285 255.551 83.9401 255.577 83.9741 255.678C84.0125 255.791 84.5595 255.786 85.5743 255.663C87.3546 255.447 87.6199 255.505 87.6199 256.106C87.6199 256.502 87.5515 256.545 86.9302 256.545C86.5509 256.545 86.1919 256.623 86.1324 256.719C85.9607 256.994 85.5199 256.92 85.5199 256.616C85.5199 256.385 85.3797 256.358 84.6637 256.456C84.1167 256.53 83.7655 256.505 83.6909 256.386C83.4825 256.052 82.7134 256.188 82.2977 256.632C81.8097 257.153 81.4949 257.189 81.4949 256.722C81.4949 256.488 81.3408 256.345 81.0136 256.273C80.7489 256.215 80.2734 256.089 79.9568 255.994C79.5382 255.868 79.3114 255.878 79.1246 256.031C78.9606 256.166 78.6156 256.203 78.1689 256.132C77.7824 256.071 77.4699 256.092 77.4699 256.179C77.4699 256.351 75.6888 256.353 75.5449 256.182C75.3897 255.998 73.6963 255.871 73.4447 256.025C73.3042 256.111 73.0631 256.101 72.8744 256.001C72.6475 255.881 72.4719 255.89 72.3003 256.031C72.0213 256.26 68.8949 256.412 68.8949 256.197C68.8949 256.12 68.5009 256.004 68.0193 255.938C67.5378 255.873 67.0803 255.707 67.0027 255.569C66.9069 255.4 66.541 255.316 65.8657 255.308C65.318 255.301 64.8699 255.226 64.8699 255.14C64.8699 254.93 63.8761 254.943 63.469 255.159C63.2583 255.271 63.1036 255.273 63.0362 255.165C62.9785 255.072 62.6981 255.043 62.4131 255.099C62.1157 255.158 61.8949 255.128 61.8949 255.029C61.8949 254.881 60.4027 254.849 60.1449 254.991C60.03 255.054 59.3208 255.155 58.632 255.205C58.3293 255.227 57.9173 255.392 57.7165 255.572C57.4638 255.799 57.2831 255.847 57.1294 255.73C56.7377 255.431 55.6418 255.513 55.3201 255.865C55.0014 256.214 54.7199 256.162 54.7199 255.753C54.7199 255.615 54.9561 255.179 55.2449 254.784C55.8156 254.004 55.9104 253.598 55.5221 253.598C55.1466 253.598 54.2399 254.831 54.1097 255.519C54.0108 256.041 54.0519 256.155 54.401 256.33C54.6245 256.441 55.2178 256.516 55.7195 256.496C56.3966 256.468 56.7119 256.538 56.9432 256.767C57.242 257.062 57.2404 257.101 56.904 257.72C56.6486 258.19 56.4347 258.368 56.1178 258.377C55.8783 258.384 55.5393 258.452 55.3644 258.53C55.177 258.613 54.9694 258.595 54.8592 258.486C54.7488 258.376 54.3327 258.34 53.8446 258.397C53.3053 258.461 52.9732 258.424 52.8909 258.292C52.8009 258.148 52.5506 258.214 52.0203 258.522C51.1728 259.014 50.5067 258.972 50.6481 258.437C50.7663 257.989 50.4877 258.019 49.7159 258.538C49.2576 258.846 48.8634 258.964 48.3519 258.944C47.9561 258.929 47.2639 258.978 46.8135 259.053C45.7877 259.223 45.1506 259.072 45.0072 258.625C44.8535 258.145 44.3503 258.192 43.6821 258.749C43.2112 259.141 42.9403 259.223 42.0499 259.238C40.9969 259.256 40.1949 259.518 40.1949 259.845C40.1949 260.06 39.8422 260.05 39.4511 259.825V259.825Z" fill="#242424"/>
<path d="M23.9626 11.7736H2.78271V257.057H23.9626" stroke="#F4A740" stroke-width="4.91627"/>
</g>
<defs>
<clipPath id="clip0">
<rect width="105" height="260" fill="white"/>
</clipPath>
</defs>
</svg>
