<svg width="105" height="260" viewBox="0 0 105 260" fill="none" xmlns="http://www.w3.org/2000/svg">
<line y1="121.5" x2="21" y2="121.5" stroke="#F4A740" stroke-width="5"/>
<line y1="48.5" x2="21" y2="48.5" stroke="#F4A740" stroke-width="5"/>
<path d="M53.1223 249.781C53.1223 249.587 53.7667 249.136 54.5542 248.777C56.0718 248.087 56.6449 247.368 56.6449 246.152C56.6449 245.743 56.9099 244.906 57.2338 244.294C58.1816 242.5 58.5395 235.109 58.8898 210.096C59.0658 197.526 59.3046 180.949 59.4203 173.258L59.6308 159.273H58.9156C58.5222 159.273 57.9919 159.481 57.7371 159.736C57.3361 160.136 57.0733 160.138 55.7839 159.75C54.9644 159.504 54.1756 159.376 54.0309 159.465C53.6513 159.699 52.6533 159.076 52.6104 158.578C52.5073 157.382 52.0472 156.716 51.3237 156.716C50.785 156.716 50.5604 156.536 50.5604 156.103C50.5604 155.766 50.7406 155.418 50.9607 155.329C51.1841 155.239 51.0936 155.157 50.7558 155.143C50.423 155.129 49.9907 154.909 49.7951 154.654C49.5297 154.308 49.1557 154.256 48.3188 154.449L47.1979 154.707L48.0786 155.064C48.5629 155.261 48.9592 155.623 48.9592 155.87C48.9592 156.117 49.272 156.526 49.6544 156.779C50.6707 157.453 50.1213 158.091 48.6812 157.909C47.9777 157.82 47.1843 157.954 46.6732 158.246C46.1815 158.527 45.579 158.634 45.2321 158.501C44.9043 158.376 44.564 158.272 44.4759 158.271C44.0154 158.265 43.1738 157.151 43.2911 156.703C43.391 156.322 43.0695 156.09 42.0686 155.823C40.797 155.484 39.9761 154.602 40.5421 154.184C40.6802 154.082 41.0529 153.692 41.3703 153.316C41.937 152.646 41.927 152.621 40.8131 151.934C39.6954 151.244 39.6659 151.243 38.7949 151.833C38.3088 152.162 37.4846 152.615 36.9633 152.84C36.1643 153.183 35.9634 153.173 35.6824 152.772C35.4991 152.51 35.1646 152.032 34.9391 151.709C34.6452 151.289 34.4789 151.235 34.352 151.522C34.2546 151.742 33.7432 151.921 33.2155 151.921C32.3011 151.921 32.2664 151.872 32.4772 150.883C32.5988 150.311 32.8927 149.623 33.1302 149.353C33.6244 148.792 34.7662 148.62 35.042 149.066C35.1556 149.249 35.4749 149.234 35.8627 149.027C36.2118 148.84 36.8876 148.727 37.3644 148.774C38.7712 148.915 40.9074 147.771 41.0188 146.818C41.0874 146.23 41.3032 146.008 41.805 146.008C42.1854 146.008 42.6057 145.9 42.739 145.768C42.8724 145.636 43.4442 145.528 44.0097 145.528C44.5752 145.528 45.2047 145.328 45.4085 145.083C45.7227 144.705 46.0739 144.738 47.7202 145.299C49.6074 145.942 49.6912 145.944 50.7338 145.384C51.3237 145.067 52.0379 144.896 52.3208 145.004C52.6608 145.135 52.7576 145.076 52.6061 144.831C52.455 144.587 52.5507 144.528 52.8863 144.656C53.1666 144.763 53.8122 144.694 54.3211 144.503C55.1182 144.202 55.454 144.276 56.7462 145.031C57.8829 145.696 58.2461 145.795 58.2461 145.438C58.2461 145.179 57.9219 144.738 57.5256 144.457C56.8172 143.956 56.8155 143.939 57.4267 143.459C57.7686 143.191 58.4531 142.971 58.9478 142.971C59.6938 142.971 59.8473 142.835 59.8473 142.172C59.8473 141.337 59.4079 141.109 59.0167 141.741C58.8583 141.997 58.6604 141.934 58.3673 141.534C57.968 140.989 57.9124 140.999 57.318 141.725C56.8455 142.302 56.5983 142.402 56.3178 142.127C56.1003 141.913 55.4278 141.831 54.7016 141.928C53.5756 142.079 53.4268 142.012 53.1278 141.227C52.7038 140.115 52.9331 139.775 54.108 139.775C54.9799 139.775 55.039 139.704 54.8447 138.896C54.5593 137.709 54.4978 137.673 53.8124 138.292C53.0645 138.967 50.264 138.889 49.7013 138.177C49.2636 137.622 48.765 137.98 48.5868 138.976C48.4513 139.732 47.0378 140.078 47.0378 139.355C47.0378 139.099 46.7496 138.815 46.3973 138.723C45.9067 138.595 45.7569 138.287 45.7569 137.407C45.7569 136.776 45.6128 136.259 45.4366 136.259C45.2605 136.259 45.1164 135.946 45.1164 135.565C45.1164 135.183 44.9177 134.644 44.6749 134.366C44.3658 134.013 44.2938 133.432 44.4347 132.428L44.636 130.995L46.0768 130.99C47.1462 130.986 47.5176 131.109 47.5179 131.464C47.5182 132.06 49.8913 132.247 53.6204 131.946C55.6926 131.778 56.2769 131.614 56.5909 131.112C56.9119 130.599 56.8802 130.348 56.413 129.706C56.1003 129.275 55.5899 128.837 55.2789 128.732C54.8566 128.59 54.7428 128.276 54.8292 127.493C54.9757 126.167 54.4671 125.462 53.4421 125.572C53.002 125.619 52.4799 125.67 52.2817 125.684C52.0836 125.699 51.8404 126.115 51.7414 126.609C51.4897 127.866 50.0752 128.507 49.2334 127.747C48.867 127.416 48.7031 126.972 48.8162 126.616C48.9186 126.294 48.8666 126.03 48.7006 126.03C48.5346 126.03 48.3147 126.45 48.2118 126.964C48.0058 127.992 46.8936 128.572 46.2877 127.967C46.014 127.694 46.0422 127.526 46.4 127.301C46.7931 127.053 46.7643 126.996 46.2372 126.983C45.0842 126.953 42.683 124.197 43.286 123.596C43.3953 123.486 43.2754 123.188 43.0196 122.933C42.4511 122.366 42.4414 122.147 42.9548 121.468C43.2991 121.012 43.6238 120.982 45.2765 121.251C46.3333 121.423 47.6661 121.622 48.2382 121.693C49.2442 121.818 49.2627 121.799 48.7986 121.138C48.5347 120.762 48.3188 120.127 48.3188 119.726C48.3188 118.953 48.008 118.797 47.4925 119.312C47.1167 119.687 44.7961 119.129 44.7961 118.664C44.7961 118.496 44.6087 118.359 44.3796 118.359C44.1506 118.359 43.5847 118.181 43.1223 117.963C42.497 117.668 42.288 117.338 42.3069 116.673C42.3209 116.181 42.4533 115.704 42.6012 115.613C42.749 115.522 42.5704 114.861 42.2044 114.145C41.5939 112.951 41.5813 112.801 42.0518 112.331C42.4829 111.901 42.6706 111.885 43.2271 112.232C43.6199 112.477 44.2673 112.562 44.8188 112.441C45.6074 112.268 45.806 112.363 46.1296 113.072C46.3394 113.532 46.991 114.135 47.5777 114.413C48.4639 114.833 48.806 114.851 49.6001 114.523C50.1259 114.306 50.8566 114.206 51.224 114.302C51.6938 114.425 51.8434 114.35 51.7283 114.051C51.5748 113.652 52.3686 113.585 53.2824 113.921C53.4586 113.986 53.9425 113.8 54.3579 113.508C55.2491 112.881 54.9778 112.134 53.9668 112.431C52.3764 112.899 51.8646 112.903 51.4086 112.447C51.1434 112.183 50.7 111.966 50.4232 111.966C50.1464 111.966 49.92 111.812 49.92 111.624C49.92 111.435 49.7038 111.065 49.4396 110.802C48.8248 110.188 48.8248 109.178 49.4396 108.564C49.9892 108.016 50.106 106.699 49.5761 107.026C49.3869 107.143 49.4216 106.936 49.6531 106.566C50.1154 105.827 50.7564 105.681 50.9529 106.269C51.022 106.476 51.2417 106.545 51.441 106.422C51.8975 106.14 50.9182 104.3 50.3102 104.297C49.6575 104.294 49.5739 103.605 50.0384 102.057C50.5783 100.258 51.2499 100.073 51.8352 101.562C52.0785 102.181 52.348 102.617 52.4342 102.531C52.5203 102.445 52.9212 102.591 53.325 102.855C53.7744 103.149 54.4994 103.279 55.194 103.19C56.1336 103.07 56.4176 103.18 56.845 103.831C57.2519 104.451 57.2798 104.715 56.9771 105.08C56.6505 105.472 56.7647 105.514 57.7398 105.356C58.489 105.234 58.8866 105.295 58.8866 105.532C58.8866 105.73 59.0307 105.893 59.2068 105.893C59.4046 105.893 59.5271 104.238 59.5271 101.568C59.5271 98.0018 59.442 97.21 59.0426 97.057C58.7762 96.9549 58.3378 97.0541 58.0684 97.2772C57.7149 97.5701 57.4814 97.586 57.2295 97.3347C56.832 96.9379 58.115 95.0734 58.8065 95.0428C59.3629 95.0182 59.3085 94.4931 58.7265 94.2702C58.13 94.0418 58.0961 92.9087 58.6754 92.5638C59.0908 92.3164 59.6305 90.8698 59.3074 90.8698C59.2196 90.8698 58.7862 91.1536 58.3443 91.5005C57.5961 92.088 57.4747 92.0972 56.5773 91.634C56.0473 91.3604 55.6943 91.2666 55.7927 91.4256C56.0962 91.9157 54.9458 92.6302 53.6827 92.736C52.6703 92.8208 52.4818 92.7386 52.4818 92.212C52.4818 91.8684 52.6884 91.4162 52.9408 91.2071C53.3338 90.8816 53.3089 90.7364 52.7679 90.1963C52.4204 89.8494 51.9957 89.1972 51.8241 88.7468C51.5932 88.1404 51.368 87.9865 50.9563 88.1536C49.0813 88.9144 48.633 88.9203 48.1537 88.1902C47.7128 87.5185 47.5868 86.6858 47.7269 85.3697C47.8129 84.5621 48.7134 84.3481 49.2045 85.0185C49.5208 85.4503 50.0047 85.5803 51.1328 85.5368C52.0778 85.5003 52.8319 85.6529 53.157 85.9466C54.2521 86.9358 55.3841 86.72 55.5711 85.4864C55.6676 84.8503 56.0712 84.5781 56.2358 85.0383C56.4409 85.6118 56.9652 85.1948 56.9652 84.458C56.9652 83.9719 56.7412 83.8376 55.9305 83.8376C54.3996 83.8376 52.1616 81.3858 52.1616 79.7086C52.1616 79.0495 52.248 78.4239 52.3537 78.3185C52.7493 77.9236 53.9785 78.8104 54.8949 80.1519C55.4164 80.9153 55.9759 81.4579 56.1383 81.3577C56.3007 81.2575 56.3493 81.3946 56.2464 81.6623C56.1129 82.0096 56.3723 82.2448 57.1527 82.4839C58.0379 82.755 58.2461 82.7332 58.2461 82.3693C58.2461 82.122 58.5343 81.9197 58.8866 81.9197C59.729 81.9197 59.6945 81.6685 58.7296 80.7758C57.805 79.9205 57.9484 79.1297 59.0796 78.8463C59.7284 78.6838 59.8069 78.529 59.6047 77.8103C59.4739 77.3455 59.3747 76.318 59.3841 75.5269C59.3935 74.7358 59.4252 72.4343 59.4544 70.4126C59.5117 66.4384 59.4125 64.7968 59.065 63.9721C58.9429 63.6823 58.9969 63.3501 59.185 63.2341C59.3731 63.118 59.5271 62.5381 59.5271 61.9454C59.5271 61.0728 59.3906 60.8483 58.8098 60.7656C58.4153 60.7094 58.0445 60.4117 57.9857 60.1041C57.9028 59.6696 58.0986 59.5447 58.8631 59.5447C59.5245 59.5447 59.8473 59.3874 59.8473 59.0652C59.8473 58.8015 59.6429 58.5858 59.3932 58.5858C59.1434 58.5858 58.7296 58.5056 58.4737 58.4076C58.2178 58.3096 57.8085 58.429 57.564 58.673C57.3196 58.917 56.9407 59.0571 56.7221 58.9844C56.5035 58.9117 56.3247 59.0269 56.3247 59.2405C56.3247 59.5215 55.9482 59.5634 54.9637 59.3922C51.1266 58.725 47.6657 58.462 44.7171 58.6137C43.0346 58.7002 42.4403 58.6088 42.0314 58.2006C41.3651 57.5357 41.6544 56.7487 42.6149 56.6128C43.1691 56.5344 43.3824 56.2674 43.464 55.5502C43.5859 54.4785 43.9757 54.1229 45.0363 54.1157C45.4326 54.1131 45.7569 53.9669 45.7569 53.7911C45.7569 52.861 42.7566 53.7908 40.7997 55.3271C40.1391 55.8458 39.7804 55.9378 39.3389 55.702C38.4998 55.2537 38.1689 55.3163 38.8294 55.7984C39.2925 56.1364 39.3306 56.363 39.0487 57.1031C38.709 57.9949 38.6975 57.998 36.3879 57.8262C32.2841 57.521 32.1614 57.495 32.0478 56.9076C31.9883 56.6 32.0898 56.3483 32.2733 56.3483C32.4568 56.3483 32.524 56.1325 32.4227 55.8688C32.3213 55.6051 32.1025 55.3893 31.9365 55.3893C31.7705 55.3893 31.1555 54.9219 30.5699 54.3505C29.6838 53.4859 29.5315 53.1368 29.662 52.2689C29.8435 51.0621 30.235 50.7114 30.8407 51.2132C31.1693 51.4854 31.307 51.418 31.4372 50.9211C31.6141 50.2456 32.4465 50.0444 32.7872 50.5947C33.0455 51.0118 34.4528 51.008 34.7119 50.5895C34.8225 50.4108 35.0735 50.3636 35.2696 50.4846C35.9697 50.9165 38.5402 50.77 38.9359 50.2757C39.2763 49.8506 39.4322 49.858 40.2969 50.3401C41.2284 50.8595 41.2735 50.8576 41.2735 50.3002C41.2735 49.9787 41.3597 49.2857 41.465 48.7601C41.6367 47.903 41.5624 47.7862 40.7445 47.6281C40.2111 47.525 39.633 47.6249 39.3521 47.8689C39.0879 48.0984 38.4034 48.3854 37.831 48.5068C36.9959 48.684 36.7902 48.6259 36.7902 48.2127C36.7902 47.5796 36.5101 47.4716 33.9927 47.1339C32.2202 46.8962 31.9754 46.9301 31.8147 47.4355C31.5932 48.132 30.8047 47.8937 30.5362 47.0491C30.4295 46.7137 30.1893 46.4393 30.0024 46.4393C29.4211 46.4393 27.1934 48.6247 27.6043 48.7918C27.8776 48.9029 27.8695 48.9531 27.5754 48.9713C27.3509 48.9851 27.0302 48.6369 26.8628 48.1974C26.6954 47.7579 26.3027 47.3938 25.9901 47.3882C25.1611 47.3736 24.3217 46.0406 24.0931 44.3759C23.9143 43.0737 23.9594 42.9233 24.5284 42.9233C24.8776 42.9233 25.5817 43.1313 26.0931 43.3856C27.4307 44.0507 30.3854 44.2446 30.3854 43.6672C30.3854 43.4228 30.6112 43.1364 30.8872 43.0307C31.2533 42.8904 31.3642 42.4825 31.2973 41.5224C31.2085 40.2476 31.2355 40.2076 32.1565 40.2485C32.6795 40.2717 33.4317 40.3964 33.828 40.5255C34.4139 40.7164 34.5485 40.6405 34.5485 40.1193C34.5485 39.6398 34.2661 39.4255 33.4277 39.2685C32.4228 39.0803 32.1518 38.7958 32.2681 38.0513C32.3151 37.7506 31.2793 36.5304 30.977 36.5304C30.8523 36.5304 30.7042 36.8404 30.6479 37.2193C30.4924 38.2661 29.1718 38.348 28.915 37.3267C28.8049 36.8887 28.5069 36.5304 28.2528 36.5304C27.7636 36.5304 26.8628 34.7142 26.8628 33.7278C26.8628 32.6718 27.4635 32.3911 28.6578 32.8891C29.2557 33.1385 29.745 33.2606 29.745 33.1604C29.745 33.0602 30.1802 33.2348 30.7122 33.5485C31.5023 34.0143 31.7937 34.0477 32.3028 33.7303C32.7491 33.4521 33.1676 33.4334 33.7763 33.6644C34.3902 33.8973 34.7577 33.8782 35.0988 33.5957C35.476 33.2832 35.6277 33.2979 35.8513 33.6687C36.5476 34.8229 36.7414 35 37.0798 34.7912C37.2785 34.6686 37.3608 34.4387 37.2627 34.2802C36.9807 33.8248 38.5826 33.5622 39.3012 33.9461C40.1998 34.4261 40.2224 34.4132 40.3811 33.334C40.5279 32.3356 40.1972 32.0211 39.8768 32.8545C39.6055 33.56 38.7116 33.442 38.7116 32.7008C38.7116 31.9036 37.429 31.5386 36.2236 31.9927C34.7725 32.5393 32.362 32.7226 32.104 32.306C31.9771 32.101 32.0428 31.8769 32.2502 31.8079C32.4575 31.7389 32.6271 31.5409 32.6271 31.3679C32.6271 31.1949 32.3643 31.1366 32.0431 31.2384C31.4401 31.4294 29.4448 30.6114 29.0293 30.0027C28.5979 29.3707 28.7642 27.036 29.2706 26.6165C29.667 26.2881 29.8634 26.3097 30.3324 26.7334C30.6489 27.0192 31.3964 27.3507 31.9936 27.4699C32.5907 27.5891 33.4459 27.8776 33.894 28.111C34.8646 28.6166 35.5092 28.66 35.5092 28.2197C35.5092 28.0439 35.3819 27.9 35.2264 27.9C35.0708 27.9 34.8681 27.6123 34.776 27.2607C34.6839 26.9091 34.4059 26.6215 34.1584 26.6215C33.0203 26.6215 31.6353 23.4747 32.4693 22.7838C32.8588 22.4611 33.1535 22.5472 34.0831 23.2549C35.3451 24.2157 36.3274 24.1376 36.055 23.0981C35.8297 22.2382 36.4993 20.5482 37.0653 20.5482C37.3155 20.5482 37.6802 20.7657 37.8757 21.0314C38.0713 21.2972 38.5195 21.5725 38.8717 21.6432C39.224 21.7139 39.7644 21.8715 40.0726 21.9933C40.8469 22.2994 40.8071 21.4286 39.9676 19.6977C39.2235 18.1633 39.249 17.4259 40.064 16.9137C40.4914 16.645 40.708 16.689 41.0247 17.1087C41.4193 17.6316 43.4676 18.6304 44.1454 18.6304C44.3272 18.6304 44.4759 18.1269 44.4759 17.5116C44.4759 16.6631 44.6113 16.3904 45.0363 16.3827C45.3445 16.3771 45.8765 16.1613 46.2183 15.9032C47.0718 15.2589 47.8976 15.3152 48.7128 16.0732C49.4399 16.7494 50.2402 16.9219 50.2402 16.4026C50.2402 16.2321 49.9466 15.571 49.5879 14.9335C49.217 14.2745 49.0191 13.5117 49.1291 13.1657C49.3337 12.5223 49.7658 12.3693 50.0557 12.8375C50.1512 12.9917 50.8959 13.2854 51.7108 13.4901C53.0246 13.8204 53.2415 13.7977 53.6274 13.2897C53.8668 12.9747 54.0672 12.3933 54.0728 11.9978C54.0788 11.5761 54.2817 11.2786 54.5634 11.2786C54.8276 11.2786 55.0437 11.4943 55.0437 11.758C55.0437 12.619 55.9368 12.2624 56.6449 11.1187C57.0569 10.4534 57.593 10 57.9679 10C58.712 10 60.512 10.8819 60.9681 11.47C61.1443 11.6971 61.6863 11.9787 62.1727 12.0957C62.8803 12.2661 63.0199 12.2122 62.8714 11.8259C62.7693 11.5604 62.846 11.2444 63.0419 11.1236C63.5281 10.8236 64.3306 11.5416 64.3306 12.2766C64.3306 12.7637 64.572 12.8768 65.6116 12.8768C66.8214 12.8768 66.8925 12.9301 66.8925 13.8357C66.8925 14.7329 67.2454 14.9914 68.2536 14.8325C68.3857 14.8117 68.4937 15.0104 68.4937 15.2741C68.4937 15.5378 68.3631 15.7536 68.2035 15.7536C68.0438 15.7536 67.9903 16.0478 68.0845 16.4075C68.1836 16.7856 68.0523 17.2238 67.7732 17.4463C67.0541 18.0198 66.8247 20.1152 67.4163 20.7057C68.0255 21.3138 68.1713 21.3014 69.0541 20.5663C69.7872 19.9558 70.0364 18.95 69.4544 18.95C68.9567 18.95 69.0777 17.9927 69.6008 17.7923C69.9268 17.6674 70.0112 17.3336 69.881 16.6836C69.7407 15.9834 69.8148 15.7536 70.1807 15.7536C70.7265 15.7536 71.0556 16.4074 71.0556 17.4915C71.0556 18.155 71.2419 18.2356 73.1945 18.4176C74.3709 18.5273 75.457 18.7404 75.6081 18.8911C75.9881 19.2705 74.5967 21.7779 73.8801 22.0049C73.5596 22.1064 73.2973 22.4675 73.2973 22.8073C73.2973 23.147 73.0091 23.7127 72.6568 24.0643C72.3046 24.4159 72.0163 24.9347 72.0163 25.2173C72.0163 25.5425 71.8402 25.6634 71.536 25.5469C71.2093 25.4218 71.0556 25.5642 71.0556 25.9922C71.0556 26.8468 71.9017 26.8908 75.539 26.2257C77.596 25.8495 78.4211 25.414 78.4211 24.7042C78.4211 24.5036 78.7439 24.3855 79.1384 24.4416C79.9076 24.5512 80.224 25.3623 79.8401 26.2406C79.5972 26.7966 79.5152 27.1156 79.4306 27.8354C79.4038 28.0635 79.0005 28.6029 78.5345 29.034C77.8744 29.6446 77.8059 29.8179 78.2243 29.8179C78.5197 29.8179 78.8365 29.6227 78.9282 29.3841C79.02 29.1455 79.6682 28.7614 80.3689 28.5306C82.0598 27.9736 82.4698 28.3559 82.0312 30.0807L81.7103 31.3424L82.9375 31.7466C83.9251 32.072 84.2596 32.0722 84.6513 31.7476C84.9189 31.5259 85.3512 31.4261 85.6118 31.526C85.8886 31.632 86.4888 31.3051 87.0549 30.7401C88.4166 29.381 89.4522 29.5559 89.517 31.156C89.5492 31.9525 89.3676 32.5123 88.9566 32.8836C88.6221 33.1859 88.3485 33.6934 88.3485 34.0115C88.3485 34.3297 88.0562 34.7462 87.699 34.937C86.9016 35.3629 87.2015 35.9932 88.0706 35.7179C88.4165 35.6083 88.8936 35.6795 89.1309 35.8761C89.7543 36.3925 90.0935 38.4816 89.603 38.7842C89.3868 38.9176 89.1692 39.4072 89.1195 39.8723C89.0517 40.5075 89.2241 40.8064 89.8129 41.0742C90.4718 41.3738 90.7131 41.3212 91.3292 40.7434C91.7323 40.3655 92.5212 39.9646 93.0824 39.8526C93.9 39.6894 94.147 39.7678 94.3246 40.2472C94.4466 40.5763 94.6959 40.945 94.8785 41.0666C95.0612 41.1882 95.2047 42.2431 95.1974 43.4109C95.1839 45.5692 94.8631 46.1761 93.7925 46.0694C93.5283 46.043 93.0439 46.137 92.716 46.2783C92.3325 46.4435 91.801 46.347 91.2256 46.0077C90.2689 45.4437 88.3485 45.2876 88.3485 45.7739C88.3485 45.9353 88.2522 46.3177 88.1346 46.6237C87.9504 47.1028 88.0618 47.1518 88.9369 46.9771C89.4959 46.8656 90.3067 46.9351 90.7389 47.1316C91.366 47.4168 91.6866 47.383 92.3271 46.9641C93.3362 46.3041 93.9139 46.3041 95.1842 46.9642C95.7397 47.2529 96.4008 47.5861 96.6533 47.7048C96.9057 47.8234 97.2659 48.1686 97.4538 48.4719C97.7216 48.9041 97.6537 49.1413 97.1393 49.5693C96.7783 49.8696 96.2019 50.672 95.8583 51.3524C95.3032 52.4517 93.3204 54.1108 92.5616 54.1108C92.406 54.1108 91.91 53.7428 91.4594 53.293C90.6947 52.5298 90.507 52.4902 88.647 52.7002C87.3705 52.8444 86.4405 53.1384 86.0602 53.518C85.3148 54.2621 84.4824 54.2744 83.7987 53.5514C82.742 52.434 82.3534 52.2555 81.4299 52.4635C80.6503 52.6391 80.4948 52.8412 80.4531 53.7323C80.361 55.7049 78.5065 56.7848 78.1076 55.0981C77.9387 54.384 77.8894 54.3675 77.3959 54.8601C76.8029 55.452 76.1794 55.558 76.1794 55.067C76.1794 54.8763 75.912 54.909 75.5248 55.1469C74.9626 55.4924 74.793 55.4536 74.3239 54.8725C73.8976 54.3444 72.137 53.4715 71.4983 53.4715C71.4421 53.4715 71.4693 54.3369 71.5587 55.3945C71.6936 56.9894 71.6304 57.3524 71.1887 57.5216C70.8577 57.6484 70.5398 57.5181 70.3488 57.1775C70.0673 56.6755 69.9772 56.6713 69.2789 57.1281C68.4206 57.6894 66.7139 57.7945 66.4107 57.3047C66.287 57.1051 66.0277 57.1658 65.7284 57.4646C65.4629 57.7296 65.0314 57.9465 64.7697 57.9465C64.4079 57.9465 64.3174 58.2721 64.3923 59.305C64.4735 60.4253 64.6145 60.681 65.1969 60.7637C65.7618 60.8439 65.9577 60.6521 66.1765 59.8048C66.4385 58.7901 66.5299 58.7367 68.3525 58.5352C69.3989 58.4194 71.0239 58.2319 71.9635 58.1183C73.5193 57.9303 73.7398 57.9848 74.4301 58.7283C74.847 59.1773 75.253 59.5447 75.3322 59.5447C75.4115 59.5447 75.627 59.1132 75.8112 58.5858C76.0876 57.7944 76.3221 57.6268 77.1535 57.6268C77.8864 57.6268 78.2058 57.7984 78.3258 58.2565C78.4788 58.8405 78.6954 58.8734 81.307 58.709C83.7485 58.5553 84.1641 58.6045 84.4302 59.0792C84.6381 59.45 84.8093 59.5103 84.9606 59.2661C85.0834 59.0677 85.6149 58.9054 86.1416 58.9054C86.6684 58.9054 87.4885 58.709 87.9641 58.469C88.969 57.9618 90.8156 57.8545 91.0838 58.2877C91.4376 58.859 93.4241 58.6106 94.0746 57.9137C94.5589 57.3949 95.1238 57.231 96.5538 57.1946C98.9026 57.1347 99.3398 57.7218 98.7833 60.1882C98.3191 62.2454 97.4631 62.9237 96.1498 62.2749C95.3337 61.8717 94.5847 61.8402 91.1506 62.0651C90.8423 62.0853 90.5901 62.256 90.5901 62.4443C90.5901 63.0385 89.698 63.7063 89.1729 63.5051C88.8956 63.3989 88.6687 63.1836 88.6687 63.0266C88.6687 62.8696 88.3805 62.7411 88.0282 62.7411C87.676 62.7411 87.3878 62.9541 87.3878 63.2145C87.3878 63.4749 86.9998 63.7851 86.5255 63.9039C85.6875 64.1138 85.683 64.1272 86.3654 64.3791C86.7516 64.5217 87.0675 64.8412 87.0675 65.089C87.0675 65.7288 86.2768 66.3022 85.6994 66.0811C85.4307 65.9782 85.1164 66.0466 85.0009 66.233C84.7554 66.6295 82.264 65.4755 82.264 64.9653C82.264 64.7893 82.6215 64.4827 83.0584 64.284C83.8982 63.9021 84.3693 62.977 84.0152 62.4052C83.8795 62.186 83.183 62.1409 82.0731 62.2793C80.9923 62.4141 80.3425 62.3755 80.3425 62.1766C80.3425 62.0014 79.7023 61.6972 78.9198 61.5005C77.1615 61.0586 76.4997 61.0482 76.4997 61.4626C76.4997 61.6384 76.8359 61.7822 77.2469 61.7822C77.6976 61.7822 77.9941 61.9725 77.9941 62.2617C77.9941 62.5254 77.8796 62.7411 77.7397 62.7411C77.5998 62.7411 77.1832 63.0648 76.814 63.4603L76.1427 64.1795L76.8578 64.3482C77.7796 64.5655 77.9435 65.09 77.2927 65.7397C77.007 66.0248 76.8573 66.5106 76.9579 66.8268C77.0854 67.2279 76.8624 67.5617 76.2098 67.9465C74.7263 68.8212 74.0828 68.6523 73.3625 67.1991C72.7508 65.965 72.7469 65.8777 73.2816 65.3611C74.1086 64.5621 74.2881 63.4067 73.7474 62.3631C73.4855 61.8575 73.3576 61.3042 73.4632 61.1335C73.5689 60.9629 73.5027 60.8233 73.3162 60.8233C73.1297 60.8233 72.9771 61.1109 72.9771 61.4626C72.9771 62.3791 71.2952 62.3445 70.677 61.4152C70.2924 60.8371 70.0335 60.7636 69.0376 60.9501C67.6174 61.216 66.5621 62.7576 67.2411 63.5743C67.555 63.9518 67.4964 64.1661 66.9368 64.6864C66.5557 65.0409 66.1015 65.2431 65.9277 65.1359C65.5051 64.8752 65.5228 64.0197 65.9507 64.0197C66.1373 64.0197 66.2008 63.8759 66.092 63.7001C65.9831 63.5243 65.5327 63.3804 65.0911 63.3804H64.2882L64.4561 70.5672C64.6149 77.3616 64.6631 77.8067 65.3382 78.7181C66.1577 79.8246 66.3764 79.8665 67.6932 79.1703C68.2215 78.8909 69.3744 78.6196 70.2551 78.5675C71.1357 78.5154 72.0913 78.3764 72.3785 78.2588C72.7657 78.1002 72.9913 78.3041 73.2509 79.0473C73.4925 79.7391 73.7276 79.9705 74.0096 79.7941C74.2343 79.6534 74.6558 79.5773 74.9463 79.6249C75.2368 79.6725 75.787 79.2734 76.169 78.7379C77.6327 76.6862 79.1971 78.3126 78.2734 80.9258C78.0048 81.6857 77.8624 82.4324 77.9569 82.5851C78.0515 82.7378 77.5461 83.4937 76.8339 84.2649C76.1217 85.0361 75.539 85.8437 75.539 86.0596C75.539 86.6658 74.2117 87.6297 73.0642 87.8568C72.1682 88.0342 72.074 88.1424 72.3565 88.6694C72.7194 89.3462 74.0007 89.2264 74.9237 88.4295C75.2018 88.1894 75.5981 87.9929 75.8044 87.9929C76.0107 87.9929 76.1795 87.8756 76.1795 87.7322C76.1795 87.2869 78.65 86.0602 79.1562 86.2541C79.8022 86.5015 80.0329 88.2563 79.4907 88.7976C79.2547 89.0331 79.0616 89.3795 79.0616 89.5674C79.0616 89.7553 78.5572 90.4662 77.9408 91.1473C77.3243 91.8284 76.8199 92.475 76.8199 92.5842C76.8199 92.9338 75.4354 94.3858 75.102 94.3858C74.4332 94.3858 72.0223 95.735 72.1944 96.013C72.2934 96.1729 72.1665 96.3037 71.9125 96.3037C71.2703 96.3037 71.0587 97.3561 71.5626 98.044C71.9615 98.5885 72.0324 98.5834 73.0835 97.935C73.6899 97.5609 74.364 97.0409 74.5815 96.7793C75.1329 96.1161 75.7738 96.1863 76.186 96.9551C76.6505 97.8214 75.7326 99.9487 74.6896 100.423C74.2761 100.611 73.9378 100.937 73.9378 101.146C73.9378 101.356 73.6985 101.791 73.406 102.114C72.7573 102.829 73.0172 103.188 73.8586 102.739C74.1975 102.558 74.7898 102.492 75.1749 102.592C76.0864 102.83 78.752 102.082 78.9649 101.528C79.1728 100.987 80.1619 100.969 80.5793 101.498C81.229 102.321 81.3179 104.896 80.7425 106.222C80.4394 106.92 80.0396 107.491 79.8539 107.491C79.6683 107.491 79.0958 108.21 78.5818 109.088C77.852 110.336 77.3447 110.801 76.2658 111.212C75.5059 111.502 74.9531 111.807 75.0372 111.891C75.1213 111.975 75.9153 112.063 76.8015 112.085C78.0038 112.116 78.3936 112.015 78.337 111.689C78.2952 111.448 78.5216 111.089 78.8402 110.89C80.1635 110.063 80.9508 113.235 79.7021 114.363C79.3498 114.682 79.0606 115.171 79.0595 115.452C79.0582 115.732 78.7711 116.393 78.4211 116.921C78.0712 117.448 77.7839 118.109 77.7828 118.39C77.7806 118.901 76.5392 119.552 74.0979 120.322C73.3934 120.545 72.657 120.913 72.4615 121.141C72.266 121.369 71.7139 121.588 71.2345 121.627L70.363 121.699L71.065 122.267C71.849 122.9 72.6851 122.998 73.1717 122.512C73.3491 122.335 74.0624 122.155 74.7568 122.112C75.8506 122.045 76.0329 122.131 76.1217 122.755C76.2368 123.563 77.3016 124.308 77.6159 123.8C77.7387 123.602 78.0469 123.631 78.4522 123.879C78.976 124.2 79.0793 124.563 79.0135 125.849C78.9319 127.445 79.4675 128.239 79.7914 127.002C79.9074 126.56 80.2262 126.35 80.7832 126.35C81.2346 126.35 82.1172 126.062 82.7443 125.711C84.4756 124.74 85.0282 124.861 85.2559 126.262C85.4215 127.281 85.3155 127.593 84.5228 128.42C81.7769 131.285 81.7033 131.532 83.4649 131.97C84.6331 132.26 84.6649 132.307 84.6341 133.678C84.5973 135.319 83.7216 136.259 82.2285 136.259C81.6196 136.259 81.3033 136.423 81.3033 136.738C81.3033 137.002 81.4319 137.218 81.5892 137.218C82.0879 137.218 82.2905 138.239 81.8879 138.723C81.351 139.369 81.3265 140.355 81.8368 140.778C82.527 141.35 82.3368 141.65 81.1431 141.874C80.5267 141.989 80.0223 142.203 80.0223 142.349C80.0223 142.889 80.875 143.132 82.8066 143.14C85.0307 143.15 85.1917 143.232 85.2587 144.389C85.2848 144.84 85.3912 145.209 85.495 145.209C85.5988 145.209 85.8429 145.558 86.0375 145.984C86.4915 146.978 85.8805 147.562 84.6964 147.266C83.7447 147.027 83.6406 147.268 84.3773 148.003C84.8467 148.472 84.8365 148.557 84.2547 149.019C83.9055 149.297 83.4538 149.848 83.2509 150.243C83.0479 150.639 82.6876 150.963 82.4502 150.963C82.2127 150.963 81.943 151.25 81.8509 151.602C81.7206 152.099 81.4141 152.241 80.4686 152.241C79.5237 152.241 79.3391 152.326 79.638 152.625C80.1641 153.15 80.1227 154.46 79.5735 154.671C79.3266 154.765 79.0496 155.129 78.9578 155.479C78.8661 155.83 78.5997 156.076 78.3659 156.026C78.132 155.977 77.5805 156.17 77.1401 156.455C75.9511 157.225 68.3509 158.22 67.9991 157.652C67.8981 157.489 67.5718 157.355 67.2739 157.355C66.7675 157.355 66.7446 159.719 66.9202 193.875C67.0872 226.366 67.1663 230.623 67.6367 232.472C67.9275 233.614 68.2542 235.556 68.3628 236.787C68.6023 239.5 69.34 242.589 69.9594 243.472C70.2101 243.829 70.4152 244.597 70.4152 245.179C70.4152 245.761 70.6356 246.763 70.905 247.407C71.3619 248.499 71.3538 248.618 70.7839 249.187C70.2904 249.679 70.0456 249.728 69.5104 249.443C68.6677 248.992 68.1393 248.976 63.8503 249.264C61.9128 249.394 59.463 249.543 58.4062 249.595C57.3494 249.647 55.7282 249.789 54.8036 249.911C53.6577 250.063 53.1223 250.021 53.1223 249.781L53.1223 249.781ZM57.8267 152.965C58.9233 152.727 59.6349 151.754 59.3988 150.815C59.1148 149.686 58.5664 149.798 58.5664 150.986C58.5664 151.705 58.4332 151.941 58.0691 151.865C57.7956 151.808 57.5917 151.634 57.6161 151.478C57.6752 151.099 56.9399 150.654 56.2446 150.648C55.9364 150.645 55.4057 150.921 55.0652 151.261C54.7248 151.6 54.0403 152.093 53.5441 152.355C52.8767 152.707 52.7669 152.876 53.1223 153.004C53.8397 153.263 56.0961 153.429 56.6449 153.263C56.9091 153.183 57.4409 153.049 57.8267 152.965ZM56.7142 120.353C56.9403 120.166 57.5537 119.965 58.0774 119.905L59.0295 119.797L58.1358 119.216C57.6442 118.897 56.6394 118.609 55.9027 118.577C54.5717 118.519 54.5632 118.526 54.5303 119.676C54.4993 120.757 54.5575 120.829 55.4001 120.763C55.8968 120.724 56.4881 120.54 56.7142 120.353ZM66.6531 99.973C67.3132 99.8494 67.8533 99.6849 67.8533 99.6075C67.8533 98.9684 66.2851 96.9624 65.6979 96.8503C65.0013 96.7174 64.9713 96.7993 64.976 98.8249C64.9786 99.9872 65.0871 100.772 65.2169 100.568C65.3467 100.364 65.993 100.097 66.6531 99.973ZM53.6486 57.4073C54.0637 57.1358 54.4033 57.0198 54.4033 57.1494C54.4033 57.2791 54.6255 57.201 54.8972 56.976C55.2448 56.6881 55.4916 56.6671 55.7302 56.9053C56.1457 57.32 57.8407 56.8896 58.5397 56.1919C58.9717 55.7607 58.9561 55.7036 58.3948 55.6613C57.3464 55.5825 56.838 55.4892 56.096 55.2394C55.0408 54.8843 55.8408 54.2555 57.7023 53.9768C58.6344 53.8373 59.1393 53.6207 59.0119 53.4149C58.7435 52.9815 56.0263 53.3318 54.8242 53.9548C54.3285 54.2117 53.6606 54.3389 53.34 54.2375C52.9308 54.1081 52.7058 54.2489 52.5849 54.7105C52.4902 55.072 52.104 55.4612 51.7267 55.5754C51.3495 55.6895 50.5484 56.1514 49.9465 56.6019C49.073 57.2557 48.9576 57.4577 49.3744 57.6036C50.5025 57.9985 52.914 57.8877 53.6486 57.4073ZM47.4417 50.4665C47.9576 50.0756 47.9618 50.0029 47.4907 49.6127C47.055 49.2518 46.9289 49.2698 46.6707 49.7305C46.2443 50.491 45.2468 50.4088 44.6542 49.5643L44.1557 48.8539V49.5746C44.1557 50.0233 43.8837 50.4045 43.4351 50.5844C42.8931 50.8019 43.2303 50.876 44.7961 50.8836C46.0532 50.8897 47.1011 50.7245 47.4417 50.4665ZM51.3342 50.3546C51.4663 50.2228 51.8866 50.099 52.2682 50.0795C52.6499 50.06 53.7548 50.0013 54.7235 49.949C55.6922 49.8967 56.8451 49.9499 57.2854 50.0675C58.2184 50.3164 59.0744 49.8776 58.7326 49.3256C58.5947 49.103 58.175 49.0249 57.7238 49.1379C57.1939 49.2707 56.8923 49.1784 56.7638 48.8442C56.5408 48.2642 55.9249 48.2407 53.2286 48.7093C51.6069 48.9912 51.2009 49.1788 51.2009 49.646C51.2009 49.9978 50.9142 50.2854 50.4804 50.3688C49.8121 50.4973 49.8082 50.5105 50.427 50.5509C50.7939 50.5748 51.2022 50.4865 51.3342 50.3546H51.3342ZM61.0178 12.7029C61.2606 12.0712 61.0341 11.851 60.3937 12.0963C60.1155 12.2029 59.9661 12.4939 60.0619 12.7431C60.2916 13.3406 60.7805 13.32 61.0178 12.7029V12.7029Z" fill="#222222"/>
</svg>
