<svg width="105" height="260" viewBox="0 0 105 260" fill="none" xmlns="http://www.w3.org/2000/svg">
<g clip-path="url(#clip0)">
<g filter="url(#filter0_d)">
<path d="M31.4105 253.386C32.1319 253.041 33.9795 253.01 36.4137 253.301C40.4821 253.787 47.9024 253.074 51.0536 251.894C51.999 251.54 53.1669 251.251 53.6488 251.251C54.6206 251.251 54.7201 249.706 54.4728 238.458C54.3937 234.865 54.3804 230.611 54.443 229.004C54.5057 227.397 54.2566 225.76 53.8894 225.366C53.3972 224.837 53.4738 224.306 54.1812 223.343C55.3927 221.695 54.8605 216.723 53.5216 217.181C52.2285 217.623 52.5493 216.208 53.9142 215.448C54.5859 215.074 55.1355 214.294 55.1355 213.716C55.1355 213.137 55.39 212.523 55.7011 212.352C56.047 212.161 56.0397 211.356 55.6825 210.278C55.3611 209.309 55.1505 205.944 55.2145 202.8C55.4347 191.987 55.1762 164.42 54.8432 163.211C53.7015 150.539 54.1173 154.881 53.7015 150.539C53.6345 149.553 53.2115 149.128 52.1646 148.996C51.3703 148.896 50.4223 149.08 50.058 149.404C49.6937 149.729 48.7636 149.995 47.9912 149.995C47.2188 149.995 46.5867 150.261 46.5867 150.586C46.5867 150.911 45.0067 152.498 43.0756 154.112C39.6049 157.014 37.4273 157.84 37.4273 156.255C37.4273 155.806 36.8939 155.439 36.2421 155.439C34.883 155.439 34.263 154.81 34.8724 154.049C36.0165 152.62 39.9894 150.539 41.5724 150.539C42.8365 150.539 43.83 150.03 44.9811 148.791L46.6058 147.043L45.0864 145.688C43.5125 144.285 41.191 143.977 37.8853 144.732C36.6332 145.018 36.206 144.917 36.206 144.335C36.206 143.905 36.4534 143.471 36.7557 143.371C37.058 143.272 38.3917 142.013 39.7194 140.575C41.0471 139.136 43.0659 137.544 44.2056 137.036C47.2737 135.669 47.2031 134.478 44.0185 133.881C42.0132 133.505 41.3522 133.114 41.2087 132.216C40.9597 130.659 43.3053 128.764 45.4806 128.764C46.4248 128.764 47.1974 128.515 47.1974 128.212C47.1974 127.276 45.7571 125.391 43.8459 123.826C42.043 122.35 42.035 122.318 43.1773 121.193C43.8132 120.566 44.9534 120.054 45.7112 120.054C47.1272 120.054 50.2505 117.274 50.2505 116.013C50.2505 114.847 48.1566 113.542 46.7953 113.859C45.9254 114.062 44.9946 113.685 43.8553 112.67L42.1882 111.183L38.2812 114.878C36.1323 116.911 34.3741 118.784 34.3741 119.041C34.3741 119.299 33.7948 119.509 33.0867 119.509C31.9882 119.509 31.8609 119.29 32.2192 118.018C32.4501 117.197 32.8938 116.386 33.2053 116.214C33.9383 115.81 33.1772 110.799 32.3829 110.799C32.0379 110.799 31.9356 110.101 32.1442 109.171C32.3452 108.275 32.3108 107.569 32.0679 107.602C30.8161 107.771 30.0997 107.449 30.0997 106.716C30.0997 106.267 30.3745 105.9 30.7104 105.9C31.8528 105.9 31.3262 104.349 29.8265 103.297C28.7656 102.553 28.5215 102.08 28.985 101.667C29.3441 101.347 30.0215 101.216 30.4904 101.377C31.5913 101.753 34.8628 100.549 35.1043 99.6779C35.2064 99.3093 36.7273 97.8752 38.484 96.4909C40.2912 95.0669 41.4007 93.8215 41.0395 93.6225C39.8525 92.9685 35.9108 93.9997 34.2589 95.3965C33.104 96.373 32.1624 96.7072 31.0837 96.5233C30.1338 96.3615 29.4297 96.542 29.2335 96.9979C28.7935 98.0201 27.6086 97.8882 25.9121 96.6282C24.0111 95.2162 24.599 94.0746 27.4725 93.5981C28.7495 93.3863 30.1535 92.7603 30.5923 92.2071C31.0312 91.6538 32.0345 91.2011 32.8219 91.2011C33.8108 91.2011 34.6435 90.6119 35.5145 89.2958C36.208 88.2478 37.0595 87.3904 37.4067 87.3904C37.7539 87.3904 38.0379 86.929 38.0379 86.3651C38.0379 85.1557 35.7208 84.4424 34.5663 85.2966C33.2129 86.298 31.9316 85.3867 31.9316 83.4225C31.9316 81.9727 32.3928 81.2704 34.1768 80.003C35.4117 79.1258 36.7169 78.1493 37.0773 77.8332C38.3147 76.7477 39.8289 76.544 40.7245 77.3424C41.214 77.7788 41.7514 78.1358 41.9187 78.1358C42.1602 78.1358 44.1442 74.9882 44.1442 74.605C44.1442 74.5514 42.6683 74.6173 40.8645 74.7502C38.8316 74.9005 37.425 74.7626 37.1647 74.3867C36.9336 74.0534 36.2112 73.7807 35.5594 73.7807C33.9218 73.7807 34.066 72.3591 35.9007 70.4151C37.6666 68.5442 37.7781 68.029 36.5113 67.5956C35.9364 67.3989 35.5954 66.5665 35.5954 65.3598C35.5954 63.6894 35.789 63.4374 37.0722 63.4374C38.0856 63.4374 38.9415 62.871 39.8003 61.6323C40.4885 60.6395 41.6101 59.3767 42.2926 58.826C43.7504 57.6498 43.8883 56.9048 42.648 56.9048C42.1609 56.9048 41.5426 56.5751 41.2741 56.1722C40.664 55.257 36.9779 54.5682 36.6979 55.3171C36.5854 55.6181 35.8791 55.9056 35.1284 55.956C34.3777 56.0065 33.7635 56.363 33.7635 56.7484C33.7635 57.1782 32.9845 57.4492 31.7484 57.4492C29.8522 57.4492 28.2678 56.6638 28.2678 55.7238C28.2678 55.2531 34.7227 51.4609 35.524 51.4609C36.3243 51.4609 39.2592 48.6721 39.2592 47.9117C39.2592 47.5383 38.7096 47.1047 38.0379 46.9481C37.0805 46.7249 36.8196 46.2113 36.8302 44.5709C36.8484 41.7658 38.5654 39.7836 40.6668 40.1417C41.902 40.3522 42.7336 39.9622 44.5121 38.3384C46.498 36.5254 46.6769 36.1543 45.9446 35.3677C45.4844 34.8733 44.8111 33.9437 44.4484 33.302C43.945 32.4111 43.2296 32.1352 41.4233 32.1352C40.1222 32.1352 38.9495 31.8472 38.8174 31.4952C38.6853 31.1432 39.743 29.3059 41.1679 27.4123C42.5929 25.5187 43.8118 23.8973 43.8766 23.8093C43.9413 23.7214 44.7837 23.5241 45.7485 23.3711C47.6053 23.0767 49.5133 21.7696 48.8932 21.2169C48.6905 21.0361 47.847 21.284 47.0188 21.7678C45.6312 22.5784 45.483 22.5779 45.1319 21.762C44.9223 21.2751 44.9161 20.6385 45.1181 20.3472C45.32 20.0559 45.0035 19.3431 44.4148 18.7632C43.3933 17.7568 43.3971 17.6567 44.4996 16.5707C45.6155 15.4714 45.6169 15.4082 44.5406 14.7065C43.1428 13.7953 43.4569 12.0685 45.0674 11.811C45.7352 11.7042 47.1747 10.8571 48.2662 9.92867C50.1512 8.32524 50.2507 8.0411 50.2507 4.26442C50.2507 0.664004 50.365 0.28833 51.4604 0.28833C52.2761 0.28833 52.7999 0.775762 53.0689 1.7854C53.2884 2.60878 53.8199 3.64993 54.2502 4.09905C54.6804 4.54816 55.2239 5.83545 55.4579 6.9597C55.692 8.08396 56.6865 9.99214 57.668 11.2001C58.6496 12.4081 59.2788 13.6472 59.0663 13.9537C58.8538 14.2602 59.1616 14.9855 59.7503 15.5655C60.7647 16.5647 60.7655 16.6743 59.7659 17.659C58.7591 18.6508 58.7964 18.8031 60.5872 21.007C61.6191 22.2769 62.4633 23.5868 62.4633 23.9179C62.4633 25.3097 67.593 26.4281 69.5524 25.4635C71.0933 24.7049 74.9797 25.1612 75.9617 26.216C76.9319 27.2582 75.6436 29.865 73.2833 31.6356C71.7407 32.7928 71.0535 32.9615 69.0881 32.6655C66.2353 32.2358 65.9854 33.0559 68.2931 35.2747C69.3752 36.3151 70.2577 36.6877 71.1936 36.4992C72.0522 36.3263 73.1762 36.6983 74.3013 37.5277L76.064 38.8271L74.6067 39.5639C73.6423 40.0515 73.108 40.8532 73.0272 41.9339C72.7009 46.2965 71.2391 51.0315 69.947 51.9113C69.1497 52.4543 68.6562 53.3368 68.7242 54.0982L68.8383 55.3748L70.2258 53.9366C71.4099 52.7094 71.9285 52.5512 73.762 52.8579C74.9438 53.0555 76.0577 53.4292 76.2373 53.6883C76.6899 54.3413 74.0223 57.4489 73.009 57.4489C72.5544 57.4489 71.6142 57.9209 70.9197 58.4977C70.2252 59.0745 69.2881 59.4203 68.8372 59.266C67.2949 58.7384 66.5862 59.6636 67.6956 60.7565C68.2661 61.3185 69.0134 61.6238 69.3563 61.4349C69.6992 61.2459 69.7954 61.3572 69.57 61.6823C68.9896 62.5195 70.3687 63.1399 71.1875 62.4099C72.2507 61.462 73.5024 61.6909 74.9686 63.1013C75.7103 63.8148 76.9348 64.5734 77.6896 64.787C78.6573 65.0608 78.9724 65.4809 78.7581 66.2116C78.576 66.8322 78.7685 67.2479 79.2365 67.2479C79.6669 67.2479 80.2006 68.044 80.4225 69.0171C80.7615 70.5036 80.5629 70.99 79.1796 72.0602C78.0275 72.9517 77.0047 73.2649 75.7724 73.1037C74.804 72.977 73.8653 73.0842 73.6866 73.3421C73.3492 73.8288 75.7945 75.9081 76.7416 75.9399C77.2145 75.9558 79.561 78.0496 79.561 78.4557C79.561 79.6574 78.1237 81.4019 77.1336 81.4019C76.4536 81.4019 75.8972 81.6469 75.8972 81.9463C75.8972 82.2457 76.2672 82.4907 76.7194 82.4907C78.0464 82.4907 81.3865 84.1471 81.4652 84.8442C81.7028 86.948 80.2645 88.4309 77.9565 88.4617C77.242 88.4709 76.3583 88.8002 75.9928 89.1929C75.4764 89.7476 75.8254 90.0671 77.5582 90.6257C78.7846 91.0211 80.4538 91.8948 81.2673 92.5673C82.1997 93.3381 83.2049 93.6832 83.987 93.5008C85.1234 93.2359 85.1913 93.3845 84.7951 95.2674C84.2247 97.9781 83.1972 99.3667 81.762 99.3667C80.6486 99.3667 80.6434 99.4162 81.6523 100.41C82.4973 101.243 82.5739 101.683 82.0308 102.588C81.2814 103.836 81.9356 104.109 83.1281 103.046C83.732 102.508 83.9994 102.533 84.4416 103.171C84.827 103.727 84.5685 104.467 83.597 105.59C82.1717 107.238 79.2261 108.371 78.6243 107.502C78.1619 106.835 74.5933 107.51 73.3021 108.508C71.8179 109.656 71.9676 110.254 73.7386 110.254C74.6587 110.254 75.5197 110.714 75.9539 111.438C76.5949 112.505 76.2991 112.935 72.9223 115.845C70.8642 117.618 69.189 119.352 69.1997 119.697C69.2279 120.608 70.725 122.231 71.5375 122.231C72.78 122.231 72.2733 124.827 70.7069 126.487C68.5604 128.761 68.7171 130.898 71.2082 133.322C72.3236 134.408 73.6661 135.296 74.1916 135.296C74.7171 135.296 75.9341 135.662 76.8961 136.109C77.858 136.557 79.2634 136.924 80.019 136.926C81.6066 136.929 81.7913 137.59 80.477 138.562C79.5235 139.268 79.2178 140.74 80.0248 140.74C80.2798 140.74 80.8317 140.25 81.2512 139.651C82.4059 138.003 83.3271 138.34 83.1112 140.332C82.9819 141.525 83.1678 142.057 83.6828 141.965C84.733 141.778 84.6448 143.182 83.5557 143.987C82.8442 144.514 82.1901 144.408 80.2982 143.46C76.2148 141.414 74.7507 142.202 72.2595 147.79C70.8796 150.884 67.2308 154.484 65.9262 154.038C64.2972 153.481 63.6963 155.532 64.1643 160.052C64.5901 164.164 64.652 164.289 66.7378 165.276C67.9132 165.832 69.6306 166.423 70.5542 166.589C72.9474 167.02 72.6335 167.959 70.0962 167.959C68.3661 167.959 67.959 168.167 67.959 169.048C67.959 169.895 67.5519 170.137 66.1271 170.137C64.6929 170.137 64.2952 170.377 64.2952 171.243C64.2952 172.784 66.1025 173.281 67.1337 172.024C67.7608 171.259 68.1358 171.166 68.6682 171.64C69.5406 172.418 68.3888 173.829 66.3049 174.535C65.0849 174.949 64.9059 175.386 64.9059 177.95C64.9059 180.899 65.9612 182.606 67.3217 181.856C67.6877 181.654 67.959 181.995 67.959 182.657C67.959 183.291 69.1956 185.386 70.7069 187.314C73.6128 191.02 73.7986 191.368 72.8734 191.368C72.5537 191.368 71.4641 190.295 70.4521 188.984C68.3064 186.203 67.2816 185.718 65.7285 186.745C64.7783 187.373 64.7197 187.665 65.3564 188.595C65.8483 189.313 65.9282 190.133 65.5852 190.942C65.1209 192.036 65.0768 198.816 65.5291 199.534C65.7913 199.949 65.959 202.372 66.3017 210.694C66.4742 214.885 66.919 220.765 67.2899 223.759C68.0939 230.249 68.4305 250.689 67.7494 251.663C67.4666 252.067 67.5988 252.437 68.0729 252.567C71.8129 253.592 75.6911 253.923 83.3859 253.872C89.2554 253.833 92.636 254.025 93.1816 254.429C93.6399 254.768 95.2966 255.089 96.8632 255.142C99.0508 255.215 99.7117 255.445 99.7117 256.129C99.7117 257.482 98.4487 258.328 96.4271 258.328C95.4266 258.328 93.7053 258.619 92.6019 258.974C91.0078 259.488 90.2846 259.473 89.0814 258.898C88.0392 258.401 86.7475 258.305 84.9379 258.59C82.2864 259.007 80.738 259.041 75.4392 258.797C73.8439 258.724 70.8631 258.981 68.8151 259.369C64.73 260.143 62.7913 259.667 60.3916 257.303C59.0917 256.023 57.3278 256.186 54.2197 257.873C51.8321 259.17 51.1406 259.132 47.552 257.509C44.3454 256.058 42.6212 255.809 42 256.705C41.7885 257.01 40.6044 257.221 39.3688 257.174C38.1331 257.127 36.2232 257.423 35.1246 257.832C33.5801 258.406 32.8689 258.431 31.9891 257.941C31.3633 257.593 30.2685 257.443 29.5563 257.609C28.8441 257.775 27.8525 257.609 27.3527 257.239C26.6499 255.592 29.5935 254.078 31.4106 253.386L31.4105 253.386Z" fill="#242424" stroke="#242424" stroke-width="0.576558"/>
</g>
<path d="M10.2796 187.107C11.1221 186.258 11.9266 185.298 12.2755 184.726L12.4629 184.419L12.2133 184.726C11.8736 185.144 11.3941 185.671 10.2789 186.851C9.75953 187.401 9.35846 187.874 9.38761 187.902C9.41681 187.93 9.81817 187.573 10.2796 187.107ZM9.88142 186.339C10.8695 185.339 11.6597 184.36 12.0775 183.619C12.52 182.834 12.3175 182.965 11.6708 183.882C11.0915 184.704 10.5429 185.36 9.38284 186.619C8.51937 187.555 8.87914 187.354 9.88142 186.339ZM19.3346 185.007C19.6817 184.127 21.0622 178.773 20.9894 178.59C20.9488 178.488 20.7925 178.431 20.552 178.431C20.1079 178.431 16.9396 179.203 15.3858 179.689C14.2402 180.048 14.0325 180.062 14.0271 179.779C14.0191 179.381 13.8429 179.939 13.7733 180.581C13.7335 180.947 13.6767 181.43 13.647 181.655C13.6038 181.982 13.6166 182.029 13.7109 181.886C13.7758 181.787 13.8938 181.706 13.9731 181.706C14.164 181.706 14.8602 182.249 16.4681 183.652C17.8882 184.891 18.8016 185.596 18.9873 185.596C19.0507 185.596 19.2069 185.331 19.3345 185.007L19.3346 185.007ZM16.0325 182.643C14.8671 181.61 13.9318 180.712 13.9541 180.647C14.0087 180.488 19.2583 179.034 19.8597 179.012L20.3367 178.994L20.3074 179.352C20.2787 179.702 19.4402 183.431 19.2206 184.185C19.1597 184.394 19.0362 184.637 18.9463 184.723C18.7989 184.866 18.7516 184.864 18.4671 184.701C18.2934 184.602 17.1979 183.676 16.0325 182.643L16.0325 182.643ZM13.3452 183.012C13.4877 182.716 13.6014 182.405 13.5979 182.321C13.5939 182.236 13.5283 182.333 13.4512 182.535C13.3741 182.737 13.2331 183.048 13.138 183.226C13.0428 183.404 12.9923 183.549 13.0256 183.549C13.0589 183.549 13.2028 183.307 13.3452 183.012ZM7.93597 182.426C10.774 181.705 12.4584 181.113 12.9355 180.666C13.2854 180.339 13.3455 180.131 13.221 179.683C13.1647 179.48 13.1408 179.47 13.035 179.61C12.9319 179.746 12.6988 179.566 11.4823 178.41C9.76818 176.78 8.36044 175.668 8.01353 175.668C7.71457 175.668 7.49761 176.09 7.09252 177.462C6.66339 178.915 5.87402 182.418 5.93891 182.582C6.0279 182.806 6.62214 182.759 7.93597 182.426ZM6.5687 182.157C6.49705 181.976 6.82816 180.362 7.43777 177.919C7.81054 176.426 7.84915 176.331 8.09683 176.304C8.41699 176.269 8.78653 176.556 11.1951 178.714C12.1716 179.589 12.9705 180.366 12.9705 180.441C12.9705 180.515 12.8556 180.605 12.7152 180.639C12.5748 180.673 11.2274 181.06 9.721 181.499C8.21459 181.939 6.90371 182.303 6.80793 182.309C6.71217 182.315 6.6045 182.247 6.5687 182.157ZM14.1272 178.636C14.1302 178.439 14.0869 178.209 14.0303 178.124C13.9519 178.007 13.9289 178.043 13.9334 178.278C13.9364 178.446 13.9803 178.677 14.0303 178.789C14.1047 178.957 14.1225 178.929 14.1272 178.636ZM12.9621 176.938C12.9571 176.819 12.9319 176.795 12.898 176.877C12.8674 176.95 12.8712 177.039 12.906 177.073C12.9411 177.107 12.9663 177.046 12.9617 176.938L12.9621 176.938ZM13.8717 176.282C13.844 176.141 13.8206 175.908 13.8198 175.764C13.8189 175.62 13.746 175.413 13.6577 175.303C13.5064 175.116 13.5012 175.122 13.568 175.412C13.6638 175.826 13.9352 176.604 13.8716 176.282H13.8717ZM18.5074 175.693C18.7325 175.448 18.9547 174.775 19.4458 172.853C19.8424 171.3 20.2837 169.11 20.2837 168.694C20.2837 168.351 19.5161 168.484 16.1155 169.416C13.4868 170.136 12.9577 170.223 12.5961 169.994C12.3717 169.852 12.3226 169.753 12.3585 169.517C12.3989 169.251 12.3731 169.219 12.1201 169.219C11.7634 169.219 11.3207 168.905 9.79078 167.566C8.3999 166.349 7.37665 165.534 7.24005 165.534C7.0871 165.534 6.87183 166.03 6.50933 167.217C5.97047 168.981 5.44674 171.243 5.373 172.126L5.30544 172.934L6.03776 172.877C6.44054 172.845 7.72252 172.559 8.8866 172.24C11.4196 171.547 11.9861 171.459 12.1913 171.73C12.3274 171.91 12.3345 171.908 12.3345 171.692C12.3345 171.567 12.4072 171.438 12.4961 171.405C12.7459 171.312 13.3388 171.746 15.0126 173.245C16.5257 174.601 18.0975 175.872 18.2604 175.872C18.3058 175.872 18.417 175.792 18.5074 175.693H18.5074ZM17.6283 174.89C17.4274 174.687 16.4483 173.813 15.4526 172.947C14.4569 172.081 13.5876 171.257 13.5209 171.115C13.4154 170.892 13.4303 170.839 13.6355 170.711C13.9549 170.513 18.5101 169.222 19.1609 169.145L19.6809 169.084L19.6211 169.638C19.554 170.259 18.5356 174.67 18.3768 175.028C18.2337 175.35 18.051 175.316 17.6282 174.89L17.6283 174.89ZM5.88742 172.362C5.80451 172.266 5.89869 171.704 6.23505 170.289C7.06886 166.782 7.19879 166.353 7.42641 166.353C7.6261 166.353 9.5749 168.02 11.0086 169.417C12.1952 170.574 12.2181 170.67 11.373 170.948C10.5481 171.219 6.24472 172.48 6.12065 172.488C6.05488 172.491 5.94996 172.435 5.88742 172.362ZM13.4387 174.593C13.353 173.842 13.1718 172.982 13.1117 173.04C13.083 173.068 13.1167 173.452 13.1855 173.893C13.3338 174.837 13.5279 175.374 13.4387 174.593H13.4387ZM12.6173 174.847C12.583 174.705 12.5006 174.345 12.4343 174.047C12.368 173.748 12.2968 173.52 12.276 173.54C12.1938 173.62 12.4365 174.885 12.5543 174.991C12.6497 175.077 12.6648 175.042 12.6174 174.847H12.6173ZM27.5047 171.403C29.1522 169.861 31.6601 166.966 31.6019 166.674C31.5837 166.583 31.4354 166.446 31.2721 166.371C30.799 166.152 28.724 165.675 27.2259 165.44C26.4681 165.322 25.7065 165.201 25.5334 165.173C25.3083 165.136 25.2513 165.152 25.3332 165.231C25.396 165.292 26.63 165.627 28.0752 165.975C29.8972 166.415 30.7369 166.662 30.8139 166.781C30.9039 166.92 30.7535 167.17 30.0141 168.111C28.9055 169.522 27.0938 171.57 26.8863 171.647C26.803 171.678 26.686 171.655 26.6265 171.598C26.5669 171.541 26.1452 170.45 25.6893 169.175C24.7497 166.547 24.2334 165.419 23.8611 165.184C23.5993 165.018 22.0801 164.625 19.0842 163.949C18.1066 163.728 17.3855 163.514 17.3542 163.436C17.2292 163.121 17.778 162.426 20.1638 159.875C20.9039 159.083 21.5517 158.476 21.6379 158.493C21.7344 158.512 22.0775 159.323 22.5602 160.672C22.9829 161.855 23.4321 163.075 23.5586 163.385C23.8286 164.046 24.1945 164.712 24.2008 164.554C24.2028 164.493 23.8272 163.341 23.3652 161.995C22.5232 159.541 21.9939 158.249 21.7782 158.12C21.5885 158.007 20.9753 158.533 19.405 160.157C17.5589 162.066 16.3388 163.47 16.3914 163.625C16.4492 163.796 17.9402 164.186 19.0582 164.323C19.6881 164.4 20.0917 164.504 20.2307 164.623C20.3898 164.759 20.6278 164.805 21.1846 164.807C22.5797 164.813 23.5939 165.286 24.043 166.142C24.1886 166.42 24.6148 167.513 24.9902 168.573C25.8007 170.86 26.328 172.103 26.5129 172.163C26.587 172.187 27.0333 171.845 27.5047 171.403V171.403ZM14.4053 167.965L14.9312 167.428L14.3748 167.936C14.0688 168.215 13.8184 168.457 13.8184 168.473C13.8184 168.55 13.9165 168.464 14.4053 167.965ZM13.6594 167.631C14.1257 167.173 14.8279 166.597 15.2198 166.351C15.6117 166.105 15.9128 165.885 15.889 165.862C15.7554 165.733 14.5967 166.42 13.942 167.017C13.2717 167.627 12.6652 168.364 12.7729 168.437C12.7941 168.452 13.193 168.089 13.6594 167.631ZM21.2906 165.637C21.3267 165.58 21.2846 165.534 21.1971 165.534C21.1097 165.534 21.0086 165.58 20.9726 165.637C20.9366 165.693 20.9786 165.739 21.0661 165.739C21.1535 165.739 21.2546 165.693 21.2906 165.637H21.2906ZM27.2778 164.293C27.9517 164.004 28.7532 163.394 29.2984 162.756L29.766 162.208L29.0502 162.846C28.6566 163.197 27.9539 163.696 27.4888 163.955C27.0236 164.214 26.643 164.445 26.643 164.468C26.643 164.542 26.7893 164.502 27.2778 164.293ZM26.802 163.475C27.9948 162.893 28.8758 162.091 29.599 160.928C29.9741 160.325 29.8482 160.361 29.3644 160.994C28.7464 161.803 27.4599 162.941 26.6345 163.41C25.8238 163.871 25.9176 163.907 26.802 163.475V163.475ZM37.2808 161.831C37.8183 161.029 39.2507 155.048 38.97 154.777C38.818 154.63 37.5853 154.897 34.8042 155.68C33.4925 156.049 32.2188 156.397 31.9737 156.455L31.528 156.559L29.8539 155.015C28.9332 154.166 27.7543 153.056 27.2342 152.548C26.1567 151.497 26.0757 151.485 25.7007 152.327C25.3123 153.199 24.4522 156.703 24.1485 158.651C24.0478 159.297 23.7193 159.345 29.7587 157.83C30.5413 157.634 30.6041 157.631 30.7267 157.793C30.8443 157.949 30.8804 157.929 31.0786 157.605C31.4286 157.032 31.7305 157.162 31.7305 157.886C31.7305 158.135 31.7588 158.178 31.8577 158.083C31.9276 158.015 32.0464 157.96 32.1216 157.96C32.1969 157.96 32.8671 158.501 33.6111 159.163C35.115 160.5 36.1436 161.365 36.7313 161.787L37.1217 162.068L37.2808 161.831ZM36.4554 160.935C35.8654 160.559 32.4724 157.331 32.4724 157.146C32.4724 156.934 32.6602 156.85 34.0622 156.438C36.3705 155.761 38.2021 155.29 38.3016 155.35C38.4825 155.458 38.4254 155.83 37.8668 158.186C37.1297 161.295 37.1031 161.347 36.4554 160.935ZM24.6298 158.491C24.6308 158.236 25.6571 154.227 25.9143 153.474C26.0359 153.119 26.2025 152.803 26.2845 152.772C26.3705 152.74 26.7357 152.97 27.1477 153.315C28.0928 154.105 30.7766 156.643 30.7766 156.746C30.7766 156.79 30.6693 156.883 30.5381 156.951C30.17 157.142 24.7986 158.765 24.7087 158.711C24.665 158.686 24.6295 158.586 24.6299 158.491H24.6298ZM34.7608 149.345C36.551 148.15 39.0711 146.296 47.6818 139.843C54.4185 134.794 55.2323 134.19 55.797 133.827C56.5245 133.359 57.9881 131.976 57.8538 131.883C56.2362 130.767 49.1103 126.999 49.7486 127.597C49.9572 127.793 52.0791 128.958 55.0745 130.523C57.5983 131.842 57.7558 131.972 57.2324 132.303C57.0931 132.391 56.6996 132.709 56.358 133.01C56.0164 133.311 55.4746 133.735 55.154 133.952C54.8334 134.17 52.1386 136.175 49.1656 138.407C38.6159 146.33 34.4276 149.362 34.0339 149.362C33.9359 149.362 33.7817 149.5 33.6913 149.669C33.4389 150.14 33.6796 150.068 34.7608 149.345ZM32.8737 149.439C32.9873 149.306 38.08 140.389 40.8968 135.39C42.8307 131.959 44.382 129.095 44.3073 129.095C44.1752 129.095 40.1728 135.988 35.6297 144.039C34.0573 146.826 32.7291 149.148 32.6781 149.2C32.4801 149.4 32.4664 148.923 32.6236 147.303C32.7131 146.381 33.0978 141.78 33.4785 137.079C34.6814 122.229 34.8428 120.556 35.1009 120.267C35.2447 120.106 35.2429 120.088 35.083 120.088C34.5965 120.088 34.553 120.49 33.1683 137.796C32.675 143.96 32.2984 149.13 32.3313 149.285C32.3953 149.586 32.6793 149.666 32.8738 149.439H32.8737ZM34.9985 147.443C37.6498 143.035 46.5418 126.947 46.0721 127.407C46.0146 127.463 45.4405 128.453 44.7963 129.607C44.1521 130.761 42.2543 134.124 40.5789 137.079C37.5414 142.437 34.7554 147.467 34.5826 147.903C34.4176 148.32 34.5766 148.145 34.9985 147.443ZM57.9517 130.761C58.0259 130.689 57.8979 129.775 57.8043 129.71C57.7643 129.682 57.6721 129.29 57.5994 128.84C57.0296 125.308 54.1601 112.357 54.4814 114.766C54.6548 116.067 57.3619 128.798 57.7622 130.195C57.8065 130.349 57.7752 130.443 57.666 130.484C57.57 130.519 55.8527 129.682 53.441 128.423C49.1677 126.192 48.395 125.76 47.9203 125.329C47.6988 125.129 47.6288 125.104 47.6288 125.227C47.6288 125.412 48.1784 125.905 48.8289 126.302C49.4097 126.657 54.8164 129.492 56.1081 130.119C57.1179 130.609 57.8466 130.862 57.9517 130.761ZM49.0597 127.151C49.0236 127.094 48.9465 127.048 48.8882 127.048C48.8299 127.048 48.8116 127.095 48.8477 127.151C48.8837 127.207 48.9609 127.253 49.0192 127.253C49.0775 127.253 49.0957 127.207 49.0596 127.151H49.0597ZM46.762 126.402C47.0919 126.073 47.109 125.922 46.8162 125.922C46.7385 125.922 46.6749 126.004 46.6749 126.104C46.6749 126.204 46.6007 126.389 46.5099 126.514C46.2762 126.836 46.3664 126.796 46.762 126.402ZM46.402 125.833C46.4348 125.781 46.3904 125.713 46.3033 125.681C46.2162 125.648 46.145 125.664 46.145 125.715C46.145 125.854 46.3333 125.94 46.402 125.833L46.402 125.833ZM45.615 125.275C45.2629 124.927 35.4918 120.106 35.3719 120.222C35.3411 120.252 35.4273 120.333 35.5635 120.402C35.6997 120.472 36.9808 121.138 38.4105 121.883C41.2604 123.367 45.0915 125.243 45.509 125.359C45.7462 125.425 45.7573 125.416 45.615 125.275V125.275ZM46.7528 124.845C47.2642 124.499 53.3119 113.67 53.2237 113.258C53.1942 113.12 53.0986 113.084 52.8223 113.106C52.6228 113.122 52.4339 113.172 52.4024 113.218C52.371 113.264 51.7968 113.476 51.1264 113.689C46.9382 115.02 36.352 118.884 35.9886 119.215C35.8051 119.382 36.3836 119.795 38.2488 120.827C40.5726 122.113 46.2514 125.001 46.4562 125.001C46.4923 125.001 46.6257 124.931 46.7528 124.845ZM44.9261 123.951C43.4252 123.226 39.7916 121.345 38.0103 120.371C36.9585 119.796 36.5 119.49 36.5 119.364C36.5 119.124 37.8637 118.608 46.4099 115.615C48.7417 114.799 51.1388 113.951 51.7369 113.732C52.3349 113.512 52.8477 113.333 52.8763 113.333C53.0754 113.333 52.6729 114.121 50.7381 117.52C48.4821 121.483 47.1729 123.675 46.7104 124.263C46.3953 124.664 46.4087 124.666 44.9261 123.951ZM48.0737 124.512C48.1665 124.359 49.0787 122.754 50.1009 120.945C52.1135 117.385 53.3606 115.033 53.1071 115.277C52.5854 115.78 47.7077 124.6 47.8667 124.753C47.8877 124.774 47.9808 124.665 48.0737 124.512ZM54.4121 113.742C54.4121 113.686 54.3644 113.64 54.3061 113.64C54.2478 113.64 54.2001 113.686 54.2001 113.742C54.2001 113.798 54.2478 113.844 54.3061 113.844C54.3644 113.844 54.4121 113.798 54.4121 113.742Z" fill="#242424"/>
<g filter="url(#filter1_d)">
<path d="M9.47131 188.012C11.2191 186.571 13.5201 183.479 13.7807 182.221C13.8165 182.048 13.891 181.88 13.9462 181.847C14.0723 181.772 14.5723 182.154 16.3092 183.654C17.9638 185.084 18.7653 185.698 18.9743 185.698C19.1768 185.698 19.4522 185.084 19.8465 183.754C20.407 181.862 21.1676 178.669 21.0988 178.496C21.0525 178.38 20.9029 178.329 20.6069 178.329C20.1322 178.329 17.0716 179.06 15.5033 179.547C14.9435 179.722 14.4188 179.864 14.3374 179.864C14.2202 179.864 14.1869 179.625 14.1776 178.713C14.1632 177.312 13.9574 175.617 13.7558 175.24C13.6742 175.088 13.5581 174.626 13.4977 174.215C13.3168 172.981 13.0812 172.314 12.871 172.439C12.7607 172.505 13.1537 174.453 13.5533 175.821C13.6355 176.103 13.7492 176.932 13.806 177.663C13.9102 179.007 13.9062 179.059 13.5037 181.698C13.2972 183.052 12.295 184.598 10.213 186.773C9.08314 187.954 8.77262 188.332 8.86206 188.418C8.89166 188.447 9.16582 188.264 9.47131 188.012ZM9.39291 186.952C10.5493 185.883 11.7749 184.4 12.235 183.512C12.8849 182.258 12.7112 182.018 12.0102 183.201C11.5763 183.934 10.4449 185.336 9.38286 186.457C8.62737 187.254 8.36497 187.643 8.58224 187.643C8.61704 187.643 8.98185 187.332 9.39291 186.952ZM7.93602 182.533C10.7863 181.825 12.6855 181.143 13.157 180.658C13.3875 180.421 13.3901 180.388 13.2944 178.938C13.1978 177.472 13.1031 176.851 12.5864 174.296C12.3739 173.245 12.3343 172.822 12.3925 172.223C12.442 171.713 12.5095 171.471 12.6024 171.471C12.8034 171.471 13.5886 172.096 15.1454 173.495C16.6551 174.852 17.7505 175.732 18.1462 175.906C18.3631 176.002 18.4302 175.983 18.5997 175.781C18.8665 175.463 19.2435 174.249 19.7473 172.085C20.3031 169.698 20.4662 168.638 20.3021 168.479C20.1182 168.302 19.1501 168.488 16.4768 169.216C13.7665 169.953 12.9768 170.103 12.6626 169.941C12.3705 169.79 12.3825 169.576 12.7194 168.923C13.463 167.482 16.188 165.583 17.8372 165.357C18.1529 165.313 18.4312 165.221 18.4554 165.15C18.5226 164.956 18.2992 164.991 16.932 165.39C15.2761 165.873 14.6171 166.226 13.6815 167.129C12.9016 167.882 12.7942 168.029 12.5037 168.733C12.2293 169.398 11.9342 169.28 10.2782 167.839C8.9164 166.654 7.68927 165.653 7.44353 165.526C7.32636 165.466 7.16555 165.44 7.08621 165.47C6.77163 165.586 5.49714 170.202 5.19437 172.321C5.15167 172.62 5.18737 172.757 5.34607 172.91C5.64148 173.196 5.89034 173.151 9.86572 172.091C10.7522 171.854 11.6107 171.676 11.7735 171.694L12.0695 171.727L12.0726 172.546C12.0776 173.471 12.1776 174.253 12.3882 175.002C12.4673 175.284 12.5884 175.882 12.6573 176.333C12.7262 176.783 12.8211 177.382 12.8682 177.663C12.9747 178.299 12.9943 179.557 12.8977 179.557C12.8584 179.557 12.2025 178.967 11.4404 178.247C9.37375 176.293 8.18996 175.394 7.84856 175.521C7.47166 175.66 6.91975 177.381 6.13187 180.872C5.71159 182.735 5.72459 182.836 6.38451 182.828C6.59598 182.825 7.29364 182.693 7.93486 182.533L7.93602 182.533ZM27.8354 171.245C29.5884 169.535 31.7305 167.008 31.7305 166.649C31.7305 166.389 31.1392 166.142 29.6992 165.801C28.5127 165.52 25.5247 165.023 25.0039 165.021C24.827 165.02 24.6312 164.985 24.5687 164.944C24.5063 164.903 24.0392 163.648 23.5307 162.156C22.4772 159.066 21.9911 157.96 21.6865 157.96C21.3953 157.96 18.3064 161.047 16.683 162.96C16.149 163.59 16.1734 163.742 16.8453 163.972C17.4017 164.163 19.2447 164.511 19.7008 164.511C19.9558 164.511 20.0981 164.572 20.1777 164.715C20.2753 164.892 20.3996 164.92 21.0712 164.92C22.5381 164.92 23.5548 165.396 24.022 166.302C24.1091 166.471 24.5246 167.576 24.9452 168.758C25.805 171.175 26.2875 172.222 26.5636 172.272C26.6838 172.293 27.1314 171.932 27.8354 171.245V171.245ZM13.3499 169.404C13.4689 169.274 13.7532 168.924 13.9819 168.627C14.5569 167.879 15.4689 167.214 16.768 166.597C17.3745 166.309 17.8274 166.047 17.7743 166.015C17.5723 165.895 16.2689 166.428 15.399 166.987C14.4043 167.627 13.7935 168.209 13.3482 168.943C13.0208 169.482 13.0218 169.763 13.3512 169.404H13.3499ZM19.0913 165.978C19.1642 165.95 19.2238 165.884 19.2238 165.833C19.2238 165.684 18.945 165.724 18.7999 165.893C18.6934 166.016 18.696 166.044 18.8135 166.038C18.8935 166.033 19.0186 166.007 19.0914 165.978L19.0913 165.978ZM21.4349 165.676C21.7775 165.444 21.571 165.261 21.1764 165.447C21.0146 165.523 20.8629 165.643 20.8392 165.713C20.7779 165.895 21.1446 165.872 21.4349 165.676V165.676ZM26.8608 164.567C27.6305 164.293 28.1383 163.982 28.8223 163.364C30.0063 162.294 30.7317 161.155 31.563 159.06C31.7808 158.511 32.0149 158.063 32.0832 158.065C32.1515 158.066 32.9467 158.719 33.8503 159.515C35.7757 161.213 37.0073 162.18 37.1752 162.128C37.2412 162.107 37.3728 161.933 37.468 161.74C37.9272 160.809 39.0523 156.278 39.0801 155.247L39.0968 154.633L38.6199 154.663C38.0033 154.7 36.5496 155.055 33.8726 155.822C32.6898 156.161 31.6565 156.423 31.5763 156.406C31.4962 156.388 30.277 155.279 28.8671 153.942C27.4572 152.605 26.2642 151.511 26.2161 151.511C26.0521 151.511 25.6984 152.039 25.4727 152.62C24.8893 154.123 23.8722 158.907 24.0912 159.119C24.2613 159.283 25.3558 159.076 28.1115 158.357C29.5229 157.989 30.5228 157.776 30.5797 157.831C30.7135 157.96 30.3064 159.193 29.8531 160.031C29.0519 161.513 27.7306 162.727 25.9558 163.614C24.8399 164.171 24.7854 164.352 25.839 164.002C26.7385 163.703 27.7066 163.153 28.3819 162.557C29.402 161.657 29.9985 160.624 30.9231 158.156C31.1544 157.538 31.3452 157.293 31.5156 157.395C31.8623 157.602 31.2999 159.332 30.3836 160.877C29.4414 162.466 28.6932 163.189 27.1158 164.038C26.0191 164.627 25.8802 164.916 26.8609 164.567L26.8608 164.567ZM34.8572 149.394C36.4936 148.301 40.1217 145.638 47.2579 140.293C50.6389 137.761 54.0253 135.241 54.7831 134.692C56.7715 133.254 57.794 132.393 57.8724 132.091C57.9246 131.891 57.8814 131.788 57.6864 131.644C56.9725 131.119 52.0311 128.436 50.1773 127.567C49.7375 127.361 49.102 127.022 48.7651 126.813C48.4282 126.604 47.6412 126.179 47.0163 125.868C46.3913 125.557 45.6654 125.174 45.4031 125.017C43.8517 124.087 35.4356 119.986 35.0776 119.986C34.4769 119.986 34.498 119.799 32.9983 138.458C32.5279 144.311 32.17 149.203 32.203 149.33C32.2841 149.642 32.6036 149.801 32.8247 149.64C33.1392 149.41 43.3288 131.402 44.9421 128.225C45.3709 127.381 45.7854 126.644 45.8631 126.588C45.9409 126.532 46.0616 126.382 46.1314 126.255C46.2012 126.128 46.3283 126.025 46.4137 126.025C46.5885 126.025 46.6211 126.24 46.4686 126.388C46.4134 126.442 46.0721 127.038 45.7101 127.714C45.3481 128.389 43.3728 131.913 41.3205 135.544C35.7007 145.487 33.4263 149.663 33.4263 150.039C33.4263 150.296 33.6778 150.182 34.8572 149.394H34.8572ZM58.0158 130.654C58.0158 129.88 55.7203 118.724 54.8346 115.193C54.6605 114.499 54.5181 113.839 54.5181 113.727C54.5181 113.574 54.4584 113.531 54.2806 113.556C53.9839 113.597 53.5056 114.286 51.9852 116.864C49.7071 120.727 47.5229 124.842 47.5229 125.271C47.5229 125.692 48.4049 126.248 52.2638 128.262C57.006 130.738 58.0158 131.157 58.0158 130.654ZM46.8779 124.827C47.2363 124.509 48.0732 123.112 50.3291 119.065C52.1122 115.865 53.3523 113.497 53.3523 113.29C53.3523 113.066 52.9923 113.001 52.4831 113.132C50.3352 113.686 36.1746 118.819 35.8195 119.173C35.5761 119.415 36.9189 120.276 40.3686 122.088C42.5792 123.249 46.0288 124.963 46.3234 125.047C46.4907 125.095 46.6441 125.034 46.8779 124.827Z" fill="#F2A53E"/>
<path d="M9.47131 188.012C11.2191 186.571 13.5201 183.479 13.7807 182.221C13.8165 182.048 13.891 181.88 13.9462 181.847C14.0723 181.772 14.5723 182.154 16.3092 183.654C17.9638 185.084 18.7653 185.698 18.9743 185.698C19.1768 185.698 19.4522 185.084 19.8465 183.754C20.407 181.862 21.1676 178.669 21.0988 178.496C21.0525 178.38 20.9029 178.329 20.6069 178.329C20.1322 178.329 17.0716 179.06 15.5033 179.547C14.9435 179.722 14.4188 179.864 14.3374 179.864C14.2202 179.864 14.1869 179.625 14.1776 178.713C14.1632 177.312 13.9574 175.617 13.7558 175.24C13.6742 175.088 13.5581 174.626 13.4977 174.215C13.3168 172.981 13.0812 172.314 12.871 172.439C12.7607 172.505 13.1537 174.453 13.5533 175.821C13.6355 176.103 13.7492 176.932 13.806 177.663C13.9102 179.007 13.9062 179.059 13.5037 181.698C13.2972 183.052 12.295 184.598 10.213 186.773C9.08314 187.954 8.77262 188.332 8.86206 188.418C8.89166 188.447 9.16582 188.264 9.47131 188.012ZM9.39291 186.952C10.5493 185.883 11.7749 184.4 12.235 183.512C12.8849 182.258 12.7112 182.018 12.0102 183.201C11.5763 183.934 10.4449 185.336 9.38286 186.457C8.62737 187.254 8.36497 187.643 8.58224 187.643C8.61704 187.643 8.98185 187.332 9.39291 186.952ZM7.93602 182.533C10.7863 181.825 12.6855 181.143 13.157 180.658C13.3875 180.421 13.3901 180.388 13.2944 178.938C13.1978 177.472 13.1031 176.851 12.5864 174.296C12.3739 173.245 12.3343 172.822 12.3925 172.223C12.442 171.713 12.5095 171.471 12.6024 171.471C12.8034 171.471 13.5886 172.096 15.1454 173.495C16.6551 174.852 17.7505 175.732 18.1462 175.906C18.3631 176.002 18.4302 175.983 18.5997 175.781C18.8665 175.463 19.2435 174.249 19.7473 172.085C20.3031 169.698 20.4662 168.638 20.3021 168.479C20.1182 168.302 19.1501 168.488 16.4768 169.216C13.7665 169.953 12.9768 170.103 12.6626 169.941C12.3705 169.79 12.3825 169.576 12.7194 168.923C13.463 167.482 16.188 165.583 17.8372 165.357C18.1529 165.313 18.4312 165.221 18.4554 165.15C18.5226 164.956 18.2992 164.991 16.932 165.39C15.2761 165.873 14.6171 166.226 13.6815 167.129C12.9016 167.882 12.7942 168.029 12.5037 168.733C12.2293 169.398 11.9342 169.28 10.2782 167.839C8.9164 166.654 7.68927 165.653 7.44353 165.526C7.32636 165.466 7.16555 165.44 7.08621 165.47C6.77163 165.586 5.49714 170.202 5.19437 172.321C5.15167 172.62 5.18737 172.757 5.34607 172.91C5.64148 173.196 5.89034 173.151 9.86572 172.091C10.7522 171.854 11.6107 171.676 11.7735 171.694L12.0695 171.727L12.0726 172.546C12.0776 173.471 12.1776 174.253 12.3882 175.002C12.4673 175.284 12.5884 175.882 12.6573 176.333C12.7262 176.783 12.8211 177.382 12.8682 177.663C12.9747 178.299 12.9943 179.557 12.8977 179.557C12.8584 179.557 12.2025 178.967 11.4404 178.247C9.37375 176.293 8.18996 175.394 7.84856 175.521C7.47166 175.66 6.91975 177.381 6.13187 180.872C5.71159 182.735 5.72459 182.836 6.38451 182.828C6.59598 182.825 7.29364 182.693 7.93486 182.533L7.93602 182.533ZM27.8354 171.245C29.5884 169.535 31.7305 167.008 31.7305 166.649C31.7305 166.389 31.1392 166.142 29.6992 165.801C28.5127 165.52 25.5247 165.023 25.0039 165.021C24.827 165.02 24.6312 164.985 24.5687 164.944C24.5063 164.903 24.0392 163.648 23.5307 162.156C22.4772 159.066 21.9911 157.96 21.6865 157.96C21.3953 157.96 18.3064 161.047 16.683 162.96C16.149 163.59 16.1734 163.742 16.8453 163.972C17.4017 164.163 19.2447 164.511 19.7008 164.511C19.9558 164.511 20.0981 164.572 20.1777 164.715C20.2753 164.892 20.3996 164.92 21.0712 164.92C22.5381 164.92 23.5548 165.396 24.022 166.302C24.1091 166.471 24.5246 167.576 24.9452 168.758C25.805 171.175 26.2875 172.222 26.5636 172.272C26.6838 172.293 27.1314 171.932 27.8354 171.245V171.245ZM13.3499 169.404C13.4689 169.274 13.7532 168.924 13.9819 168.627C14.5569 167.879 15.4689 167.214 16.768 166.597C17.3745 166.309 17.8274 166.047 17.7743 166.015C17.5723 165.895 16.2689 166.428 15.399 166.987C14.4043 167.627 13.7935 168.209 13.3482 168.943C13.0208 169.482 13.0218 169.763 13.3512 169.404H13.3499ZM19.0913 165.978C19.1642 165.95 19.2238 165.884 19.2238 165.833C19.2238 165.684 18.945 165.724 18.7999 165.893C18.6934 166.016 18.696 166.044 18.8135 166.038C18.8935 166.033 19.0186 166.007 19.0914 165.978L19.0913 165.978ZM21.4349 165.676C21.7775 165.444 21.571 165.261 21.1764 165.447C21.0146 165.523 20.8629 165.643 20.8392 165.713C20.7779 165.895 21.1446 165.872 21.4349 165.676V165.676ZM26.8608 164.567C27.6305 164.293 28.1383 163.982 28.8223 163.364C30.0063 162.294 30.7317 161.155 31.563 159.06C31.7808 158.511 32.0149 158.063 32.0832 158.065C32.1515 158.066 32.9467 158.719 33.8503 159.515C35.7757 161.213 37.0073 162.18 37.1752 162.128C37.2412 162.107 37.3728 161.933 37.468 161.74C37.9272 160.809 39.0523 156.278 39.0801 155.247L39.0968 154.633L38.6199 154.663C38.0033 154.7 36.5496 155.055 33.8726 155.822C32.6898 156.161 31.6565 156.423 31.5763 156.406C31.4962 156.388 30.277 155.279 28.8671 153.942C27.4572 152.605 26.2642 151.511 26.2161 151.511C26.0521 151.511 25.6984 152.039 25.4727 152.62C24.8893 154.123 23.8722 158.907 24.0912 159.119C24.2613 159.283 25.3558 159.076 28.1115 158.357C29.5229 157.989 30.5228 157.776 30.5797 157.831C30.7135 157.96 30.3064 159.193 29.8531 160.031C29.0519 161.513 27.7306 162.727 25.9558 163.614C24.8399 164.171 24.7854 164.352 25.839 164.002C26.7385 163.703 27.7066 163.153 28.3819 162.557C29.402 161.657 29.9985 160.624 30.9231 158.156C31.1544 157.538 31.3452 157.293 31.5156 157.395C31.8623 157.602 31.2999 159.332 30.3836 160.877C29.4414 162.466 28.6932 163.189 27.1158 164.038C26.0191 164.627 25.8802 164.916 26.8609 164.567L26.8608 164.567ZM34.8572 149.394C36.4936 148.301 40.1217 145.638 47.2579 140.293C50.6389 137.761 54.0253 135.241 54.7831 134.692C56.7715 133.254 57.794 132.393 57.8724 132.091C57.9246 131.891 57.8814 131.788 57.6864 131.644C56.9725 131.119 52.0311 128.436 50.1773 127.567C49.7375 127.361 49.102 127.022 48.7651 126.813C48.4282 126.604 47.6412 126.179 47.0163 125.868C46.3913 125.557 45.6654 125.174 45.4031 125.017C43.8517 124.087 35.4356 119.986 35.0776 119.986C34.4769 119.986 34.498 119.799 32.9983 138.458C32.5279 144.311 32.17 149.203 32.203 149.33C32.2841 149.642 32.6036 149.801 32.8247 149.64C33.1392 149.41 43.3288 131.402 44.9421 128.225C45.3709 127.381 45.7854 126.644 45.8631 126.588C45.9409 126.532 46.0616 126.382 46.1314 126.255C46.2012 126.128 46.3283 126.025 46.4137 126.025C46.5885 126.025 46.6211 126.24 46.4686 126.388C46.4134 126.442 46.0721 127.038 45.7101 127.714C45.3481 128.389 43.3728 131.913 41.3205 135.544C35.7007 145.487 33.4263 149.663 33.4263 150.039C33.4263 150.296 33.6778 150.182 34.8572 149.394H34.8572ZM58.0158 130.654C58.0158 129.88 55.7203 118.724 54.8346 115.193C54.6605 114.499 54.5181 113.839 54.5181 113.727C54.5181 113.574 54.4584 113.531 54.2806 113.556C53.9839 113.597 53.5056 114.286 51.9852 116.864C49.7071 120.727 47.5229 124.842 47.5229 125.271C47.5229 125.692 48.4049 126.248 52.2638 128.262C57.006 130.738 58.0158 131.157 58.0158 130.654ZM46.8779 124.827C47.2363 124.509 48.0732 123.112 50.3291 119.065C52.1122 115.865 53.3523 113.497 53.3523 113.29C53.3523 113.066 52.9923 113.001 52.4831 113.132C50.3352 113.686 36.1746 118.819 35.8195 119.173C35.5761 119.415 36.9189 120.276 40.3686 122.088C42.5792 123.249 46.0288 124.963 46.3234 125.047C46.4907 125.095 46.6441 125.034 46.8779 124.827Z" stroke="#242424" stroke-width="0.355002"/>
</g>
<path d="M56.7463 121.377L53.3227 122.754C53.3227 122.754 51.0402 123.168 54.0359 124.821C57.0316 126.474 60.4553 125.647 60.4553 125.647L59.3141 121.101L56.7463 121.377Z" fill="#242424"/>
<path d="M56.4255 125.186L53.702 125.381C53.1976 126.16 53.1976 129.375 53.1976 129.375C54.5089 131.908 45.834 131.226 49.1627 132.395C52.4915 133.564 47.3471 135.999 48.2549 137.363C49.1627 138.727 41.9 140.285 44.0183 140.285C46.1366 140.285 45.6322 142.136 45.6322 142.136L60.9647 136.097L60.4553 125.647L56.4255 125.186Z" fill="#242424"/>
<g filter="url(#filter2_d)">
<path d="M31.7137 156.418C31.7137 156.418 29.2631 155.008 31.0685 152.223C32.8738 149.439 32.8739 149.439 32.8739 149.439" stroke="#242424" stroke-width="0.407885"/>
</g>
<g filter="url(#filter3_d)">
<path d="M32.3469 156.225C32.3469 156.225 30.0794 154.995 31.7499 152.565C33.4204 150.136 33.4204 150.136 33.4204 150.136" stroke="#242424" stroke-width="0.406687"/>
</g>
</g>
<defs>
<filter id="filter0_d" x="20.5232" y="6.10352e-05" width="83.4768" height="268" filterUnits="userSpaceOnUse" color-interpolation-filters="sRGB">
<feFlood flood-opacity="0" result="BackgroundImageFix"/>
<feColorMatrix in="SourceAlpha" type="matrix" values="0 0 0 0 0 0 0 0 0 0 0 0 0 0 0 0 0 0 127 0" result="hardAlpha"/>
<feOffset dy="4"/>
<feGaussianBlur stdDeviation="2"/>
<feColorMatrix type="matrix" values="0 0 0 0 0 0 0 0 0 0 0 0 0 0 0 0 0 0 0.25 0"/>
<feBlend mode="normal" in2="BackgroundImageFix" result="effect1_dropShadow"/>
<feBlend mode="normal" in="SourceGraphic" in2="effect1_dropShadow" result="shape"/>
</filter>
<filter id="filter1_d" x="1.00024" y="112.888" width="61.193" height="83.7108" filterUnits="userSpaceOnUse" color-interpolation-filters="sRGB">
<feFlood flood-opacity="0" result="BackgroundImageFix"/>
<feColorMatrix in="SourceAlpha" type="matrix" values="0 0 0 0 0 0 0 0 0 0 0 0 0 0 0 0 0 0 127 0" result="hardAlpha"/>
<feOffset dy="4"/>
<feGaussianBlur stdDeviation="2"/>
<feColorMatrix type="matrix" values="0 0 0 0 0 0 0 0 0 0 0 0 0 0 0 0 0 0 0.25 0"/>
<feBlend mode="normal" in2="BackgroundImageFix" result="effect1_dropShadow"/>
<feBlend mode="normal" in="SourceGraphic" in2="effect1_dropShadow" result="shape"/>
</filter>
<filter id="filter2_d" x="26.2009" y="149.278" width="10.8439" height="15.3163" filterUnits="userSpaceOnUse" color-interpolation-filters="sRGB">
<feFlood flood-opacity="0" result="BackgroundImageFix"/>
<feColorMatrix in="SourceAlpha" type="matrix" values="0 0 0 0 0 0 0 0 0 0 0 0 0 0 0 0 0 0 127 0" result="hardAlpha"/>
<feOffset dy="4"/>
<feGaussianBlur stdDeviation="2"/>
<feColorMatrix type="matrix" values="0 0 0 0 0 0 0 0 0 0 0 0 0 0 0 0 0 0 0.25 0"/>
<feBlend mode="normal" in2="BackgroundImageFix" result="effect1_dropShadow"/>
<feBlend mode="normal" in="SourceGraphic" in2="effect1_dropShadow" result="shape"/>
</filter>
<filter id="filter3_d" x="26.9325" y="149.974" width="10.6554" height="14.429" filterUnits="userSpaceOnUse" color-interpolation-filters="sRGB">
<feFlood flood-opacity="0" result="BackgroundImageFix"/>
<feColorMatrix in="SourceAlpha" type="matrix" values="0 0 0 0 0 0 0 0 0 0 0 0 0 0 0 0 0 0 127 0" result="hardAlpha"/>
<feOffset dy="4"/>
<feGaussianBlur stdDeviation="2"/>
<feColorMatrix type="matrix" values="0 0 0 0 0 0 0 0 0 0 0 0 0 0 0 0 0 0 0.25 0"/>
<feBlend mode="normal" in2="BackgroundImageFix" result="effect1_dropShadow"/>
<feBlend mode="normal" in="SourceGraphic" in2="effect1_dropShadow" result="shape"/>
</filter>
<clipPath id="clip0">
<rect width="105" height="260" fill="white"/>
</clipPath>
</defs>
</svg>
