<?xml version="1.0" encoding="UTF-8" standalone="no"?>
<svg
   xmlns:dc="http://purl.org/dc/elements/1.1/"
   xmlns:cc="http://creativecommons.org/ns#"
   xmlns:rdf="http://www.w3.org/1999/02/22-rdf-syntax-ns#"
   xmlns:svg="http://www.w3.org/2000/svg"
   xmlns="http://www.w3.org/2000/svg"
   xmlns:sodipodi="http://sodipodi.sourceforge.net/DTD/sodipodi-0.dtd"
   xmlns:inkscape="http://www.inkscape.org/namespaces/inkscape"
   width="160"
   height="160"
   viewBox="0 0 160 160"
   fill="none"
   version="1.1"
   id="svg969"
   sodipodi:docname="icon-cfo-api.svg"
   inkscape:export-filename="/home/cba/src/forestobservatory.github.io/assets/software/icon-cfo-api.png"
   inkscape:export-xdpi="300"
   inkscape:export-ydpi="300"
   inkscape:version="0.92.4 (5da689c313, 2019-01-14)">
  <metadata
     id="metadata973">
    <rdf:RDF>
      <cc:Work
         rdf:about="">
        <dc:format>image/svg+xml</dc:format>
        <dc:type
           rdf:resource="http://purl.org/dc/dcmitype/StillImage" />
      </cc:Work>
    </rdf:RDF>
  </metadata>
  <sodipodi:namedview
     pagecolor="#ffffff"
     bordercolor="#666666"
     borderopacity="1"
     objecttolerance="10"
     gridtolerance="10"
     guidetolerance="10"
     inkscape:pageopacity="0"
     inkscape:pageshadow="2"
     inkscape:window-width="3840"
     inkscape:window-height="2000"
     id="namedview971"
     showgrid="false"
     inkscape:zoom="10.8"
     inkscape:cx="73.981481"
     inkscape:cy="80"
     inkscape:window-x="0"
     inkscape:window-y="80"
     inkscape:window-maximized="1"
     inkscape:current-layer="svg969" />
  <g
     clip-path="url(#clip0)"
     id="g962">
    <path
       d="M135 50C130.207 49.9988 125.515 48.6198 121.484 46.0272C117.453 43.4347 114.252 39.7379 112.262 35.3774C110.272 31.0168 109.578 26.1762 110.262 21.4322C110.946 16.6883 112.98 12.2409 116.12 8.62C99.141 0.0280714 79.6553 -2.2302 61.1613 2.2506C42.6672 6.7314 26.376 17.6578 15.2123 33.0682C4.04864 48.4786 -1.2563 67.3638 0.249885 86.3332C1.75607 105.303 9.97472 123.114 23.4304 136.57C36.886 150.025 54.6973 158.244 73.6668 159.75C92.6362 161.256 111.521 155.951 126.932 144.788C142.342 133.624 153.269 117.333 157.749 98.8388C162.23 80.3447 159.972 60.859 151.38 43.88C146.839 47.8331 141.02 50.0073 135 50V50Z"
       fill="white"
       id="path922" />
    <path
       d="M151.38 43.88C146.601 48.0042 140.438 50.1676 134.129 49.9358C127.821 49.704 121.833 47.0942 117.37 42.6303C112.906 38.1665 110.296 32.1792 110.064 25.8706C109.832 19.5621 111.996 13.3994 116.12 8.62C102.392 1.66796 86.9503 -1.17739 71.6461 0.425065C56.3418 2.02752 41.8245 8.00976 29.8343 17.6547C17.8442 27.2995 8.89007 40.1978 4.04539 54.8032C-0.79929 69.4085 -1.32894 85.1012 2.51994 100C11.6782 88.1668 23.4246 78.588 36.8584 71.9978C50.2922 65.4077 65.0567 61.9812 80.0199 61.9812C94.9832 61.9812 109.748 65.4077 123.181 71.9978C136.615 78.588 148.362 88.1668 157.52 100C162.354 81.1755 160.186 61.2359 151.42 43.89L151.38 43.88Z"
       fill="#FDD37D"
       id="path924" />
    <path
       d="M80 62C65.0394 61.9873 50.2752 65.4064 36.8431 71.9941C23.411 78.5819 11.6689 88.1629 2.52002 100C6.80879 116.522 16.2697 131.239 29.52 142C44.769 132.831 62.2267 127.987 80.02 127.987C97.8134 127.987 115.271 132.831 130.52 142C143.77 131.239 153.231 116.522 157.52 100C148.367 88.1575 136.619 78.5733 123.179 71.9853C109.739 65.3973 94.9674 61.9812 80 62V62Z"
       fill="#F2A640"
       id="path926" />
    <path
       d="M152 24C151.994 20.7705 151.011 17.6184 149.18 14.9581C147.349 12.2979 144.756 10.254 141.741 9.09514C138.727 7.93632 135.432 7.71684 132.291 8.46556C129.149 9.21427 126.308 10.8961 124.14 13.29C127.362 15.4311 130.427 17.8005 133.31 20.38C132.739 21.2563 132.486 22.3023 132.595 23.3427C132.703 24.383 133.166 25.3544 133.906 26.094C134.646 26.8336 135.617 27.2965 136.657 27.405C137.698 27.5135 138.744 27.2611 139.62 26.69C142.199 29.5732 144.569 32.6378 146.71 35.86C148.372 34.3627 149.701 32.5337 150.612 30.4908C151.523 28.448 151.996 26.2368 152 24Z"
       fill="#134F3A"
       id="path928" />
    <path
       d="M35.148 125.427C36.8905 126.869 39.0314 127.617 41.2155 127.545C42.589 127.529 43.9556 127.33 45.2847 126.95C45.4554 126.904 45.6174 126.825 45.7638 126.719C48.7033 124.248 51.0707 121.056 52.6751 117.4H72.2406C73.1683 119.169 73.8192 121.095 74.1662 123.098C73.3324 123.469 72.5388 123.939 71.8001 124.502C71.1173 125.062 70.9789 126.122 71.491 126.869C72.0032 127.616 72.9719 127.768 73.6547 127.207C77.3767 124.6 82.1534 124.638 85.8406 127.304C86.5706 127.764 87.5033 127.5 87.9373 126.71C88.3713 125.919 88.1468 124.894 87.4324 124.405C84.3912 122.283 80.7376 121.474 77.1814 122.134C76.8762 120.496 76.3845 118.905 75.7179 117.4H78.9092C91.514 117.4 108.108 105.425 109.806 90.5551C110.743 83.5462 109.87 76.3901 107.285 69.8956C109.825 69.5165 112.343 68.9882 114.83 68.3129C115.37 68.1648 115.796 67.7105 115.944 67.1237C116.092 66.5368 115.941 65.9079 115.547 65.4772C113.981 63.9526 112.319 62.5481 110.576 61.2736C112.183 59.0755 114.093 55.9405 114.195 55.7748C114.512 55.2559 114.541 54.5886 114.272 54.0386C114.003 53.4887 113.479 53.1454 112.909 53.1454C110.975 53.1439 109.049 53.4225 107.182 53.974C106.014 48.58 102.477 43 92.8184 43C85.6675 43 80.6479 47.2188 77.4735 55.9016C76.1985 59.389 74.4636 62.6533 72.324 65.5905C60.8274 68.4515 51.8498 81.436 44.9818 105.056C44.8106 105.653 44.9564 106.305 45.3604 106.747C45.0513 107.424 44.7623 108.1 44.4749 108.776C39.9809 109.508 35.6593 111.187 31.7495 113.719C31.2846 114.024 31.0001 114.574 31 115.168C31 115.442 31.0464 121.925 35.148 125.427ZM107.415 63.0068C108.151 63.5428 109.661 64.6774 111.022 65.7833C109.228 66.2215 107.407 66.5188 105.573 66.6727C104.235 65.7907 103.097 64.5874 102.246 63.1539C102.933 61.0767 104.202 59.2901 105.873 58.0491C107.118 57.4461 108.432 57.0303 109.78 56.813C108.985 58.0731 108.117 59.2756 107.18 60.413C106.853 60.7711 106.69 61.2709 106.735 61.7749C106.781 62.279 107.03 62.7342 107.415 63.0153V63.0068ZM80.345 57.1563C83.0681 49.7044 86.9147 46.3818 92.8184 46.3818C99.3788 46.3818 103.097 49.2902 104.225 55.1745C100.788 57.2746 99.1486 62.5215 99.079 62.7498C98.9495 63.175 98.9795 63.639 99.1625 64.04C100.245 66.2655 101.851 68.1338 103.816 69.4509C103.947 69.9057 104.139 70.4231 104.391 71.0843C106.81 77.0617 107.625 83.6689 106.74 90.134C105.27 102.997 90.2096 114.018 78.9092 114.018H45.6819C46.5164 111.918 47.4993 109.622 48.541 107.315C49.2581 107.332 50.02 107.342 50.8406 107.342C60.9618 107.342 78.2864 105.841 87.2238 96.4158C90.8776 92.6542 92.9094 87.3791 92.8184 81.8909C92.8089 72.5565 85.8952 64.9921 77.3638 64.9818C77.0779 64.9818 76.8012 65.0207 76.5184 65.0325C78.0546 62.5689 79.3378 59.9276 80.345 57.1563ZM67.4373 71.4072C70.4288 69.417 73.8626 68.3642 77.3638 68.3636C84.1889 68.3721 89.7198 74.4234 89.7275 81.8909C89.8219 86.235 88.2919 90.4331 85.4914 93.5142C82.2473 93.0545 79.1926 91.5835 76.6915 89.2768C74.2432 86.9845 72.2358 84.1824 70.7863 81.0336C69.3427 77.9728 68.2192 74.7436 67.4373 71.4072ZM75.8183 92.8158C77.8047 94.409 80.0437 95.5855 82.4221 96.2856C77.3143 100.095 70.2763 102.068 63.6633 103.049C68.0321 100.114 72.1062 96.6843 75.8183 92.8158ZM64.7405 73.4363C65.4453 76.1607 66.3626 78.8139 67.4821 81.3667C62.9196 85.3918 58.0145 88.9285 52.8342 91.9281C56.3656 83.4634 60.3205 77.3254 64.7405 73.4363ZM51.0261 96.6018C57.4563 93.3642 63.4913 89.2595 68.9905 84.3833C70.2206 86.6718 71.7248 88.7702 73.463 90.6227C68.2685 95.9729 62.3555 100.421 55.9298 103.812C53.0243 103.971 50.462 103.981 48.5641 103.944C49.3585 101.336 50.1822 98.9031 51.0261 96.5899V96.6018ZM42.917 112.513L42.8506 112.682C42.44 113.727 42.5369 114.928 43.1086 115.878C43.6802 116.828 44.6501 117.4 45.6896 117.4H49.1282C47.8627 119.82 46.2095 121.97 44.2477 123.749C41.1691 124.536 38.7489 124.206 37.0613 122.772C35.3493 121.037 34.3092 118.651 34.1543 116.103C36.8974 114.44 39.8503 113.23 42.917 112.513Z"
       fill="#134F3A"
       id="path930" />
    <path
       d="M45.8169 113.803C45.898 113.524 46.9735 110.962 47.7781 109.131L48.5483 107.379L51.3544 107.36C57.9761 107.314 63.761 106.724 68.9255 105.567C77.7517 103.592 84.003 100.292 88.1626 95.4142C90.5331 92.6342 92.1491 88.8789 92.689 84.8956C92.867 83.5818 92.8677 80.721 92.6903 79.4717C91.8859 73.8104 88.7726 69.1592 84.1186 66.666C82.0411 65.5531 79.697 64.9559 77.4062 64.9559C76.9984 64.9559 76.6648 64.9394 76.6648 64.919C76.6648 64.8986 76.8849 64.5036 77.154 64.041C78.2292 62.1927 79.3008 59.9628 80.0525 58.0101C80.8791 55.8626 81.3131 54.8276 81.7379 53.991C84.0102 49.5158 86.8448 47.1833 90.7526 46.5732C91.6792 46.4285 93.9829 46.4091 94.9963 46.5375C97.9245 46.9084 100.013 47.8824 101.598 49.6168C102.601 50.7148 103.326 52.0307 103.792 53.6008C103.977 54.2257 104.205 55.1496 104.177 55.1611C104.027 55.2229 103.229 55.8563 102.844 56.2191C101.785 57.2161 100.648 58.9272 99.8261 60.7579C98.8807 62.8647 98.8056 63.3726 99.2948 64.3503C99.8364 65.4326 100.499 66.3741 101.45 67.4147C102.203 68.2369 103.379 69.2886 103.692 69.4178C103.757 69.4449 104.831 72.2964 105.244 73.5405C106.961 78.7101 107.465 84.7876 106.652 90.5125C106.153 94.0294 104.658 97.5479 102.283 100.794C97.7039 107.052 90.3723 111.929 83.1914 113.494C80.9411 113.984 81.7066 113.966 62.8955 113.966H45.7697L45.8169 113.803ZM92.009 58.0261C92.5158 57.7365 92.7624 57.3053 92.848 56.5593C92.9431 55.7308 93.2246 55.2722 93.7992 55.0096C94.6918 54.6016 95.8522 55.3694 95.8522 56.3679C95.8522 56.8229 96.0078 57.2962 96.2658 57.6259C97.018 58.5874 98.3211 58.4085 98.8683 57.2687C98.9856 57.0242 99.0164 56.8268 99.0102 56.3589C98.9926 55.035 98.5515 53.9341 97.638 52.9346C96.6791 51.8855 95.7292 51.458 94.3515 51.4557C93.5242 51.4543 93.0103 51.5887 92.2168 52.0138C90.7441 52.8028 89.7144 54.6126 89.7195 56.4032C89.7213 57.081 89.8771 57.4944 90.2615 57.8423C90.7724 58.3046 91.4053 58.3712 92.009 58.0261Z"
       fill="#134F3A"
       id="path932" />
    <path
       d="M84.2613 93.2466C82.2416 92.7717 80.5563 92.0457 78.8708 90.9245C77.4653 89.9895 76.5277 89.1489 75.0945 87.5391C72.6799 84.827 71.0288 81.9526 69.3395 77.5205C68.8566 76.2533 67.9569 73.3885 67.6543 72.1542L67.4771 71.4313L67.9517 71.1296C70.3538 69.6026 73.1787 68.6832 76.1831 68.4507C79.1963 68.2175 81.8117 68.9488 84.19 70.6897C86.4595 72.3509 88.1419 74.741 89.0291 77.5643C89.6861 79.6551 89.8626 82.1184 89.532 84.5833C89.1197 87.6575 87.7799 90.7665 85.9401 92.9183C85.4181 93.5289 85.442 93.5243 84.2613 93.2466Z"
       fill="#134F3A"
       id="path934" />
    <path
       d="M104.976 66.1888C104.272 65.6482 103.203 64.5129 102.692 63.7629C102.23 63.0864 102.236 63.1993 102.623 62.2643C103.002 61.3496 103.744 60.2147 104.514 59.369C105.397 58.4013 105.802 58.1027 106.778 57.7001C107.885 57.2442 109.619 56.7956 109.619 56.9654C109.619 57.0575 108.198 59.0697 107.586 59.844C106.858 60.7653 106.766 60.9383 106.715 61.4824C106.661 62.0551 106.92 62.6743 107.349 62.9997C107.519 63.1281 108.139 63.5967 108.728 64.0411C109.317 64.4856 110.055 65.0561 110.367 65.309L110.936 65.7689L110.652 65.8336C109.075 66.1929 106.533 66.5947 105.836 66.5947C105.551 66.5947 105.429 66.5369 104.976 66.1888Z"
       fill="#134F3A"
       id="path936" />
    <path
       d="M48.6325 103.882C48.6325 103.703 50.7988 97.1886 50.9916 96.7881C51.025 96.7189 52.0244 96.1326 53.2127 95.4852C58.6433 92.5266 63.0661 89.4846 67.8461 85.4204C68.4685 84.8912 68.9849 84.4688 68.9938 84.4817C69.0027 84.4947 69.214 84.8565 69.4634 85.2857C70.3828 86.8676 71.5844 88.5443 72.8017 89.9438L73.4004 90.6322L72.9106 91.1282C68.2844 95.8127 62.415 100.254 56.9425 103.213L55.7873 103.837L52.2099 103.88C50.2424 103.903 48.6325 103.904 48.6325 103.882Z"
       fill="#134F3A"
       id="path938" />
    <path
       d="M53.335 90.8462C56.0414 84.5875 59.011 79.6413 62.2191 76.049C63.2177 74.9309 64.6601 73.4816 64.7069 73.5495C64.7182 73.5659 64.9751 74.4047 65.2777 75.4134C65.8238 77.2341 66.4222 78.9309 67.0598 80.4671C67.2425 80.9073 67.392 81.2974 67.392 81.3339C67.392 81.4454 64.8663 83.5713 63.0053 85.0263C61.6626 86.0761 58.7216 88.1777 57.1563 89.2059C55.797 90.0989 53.0446 91.8022 52.9611 91.8022C52.9394 91.8022 53.1076 91.372 53.335 90.8462Z"
       fill="#134F3A"
       id="path940" />
    <path
       d="M64.2891 102.672C65.2002 102.062 67.7659 100.145 68.8542 99.2606C71.0241 97.4972 73.0433 95.674 74.9035 93.7984L75.8172 92.8772L76.5084 93.3792C78.0517 94.5 79.5433 95.2984 81.2816 95.9339L82.3235 96.3149L81.8301 96.6639C78.2821 99.1734 72.9753 101.243 67.1066 102.407C65.761 102.673 64.1154 102.963 63.9638 102.96C63.9074 102.959 64.0538 102.829 64.2891 102.672Z"
       fill="#134F3A"
       id="path942" />
    <path
       d="M39.7597 123.986C38.0702 123.652 36.9039 122.823 35.868 121.217C34.9665 119.82 34.2241 117.639 34.2241 116.387V116.094L35.1335 115.583C37.2058 114.419 40.0601 113.261 42.1059 112.756C42.3805 112.688 42.6607 112.614 42.7284 112.592C42.8436 112.555 42.8444 112.574 42.7406 112.888C42.4707 113.706 42.5491 114.796 42.9378 115.63C43.2606 116.322 43.9698 116.971 44.6953 117.239C45.0956 117.386 45.3004 117.4 47.0985 117.4H49.0642L48.9446 117.654C48.7562 118.053 47.9164 119.397 47.3475 120.209C47.0618 120.617 46.2616 121.57 45.5692 122.326C44.3577 123.65 44.2956 123.705 43.9214 123.794C42.5621 124.115 40.8186 124.196 39.7597 123.986Z"
       fill="#134F3A"
       id="path944" />
    <path
       d="M35.148 125.427C36.8905 126.869 39.0314 127.617 41.2155 127.545C42.589 127.529 43.9556 127.33 45.2847 126.95C45.4554 126.904 45.6174 126.825 45.7638 126.719C48.7033 124.248 51.0707 121.056 52.6751 117.4H72.2406C73.1683 119.169 73.8192 121.095 74.1662 123.098C73.3324 123.469 72.5388 123.939 71.8001 124.502C71.1173 125.062 70.9789 126.122 71.491 126.869C72.0032 127.616 72.9719 127.768 73.6547 127.207C77.3767 124.6 82.1534 124.638 85.8406 127.304C86.5706 127.764 87.5033 127.5 87.9373 126.71C88.3713 125.919 88.1468 124.894 87.4324 124.405C84.3912 122.283 80.7376 121.474 77.1814 122.134C76.8762 120.496 76.3845 118.905 75.7179 117.4H78.9092C91.514 117.4 108.108 105.425 109.806 90.5551C110.743 83.5462 109.87 76.3901 107.285 69.8956C109.825 69.5165 112.343 68.9882 114.83 68.3129C115.37 68.1648 115.796 67.7105 115.944 67.1237C116.092 66.5368 115.941 65.9079 115.547 65.4772C113.981 63.9526 112.319 62.5481 110.576 61.2736C112.183 59.0755 114.093 55.9405 114.195 55.7748C114.512 55.2559 114.541 54.5886 114.272 54.0386C114.003 53.4887 113.479 53.1454 112.909 53.1454C110.975 53.1439 109.049 53.4225 107.182 53.974C106.014 48.58 102.477 43 92.8184 43C85.6675 43 80.6479 47.2188 77.4735 55.9016C76.1985 59.389 74.4636 62.6533 72.324 65.5905C60.8274 68.4515 51.8498 81.436 44.9818 105.056C44.8106 105.653 44.9564 106.305 45.3604 106.747C45.0513 107.424 44.7623 108.1 44.4749 108.776C39.9809 109.508 35.6593 111.187 31.7495 113.719C31.2846 114.024 31.0001 114.574 31 115.168C31 115.442 31.0464 121.925 35.148 125.427ZM107.415 63.0068C108.151 63.5428 109.661 64.6774 111.022 65.7833C109.228 66.2215 107.407 66.5188 105.573 66.6727C104.235 65.7907 103.097 64.5874 102.246 63.1539C102.933 61.0767 104.202 59.2901 105.873 58.0491C107.118 57.4461 108.432 57.0303 109.78 56.813C108.985 58.0731 108.117 59.2756 107.18 60.413C106.853 60.7711 106.69 61.2709 106.735 61.7749C106.781 62.279 107.03 62.7342 107.415 63.0153V63.0068ZM80.345 57.1563C83.0681 49.7044 86.9147 46.3818 92.8184 46.3818C99.3788 46.3818 103.097 49.2902 104.225 55.1745C100.788 57.2746 99.1486 62.5215 99.079 62.7498C98.9495 63.175 98.9795 63.639 99.1625 64.04C100.245 66.2655 101.851 68.1338 103.816 69.4509C103.947 69.9057 104.139 70.4231 104.391 71.0843C106.81 77.0617 107.625 83.6689 106.74 90.134C105.27 102.997 90.2096 114.018 78.9092 114.018H45.6819C46.5164 111.918 47.4993 109.622 48.541 107.315C49.2581 107.332 50.02 107.342 50.8406 107.342C60.9618 107.342 78.2864 105.841 87.2238 96.4158C90.8776 92.6542 92.9094 87.3791 92.8184 81.8909C92.8089 72.5565 85.8952 64.9921 77.3638 64.9818C77.0779 64.9818 76.8012 65.0207 76.5184 65.0325C78.0546 62.5689 79.3378 59.9276 80.345 57.1563ZM67.4373 71.4072C70.4288 69.417 73.8626 68.3642 77.3638 68.3636C84.1889 68.3721 89.7198 74.4234 89.7275 81.8909C89.8219 86.235 88.2919 90.4331 85.4914 93.5142C82.2473 93.0545 79.1926 91.5835 76.6915 89.2768C74.2432 86.9845 72.2358 84.1824 70.7863 81.0336C69.3427 77.9728 68.2192 74.7436 67.4373 71.4072ZM75.8183 92.8158C77.8047 94.409 80.0437 95.5855 82.4221 96.2856C77.3143 100.095 70.2763 102.068 63.6633 103.049C68.0321 100.114 72.1062 96.6843 75.8183 92.8158ZM64.7405 73.4363C65.4453 76.1607 66.3626 78.8139 67.4821 81.3667C62.9196 85.3918 58.0145 88.9285 52.8342 91.9281C56.3656 83.4634 60.3205 77.3254 64.7405 73.4363ZM51.0261 96.6018C57.4563 93.3642 63.4913 89.2595 68.9905 84.3833C70.2206 86.6718 71.7248 88.7702 73.463 90.6227C68.2685 95.9729 62.3555 100.421 55.9298 103.812C53.0243 103.971 50.462 103.981 48.5641 103.944C49.3585 101.336 50.1822 98.9031 51.0261 96.5899V96.6018ZM42.917 112.513L42.8506 112.682C42.44 113.727 42.5369 114.928 43.1086 115.878C43.6802 116.828 44.6501 117.4 45.6896 117.4H49.1282C47.8627 119.82 46.2095 121.97 44.2477 123.749C41.1691 124.536 38.7489 124.206 37.0613 122.772C35.3493 121.037 34.3092 118.651 34.1543 116.103C36.8974 114.44 39.8503 113.23 42.917 112.513Z"
       stroke="#134F3A"
       id="path946" />
    <path
       d="M45.8169 113.803C45.898 113.524 46.9735 110.962 47.7781 109.131L48.5483 107.379L51.3544 107.36C57.9761 107.314 63.761 106.724 68.9255 105.567C77.7517 103.592 84.003 100.292 88.1626 95.4142C90.5331 92.6342 92.1491 88.8789 92.689 84.8956C92.867 83.5818 92.8677 80.721 92.6903 79.4717C91.8859 73.8104 88.7726 69.1592 84.1186 66.666C82.0411 65.5531 79.697 64.9559 77.4062 64.9559C76.9984 64.9559 76.6648 64.9394 76.6648 64.919C76.6648 64.8986 76.8849 64.5036 77.154 64.041C78.2292 62.1927 79.3008 59.9628 80.0525 58.0101C80.8791 55.8626 81.3131 54.8276 81.7379 53.991C84.0102 49.5158 86.8448 47.1833 90.7526 46.5732C91.6792 46.4285 93.9829 46.4091 94.9963 46.5375C97.9245 46.9084 100.013 47.8824 101.598 49.6168C102.601 50.7148 103.326 52.0307 103.792 53.6008C103.977 54.2257 104.205 55.1496 104.177 55.1611C104.027 55.2229 103.229 55.8563 102.844 56.2191C101.785 57.2161 100.648 58.9272 99.8261 60.7579C98.8807 62.8647 98.8056 63.3726 99.2948 64.3503C99.8364 65.4326 100.499 66.3741 101.45 67.4147C102.203 68.2369 103.379 69.2886 103.692 69.4178C103.757 69.4449 104.831 72.2964 105.244 73.5405C106.961 78.7101 107.465 84.7876 106.652 90.5125C106.153 94.0294 104.658 97.5479 102.283 100.794C97.7039 107.052 90.3723 111.929 83.1914 113.494C80.9411 113.984 81.7066 113.966 62.8955 113.966H45.7697L45.8169 113.803ZM92.009 58.0261C92.5158 57.7365 92.7624 57.3053 92.848 56.5593C92.9431 55.7308 93.2246 55.2722 93.7992 55.0096C94.6918 54.6016 95.8522 55.3694 95.8522 56.3679C95.8522 56.8229 96.0078 57.2962 96.2658 57.6259C97.018 58.5874 98.3211 58.4085 98.8683 57.2687C98.9856 57.0242 99.0164 56.8268 99.0102 56.3589C98.9926 55.035 98.5515 53.9341 97.638 52.9346C96.6791 51.8855 95.7292 51.458 94.3515 51.4557C93.5242 51.4543 93.0103 51.5887 92.2168 52.0138C90.7441 52.8028 89.7144 54.6126 89.7195 56.4032C89.7213 57.081 89.8771 57.4944 90.2615 57.8423C90.7724 58.3046 91.4053 58.3712 92.009 58.0261Z"
       stroke="#134F3A"
       id="path948" />
    <path
       d="M84.2613 93.2466C82.2416 92.7717 80.5563 92.0457 78.8708 90.9245C77.4653 89.9895 76.5277 89.1489 75.0945 87.5391C72.6799 84.827 71.0288 81.9526 69.3395 77.5205C68.8566 76.2533 67.9569 73.3885 67.6543 72.1542L67.4771 71.4313L67.9517 71.1296C70.3538 69.6026 73.1787 68.6832 76.1831 68.4507C79.1963 68.2175 81.8117 68.9488 84.19 70.6897C86.4595 72.3509 88.1419 74.741 89.0291 77.5643C89.6861 79.6551 89.8626 82.1184 89.532 84.5833C89.1197 87.6575 87.7799 90.7665 85.9401 92.9183C85.4181 93.5289 85.442 93.5243 84.2613 93.2466Z"
       stroke="#134F3A"
       id="path950" />
    <path
       d="M104.976 66.1888C104.272 65.6482 103.203 64.5129 102.692 63.7629C102.23 63.0864 102.236 63.1993 102.623 62.2643C103.002 61.3496 103.744 60.2147 104.514 59.369C105.397 58.4013 105.802 58.1027 106.778 57.7001C107.885 57.2442 109.619 56.7956 109.619 56.9654C109.619 57.0575 108.198 59.0697 107.586 59.844C106.858 60.7653 106.766 60.9383 106.715 61.4824C106.661 62.0551 106.92 62.6743 107.349 62.9997C107.519 63.1281 108.139 63.5967 108.728 64.0411C109.317 64.4856 110.055 65.0561 110.367 65.309L110.936 65.7689L110.652 65.8336C109.075 66.1929 106.533 66.5947 105.836 66.5947C105.551 66.5947 105.429 66.5369 104.976 66.1888Z"
       stroke="#134F3A"
       id="path952" />
    <path
       d="M48.6325 103.882C48.6325 103.703 50.7988 97.1886 50.9916 96.7881C51.025 96.7189 52.0244 96.1326 53.2127 95.4852C58.6433 92.5266 63.0661 89.4846 67.8461 85.4204C68.4685 84.8912 68.9849 84.4688 68.9938 84.4817C69.0027 84.4947 69.214 84.8565 69.4634 85.2857C70.3828 86.8676 71.5844 88.5443 72.8017 89.9438L73.4004 90.6322L72.9106 91.1282C68.2844 95.8127 62.415 100.254 56.9425 103.213L55.7873 103.837L52.2099 103.88C50.2424 103.903 48.6325 103.904 48.6325 103.882Z"
       stroke="#134F3A"
       id="path954" />
    <path
       d="M53.335 90.8462C56.0414 84.5875 59.011 79.6413 62.2191 76.049C63.2177 74.9309 64.6601 73.4816 64.7069 73.5495C64.7182 73.5659 64.9751 74.4047 65.2777 75.4134C65.8238 77.2341 66.4222 78.9309 67.0598 80.4671C67.2425 80.9073 67.392 81.2974 67.392 81.3339C67.392 81.4454 64.8663 83.5713 63.0053 85.0263C61.6626 86.0761 58.7216 88.1777 57.1563 89.2059C55.797 90.0989 53.0446 91.8022 52.9611 91.8022C52.9394 91.8022 53.1076 91.372 53.335 90.8462Z"
       stroke="#134F3A"
       id="path956" />
    <path
       d="M64.2891 102.672C65.2002 102.062 67.7659 100.145 68.8542 99.2606C71.0241 97.4972 73.0433 95.674 74.9035 93.7984L75.8172 92.8772L76.5084 93.3792C78.0517 94.5 79.5433 95.2984 81.2816 95.9339L82.3235 96.3149L81.8301 96.6639C78.2821 99.1734 72.9753 101.243 67.1066 102.407C65.761 102.673 64.1154 102.963 63.9638 102.96C63.9074 102.959 64.0538 102.829 64.2891 102.672Z"
       stroke="#134F3A"
       id="path958" />
    <path
       d="M39.7597 123.986C38.0702 123.652 36.9039 122.823 35.868 121.217C34.9665 119.82 34.2241 117.639 34.2241 116.387V116.094L35.1335 115.583C37.2058 114.419 40.0601 113.261 42.1059 112.756C42.3805 112.688 42.6607 112.614 42.7284 112.592C42.8436 112.555 42.8444 112.574 42.7406 112.888C42.4707 113.706 42.5491 114.796 42.9378 115.63C43.2606 116.322 43.9698 116.971 44.6953 117.239C45.0956 117.386 45.3004 117.4 47.0985 117.4H49.0642L48.9446 117.654C48.7562 118.053 47.9164 119.397 47.3475 120.209C47.0618 120.617 46.2616 121.57 45.5692 122.326C44.3577 123.65 44.2956 123.705 43.9214 123.794C42.5621 124.115 40.8186 124.196 39.7597 123.986Z"
       stroke="#134F3A"
       id="path960" />
  </g>
  <defs
     id="defs967">
    <clipPath
       id="clip0">
      <rect
         width="160"
         height="160"
         fill="white"
         id="rect964" />
    </clipPath>
  </defs>
</svg>
